<?xml version="1.0" encoding="utf-8"?>
<!-- Generator: Adobe Illustrator 21.1.0, SVG Export Plug-In . SVG Version: 6.00 Build 0)  -->
<svg version="1.1" xmlns="http://www.w3.org/2000/svg" xmlns:xlink="http://www.w3.org/1999/xlink" x="0px" y="0px"
	 viewBox="0 0 1921.6999512 1082.6999512" style="enable-background:new 0 0 1921.6999512 1082.6999512;" xml:space="preserve">
<style type="text/css">
	.st0{fill:none;stroke:#152618;stroke-width:2;stroke-linecap:round;stroke-linejoin:round;stroke-miterlimit:10;}
	.st1{fill:#965155;}
	.st2{fill:#E59C9C;}
	.st3{fill:#302914;stroke:#302914;stroke-linecap:round;stroke-linejoin:round;stroke-miterlimit:10;}
	.st4{fill:#E08283;}
	.st5{fill:#D64541;}
	.st6{fill:#BC6C86;}
	.st7{fill:#AA2D2D;}
</style>
<g id="Layer_1">
	<line class="st0" x1="275.5502014" y1="1082.6999512" x2="275.7575378" y2="525.8681641"/>
	<g>
		<g>
			<line class="st1" x1="275.5502014" y1="355.3181458" x2="275.5502014" y2="525.8504639"/>
			<path class="st1" d="M278.7501831,355.3181458l0.8995667,0.6661377l0.8204651,0.6661377l1.6336975,1.3322754
				c1.0220032,0.8881836,2.0231628,1.7763672,2.9386902,2.6646118c1.8869019,1.7763672,3.5404358,3.5527344,5.1350708,5.3291016
				c3.1068115,3.5527344,5.7801819,7.1055298,8.0040894,10.6582642c4.4936829,7.1055298,7.4812927,14.2110596,9.3684387,21.3165283
				c0.9237976,3.5527954,1.4244385,7.1055298,1.3573914,10.6583252c-0.053772,3.5527344-0.6951294,7.1054688-1.6773987,10.6582642
				c-0.9893494,3.5527344-2.2386169,7.1054688-3.3463135,10.6582642c-1.1055603,3.5527344-2.0667725,7.1055298-2.7336731,10.6582642
				c-1.3793335,7.1055298-2.6997986,14.2109985-4.3200073,21.3165283
				c-1.5797729,7.1055298-3.4593201,14.2110596-5.2799988,21.3165283l-2.8871765,10.6583252
				c-1.0213013,3.5527344-1.9852295,7.1054688-3.0666809,10.6582642c-2.1015015,7.1055298-4.3153992,14.210968-6.8461609,21.3164978
				c-0.6294556,1.767334-2.5724182,2.6896973-4.3397217,2.0602417c-0.9945068-0.354187-1.7268066-1.1395264-2.0602722-2.0602417
				c-2.5307312-7.1055298-4.7446289-14.210968-6.8461609-21.3164978c-1.0814514-3.5527954-2.0453796-7.1055298-3.0666809-10.6582642
				l-2.887146-10.6583252c-1.8207092-7.1054688-3.7002258-14.2109985-5.2799988-21.3165283
				c-1.6202393-7.1055298-2.9407043-14.2109985-4.3200073-21.3165283
				c-0.6669312-3.5527344-1.6281433-7.1055298-2.7337036-10.6582642c-1.1076965-3.5527954-2.3569641-7.1055298-3.3463135-10.6582642
				c-0.9822388-3.5527954-1.6236267-7.1055298-1.6773987-10.6582642c-0.0670471-3.5527954,0.4335938-7.1055298,1.3574219-10.6583252
				c1.887146-7.1054688,4.8747559-14.2109985,9.3684387-21.3165283c2.223877-3.5527344,4.8972778-7.1055298,8.0040894-10.6582642
				c1.594635-1.7763672,3.2481689-3.5527344,5.1350708-5.3291016c0.9154968-0.8882446,1.9166565-1.7764282,2.9386597-2.6646118
				l1.6336975-1.3322754l0.8204956-0.6661377l0.8995361-0.6661377
				C274.2962646,353.8770447,276.8991394,353.9500427,278.7501831,355.3181458z"/>
		</g>
		<g>
			<line class="st1" x1="127.8648376" y1="440.5843201" x2="275.5502014" y2="525.8504639"/>
			<path class="st1" d="M129.4648438,437.8130188l1.0266724-0.4459229l0.9871216-0.3775024l1.9706421-0.7486572
				c1.2802124-0.44104,2.5499725-0.8639526,3.7769318-1.2127075c2.481842-0.7459106,4.8470001-1.2897339,7.1826935-1.7825317
				c4.630188-0.9141846,9.0436707-1.453064,13.2323914-1.6026001c8.4003906-0.3389282,16.04776,0.6265259,23.1448822,2.5449829
				c3.538681,0.9763184,6.8657837,2.3190918,9.9090271,4.1535645c3.0499115,1.822937,5.8059998,4.1547852,8.3916473,6.7817993
				c2.5821075,2.6331787,5.0342407,5.4914551,7.5571747,8.2271118c2.5240021,2.7338257,5.1201782,5.3426514,7.8634949,7.6965942
				c5.4638977,4.7472534,10.9572296,9.4436035,16.3006744,14.3995361
				c5.3636475,4.9208374,10.5774536,10.1013184,15.8206482,15.230835l7.7867737,7.8295288
				c2.5661316,2.6608276,5.1609192,5.2719727,7.696991,7.9849243c5.1027832,5.3727417,10.1494141,10.8427429,15.0375671,16.5871887
				c1.2158203,1.428772,1.0431824,3.5726929-0.3856201,4.7884521c-0.8039856,0.6842041-1.8502808,0.9257202-2.8143616,0.7541504
				c-7.4189453-1.361084-14.6794434-2.996582-21.8837585-4.7293701c-3.6174927-0.8397827-7.176239-1.7813721-10.7636719-2.6732788
				l-10.6739197-2.8287964c-7.0639038-1.9760132-14.1572113-3.901001-21.1006622-6.0856323
				c-6.9636688-2.1495667-13.7774506-4.5588074-20.6206665-6.9170227
				c-3.4102478-1.1987915-6.9676208-2.1427612-10.5971832-2.9616699c-3.6306305-0.8171387-7.3320312-1.5115967-10.9034882-2.4311523
				c-3.5679016-0.9257202-6.9653778-2.1466675-10.0690308-3.8764648c-3.1103058-1.7183228-5.9367676-3.9282837-8.5516357-6.5046997
				c-5.2099762-5.1870728-9.8697357-11.3271484-13.7764435-18.7716064
				c-1.9648438-3.7022705-3.7049255-7.7938843-5.2282867-12.2608643c-0.7410889-2.269165-1.4526978-4.5893555-2.0476456-7.1116333
				c-0.3114319-1.2369995-0.5800629-2.5480957-0.8382416-3.8772583l-0.3369446-2.0809937l-0.1666565-1.0436401l-0.127121-1.1120605
				C125.98983,440.9496765,127.3544846,438.7320251,129.4648438,437.8130188z"/>
		</g>
		<g>
			<line class="st1" x1="127.8648376" y1="611.1166382" x2="275.5502014" y2="525.8504639"/>
			<path class="st1" d="M126.2648392,608.3453369l0.127121-1.1120605l0.1666565-1.0436401l0.3369446-2.0809937
				c0.2581787-1.3291626,0.5268097-2.6402588,0.8382416-3.8772583c0.5949478-2.5222778,1.3065567-4.8424683,2.0476456-7.1116333
				c1.5233612-4.46698,3.263443-8.5585938,5.2282867-12.2608643c3.9067078-7.444458,8.5664673-13.5845337,13.7764435-18.7716064
				c2.6148682-2.576416,5.44133-4.786377,8.5516357-6.5046997c3.103653-1.7297974,6.5011292-2.9507446,10.0690308-3.8764648
				c3.5714569-0.9195557,7.2728577-1.6140137,10.9034882-2.4311523c3.6295624-0.8189087,7.1869354-1.7628784,10.5971832-2.9616699
				c6.8432159-2.3582153,13.6569977-4.7674561,20.6206665-6.9170532c6.9434509-2.1846313,14.0367584-4.1096191,21.1006622-6.0856323
				l10.6739197-2.8287964c3.5874329-0.8919067,7.1461792-1.8334961,10.7636719-2.6732788
				c7.2043152-1.7327881,14.4648132-3.3682861,21.8837585-4.7293701c1.8452759-0.338501,3.6155701,0.8829346,3.9541016,2.7282104
				c0.1904907,1.0383301-0.1234741,2.0652466-0.7541199,2.8143921c-4.8881531,5.7444458-9.9347839,11.2144775-15.0375671,16.5872192
				c-2.5360718,2.7129517-5.1308594,5.3240967-7.696991,7.9849243l-7.7867737,7.8295288
				c-5.2431946,5.1295166-10.4570007,10.3099976-15.8206482,15.230835
				c-5.3434448,4.9559326-10.8367767,9.6522827-16.3006744,14.3995361
				c-2.7433167,2.3539429-5.3394928,4.9627686-7.8634949,7.6965942c-2.522934,2.7356567-4.9750671,5.5939331-7.5571747,8.2271118
				c-2.5856476,2.6270142-5.3417358,4.9588623-8.3916473,6.7817993c-3.0432434,1.8344727-6.3703461,3.1772461-9.9090271,4.1536255
				c-7.0971222,1.918457-14.7444916,2.8838501-23.1448822,2.5449219c-4.1887207-0.1495361-8.6022034-0.6883545-13.2323914-1.6026001
				c-2.3356934-0.4927979-4.7008514-1.0366211-7.1826935-1.7825317c-1.2269592-0.3487549-2.4967194-0.7716675-3.7769318-1.2126465
				l-1.9706421-0.7487183l-0.9871216-0.3774414l-1.0266724-0.4459839
				C127.2437515,612.9231567,126.0055466,610.6325073,126.2648392,608.3453369z"/>
		</g>
		<g>
			<line class="st1" x1="275.5502014" y1="696.3828125" x2="275.5502014" y2="525.8504639"/>
			<path class="st1" d="M272.3501892,696.3828125l-0.8995361-0.6661377l-0.8204956-0.6661377l-1.6336975-1.3322754
				c-1.0220032-0.8881836-2.0231628-1.7763672-2.9386597-2.6645508c-1.8869019-1.7763672-3.5404358-3.5527954-5.1350708-5.3291626
				c-3.1068115-3.5527344-5.7802124-7.1055298-8.0040894-10.6582642
				c-4.4936829-7.1055298-7.4812927-14.2109985-9.3684387-21.3165283c-0.9238281-3.5527954-1.424469-7.1055298-1.3574219-10.6582642
				c0.053772-3.5527954,0.6951599-7.1055298,1.6773987-10.6582642c0.9893494-3.5527954,2.2386169-7.1055298,3.3463135-10.6583252
				c1.1055603-3.5527344,2.0667725-7.1054688,2.7337036-10.6582642c1.379303-7.1055298,2.6997681-14.2109985,4.3200073-21.3165283
				c1.5797729-7.1055298,3.4592896-14.2110596,5.2799988-21.3165283l2.887146-10.6583252
				c1.0213013-3.5527344,1.9852295-7.1054688,3.0666809-10.6582642c2.101532-7.1054688,4.3154297-14.2109985,6.8461609-21.3165283
				c0.6294556-1.767334,2.5724182-2.6896973,4.3397217-2.0602417c0.9945068,0.354187,1.7268372,1.1395264,2.0602722,2.0602417
				c2.5307617,7.1055298,4.7446594,14.2110596,6.8461609,21.3165283c1.0814514,3.5527954,2.0453796,7.1055298,3.0666809,10.6582642
				l2.8871765,10.6583252c1.8206787,7.1054688,3.7002258,14.2109985,5.2799988,21.3165283
				c1.6202087,7.1055298,2.9406738,14.2109985,4.3200073,21.3165283c0.6669006,3.5527954,1.6281128,7.1055298,2.7336731,10.6582642
				c1.1076965,3.5527954,2.3569641,7.1055298,3.3463135,10.6583252c0.9822693,3.5527344,1.6236267,7.1054688,1.6773987,10.6582642
				c0.0670471,3.5527344-0.4335938,7.1054688-1.3573914,10.6582642c-1.887146,7.1055298-4.8747559,14.2109985-9.3684387,21.3165283
				c-2.2239075,3.5527344-4.8972778,7.1055298-8.0040894,10.6582642c-1.594635,1.7763672-3.2481689,3.5527954-5.1350708,5.3291626
				c-0.9155273,0.8881836-1.916687,1.7763672-2.9386902,2.6645508l-1.6336975,1.3322754l-0.8204651,0.6661377l-0.8995667,0.6661377
				C276.8041382,697.8239746,274.2012634,697.7509155,272.3501892,696.3828125z"/>
		</g>
		<g>
			<line class="st1" x1="423.2355347" y1="611.1166382" x2="275.5502014" y2="525.8504639"/>
			<path class="st1" d="M421.6355286,613.8879395l-1.0266724,0.4459839l-0.9871216,0.3774414l-1.9706421,0.7487183
				c-1.2802124,0.440979-2.5499573,0.8638916-3.7769165,1.2126465c-2.481842,0.7459106-4.8470154,1.2897339-7.1827087,1.7825317
				c-4.630188,0.9142456-9.0436401,1.453064-13.2323608,1.6026001c-8.4004211,0.3389282-16.04776-0.6264648-23.1448975-2.5449219
				c-3.5386963-0.9763794-6.8657837-2.3191528-9.9090271-4.1536255c-3.0498962-1.822937-5.8059998-4.1547852-8.3916321-6.7817993
				c-2.5821228-2.6331787-5.0342712-5.4914551-7.5571899-8.2271118c-2.5239868-2.7338257-5.1201782-5.3426514-7.8634949-7.6965942
				c-5.4638977-4.7472534-10.9572144-9.4436035-16.3006592-14.3995361
				c-5.363678-4.9208374-10.5774536-10.1013184-15.8206787-15.230835l-7.7867432-7.8295288
				c-2.5661316-2.6608276-5.1609497-5.2719727-7.696991-7.9849243
				c-5.1028137-5.3727417-10.1494141-10.8427734-15.0375977-16.5872192
				c-1.2158203-1.428772-1.0431519-3.5726929,0.3856201-4.7884521c0.8039856-0.6842041,1.8503113-0.9257202,2.8143616-0.7541504
				c7.4189453,1.361084,14.6794434,2.996582,21.8837585,4.7293701c3.6175232,0.8397827,7.176239,1.7813721,10.7636719,2.6732788
				l10.6739197,2.8287964c7.0639038,1.9760132,14.1572266,3.901001,21.1006775,6.0856323
				c6.9636536,2.1495972,13.7774658,4.5588379,20.6206665,6.9170532c3.4102478,1.1987915,6.9676208,2.1427612,10.597168,2.9616699
				c3.6306458,0.8171387,7.3320618,1.5115967,10.9035034,2.4311523c3.5679016,0.9257202,6.9653625,2.1466675,10.0690308,3.8764648
				c3.1102905,1.7183228,5.9367676,3.9282837,8.5516357,6.5046997c5.2099915,5.1870728,9.8697205,11.3271484,13.7764282,18.7716064
				c1.9648438,3.7022705,3.7049255,7.7938843,5.228302,12.2608643c0.7410889,2.269165,1.4526978,4.5893555,2.0476379,7.1116333
				c0.3114319,1.2369995,0.5800476,2.5480957,0.8382568,3.8772583l0.3369141,2.0809937l0.166687,1.0436401l0.1271057,1.1120605
				C425.1105652,610.7512817,423.7458801,612.9689331,421.6355286,613.8879395z"/>
		</g>
		<g>
			<line class="st1" x1="423.2355347" y1="440.5843201" x2="275.5502014" y2="525.8504639"/>
			<path class="st1" d="M424.8355408,443.3556213l-0.1271057,1.1120605l-0.166687,1.0436401l-0.3369141,2.0809937
				c-0.2582092,1.3291626-0.526825,2.6402588-0.8382568,3.8772583c-0.5949402,2.5222778-1.3065491,4.8424683-2.0476379,7.1116333
				c-1.5233765,4.46698-3.2634583,8.5585938-5.228302,12.2608643c-3.9067078,7.444458-8.5664368,13.5845337-13.7764282,18.7716064
				c-2.6148682,2.576416-5.4413452,4.786377-8.5516357,6.5046997c-3.1036682,1.7297974-6.5011292,2.9507446-10.0690308,3.8764648
				c-3.5714417,0.9195557-7.2728577,1.6140137-10.9035034,2.4311523c-3.6295471,0.8189087-7.1869202,1.7628784-10.597168,2.9616699
				c-6.8432007,2.3582153-13.6570129,4.7674561-20.6206665,6.9170227
				c-6.9434509,2.1846313-14.0367737,4.1096191-21.1006775,6.0856323l-10.6739197,2.8287964
				c-3.5874329,0.8919067-7.1461487,1.8334961-10.7636719,2.6732788
				c-7.2043152,1.7327881-14.4648132,3.3682861-21.8837585,4.7293701c-1.8452454,0.338501-3.6155701-0.8829346-3.9541016-2.7282104
				c-0.1904907-1.0383301,0.1234741-2.0652466,0.7541199-2.8143921c4.8881836-5.7444458,9.9347839-11.214447,15.0375977-16.5871887
				c2.5360413-2.7129517,5.1308594-5.3240967,7.696991-7.9849243l7.7867432-7.8295288
				c5.2432251-5.1295166,10.4570007-10.3099976,15.8206787-15.230835
				c5.3434448-4.9559326,10.8367615-9.6522827,16.3006592-14.3995361c2.7433167-2.3539429,5.3395081-4.9627686,7.8634949-7.6965942
				c2.5229187-2.7356567,4.9750671-5.5939331,7.5571899-8.2271118c2.5856323-2.6270142,5.3417358-4.9588623,8.3916321-6.7817993
				c3.0432434-1.8344727,6.3703308-3.1772461,9.9090271-4.1535645c7.0971375-1.918457,14.7444763-2.8839111,23.1448975-2.5449829
				c4.1887207,0.1495361,8.6021729,0.6884155,13.2323608,1.6026001c2.3356934,0.4927979,4.7008667,1.0366211,7.1827087,1.7825317
				c1.2269592,0.3487549,2.4967041,0.7716675,3.7769165,1.2127075l1.9706421,0.7486572l0.9871216,0.3775024l1.0266724,0.4459229
				C423.8566284,438.7778015,425.0948181,441.068512,424.8355408,443.3556213z"/>
		</g>
	</g>
	<g>
		<g>
			<line class="st2" x1="105.0178299" y1="525.8504639" x2="275.5502014" y2="525.8504639"/>
			<path class="st2" d="M105.0178299,522.6504517l0.6661377-0.8995361l0.666153-0.8204956l1.3322754-1.633667
				c0.8881989-1.0220337,1.7763824-2.0231934,2.664566-2.9387207c1.7763824-1.8868408,3.5527649-3.5404053,5.3291473-5.1349792
				c3.5527496-3.1068115,7.1055145-5.7802124,10.6582642-8.0040894c7.1055222-4.4937134,14.2110367-7.4813232,21.3165512-9.3684692
				c3.5527649-0.9238281,7.1055145-1.4244385,10.6582794-1.3574219c3.5527496,0.053772,7.1055145,0.6951904,10.6582642,1.6774292
				c3.5527649,0.9893188,7.1055145,2.2385864,10.6582794,3.3463135c3.5527496,1.1055298,7.1055145,2.0667725,10.6582642,2.7337036
				c7.1055145,1.3792725,14.2110291,2.6997681,21.3165436,4.3199463c7.1055145,1.579834,14.2110291,3.4593506,21.3165588,5.2800293
				l10.6582642,2.8871155c3.5527649,1.0213013,7.1054993,1.9852295,10.6582642,3.0667114
				c7.1055298,2.1015015,14.2110291,4.3153687,21.3165588,6.8461304c1.7673035,0.6294556,2.6897278,2.5724487,2.0602722,4.3397217
				c-0.3542175,0.9945068-1.1395874,1.7268677-2.0602722,2.0603027c-7.1055298,2.5307617-14.2110291,4.7446289-21.3165588,6.8461304
				c-3.5527649,1.0814819-7.1054993,2.0454102-10.6582642,3.0667114l-10.6582642,2.887146
				c-7.1055298,1.8206787-14.2110443,3.7001953-21.3165588,5.2800293
				c-7.1055145,1.6201782-14.2110291,2.9406738-21.3165436,4.3199463
				c-3.5527496,0.6669312-7.1055145,1.6281738-10.6582642,2.7337036c-3.5527649,1.1077271-7.1055145,2.3569946-10.6582794,3.3463135
				c-3.5527496,0.9822998-7.1055145,1.6236572-10.6582642,1.6774292c-3.5527649,0.0670166-7.1055145-0.4335938-10.6582794-1.3574219
				c-7.1055145-1.887146-14.2110291-4.8747559-21.3165512-9.3684692c-3.5527496-2.223877-7.1055145-4.8972778-10.6582642-8.0040894
				c-1.7763824-1.5946045-3.5527649-3.2481689-5.3291473-5.1350098c-0.8881836-0.9155273-1.7763672-1.916687-2.664566-2.9387207
				l-1.3322754-1.633667l-0.666153-0.8204956l-0.6661377-0.8995361
				C103.5767136,527.1043701,103.6497269,524.5015259,105.0178299,522.6504517z"/>
		</g>
		<g>
			<line class="st2" x1="190.2840118" y1="673.5358276" x2="275.5502014" y2="525.8504639"/>
			<path class="st2" d="M187.5127411,671.9358521l-0.4459686-1.0266724l-0.3774719-0.9871216l-0.7486877-1.9707031
				c-0.4409943-1.2801514-0.8639221-2.5499268-1.2126923-3.7769165c-0.7459106-2.4818115-1.2897339-4.8469849-1.7825317-7.1826782
				c-0.9141998-4.630188-1.4530487-9.0436401-1.6026001-13.2323608c-0.3388977-8.4003906,0.6265106-16.0477905,2.5449524-23.1448975
				c0.9763489-3.5386963,2.3191528-6.8657837,4.153595-9.9090576c1.822937-3.0499268,4.1547699-5.8059692,6.7818146-8.3916626
				c2.6331635-2.5820923,5.4914398-5.0342407,8.2271271-7.5571289c2.7338104-2.5240479,5.3426208-5.1201782,7.696579-7.8635254
				c4.7472687-5.4638672,9.4436035-10.9572144,14.3995056-16.3006592
				c4.9208679-5.3636475,10.1013489-10.5774536,15.2308655-15.8206787l7.8294983-7.7867432
				c2.6608582-2.5661011,5.2720032-5.1609497,7.9849548-7.6970215c5.3727417-5.1027832,10.8427734-10.149353,16.5872192-15.0375366
				c1.4288025-1.2158203,3.5726624-1.0432129,4.7884521,0.3856201c0.6841736,0.8039551,0.9256897,1.8502808,0.7541199,2.8143311
				c-1.3610535,7.4189453-2.996521,14.6794434-4.7293091,21.8837891c-0.8398132,3.6174927-1.7814026,7.1762085-2.6733398,10.7636719
				l-2.8287659,10.6738892c-1.9759827,7.0639038-3.9010315,14.1572266-6.0856628,21.100708
				c-2.1495972,6.963623-4.5588074,13.7774048-6.9170532,20.6206665c-1.1987915,3.4102173-2.1427307,6.9675903-2.9616699,10.597168
				c-0.8170776,3.6306152-1.5115662,7.3320312-2.4311523,10.9035034c-0.9257202,3.5678711-2.146637,6.9653931-3.8764648,10.0690308
				c-1.7183228,3.1102905-3.9282532,5.9367676-6.5046692,8.5516357c-5.1870728,5.2099609-11.327179,9.869751-18.7716064,13.7764282
				c-3.702301,1.9648438-7.7939148,3.7049561-12.2608643,5.2282715c-2.2691803,0.7410889-4.5893707,1.4526978-7.1116638,2.0476685
				c-1.236969,0.3114014-2.5480804,0.5800781-3.8772583,0.8382568l-2.0809784,0.3369141l-1.0436096,0.166687l-1.1121063,0.1270752
				C190.6493988,675.4108276,188.4317474,674.0462036,187.5127411,671.9358521z"/>
		</g>
		<g>
			<line class="st2" x1="360.8163757" y1="673.5358276" x2="275.5502014" y2="525.8504639"/>
			<path class="st2" d="M358.0450745,675.1358032l-1.1120911-0.1270752l-1.0436096-0.166687l-2.0809937-0.3369141
				c-1.3291626-0.2581787-2.6402893-0.5268555-3.8772583-0.8382568c-2.5222778-0.5949707-4.8424683-1.3065796-7.1116638-2.0476685
				c-4.4669495-1.5233154-8.5585632-3.2634277-12.2608643-5.2282715
				c-7.444397-3.9066772-13.5845032-8.5664673-18.7715759-13.7764282c-2.576416-2.6148682-4.786377-5.4413452-6.5046692-8.5516357
				c-1.7298279-3.1036377-2.9507751-6.5011597-3.8764954-10.0690308c-0.9195862-3.5714722-1.6140442-7.2728882-2.4311218-10.9035034
				c-0.8189392-3.6295776-1.7629089-7.1869507-2.9617004-10.597168c-2.3582458-6.8432617-4.7674255-13.6570435-6.9170532-20.6206665
				c-2.1846313-6.9434814-4.1096497-14.0368042-6.0856628-21.100708l-2.8287659-10.6738892
				c-0.8919067-3.5874634-1.8334961-7.1461792-2.6733093-10.7636719
				c-1.7327881-7.2043457-3.3682556-14.4648438-4.7293396-21.8837891c-0.3385315-1.8452148,0.8829346-3.6155396,2.7282104-3.9541016
				c1.0383606-0.1904907,2.0652466,0.1234741,2.8143616,0.7541504c5.7444458,4.8881836,11.2145081,9.9347534,16.5872192,15.0375366
				c2.7129517,2.5360718,5.3241272,5.1309204,7.9849548,7.6970215l7.8294983,7.7867432
				c5.1295166,5.2432251,10.3099976,10.4570312,15.230896,15.8206787
				c4.9559021,5.3434448,9.6522217,10.836792,14.3994751,16.3006592c2.3539734,2.7433472,4.9627686,5.3394775,7.6965942,7.8635254
				c2.7356873,2.5228882,5.5939636,4.9750366,8.2271423,7.5571289c2.6270142,2.5856934,4.9588623,5.3417358,6.7817993,8.3916626
				c1.8344421,3.0432739,3.1772461,6.3703613,4.153595,9.9090576c1.9184265,7.0971069,2.8838501,14.7445068,2.5449524,23.1448975
				c-0.1495667,4.1887207-0.6884155,8.6021729-1.6026001,13.2323608c-0.4927979,2.3356934-1.0366211,4.7008667-1.7825317,7.1826782
				c-0.3487854,1.2269897-0.771698,2.4967651-1.2127075,3.7769165l-0.7486572,1.9707031l-0.3775024,0.9871216l-0.4459534,1.0266724
				C362.6228638,674.1569214,360.3322144,675.3951416,358.0450745,675.1358032z"/>
		</g>
		<g>
			<line class="st2" x1="446.08255" y1="525.8504639" x2="275.5502014" y2="525.8504639"/>
			<path class="st2" d="M446.08255,529.0504761l-0.6661377,0.8995361l-0.6661377,0.8204956l-1.3323059,1.633667
				c-0.8881836,1.0220337-1.7763672,2.0231934-2.6645508,2.9387207c-1.7763977,1.8868408-3.5527649,3.5404053-5.3291321,5.1350098
				c-3.5527649,3.1068115-7.1055298,5.7802124-10.6582947,8.0040894
				c-7.1054993,4.4937134-14.2110291,7.4813232-21.3165283,9.3684692
				c-3.5527649,0.9238281-7.1055298,1.4244385-10.6582642,1.3574219c-3.5527649-0.053772-7.1055298-0.6951294-10.6582947-1.6774292
				c-3.5527344-0.9893188-7.1054993-2.2385864-10.6582642-3.3463135c-3.5527649-1.1055298-7.1054993-2.0667725-10.6582642-2.7337036
				c-7.1055298-1.3792725-14.2110291-2.6997681-21.3165588-4.3199463
				c-7.1054993-1.579834-14.2110291-3.4593506-21.3165283-5.2800293l-10.6582947-2.887146
				c-3.5527344-1.0213013-7.1054993-1.9852295-10.6582642-3.0667114
				c-7.1054993-2.1015015-14.2110291-4.3153687-21.3165283-6.8461304c-1.767334-0.6294556-2.6897278-2.5724487-2.0602722-4.3397217
				c0.354187-0.9945068,1.1395569-1.7268677,2.0602722-2.0603027c7.1054993-2.5307617,14.2110291-4.7446289,21.3165283-6.8461304
				c3.5527649-1.0814819,7.1055298-2.0454102,10.6582642-3.0667114l10.6582947-2.8871155
				c7.1054993-1.8206787,14.2110291-3.7001953,21.3165283-5.2800293c7.1055298-1.6201782,14.2110291-2.9406738,21.3165588-4.3199463
				c3.5527649-0.6669312,7.1054993-1.6281738,10.6582642-2.7337036c3.5527649-1.1077271,7.1055298-2.3569946,10.6582642-3.3463135
				c3.5527649-0.9822388,7.1055298-1.6236572,10.6582947-1.6774292c3.5527344-0.0670166,7.1054993,0.4335938,10.6582642,1.3574219
				c7.1054993,1.887146,14.2110291,4.8747559,21.3165283,9.3684692c3.5527649,2.223877,7.1055298,4.8972778,10.6582947,8.0040894
				c1.7763672,1.594574,3.5527344,3.2481384,5.3291321,5.1349792c0.8881836,0.9155273,1.7763672,1.916687,2.6645508,2.9387207
				l1.3323059,1.633667l0.6661377,0.8204956l0.6661377,0.8995361
				C447.5236511,524.5965576,447.4506531,527.1994019,446.08255,529.0504761z"/>
		</g>
		<g>
			<line class="st2" x1="360.8163757" y1="378.1651306" x2="275.5502014" y2="525.8504639"/>
			<path class="st2" d="M363.5876465,379.7651672l0.4459534,1.0266724l0.3775024,0.9871216l0.7486572,1.9706421
				c0.4410095,1.2802124,0.8639221,2.5499268,1.2127075,3.7769165c0.7459106,2.4818115,1.2897339,4.8469849,1.7825317,7.1826782
				c0.9141846,4.630188,1.4530334,9.0437012,1.6026001,13.2324219c0.3388977,8.4003906-0.6265259,16.0477295-2.5449524,23.1448364
				c-0.9763489,3.5386963-2.3191528,6.8657837-4.153595,9.9090576c-1.822937,3.0499268-4.1547852,5.8059692-6.7817993,8.3916626
				c-2.6331787,2.5820923-5.4914551,5.0342407-8.2271423,7.5571289c-2.7338257,2.5240479-5.3426208,5.1201782-7.6965637,7.8635254
				c-4.7472839,5.4638672-9.4436035,10.9572144-14.3995056,16.3006592
				c-4.9208984,5.3636475-10.1013794,10.5774536-15.230896,15.8206787l-7.8294983,7.7867432
				c-2.6608276,2.5661011-5.2720032,5.1609497-7.9849548,7.696991c-5.3727112,5.1027832-10.8427734,10.149353-16.5872192,15.0375366
				c-1.428772,1.2158203-3.5726318,1.0432129-4.7884521-0.3856201c-0.6841431-0.8039551-0.9256897-1.8502808-0.7541199-2.8143311
				c1.361084-7.4189453,2.9965515-14.6794128,4.7293396-21.8837585c0.8398132-3.6174927,1.7814026-7.1762085,2.6733093-10.7636719
				l2.8287659-10.6738892c1.9760132-7.0639038,3.9010315-14.1572266,6.0856628-21.100708
				c2.1496277-6.963623,4.5588074-13.7774048,6.9170532-20.6206665c1.1987915-3.4102173,2.1427612-6.9675903,2.9617004-10.597168
				c0.8170776-3.6306152,1.5115356-7.3320312,2.4311218-10.9035034c0.9257202-3.5678711,2.1466675-6.965332,3.8764954-10.0690308
				c1.7182922-3.1102905,3.9282532-5.9367065,6.5046692-8.5516357c5.1870728-5.2099609,11.327179-9.8696899,18.7715759-13.7764282
				c3.702301-1.9648438,7.7939148-3.704895,12.2608643-5.2282715c2.2691956-0.7410889,4.589386-1.4526978,7.1116638-2.0476685
				c1.236969-0.3114014,2.5480957-0.5800171,3.8772583-0.8381958l2.0809937-0.3369751l1.0436096-0.166626l1.1120911-0.1271362
				C360.4509888,376.2901306,362.6686401,377.6548157,363.5876465,379.7651672z"/>
		</g>
		<g>
			<line class="st2" x1="190.2840118" y1="378.1651306" x2="275.5502014" y2="525.8504639"/>
			<path class="st2" d="M193.0552979,376.565155l1.1121063,0.1271362l1.0436096,0.166626l2.0809784,0.3369751
				c1.3291779,0.2581787,2.6402893,0.5267944,3.8772583,0.8381958c2.5222931,0.5949707,4.8424835,1.3065796,7.1116638,2.0476685
				c4.4669495,1.5233765,8.5585632,3.2634277,12.2608643,5.2282715c7.4444275,3.9067383,13.5845337,8.5664673,18.7716064,13.7764282
				c2.576416,2.6149292,4.7863464,5.4413452,6.5046692,8.5516357c1.7298279,3.1036987,2.9507446,6.5011597,3.8764648,10.0690308
				c0.9195862,3.5714722,1.6140747,7.2728882,2.4311523,10.9035034c0.8189392,3.6295776,1.7628784,7.1869507,2.9616699,10.597168
				c2.3582458,6.8432617,4.7674561,13.6570435,6.9170532,20.6206665c2.1846313,6.9434814,4.1096802,14.0368042,6.0856628,21.100708
				l2.8287659,10.6738892c0.8919373,3.5874634,1.8335266,7.1461792,2.6733398,10.7636719
				c1.7327881,7.2043457,3.3682556,14.4648132,4.7293091,21.8837585c0.3385315,1.8452148-0.8829041,3.6155396-2.7281799,3.9541016
				c-1.0383606,0.1904907-2.0652466-0.1234741-2.8143921-0.7541504
				c-5.7444458-4.8881836-11.2144775-9.9347534-16.5872192-15.0375366c-2.7129517-2.5360413-5.3240967-5.1308899-7.9849548-7.696991
				l-7.8294983-7.7867432c-5.1295166-5.2432251-10.3099976-10.4570312-15.2308655-15.8206787
				c-4.9559021-5.3434448-9.6522369-10.836792-14.3995056-16.3006592c-2.3539581-2.7433472-4.9627686-5.3394775-7.696579-7.8635254
				c-2.7356873-2.5228882-5.5939636-4.9750366-8.2271271-7.5571289c-2.6270447-2.5856934-4.9588776-5.3417358-6.7818146-8.3916626
				c-1.8344421-3.0432739-3.1772461-6.3703613-4.153595-9.9090576c-1.9184418-7.0971069-2.8838501-14.7444458-2.5449524-23.1448364
				c0.1495514-4.1887207,0.6884003-8.6022339,1.6026001-13.2324219c0.4927979-2.3356934,1.0366211-4.7008667,1.7825317-7.1826782
				c0.3487701-1.2269897,0.771698-2.4967041,1.2126923-3.7769165l0.7486877-1.9706421l0.3774719-0.9871216l0.4459686-1.0266724
				C188.4775238,377.5440979,190.7681732,376.3058777,193.0552979,376.565155z"/>
		</g>
	</g>
	<circle class="st3" cx="275.7575378" cy="525.8681641" r="33.75"/>
</g>
<g id="Layer_2">
	<line class="st0" x1="643.4569702" y1="1082.6999512" x2="643.6643066" y2="492.1357727"/>
	<g>
		<g>
			<line class="st4" x1="643.4569702" y1="321.5857849" x2="643.4569702" y2="492.1181335"/>
			<path class="st4" d="M646.6569824,321.5857849l0.8995361,0.6661377l0.8204956,0.6661377l1.633667,1.3322754
				c1.0220337,0.8881836,2.0231934,1.7764282,2.9387207,2.6646118c1.8869019,1.7763672,3.5404053,3.5527344,5.1350708,5.3291016
				c3.1068115,3.5527954,5.7802124,7.1055298,8.0040894,10.6582642c4.4936523,7.1055298,7.4812622,14.2110596,9.3684082,21.3165894
				c0.9238281,3.5527344,1.4244385,7.1054688,1.3574219,10.6582642c-0.053772,3.5527344-0.6951294,7.1054688-1.6774292,10.6582642
				c-0.9893188,3.5527344-2.2385864,7.1055298-3.3463135,10.6582642c-1.1055298,3.5527344-2.0667114,7.1055298-2.7336426,10.6582642
				c-1.3793335,7.1055298-2.6998291,14.2110596-4.3200073,21.3165283
				c-1.5797729,7.1055298-3.4593506,14.2110596-5.2800293,21.3165894l-2.887146,10.6582642
				c-1.0213013,3.5527344-1.9852295,7.1055298-3.0667114,10.6582642
				c-2.1015015,7.1055298-4.3153687,14.2109985-6.8461304,21.3165283c-0.6294556,1.767334-2.5724487,2.6897583-4.3397217,2.0603027
				c-0.9945068-0.354248-1.7268066-1.1395874-2.0603027-2.0603027c-2.5307007-7.1055298-4.7446289-14.2109985-6.8461304-21.3165283
				c-1.0814819-3.5527344-2.0454102-7.1055298-3.0667114-10.6582642l-2.887146-10.6582642
				c-1.8206787-7.1055298-3.7001953-14.2110596-5.2799683-21.3165894
				c-1.6202393-7.1054688-2.9407349-14.2109985-4.3200073-21.3165283
				c-0.6669312-3.5527344-1.6281128-7.1055298-2.7337036-10.6582642c-1.1077271-3.5527344-2.3569946-7.1055298-3.3463135-10.6582642
				c-0.9822388-3.5527954-1.6236572-7.1055298-1.6773682-10.6582642c-0.0670776-3.5527954,0.4335327-7.1055298,1.3573608-10.6582642
				c1.887146-7.1055298,4.8747559-14.2110596,9.3684692-21.3165894c2.223877-3.5527344,4.8972778-7.1054688,8.0040894-10.6582642
				c1.5946045-1.7763672,3.2481689-3.5527344,5.1350708-5.3291016c0.9154663-0.8881836,1.916626-1.7764282,2.9386597-2.6646118
				l1.633728-1.3322754l0.8204346-0.6661377l0.8995361-0.6661377
				C642.203064,320.1446838,644.8059082,320.2176819,646.6569824,321.5857849z"/>
		</g>
		<g>
			<line class="st4" x1="495.771637" y1="406.8519592" x2="643.4569702" y2="492.1181335"/>
			<path class="st4" d="M497.3716431,404.080658l1.0266724-0.4459229l0.9871216-0.3775024l1.9706421-0.7486572
				c1.2802124-0.44104,2.5499878-0.8639526,3.7769165-1.2127075c2.4818115-0.7459106,4.8469849-1.2897339,7.1826782-1.7825317
				c4.630188-0.9141846,9.0437012-1.453064,13.2324219-1.6026001c8.4003906-0.3388672,16.0477295,0.6265259,23.1448975,2.5449829
				c3.5386353,0.9763184,6.8657837,2.3190918,9.9089966,4.1535645c3.0499268,1.822937,5.8059692,4.1547852,8.3916626,6.7817993
				c2.5820923,2.6331787,5.0342407,5.4914551,7.5571899,8.2271118c2.5239868,2.7338257,5.1201782,5.3426514,7.8634644,7.6965942
				c5.4639282,4.7473145,10.9572144,9.4436035,16.3006592,14.3995361
				c5.3636475,4.9208374,10.5774536,10.1013184,15.8206787,15.230896l7.7867432,7.8294678
				c2.5661621,2.6608276,5.1609497,5.2720337,7.6970215,7.9849243c5.1027832,5.3727417,10.1494141,10.8427734,15.0375977,16.5872192
				c1.2157593,1.428833,1.0431519,3.5726929-0.3856201,4.7884521c-0.8040161,0.6842041-1.8503418,0.9257202-2.8143921,0.7541504
				c-7.4189453-1.361084-14.6794434-2.996521-21.8837891-4.7293091c-3.6174927-0.8398438-7.1762085-1.7814331-10.7636719-2.6733398
				l-10.6738892-2.8287964c-7.0639038-1.9759521-14.1572266-3.901001-21.100647-6.0856323
				c-6.9636841-2.1495972-13.7774658-4.5588379-20.6206665-6.9170532c-3.4102783-1.1987915-6.9676514-2.1427612-10.597229-2.9616699
				c-3.6306152-0.8170776-7.3320312-1.5115967-10.9034424-2.4311523c-3.5679321-0.9257202-6.9653931-2.1466675-10.0690308-3.8764648
				c-3.1103516-1.7183228-5.9367676-3.9282837-8.5516357-6.5046997c-5.210022-5.1870728-9.869751-11.3271484-13.7764893-18.7716064
				c-1.9648438-3.7022705-3.704895-7.7938843-5.2282715-12.2608643c-0.7410889-2.269165-1.4526978-4.5893555-2.0476685-7.1116333
				c-0.3114014-1.2369995-0.5800171-2.5480957-0.8381958-3.8772583l-0.3369751-2.0809937l-0.166626-1.0435791l-0.1271362-1.1121216
				C493.8966064,407.2173157,495.2612915,404.9996643,497.3716431,404.080658z"/>
		</g>
		<g>
			<line class="st4" x1="495.771637" y1="577.3843384" x2="643.4569702" y2="492.1181335"/>
			<path class="st4" d="M494.1716309,574.6130371l0.1271362-1.1121216l0.166626-1.0436401l0.3369751-2.0809326
				c0.2581787-1.3292236,0.5267944-2.6403198,0.8381958-3.8772583c0.5949707-2.5223389,1.3065796-4.8425293,2.0476685-7.1116943
				c1.5233765-4.46698,3.2634277-8.5585327,5.2282715-12.2608643c3.9067383-7.444397,8.5664673-13.5845337,13.7764893-18.7716064
				c2.6148682-2.576416,5.4412842-4.786377,8.5516357-6.5046387c3.1036377-1.7298584,6.5010986-2.9508057,10.0690308-3.8764648
				c3.5714111-0.9196167,7.2728271-1.6140747,10.9034424-2.4311523c3.6295776-0.8189697,7.1869507-1.7629395,10.597229-2.961731
				c6.8432007-2.3581848,13.6569824-4.7673645,20.6206665-6.9170227c6.9434204-2.1845703,14.0367432-4.1096191,21.100647-6.0856323
				l10.6738892-2.8287964c3.5874634-0.8919067,7.1461792-1.8334961,10.7636719-2.6732788
				c7.2043457-1.7327881,14.4648438-3.3682861,21.8837891-4.7293701c1.8452759-0.338501,3.6155396,0.8829346,3.9541016,2.7282104
				c0.1904907,1.0383911-0.1234741,2.0652466-0.7540894,2.8143921c-4.8881836,5.7444458-9.9348145,11.2144775-15.0375977,16.5872192
				c-2.5360718,2.7129211-5.1308594,5.3240662-7.6970215,7.9848938l-7.7867432,7.8295288
				c-5.2432251,5.1295166-10.4570312,10.3099976-15.8206787,15.230896
				c-5.3434448,4.9558716-10.836731,9.6522217-16.3006592,14.3994751c-2.7432861,2.3539429-5.3394775,4.9627686-7.8634644,7.6965942
				c-2.5229492,2.7356567-4.9750977,5.5939331-7.5571899,8.2271118c-2.5856934,2.6270752-5.3417358,4.9588623-8.3916626,6.7817993
				c-3.0432129,1.8344727-6.3703613,3.1772461-9.9089966,4.1536255c-7.097168,1.918396-14.7445068,2.8838501-23.1448975,2.5449219
				c-4.1887207-0.1495361-8.6022339-0.6884155-13.2324219-1.6026001c-2.3356934-0.4927979-4.7008667-1.0366211-7.1826782-1.7825317
				c-1.2269287-0.3487549-2.4967041-0.7716675-3.7769165-1.2126465l-1.9706421-0.7487183l-0.9871216-0.3774414l-1.0266724-0.4459839
				C495.1505737,579.1907959,493.9123535,576.9001465,494.1716309,574.6130371z"/>
		</g>
		<g>
			<line class="st4" x1="643.4569702" y1="662.6505127" x2="643.4569702" y2="492.1181335"/>
			<path class="st4" d="M640.256958,662.6504517l-0.8995361-0.6661377l-0.8204346-0.6661377l-1.633728-1.3322754
				c-1.0220337-0.8881836-2.0231934-1.7763672-2.9386597-2.6645508c-1.8869019-1.7763672-3.5404663-3.5527344-5.1350708-5.3291626
				c-3.1068115-3.5527344-5.7802124-7.1054688-8.0040894-10.6582642
				c-4.4937134-7.1055298-7.4813232-14.2109985-9.3684692-21.3165283
				c-0.9238281-3.5527344-1.4244385-7.1055298-1.3573608-10.6582642c0.0537109-3.5527954,0.6951294-7.1055298,1.6773682-10.6583252
				c0.9893188-3.5527344,2.2385864-7.1054688,3.3463135-10.6582642c1.1055908-3.5527344,2.0667725-7.1054688,2.7337036-10.6582642
				c1.3792725-7.1055298,2.6997681-14.2109985,4.3200073-21.3165283c1.5797729-7.1055298,3.4592896-14.2110596,5.2799683-21.3165283
				l2.887146-10.6582642c1.0213013-3.5527954,1.9852295-7.1055298,3.0667114-10.6583252
				c2.1015015-7.1054382,4.3154297-14.210968,6.8461304-21.3164978c0.6294556-1.7672729,2.5724487-2.6896973,4.3397827-2.0602417
				c0.9944458,0.354187,1.7268066,1.1395264,2.0602417,2.0602417c2.5307617,7.1055298,4.7446289,14.2110596,6.8461304,21.3164978
				c1.0814819,3.5527954,2.0454102,7.1055298,3.0667114,10.6583252l2.887146,10.6582642
				c1.8206787,7.1054688,3.7002563,14.2109985,5.2800293,21.3165283c1.6201782,7.1055298,2.9406738,14.2109985,4.3200073,21.3165283
				c0.6669312,3.5527954,1.6281128,7.1055298,2.7336426,10.6582642c1.1077271,3.5527954,2.3569946,7.1055298,3.3463135,10.6582642
				c0.9822998,3.5527954,1.6236572,7.1055298,1.6774292,10.6583252c0.0670166,3.5527344-0.4335938,7.1055298-1.3574219,10.6582642
				c-1.887146,7.1055298-4.8747559,14.2109985-9.3684082,21.3165283c-2.223877,3.5527954-4.8972778,7.1055298-8.0040894,10.6582642
				c-1.5946655,1.7764282-3.2481689,3.5527954-5.1350708,5.3291626c-0.9155273,0.8881836-1.916687,1.7763672-2.9387207,2.6645508
				l-1.633667,1.3322754l-0.8204956,0.6661377l-0.8995361,0.6661377
				C644.7109375,664.0916138,642.1080322,664.0186157,640.256958,662.6504517z"/>
		</g>
		<g>
			<line class="st4" x1="791.142334" y1="577.3843384" x2="643.4569702" y2="492.1181335"/>
			<path class="st4" d="M789.5423584,580.1555786l-1.0266724,0.4459839l-0.9871826,0.3774414l-1.9706421,0.7487183
				c-1.2801514,0.440979-2.5499268,0.8638916-3.7769165,1.2126465c-2.4818115,0.7459106-4.8469849,1.2897339-7.1826782,1.7825317
				c-4.630188,0.9141846-9.0436401,1.453064-13.2323608,1.6026001c-8.4004517,0.3389282-16.0477905-0.6265259-23.1448975-2.5449219
				c-3.5386963-0.9763794-6.8657837-2.3191528-9.9090576-4.1536255c-3.0498657-1.822937-5.8059692-4.1547241-8.3916016-6.7817993
				c-2.5821533-2.6331787-5.0343018-5.4914551-7.5571899-8.2271118c-2.5239868-2.7338257-5.1201782-5.3426514-7.8635254-7.6965942
				c-5.4638672-4.7472534-10.9572144-9.4436035-16.3006592-14.3994751
				c-5.3636475-4.9208984-10.5774536-10.1013794-15.8206787-15.230896l-7.7867432-7.8295288
				c-2.5661011-2.6608276-5.1609497-5.2719727-7.6969604-7.9848938
				c-5.1028442-5.3727417-10.1494141-10.8427734-15.0375977-16.5872192
				c-1.2158203-1.428772-1.0431519-3.5726318,0.3856201-4.7884521c0.8040161-0.6841431,1.8502808-0.9257202,2.8143921-0.7541504
				c7.4188843,1.361084,14.6793823,2.996582,21.883728,4.7293701c3.6174927,0.8397827,7.1762695,1.7813721,10.7636719,2.6732788
				l10.6738892,2.8287964c7.0639038,1.9760132,14.1572266,3.901062,21.100708,6.0856323
				c6.963623,2.1496582,13.7774658,4.5588379,20.6206665,6.9170227c3.4102173,1.1987915,6.9675903,2.1427612,10.597168,2.961731
				c3.6306152,0.8170776,7.3320312,1.5115356,10.9035034,2.4311523c3.5678711,0.9256592,6.965332,2.1466064,10.0690308,3.8764648
				c3.1102905,1.7182617,5.9367676,3.9282227,8.5516357,6.5046387c5.2099609,5.1870728,9.869751,11.3272095,13.7764282,18.7716064
				c1.9648438,3.7023315,3.704895,7.7938843,5.2282715,12.2608643c0.7410889,2.269165,1.4526978,4.5893555,2.0476685,7.1116943
				c0.3114014,1.2369385,0.5800171,2.5480347,0.8382568,3.8772583l0.3369141,2.0809326l0.166687,1.0436401l0.1270752,1.1121216
				C793.017334,577.0189209,791.6526489,579.2365723,789.5423584,580.1555786z"/>
		</g>
		<g>
			<line class="st4" x1="791.142334" y1="406.8519592" x2="643.4569702" y2="492.1181335"/>
			<path class="st4" d="M792.7423096,409.6232605l-0.1270752,1.1121216l-0.166687,1.0435791l-0.3369141,2.0809937
				c-0.2582397,1.3291626-0.5268555,2.6402588-0.8382568,3.8772583c-0.5949707,2.5222778-1.3065796,4.8424683-2.0476685,7.1116333
				c-1.5233765,4.46698-3.2634277,8.5585938-5.2282715,12.2608643c-3.9066772,7.444458-8.5664673,13.5845337-13.7764282,18.7716064
				c-2.6148682,2.576416-5.4413452,4.786377-8.5516357,6.5046997c-3.1036987,1.7297974-6.5011597,2.9507446-10.0690308,3.8764648
				c-3.5714722,0.9195557-7.2728882,1.6140747-10.9035034,2.4311523c-3.6295776,0.8189087-7.1869507,1.7628784-10.597168,2.9616699
				c-6.8432007,2.3582153-13.6570435,4.7674561-20.6206665,6.9170532
				c-6.9434814,2.1846313-14.0368042,4.1096802-21.100708,6.0856323l-10.6738892,2.8287964
				c-3.5874023,0.8919067-7.1461792,1.8334961-10.7636719,2.6733398c-7.2043457,1.7327881-14.4648438,3.3682251-21.883728,4.7293091
				c-1.8452759,0.338501-3.6156006-0.8829346-3.9541626-2.7282104c-0.1904907-1.0383301,0.1235352-2.0652466,0.7541504-2.8143921
				c4.8881836-5.7444458,9.9347534-11.2144775,15.0375977-16.5872192c2.5360107-2.7128906,5.1308594-5.3240967,7.6969604-7.9849243
				l7.7867432-7.8294678c5.2432251-5.1295776,10.4570312-10.3100586,15.8206787-15.230896
				c5.3434448-4.9559326,10.836792-9.6522217,16.3006592-14.3995361c2.7433472-2.3539429,5.3395386-4.9627686,7.8635254-7.6965942
				c2.5228882-2.7356567,4.9750366-5.5939331,7.5571899-8.2271118c2.5856323-2.6270142,5.3417358-4.9588623,8.3916016-6.7817993
				c3.0432739-1.8344727,6.3703613-3.1772461,9.9090576-4.1535645c7.0971069-1.918457,14.7444458-2.8838501,23.1448975-2.5449829
				c4.1887207,0.1495361,8.6021729,0.6884155,13.2323608,1.6026001c2.3356934,0.4927979,4.7008667,1.0366211,7.1826782,1.7825317
				c1.2269897,0.3487549,2.4967651,0.7716675,3.7769165,1.2127075l1.9706421,0.7486572l0.9871826,0.3775024l1.0266724,0.4459229
				C791.7634277,405.0454407,793.0016479,407.3361511,792.7423096,409.6232605z"/>
		</g>
	</g>
	<g>
		<g>
			<line class="st5" x1="472.9246216" y1="492.1181335" x2="643.4569702" y2="492.1181335"/>
			<path class="st5" d="M472.9246216,488.9181213l0.6661377-0.8995361l0.6661377-0.8204346l1.3323059-1.633728
				c0.8881531-1.0220337,1.7763977-2.0231934,2.6645813-2.9386597c1.7763672-1.8869019,3.5527344-3.5404663,5.3291016-5.1350708
				c3.5527954-3.1068115,7.1055298-5.7802124,10.6582642-8.0040894c7.1055298-4.4937134,14.2110596-7.4813232,21.3165894-9.3684692
				c3.5527344-0.9238281,7.1054688-1.4244385,10.6582642-1.3573608c3.5527344,0.0537109,7.1054688,0.6951294,10.6582642,1.6773682
				c3.5527344,0.9893188,7.1055298,2.2385864,10.6582642,3.3463135c3.5527344,1.1055298,7.1055298,2.0667725,10.6582642,2.7337036
				c7.1055298,1.3792725,14.2110596,2.6997681,21.3165283,4.3200073c7.1055298,1.5797729,14.2110596,3.4592896,21.3165894,5.2799683
				l10.6582642,2.887146c3.5527344,1.0213013,7.1055298,1.9852295,10.6582642,3.0667114
				c7.1055298,2.1015015,14.2109985,4.3154297,21.3165283,6.8461304c1.767334,0.6294556,2.6897583,2.5724487,2.0603027,4.3397827
				c-0.354248,0.9944458-1.1395874,1.7268066-2.0603027,2.0602417c-7.1055298,2.5307617-14.2109985,4.7446289-21.3165283,6.8461304
				c-3.5527344,1.0814819-7.1055298,2.0454102-10.6582642,3.0667114l-10.6582642,2.887146
				c-7.1055298,1.8206787-14.2110596,3.7002563-21.3165894,5.2799988
				c-7.1054688,1.6201782-14.2109985,2.9406738-21.3165283,4.3200073
				c-3.5527344,0.6669312-7.1055298,1.6281128-10.6582642,2.7336426c-3.5527344,1.1077271-7.1055298,2.3569946-10.6582642,3.3463135
				c-3.5527954,0.9822998-7.1055298,1.6236572-10.6582642,1.6774292c-3.5527954,0.0670166-7.1055298-0.4335938-10.6582642-1.3574219
				c-7.1055298-1.887146-14.2110596-4.8747559-21.3165894-9.3684082c-3.5527344-2.223877-7.1054688-4.8972473-10.6582642-8.0040588
				c-1.7763672-1.5946655-3.5527344-3.2481689-5.3291016-5.1350708c-0.8881836-0.9155273-1.7764282-1.916687-2.6645813-2.9387207
				l-1.3323059-1.633667l-0.6661377-0.8204956l-0.6661377-0.8995361
				C471.4835205,493.3721008,471.5565186,490.7691956,472.9246216,488.9181213z"/>
		</g>
		<g>
			<line class="st5" x1="558.1907959" y1="639.8034668" x2="643.4569702" y2="492.1181335"/>
			<path class="st5" d="M555.4194946,638.2034912l-0.4459229-1.0266724l-0.3775024-0.9871216l-0.7486572-1.9706421
				c-0.44104-1.2802124-0.8639526-2.5499878-1.2127075-3.7769775c-0.7459106-2.4818115-1.2897339-4.8469849-1.7825317-7.1826782
				c-0.9141846-4.630188-1.453064-9.0436401-1.6026001-13.2323608c-0.3388672-8.4004517,0.6265259-16.0477905,2.5449829-23.1448975
				c0.9763184-3.5386963,2.3190918-6.8657837,4.1535645-9.9090576c1.822937-3.0498657,4.1547852-5.8059692,6.7817993-8.3916016
				c2.6331787-2.5821533,5.4914551-5.0343018,8.2271118-7.5571899c2.7338257-2.5239868,5.3426514-5.1201782,7.6965942-7.8635254
				c4.7473145-5.4638672,9.4436035-10.9572144,14.3995361-16.3006592
				c4.9208984-5.3636475,10.1013184-10.5774536,15.230896-15.8206787l7.8294678-7.7867432
				c2.6608276-2.5660706,5.2720337-5.1609192,7.9849243-7.6969299c5.3727417-5.1028442,10.8427734-10.1494141,16.5872192-15.0375977
				c1.428833-1.2158203,3.5726929-1.0431519,4.7884521,0.3856201c0.6842041,0.8039551,0.9257202,1.8502808,0.7541504,2.8143921
				c-1.361084,7.4188843-2.996521,14.6793823-4.7293091,21.8836975c-0.8398438,3.6174927-1.7814331,7.1762695-2.6733398,10.7636719
				l-2.8287964,10.6738892c-1.9759521,7.0639038-3.901001,14.1572266-6.0856323,21.100708
				c-2.1495972,6.963623-4.5588379,13.7774658-6.9170532,20.6206665c-1.1987915,3.4102173-2.1427612,6.9675903-2.9616699,10.597168
				c-0.8170776,3.6306152-1.5115967,7.3320312-2.4311523,10.9035034c-0.9257202,3.5678711-2.1466675,6.965332-3.8764648,10.0690308
				c-1.7183228,3.1102905-3.9282837,5.9367676-6.5046997,8.5516357c-5.1870728,5.2099609-11.3271484,9.869751-18.7715454,13.7764282
				c-3.7023315,1.9648438-7.7939453,3.7049561-12.2609253,5.2283325c-2.269165,0.7410278-4.5893555,1.4526978-7.1116333,2.0476074
				c-1.2369995,0.3114624-2.5480957,0.5800781-3.8772583,0.8382568l-2.0809937,0.3369141l-1.0435791,0.166687l-1.1121216,0.1271362
				C558.5562134,641.6784668,556.338501,640.3138428,555.4194946,638.2034912z"/>
		</g>
		<g>
			<line class="st5" x1="728.7231445" y1="639.8034668" x2="643.4569702" y2="492.1181335"/>
			<path class="st5" d="M725.9519043,641.4035034l-1.1121216-0.1271362l-1.0436401-0.166687l-2.0809326-0.3369141
				c-1.3292236-0.2581787-2.6403198-0.5267944-3.8772583-0.8382568c-2.5223389-0.5949097-4.8425293-1.3065796-7.1116943-2.0476074
				c-4.46698-1.5233765-8.5585327-3.2634888-12.2608643-5.2283325c-7.444397-3.9066772-13.5845337-8.5664673-18.7716064-13.7764282
				c-2.576416-2.6148682-4.786377-5.4413452-6.5046387-8.5516357c-1.7298584-3.1036987-2.9508057-6.5011597-3.8764648-10.0690308
				c-0.9196167-3.5714722-1.6140747-7.2728882-2.4311523-10.9035034c-0.8189697-3.6295776-1.7629395-7.1869507-2.961731-10.597168
				c-2.3582153-6.8432007-4.767395-13.6570435-6.9170532-20.6206665c-2.1845703-6.9434814-4.1096191-14.0368042-6.0856323-21.100708
				l-2.8287964-10.6738892c-0.8919067-3.5874023-1.8334961-7.1461792-2.6732788-10.7636719
				c-1.7327881-7.2043152-3.3682861-14.4648132-4.7293701-21.8836975c-0.338501-1.8452759,0.8829346-3.6156006,2.7282104-3.9541626
				c1.0383911-0.1904907,2.0652466,0.1235352,2.8143921,0.7541504c5.7444458,4.8881836,11.2144775,9.9347534,16.5872192,15.0375977
				c2.7129517,2.5360107,5.3240967,5.1308594,7.9849243,7.6969299l7.8295288,7.7867432
				c5.1295166,5.2432251,10.3099976,10.4570312,15.230896,15.8206787
				c4.9558716,5.3434448,9.6522217,10.836792,14.3994751,16.3006592c2.3539429,2.7433472,4.9627686,5.3395386,7.6965942,7.8635254
				c2.7356567,2.5228882,5.5939331,4.9750366,8.2271118,7.5571899c2.6270752,2.5856323,4.9588623,5.3417358,6.7817993,8.3916016
				c1.8344727,3.0432739,3.1772461,6.3703613,4.1536255,9.9090576c1.918396,7.0971069,2.8838501,14.7444458,2.5449219,23.1448975
				c-0.1495361,4.1887207-0.6884155,8.6021729-1.6026001,13.2323608c-0.4927979,2.3356934-1.0366211,4.7008667-1.7825317,7.1826782
				c-0.3487549,1.2269897-0.7716675,2.4967651-1.2126465,3.7769775l-0.7487183,1.9706421l-0.3774414,0.9871216l-0.4459839,1.0266724
				C730.5296631,640.4245605,728.2390137,641.6627808,725.9519043,641.4035034z"/>
		</g>
		<g>
			<line class="st5" x1="813.9893188" y1="492.1181335" x2="643.4569702" y2="492.1181335"/>
			<path class="st5" d="M813.9893188,495.3181458l-0.6661377,0.8995361l-0.6661377,0.8204956l-1.3322754,1.633667
				c-0.8881836,1.0220337-1.7763672,2.0231934-2.6645508,2.9387207c-1.7764282,1.8869019-3.5527954,3.5404053-5.3291626,5.1350708
				c-3.5527344,3.1068115-7.1055298,5.7801819-10.6582642,8.0040588
				c-7.1055298,4.4936523-14.2110596,7.4812622-21.3165283,9.3684082
				c-3.5527954,0.9238281-7.1055298,1.4244385-10.6582642,1.3574219c-3.5527954-0.053772-7.1055298-0.6951294-10.6583252-1.6774292
				c-3.5527344-0.9893188-7.1054688-2.2385864-10.6582642-3.3463135c-3.5527344-1.1055298-7.1054688-2.0667114-10.6582642-2.7336426
				c-7.1055298-1.3793335-14.2109985-2.6998291-21.3165283-4.3200073
				c-7.1055298-1.5797424-14.2110596-3.4593201-21.3165283-5.2799988l-10.6582642-2.887146
				c-3.5527954-1.0213013-7.1055298-1.9852295-10.6583252-3.0667114
				c-7.1054688-2.1015015-14.2109985-4.3153687-21.3165283-6.8461304c-1.7672729-0.6294556-2.6896973-2.5724487-2.0602417-4.3397217
				c0.354187-0.9945068,1.1395264-1.7268066,2.0602417-2.0603027c7.1055298-2.5307007,14.2110596-4.7446289,21.3165283-6.8461304
				c3.5527954-1.0814819,7.1055298-2.0454102,10.6583252-3.0667114l10.6582642-2.887146
				c7.1054688-1.8206787,14.2109985-3.7001953,21.3165283-5.2799683c7.1055298-1.6202393,14.2109985-2.9407349,21.3165283-4.3200073
				c3.5527954-0.6669312,7.1055298-1.6281738,10.6582642-2.7337036c3.5527954-1.1077271,7.1055298-2.3569946,10.6582642-3.3463135
				c3.5527954-0.9822388,7.1055298-1.6236572,10.6583252-1.6773682c3.5527344-0.0670776,7.1054688,0.4335327,10.6582642,1.3573608
				c7.1054688,1.887146,14.2109985,4.8747559,21.3165283,9.3684692c3.5527344,2.223877,7.1055298,4.8972778,10.6582642,8.0040894
				c1.7763672,1.5946045,3.5527344,3.2481689,5.3291626,5.1350708c0.8881836,0.9154663,1.7763672,1.916626,2.6645508,2.9386597
				l1.3322754,1.633728l0.6661377,0.8204346l0.6661377,0.8995361
				C815.4304199,490.8642273,815.3574219,493.4670715,813.9893188,495.3181458z"/>
		</g>
		<g>
			<line class="st5" x1="728.7231445" y1="344.4328003" x2="643.4569702" y2="492.1181335"/>
			<path class="st5" d="M731.4944458,346.0328064l0.4459839,1.0266724l0.3774414,0.9871216l0.7487183,1.9706421
				c0.440979,1.2802124,0.8638916,2.5499878,1.2126465,3.7769165c0.7459106,2.4818115,1.2897339,4.8469849,1.7825317,7.1826782
				c0.9141846,4.630188,1.453064,9.0437012,1.6026001,13.2324219c0.3389282,8.4003906-0.6265259,16.0477295-2.5449219,23.1448975
				c-0.9763794,3.5386353-2.3191528,6.8657837-4.1536255,9.9089966c-1.822937,3.0499268-4.1547241,5.8059692-6.7817993,8.3916626
				c-2.6331787,2.5820923-5.4914551,5.0342407-8.2271118,7.5571899c-2.7338257,2.5239868-5.3426514,5.1201782-7.6965942,7.8634644
				c-4.7472534,5.4639282-9.4436035,10.9572144-14.3994751,16.3006592
				c-4.9208984,5.3636475-10.1013794,10.5774536-15.230896,15.8206787l-7.8295288,7.7867432
				c-2.6608276,2.5661621-5.2719727,5.1609497-7.9849243,7.6970215
				c-5.3727417,5.1027832-10.8427734,10.1494141-16.5872192,15.0375977
				c-1.428772,1.2157593-3.5726318,1.0431519-4.7884521-0.3856201c-0.6841431-0.8040161-0.9257202-1.8503418-0.7541504-2.8143921
				c1.361084-7.4189453,2.996582-14.6794434,4.7293701-21.8837891c0.8397827-3.6174927,1.7813721-7.1762085,2.6732788-10.7636719
				l2.8287964-10.6738892c1.9760132-7.0639038,3.901062-14.1572266,6.0856323-21.100647
				c2.1496582-6.9636841,4.5588379-13.7774658,6.9170532-20.6206665c1.1987915-3.4102783,2.1427612-6.9676514,2.961731-10.597229
				c0.8170776-3.6306152,1.5115356-7.3320312,2.4311523-10.9034424c0.9256592-3.5679321,2.1466064-6.9653931,3.8764648-10.0690308
				c1.7182617-3.1103516,3.9282227-5.9367676,6.5046387-8.5516357c5.1870728-5.210022,11.3272095-9.869751,18.7716064-13.7764893
				c3.7023315-1.9648438,7.7938843-3.704895,12.2608643-5.2282715c2.269165-0.7410889,4.5893555-1.4526978,7.1116943-2.0476685
				c1.2369385-0.3114014,2.5480347-0.5800171,3.8772583-0.8381958l2.0809326-0.3369751l1.0436401-0.166626l1.1121216-0.1271362
				C728.3577881,342.5577698,730.5754395,343.9224548,731.4944458,346.0328064z"/>
		</g>
		<g>
			<line class="st5" x1="558.1907959" y1="344.4328003" x2="643.4569702" y2="492.1181335"/>
			<path class="st5" d="M560.9620972,342.8327942l1.1121216,0.1271362l1.0435791,0.166626l2.0809937,0.3369751
				c1.3291626,0.2581787,2.6402588,0.5267944,3.8772583,0.8381958c2.5222778,0.5949707,4.8424683,1.3065796,7.1116333,2.0476685
				c4.46698,1.5233765,8.5585938,3.2634277,12.2609253,5.2282715c7.444397,3.9067383,13.5844727,8.5664673,18.7715454,13.7764893
				c2.576416,2.6148682,4.786377,5.4412842,6.5046997,8.5516357c1.7297974,3.1036377,2.9507446,6.5010986,3.8764648,10.0690308
				c0.9195557,3.5714111,1.6140747,7.2728271,2.4311523,10.9034424c0.8189087,3.6295776,1.7628784,7.1869507,2.9616699,10.597229
				c2.3582153,6.8432007,4.7674561,13.6569824,6.9170532,20.6206665c2.1846313,6.9434204,4.1096802,14.0367432,6.0856323,21.100647
				l2.8287964,10.6738892c0.8919067,3.5874634,1.8334961,7.1461792,2.6733398,10.7636719
				c1.7327881,7.2043457,3.3682251,14.4648438,4.7293091,21.8837891c0.338501,1.8452759-0.8829346,3.6155396-2.7282104,3.9541016
				c-1.0383301,0.1904907-2.0652466-0.1234741-2.8143921-0.7540894
				c-5.7444458-4.8881836-11.2144775-9.9348145-16.5872192-15.0375977
				c-2.7128906-2.5360718-5.3240967-5.1308594-7.9849243-7.6970215l-7.8294678-7.7867432
				c-5.1295776-5.2432251-10.3099976-10.4570312-15.230896-15.8206787
				c-4.9559326-5.3434448-9.6522217-10.836731-14.3995361-16.3006592c-2.3539429-2.7432861-4.9627686-5.3394775-7.6965942-7.8634644
				c-2.7356567-2.5229492-5.5939331-4.9750977-8.2271118-7.5571899c-2.6270142-2.5856934-4.9588623-5.3417358-6.7817993-8.3916626
				c-1.8344727-3.0432129-3.1772461-6.3703613-4.1535645-9.9089966c-1.918457-7.097168-2.8838501-14.7445068-2.5449829-23.1448975
				c0.1495361-4.1887207,0.6884155-8.6022339,1.6026001-13.2324219c0.4927979-2.3356934,1.0366211-4.7008667,1.7825317-7.1826782
				c0.3487549-1.2269287,0.7716675-2.4967041,1.2127075-3.7769165l0.7486572-1.9706421l0.3775024-0.9871216l0.4459229-1.0266724
				C556.3842773,343.8117371,558.6749878,342.5735168,560.9620972,342.8327942z"/>
		</g>
	</g>
	<circle class="st3" cx="643.6643066" cy="492.1357727" r="33.75"/>
</g>
<g id="Layer_3">
	<line class="st0" x1="457.400238" y1="1082.6999512" x2="457.400238" y2="662.6681519"/>
	<g>
		<g>
			<line class="st6" x1="457.1929016" y1="492.1181335" x2="457.1929016" y2="662.6505127"/>
			<path class="st6" d="M460.3928833,492.1181335l0.8995667,0.6661377l0.8204651,0.6661377l1.6336975,1.3322754
				c1.0220337,0.8881836,2.0231628,1.7763672,2.9386902,2.6645508c1.8869019,1.7764282,3.5404358,3.5527954,5.1350708,5.3291626
				c3.1068115,3.5527344,5.7802124,7.1055298,8.0040894,10.6582947c4.4936523,7.1055298,7.4812622,14.2110596,9.3684082,21.3165283
				c0.9238281,3.5527954,1.4244995,7.1055298,1.3574219,10.6582642c-0.053772,3.5527954-0.6951294,7.1055298-1.6773682,10.6583252
				c-0.9893799,3.5527344-2.2386475,7.1054688-3.3463135,10.6582031c-1.1055908,3.5527954-2.0667725,7.1055298-2.7337036,10.6583252
				c-1.3793335,7.1054688-2.6997681,14.2109985-4.3200073,21.3165283
				c-1.5797729,7.1055298-3.4593201,14.2109985-5.2799988,21.3165283l-2.8871765,10.6582642
				c-1.0212708,3.5527954-1.9852295,7.1055298-3.0666809,10.6582642
				c-2.1015015,7.1055298-4.3153992,14.2110596-6.8461609,21.3165894c-0.6294556,1.7672729-2.5724182,2.6896973-4.3397217,2.0602417
				c-0.9945068-0.354187-1.7268066-1.1395874-2.0602722-2.0602417c-2.5307312-7.1055298-4.7446289-14.2110596-6.8461609-21.3165894
				c-1.0814514-3.5527344-2.0453796-7.1054688-3.0666809-10.6582642l-2.887146-10.6582642
				c-1.8207092-7.1055298-3.7002258-14.2109985-5.2799988-21.3165283
				c-1.6202393-7.1055298-2.9407043-14.2110596-4.3200073-21.3165283
				c-0.6669312-3.5527954-1.6281433-7.1055298-2.7337036-10.6583252c-1.1076965-3.5527344-2.3569641-7.1054688-3.346283-10.6582031
				c-0.9822693-3.5527954-1.6236572-7.1055298-1.6773987-10.6583252c-0.0670776-3.5527344,0.4335632-7.1054688,1.3573914-10.6582642
				c1.887146-7.1054688,4.8747559-14.2109985,9.3684387-21.3165283c2.223877-3.5527649,4.8972778-7.1055603,8.0040894-10.6582947
				c1.594635-1.7763672,3.2481689-3.5527344,5.1350708-5.3291626c0.9154968-0.8881836,1.9166565-1.7763672,2.9386597-2.6645508
				l1.633728-1.3322754l0.8204651-0.6661377l0.8995361-0.6661377
				C455.9389648,490.6770325,458.5418396,490.7500305,460.3928833,492.1181335z"/>
		</g>
		<g>
			<line class="st6" x1="309.5075378" y1="577.3843384" x2="457.1929016" y2="662.6505127"/>
			<path class="st6" d="M311.1075439,574.6130371l1.0266724-0.4459839l0.9871216-0.3774414l1.9706421-0.7487183
				c1.2802124-0.440979,2.5499878-0.8638916,3.776947-1.2126465c2.4818115-0.7459106,4.8469849-1.2897339,7.1826782-1.7825317
				c4.630188-0.9142456,9.0436707-1.453064,13.2323914-1.6026611c8.4003906-0.3388672,16.04776,0.6265259,23.1448975,2.5449829
				c3.5386658,0.9763184,6.8657837,2.3191528,9.9090271,4.1536255c3.0498962,1.822937,5.8059692,4.1547241,8.3916321,6.7817993
				c2.5820923,2.6331787,5.0342407,5.4914551,7.5571899,8.2271118c2.5239868,2.7338257,5.1201782,5.3426514,7.8634644,7.6965942
				c5.4639282,4.7472534,10.9572449,9.4436035,16.3006897,14.3994751
				c5.3636475,4.9208984,10.5774536,10.1013794,15.8206482,15.230896l7.7867737,7.8294678
				c2.5661316,2.6608887,5.1609497,5.2720337,7.696991,7.9849854c5.1027832,5.3727417,10.1494141,10.8427734,15.0375977,16.5872192
				c1.2157898,1.428772,1.0431519,3.5726318-0.3856506,4.7884521c-0.8039856,0.6841431-1.8502808,0.9256592-2.8143616,0.7540894
				c-7.4189148-1.3610229-14.6794434-2.996521-21.8837585-4.7293091c-3.6174927-0.8397827-7.176239-1.7813721-10.7636719-2.6733398
				l-10.6739197-2.8287354c-7.0639038-1.9760132-14.157196-3.901062-21.100647-6.0856934
				c-6.9636841-2.1495972-13.7774658-4.5587769-20.6206665-6.9169922c-3.4102478-1.1988525-6.9676208-2.1427612-10.5971985-2.961731
				c-3.6306152-0.8170776-7.3320312-1.5115356-10.9034729-2.4311523c-3.5679321-0.9257202-6.9653931-2.1466064-10.0690308-3.8764648
				c-3.110321-1.7182617-5.9367676-3.9282227-8.5516357-6.5046387c-5.2099915-5.1870728-9.869751-11.3272095-13.7764587-18.7716064
				c-1.9648438-3.7023315-3.7049255-7.7939453-5.228302-12.2608643c-0.7410583-2.269165-1.4526978-4.5894165-2.0476379-7.1116943
				c-0.3114319-1.2369385-0.5800476-2.5480347-0.8382263-3.8772583l-0.3369446-2.0809326l-0.1666565-1.0436401l-0.1271362-1.1121216
				C307.6325378,577.7496948,308.9971924,575.5320435,311.1075439,574.6130371z"/>
		</g>
		<g>
			<line class="st6" x1="309.5075378" y1="747.916687" x2="457.1929016" y2="662.6505127"/>
			<path class="st6" d="M307.9075317,745.1453857l0.1271362-1.1121216l0.1666565-1.0435791l0.3369446-2.0809937
				c0.2581787-1.3291626,0.5267944-2.6403198,0.8382263-3.8772583c0.5949402-2.5222778,1.3065796-4.8424683,2.0476379-7.1116333
				c1.5233765-4.46698,3.2634583-8.5585938,5.228302-12.2609253c3.9067078-7.444397,8.5664673-13.5844727,13.7764587-18.7715454
				c2.6148682-2.576416,5.4413147-4.786377,8.5516357-6.5046997c3.1036377-1.7297974,6.5010986-2.9507446,10.0690308-3.8764648
				c3.5714417-0.9195557,7.2728577-1.6140747,10.9034729-2.4311523c3.6295776-0.8189087,7.1869507-1.7628784,10.5971985-2.9616699
				c6.8432007-2.3582764,13.6569824-4.7674561,20.6206665-6.9170532c6.9434509-2.1846313,14.0367432-4.1096802,21.100647-6.0856323
				l10.6739197-2.8287964c3.5874329-0.8919067,7.1461792-1.8334961,10.7636719-2.6733398
				c7.2043152-1.7327881,14.4648438-3.3682251,21.8837585-4.7293091c1.8452759-0.338501,3.6155701,0.8829346,3.9541016,2.7282104
				c0.1904907,1.0383301-0.1234741,2.0652466-0.7540894,2.8143311c-4.8881836,5.7444458-9.9348145,11.2145386-15.0375977,16.5872192
				c-2.5360413,2.7129517-5.1308594,5.3241577-7.696991,7.9849854l-7.7867737,7.8294678
				c-5.2431946,5.1295166-10.4570007,10.3099976-15.8206482,15.230896
				c-5.3434448,4.9559326-10.8367615,9.6522217-16.3006897,14.3995361
				c-2.7432861,2.3539429-5.3394775,4.9627075-7.8634644,7.6965332c-2.5229492,2.7357178-4.9750977,5.5939941-7.5571899,8.2271729
				c-2.5856628,2.6270142-5.3417358,4.9588623-8.3916321,6.7817993c-3.0432434,1.8344116-6.3703613,3.1772461-9.9090271,4.1535645
				c-7.0971375,1.918457-14.7445068,2.8838501-23.1448975,2.5449829c-4.1887207-0.1495972-8.6022034-0.6884155-13.2323914-1.6026001
				c-2.3356934-0.4927979-4.7008667-1.0366211-7.1826782-1.7825317c-1.2269592-0.3487549-2.4967346-0.7717285-3.776947-1.2127075
				l-1.9706421-0.7486572l-0.9871216-0.3775024l-1.0266724-0.4459839
				C308.8864746,749.7231445,307.6482544,747.4324951,307.9075317,745.1453857z"/>
		</g>
		<g>
			<line class="st6" x1="457.1929016" y1="833.1828613" x2="457.1929016" y2="662.6505127"/>
			<path class="st6" d="M453.9928894,833.1828613l-0.8995361-0.6661377l-0.8204651-0.6661987l-1.633728-1.3322754
				c-1.0220032-0.8881836-2.0231628-1.7763672-2.9386597-2.6645508c-1.8869019-1.7763672-3.5404358-3.5527344-5.1350708-5.3291626
				c-3.1068115-3.5527344-5.7802124-7.1054688-8.0040894-10.6582642
				c-4.4936829-7.1054688-7.4812927-14.2109985-9.3684387-21.3165283c-0.9238281-3.5527344-1.424469-7.1055298-1.3573914-10.6582642
				c0.0537415-3.5527344,0.6951294-7.1055298,1.6773987-10.6582642c0.9893188-3.5527344,2.2385864-7.1055298,3.346283-10.6582642
				c1.1055603-3.5527954,2.0667725-7.1055298,2.7337036-10.6582642c1.379303-7.1055298,2.6997681-14.2110596,4.3200073-21.3165894
				c1.5797729-7.1054688,3.4592896-14.2109985,5.2799988-21.3165283l2.887146-10.6582642
				c1.0213013-3.5527344,1.9852295-7.1055298,3.0666809-10.6582642c2.101532-7.1055298,4.3154297-14.2110596,6.8461609-21.3165283
				c0.6294556-1.767334,2.5724182-2.6897583,4.3397522-2.0603027c0.9944763,0.354248,1.7268066,1.1395874,2.0602417,2.0603027
				c2.5307617,7.1054688,4.7446594,14.2109985,6.8461609,21.3165283c1.0814514,3.5527344,2.0454102,7.1055298,3.0666809,10.6582642
				l2.8871765,10.6582642c1.8206787,7.1055298,3.7002258,14.2110596,5.2799988,21.3165283
				c1.6202393,7.1055298,2.9406738,14.2110596,4.3200073,21.3165894c0.6669312,3.5527344,1.6281128,7.1054688,2.7337036,10.6582642
				c1.107666,3.5527344,2.3569336,7.1055298,3.3463135,10.6582642c0.9822388,3.5527344,1.6235962,7.1055298,1.6773682,10.6582642
				c0.0670776,3.5527344-0.4335938,7.1055298-1.3574219,10.6582642c-1.887146,7.1055298-4.8747559,14.2110596-9.3684082,21.3165283
				c-2.223877,3.5527954-4.8972778,7.1055298-8.0040894,10.6582642c-1.594635,1.7764282-3.2481689,3.5527954-5.1350708,5.3291626
				c-0.9155273,0.8881836-1.9166565,1.7763672-2.9386902,2.6645508l-1.6336975,1.3322754l-0.8204651,0.6661987l-0.8995667,0.6661377
				C458.4468384,834.6239624,455.8439636,834.5509644,453.9928894,833.1828613z"/>
		</g>
		<g>
			<line class="st6" x1="604.8782349" y1="747.916687" x2="457.1929016" y2="662.6505127"/>
			<path class="st6" d="M603.2782593,750.6879272l-1.0266724,0.4459839l-0.9871216,0.3775024l-1.9706421,0.7486572
				c-1.2802124,0.440979-2.5499878,0.8639526-3.7769775,1.2127075c-2.4818115,0.7459106-4.8469849,1.2897339-7.1826782,1.7825317
				c-4.630188,0.9141846-9.0436401,1.4530029-13.2323608,1.6026001c-8.4003906,0.3388672-16.0477905-0.6265259-23.1448975-2.5449829
				c-3.5386963-0.9763184-6.8657837-2.3191528-9.9090576-4.1535645c-3.0498657-1.822937-5.8059692-4.1547852-8.3916016-6.7817993
				c-2.5820923-2.6331787-5.0342407-5.4914551-7.5571899-8.2271729c-2.5239868-2.7338257-5.1201782-5.3425903-7.8634644-7.6965332
				c-5.4639282-4.7473145-10.9572754-9.4436035-16.3007202-14.3995361
				c-5.3636475-4.9208984-10.5774536-10.1013794-15.8206177-15.230896l-7.7868042-7.8294678
				c-2.5661011-2.6608276-5.1609192-5.2720337-7.6969604-7.9849854
				c-5.1028137-5.3726807-10.1494141-10.8427734-15.0375977-16.5872192
				c-1.2158203-1.428772-1.0431519-3.5726318,0.3856201-4.7884521c0.8039856-0.6841431,1.8503113-0.9256592,2.8143921-0.7540894
				c7.4189148,1.361084,14.6794128,2.996521,21.883728,4.7293091c3.6174927,0.8398438,7.1762695,1.7814331,10.7636719,2.6733398
				l10.6739502,2.8287964c7.0639038,1.9759521,14.1572266,3.901001,21.100647,6.0856323
				c6.9636841,2.1495972,13.7774658,4.5587769,20.6206665,6.9170532c3.4102173,1.1987915,6.9675903,2.1427612,10.597168,2.9616699
				c3.6306152,0.8170776,7.3320312,1.5115967,10.9035034,2.4311523c3.5679321,0.9257202,6.9653931,2.1466675,10.0690308,3.8764648
				c3.1102905,1.7183228,5.9367676,3.9282837,8.5516357,6.5046997c5.2099609,5.1870728,9.869751,11.3271484,13.7764282,18.7715454
				c1.9648438,3.7023315,3.7049561,7.7939453,5.2283325,12.2609253c0.7410278,2.269165,1.4526978,4.5893555,2.0476074,7.1116333
				c0.3114624,1.2369385,0.5800781,2.5480957,0.8382568,3.8772583l0.3369141,2.0809937l0.166687,1.0435791l0.1271362,1.1121216
				C606.7532349,747.5512695,605.3886108,749.7689209,603.2782593,750.6879272z"/>
		</g>
		<g>
			<line class="st6" x1="604.8782349" y1="577.3843384" x2="457.1929016" y2="662.6505127"/>
			<path class="st6" d="M606.4782715,580.1555786l-0.1271362,1.1121216l-0.166687,1.0436401l-0.3369141,2.0809326
				c-0.2581787,1.3292236-0.5267944,2.6403198-0.8382568,3.8772583c-0.5949097,2.5222778-1.3065796,4.8425293-2.0476074,7.1116943
				c-1.5233765,4.4669189-3.2634888,8.5585327-5.2283325,12.2608643
				c-3.9066772,7.444397-8.5664673,13.5845337-13.7764282,18.7716064c-2.6148682,2.576416-5.4413452,4.786377-8.5516357,6.5046387
				c-3.1036377,1.7298584-6.5010986,2.9507446-10.0690308,3.8764648c-3.5714722,0.9196167-7.2728882,1.6140747-10.9035034,2.4311523
				c-3.6295776,0.8189697-7.1869507,1.7628784-10.597168,2.961731c-6.8432007,2.3582153-13.6569824,4.767395-20.6206665,6.9169922
				c-6.9434204,2.1846313-14.0367432,4.1096802-21.100647,6.0856934l-10.6739502,2.8287354
				c-3.5874023,0.8919678-7.1461792,1.8335571-10.7636719,2.6733398c-7.2043152,1.7327881-14.4648132,3.3682861-21.883728,4.7293091
				c-1.8452759,0.338562-3.6156006-0.8828735-3.9541321-2.7281494c-0.1904907-1.0383911,0.1235046-2.0652466,0.7541199-2.8143921
				c4.8881836-5.7444458,9.9347839-11.2144775,15.0375977-16.5872192c2.5360413-2.7129517,5.1308594-5.3240967,7.6969604-7.9849854
				l7.7868042-7.8294678c5.2431641-5.1295166,10.4569702-10.3099976,15.8206177-15.230896
				c5.3434448-4.9558716,10.836792-9.6522217,16.3007202-14.3994751c2.7432861-2.3539429,5.3394775-4.9627686,7.8634644-7.6965942
				c2.5229492-2.7356567,4.9750977-5.5939331,7.5571899-8.2271118c2.5856323-2.6270752,5.3417358-4.9588623,8.3916016-6.7817993
				c3.0432739-1.8344727,6.3703613-3.1773071,9.9090576-4.1536255c7.0971069-1.918457,14.7445068-2.8838501,23.1448975-2.5449829
				c4.1887207,0.1495972,8.6021729,0.6884155,13.2323608,1.6026611c2.3356934,0.4927979,4.7008667,1.0366211,7.1826782,1.7825317
				c1.2269897,0.3487549,2.4967651,0.7716675,3.7769775,1.2126465l1.9706421,0.7487183l0.9871216,0.3774414l1.0266724,0.4459839
				C605.4993286,575.5778198,606.7375488,577.8684692,606.4782715,580.1555786z"/>
		</g>
	</g>
	<g>
		<g>
			<line class="st7" x1="286.6605225" y1="662.6505127" x2="457.1929016" y2="662.6505127"/>
			<path class="st7" d="M286.660553,659.4505005l0.6661377-0.8995361l0.6661377-0.8204956l1.3322754-1.633728
				c0.8881836-1.0219727,1.7763977-2.0231323,2.6645813-2.9386597c1.7763672-1.8869019,3.5527649-3.5404053,5.3291321-5.1350708
				c3.5527649-3.1068115,7.1054993-5.7802124,10.6582642-8.0040894c7.1055298-4.4936523,14.2110291-7.4812622,21.3165588-9.3684082
				c3.5527344-0.9238281,7.1054993-1.4244995,10.6582642-1.3574219c3.5527649,0.053772,7.1054993,0.6951294,10.6582642,1.6774292
				c3.5527649,0.9893188,7.1055298,2.2385864,10.6582642,3.3462524c3.5527649,1.1055908,7.1055298,2.0667725,10.6582947,2.7337036
				c7.1054993,1.3793335,14.2110291,2.6997681,21.3165283,4.3200073c7.1055298,1.5797729,14.2110291,3.4592896,21.3165588,5.2800293
				l10.6582642,2.887146c3.5527649,1.0213013,7.1055298,1.9852295,10.6582642,3.0666504
				c7.1055298,2.1015625,14.2110291,4.3154297,21.3165588,6.8461914c1.7673035,0.6294556,2.6897278,2.5723877,2.0602722,4.3397217
				c-0.3542175,0.9945068-1.1395874,1.7268066-2.0602722,2.0602417c-7.1055298,2.5307617-14.2110291,4.7446899-21.3165588,6.8461914
				c-3.5527344,1.0814819-7.1054993,2.0454102-10.6582642,3.0666504l-10.6582642,2.887207
				c-7.1055298,1.8206787-14.2110291,3.7001953-21.3165588,5.2799683
				c-7.1054993,1.6202393-14.2110291,2.9406738-21.3165283,4.3200073
				c-3.5527649,0.6669312-7.1055298,1.6281128-10.6582947,2.7337036c-3.5527344,1.107666-7.1054993,2.3569336-10.6582642,3.3463135
				c-3.5527649,0.9822388-7.1054993,1.6236572-10.6582642,1.6773682c-3.5527649,0.0670776-7.1055298-0.4335938-10.6582642-1.3573608
				c-7.1055298-1.887146-14.2110291-4.8747559-21.3165588-9.3684692c-3.5527649-2.223877-7.1054993-4.8972778-10.6582642-8.0040894
				c-1.7763672-1.5946045-3.5527649-3.2481689-5.3291321-5.1350708c-0.8881836-0.9155273-1.7763977-1.916626-2.6645813-2.9386597
				l-1.3322754-1.633728l-0.6661377-0.8204346l-0.6661377-0.8995972
				C285.2194214,663.9044189,285.2924194,661.3015747,286.660553,659.4505005z"/>
		</g>
		<g>
			<line class="st7" x1="371.9267273" y1="810.3358154" x2="457.1929016" y2="662.6505127"/>
			<path class="st7" d="M369.155426,808.7358398l-0.4459534-1.0266724l-0.3774719-0.9871216l-0.7486877-1.9706421
				c-0.4410095-1.2802124-0.8639221-2.5499878-1.212677-3.7769165c-0.7459106-2.4818726-1.2897339-4.8469849-1.7825317-7.1827393
				c-0.9142151-4.630188-1.453064-9.0436401-1.6026306-13.2323608c-0.3388672-8.4003906,0.6265259-16.0477295,2.5449829-23.1448975
				c0.9763184-3.5386963,2.3191223-6.8657837,4.153595-9.9089966c1.822937-3.0499268,4.1547546-5.8060303,6.7817993-8.3916626
				c2.6331787-2.5820923,5.4914551-5.0342407,8.2271118-7.5571899c2.7338257-2.5239868,5.3426208-5.1201782,7.6965942-7.8634644
				c4.7472839-5.4639282,9.4436035-10.9572144,14.3995056-16.3006592
				c4.9208679-5.3637085,10.1013489-10.5774536,15.230896-15.8206787l7.8294678-7.7867432
				c2.6608582-2.5661621,5.2720337-5.1609497,7.9849548-7.6970215c5.3727417-5.1027832,10.8427734-10.1494141,16.5872192-15.0375977
				c1.4288025-1.2158203,3.5726624-1.0431519,4.7884521,0.3856201c0.6841736,0.8040161,0.9256897,1.8503418,0.7541199,2.8143921
				c-1.3610535,7.4189453-2.996521,14.6794434-4.7293091,21.883728c-0.8398132,3.6175537-1.7814026,7.1762695-2.6733398,10.7636719
				l-2.8287659,10.6739502c-1.9759827,7.0639038-3.9010315,14.1572266-6.0856628,21.100647
				c-2.1495972,6.9636841-4.5588074,13.7774658-6.9170227,20.6206665c-1.198822,3.4102783-2.1427612,6.9676514-2.9617004,10.597168
				c-0.8170776,3.6306763-1.5115662,7.3320923-2.4311523,10.9035034c-0.9257202,3.5679321-2.146637,6.9653931-3.8764648,10.0690308
				c-1.7183228,3.1103516-3.9282532,5.9367676-6.5046692,8.5516357c-5.1870728,5.210022-11.327179,9.869751-18.7716064,13.7764893
				c-3.702301,1.9647827-7.7939148,3.704895-12.2608643,5.2282715c-2.269165,0.7410889-4.589386,1.4526978-7.1116638,2.0476074
				c-1.236969,0.3114624-2.5480652,0.5800781-3.8772583,0.8382568l-2.0809631,0.3369751l-1.0436096,0.166626l-1.1121216,0.1271362
				C372.2920837,812.2108765,370.0744324,810.8461914,369.155426,808.7358398z"/>
		</g>
		<g>
			<line class="st7" x1="542.4590454" y1="810.3358154" x2="457.1929016" y2="662.6505127"/>
			<path class="st7" d="M539.6878052,811.9358521l-1.1121216-0.1271362l-1.0436401-0.166626l-2.0809326-0.3369751
				c-1.3292236-0.2581787-2.6403198-0.5267944-3.8772583-0.8382568c-2.5222778-0.5949097-4.8425293-1.3065186-7.1116943-2.0476074
				c-4.4669189-1.5233765-8.5585327-3.2634888-12.2608643-5.2282715
				c-7.444397-3.9067383-13.5845337-8.5664673-18.7716064-13.7764893c-2.576416-2.6148682-4.7863159-5.4412842-6.5046387-8.5516357
				c-1.7298584-3.1036377-2.9507446-6.5010986-3.8764648-10.0690308c-0.9196167-3.5714111-1.6140747-7.2728271-2.4311523-10.9035034
				c-0.8189697-3.6295166-1.7628784-7.1868896-2.9616699-10.597168c-2.3582764-6.8432007-4.7674561-13.6569824-6.9170837-20.6206665
				c-2.1846008-6.9434204-4.1096497-14.0367432-6.0856323-21.100647l-2.8287964-10.6739502
				c-0.8919067-3.5874023-1.8334961-7.1461182-2.6733093-10.7636719c-1.7327881-7.2042847-3.3682556-14.4647827-4.7293396-21.883728
				c-0.3385315-1.8452759,0.8829346-3.6156006,2.7282104-3.9541016c1.0383606-0.1904907,2.0652466,0.1234741,2.8143616,0.7540894
				c5.7444458,4.8881836,11.2145081,9.9348145,16.5872192,15.0375977c2.7129517,2.5360718,5.3240967,5.1308594,7.9849854,7.6970215
				l7.8294678,7.7867432c5.1295166,5.2432251,10.3099976,10.4569702,15.230896,15.8206787
				c4.9558716,5.3434448,9.6522217,10.836731,14.3994751,16.3006592c2.3540039,2.7432861,4.9627686,5.3394775,7.6965942,7.8634644
				c2.7356567,2.5229492,5.5939331,4.9750977,8.2271118,7.5571899c2.6270752,2.5856323,4.9588623,5.3417358,6.7817993,8.3916626
				c1.8344727,3.0432129,3.1773071,6.3703003,4.1536255,9.9089966c1.918457,7.097168,2.8838501,14.7445068,2.5449829,23.1448975
				c-0.1495972,4.1887207-0.6884155,8.6021729-1.6026611,13.2323608c-0.4927979,2.3357544-1.0366211,4.7008667-1.7824707,7.1827393
				c-0.3488159,1.2269287-0.7717285,2.4967041-1.2127075,3.7769165l-0.7487183,1.9706421l-0.3774414,0.9871216l-0.4459839,1.0266724
				C544.265564,810.9569092,541.9749146,812.1951294,539.6878052,811.9358521z"/>
		</g>
		<g>
			<line class="st7" x1="627.7252197" y1="662.6505127" x2="457.1929016" y2="662.6505127"/>
			<path class="st7" d="M627.7252197,665.8504639l-0.6661377,0.8995972l-0.6661377,0.8204346l-1.3322754,1.633728
				c-0.8881836,1.0220337-1.7763672,2.0231323-2.6645508,2.9386597c-1.7763672,1.8869019-3.5527344,3.5404663-5.3291626,5.1350708
				c-3.5527344,3.1068115-7.1054688,5.7802124-10.6582642,8.0040894
				c-7.1055298,4.4937134-14.2109985,7.4813232-21.3165283,9.3684692
				c-3.5527344,0.9237671-7.1055298,1.4244385-10.6582642,1.3573608c-3.5527954-0.0537109-7.1055298-0.6951294-10.6582642-1.6773682
				c-3.5527954-0.9893799-7.1055298-2.2386475-10.6582642-3.3463135c-3.5527954-1.1055908-7.1055298-2.0667725-10.6583252-2.7337036
				c-7.1054688-1.3793335-14.2109985-2.6997681-21.3165283-4.3200073
				c-7.1055298-1.5797729-14.2109985-3.4592896-21.3165283-5.2799683l-10.6582642-2.887207
				c-3.5527954-1.0212402-7.1055298-1.9851685-10.6582642-3.0666504
				c-7.1055298-2.1015015-14.2110596-4.3154297-21.3165588-6.8461914c-1.7673035-0.6294556-2.6897278-2.5723877-2.0602722-4.3397217
				c0.3542175-0.9945068,1.1395569-1.7268066,2.0602722-2.0602417c7.1054993-2.5307617,14.2110291-4.7446289,21.3165588-6.8461914
				c3.5527344-1.0814209,7.1054688-2.0453491,10.6582642-3.0666504l10.6582642-2.887146
				c7.1055298-1.8207397,14.2109985-3.7002563,21.3165283-5.2800293c7.1055298-1.6202393,14.2110596-2.9406738,21.3165283-4.3200073
				c3.5527954-0.6669312,7.1055298-1.6281128,10.6583252-2.7337036c3.5527344-1.107666,7.1054688-2.3569336,10.6582642-3.3462524
				c3.5527344-0.9822998,7.1054688-1.6236572,10.6582642-1.6774292c3.5527344-0.0670776,7.1055298,0.4335938,10.6582642,1.3574219
				c7.1055298,1.887146,14.2109985,4.8747559,21.3165283,9.3684082c3.5527954,2.223877,7.1055298,4.8972778,10.6582642,8.0040894
				c1.7764282,1.5946655,3.5527954,3.2481689,5.3291626,5.1350708c0.8881836,0.9155273,1.7763672,1.916687,2.6645508,2.9386597
				l1.3322754,1.633728l0.6661377,0.8204956l0.6661377,0.8995361
				C629.1663818,661.3965454,629.0933838,663.9994507,627.7252197,665.8504639z"/>
		</g>
		<g>
			<line class="st7" x1="542.4590454" y1="514.9651489" x2="457.1929016" y2="662.6505127"/>
			<path class="st7" d="M545.2303467,516.5651855l0.4459839,1.0266724l0.3774414,0.9871216l0.7487183,1.9706421
				c0.440979,1.2802124,0.8638916,2.5499268,1.2127075,3.7769165c0.7458496,2.4818115,1.2896729,4.8469849,1.7824707,7.1826782
				c0.9142456,4.630188,1.453064,9.0436401,1.6026611,13.2323608c0.3388672,8.4004517-0.6265259,16.0477905-2.5449829,23.1448975
				c-0.9763184,3.5386963-2.3191528,6.8657837-4.1536255,9.9090576c-1.822937,3.0498657-4.1547241,5.8059692-6.7817993,8.3916016
				c-2.6331787,2.5821533-5.4914551,5.0342407-8.2271118,7.5571899c-2.7338257,2.5239868-5.3425903,5.1201782-7.6965942,7.8634644
				c-4.7472534,5.4639282-9.4436035,10.9572754-14.3994751,16.3007202
				c-4.9208984,5.3636475-10.1013794,10.5774536-15.230896,15.8206177l-7.8294678,7.7868042
				c-2.6608887,2.5661011-5.2720337,5.1609497-7.9849854,7.6969604
				c-5.3727112,5.1027832-10.8427734,10.1494141-16.5872192,15.0375977
				c-1.428772,1.2158203-3.5726318,1.0431519-4.7884521-0.3856201c-0.6841431-0.8040161-0.9256897-1.8502808-0.7541199-2.8143921
				c1.361084-7.4188843,2.9965515-14.6794434,4.7293396-21.883728c0.8398132-3.6174927,1.7814026-7.1762695,2.6733093-10.7636719
				l2.8287964-10.6739502c1.9759827-7.0638428,3.9010315-14.1571655,6.0856323-21.100647
				c2.1496277-6.9636841,4.5588074-13.7774658,6.9170837-20.6206665c1.1987915-3.4102173,2.1427002-6.9675903,2.9616699-10.597168
				c0.8170776-3.6306152,1.5115356-7.3320312,2.4311523-10.9035034c0.9257202-3.5678711,2.1466064-6.965332,3.8764648-10.0690308
				c1.7183228-3.1102905,3.9282227-5.9367676,6.5046387-8.5516357c5.1870728-5.2099609,11.3272095-9.8696899,18.7716064-13.7764282
				c3.7023315-1.9648438,7.7939453-3.704895,12.2608643-5.2282715c2.269165-0.7410889,4.5894165-1.4526978,7.1116943-2.0476685
				c1.2369385-0.3114014,2.5480347-0.5800171,3.8772583-0.8382568l2.0809326-0.3369141l1.0436401-0.166687l1.1121216-0.1270752
				C542.093689,513.0901489,544.3113403,514.454834,545.2303467,516.5651855z"/>
		</g>
		<g>
			<line class="st7" x1="371.9267273" y1="514.9651489" x2="457.1929016" y2="662.6505127"/>
			<path class="st7" d="M374.697998,513.3651733l1.1121216,0.1270752l1.0436096,0.166687l2.0809631,0.3369141
				c1.3291931,0.2582397,2.6402893,0.5268555,3.8772583,0.8382568c2.5222778,0.5949707,4.8424988,1.3065796,7.1116638,2.0476685
				c4.4669495,1.5233765,8.5585632,3.2634277,12.2608643,5.2282715c7.4444275,3.9067383,13.5845337,8.5664673,18.7716064,13.7764282
				c2.576416,2.6148682,4.786377,5.4413452,6.5046692,8.5516357c1.7298279,3.1036987,2.9507446,6.5011597,3.8764648,10.0690308
				c0.9195862,3.5714722,1.6140747,7.2728882,2.4311523,10.9035034c0.8189392,3.6295776,1.7628784,7.1869507,2.9617004,10.597168
				c2.3582153,6.8432007,4.7674255,13.6569824,6.9170227,20.6206665c2.1846313,6.9434814,4.1096802,14.0368042,6.0856628,21.100647
				l2.8287659,10.6739502c0.8919373,3.5874023,1.8335266,7.1461792,2.6733398,10.7636719
				c1.7327881,7.2042847,3.3682556,14.4648438,4.7293091,21.883728c0.3385315,1.8452759-0.8829041,3.6156006-2.7281799,3.9541016
				c-1.0383606,0.1904907-2.0652466-0.1234741-2.8143921-0.7540894
				c-5.7444458-4.8881836-11.2144775-9.9348145-16.5872192-15.0375977
				c-2.7129211-2.5360107-5.3240967-5.1308594-7.9849548-7.6969604l-7.8294678-7.7868042
				c-5.1295471-5.2431641-10.3100281-10.4569702-15.230896-15.8206177
				c-4.9559021-5.3434448-9.6522217-10.836792-14.3995056-16.3007202c-2.3539734-2.7432861-4.9627686-5.3394775-7.6965942-7.8634644
				c-2.7356567-2.5229492-5.5939331-4.9750366-8.2271118-7.5571899c-2.6270447-2.5856323-4.9588623-5.3417358-6.7817993-8.3916016
				c-1.8344727-3.0432739-3.1772766-6.3703613-4.153595-9.9090576c-1.918457-7.0971069-2.8838501-14.7444458-2.5449829-23.1448975
				c0.1495667-4.1887207,0.6884155-8.6021729,1.6026306-13.2323608c0.4927979-2.3356934,1.0366211-4.7008667,1.7825317-7.1826782
				c0.3487549-1.2269897,0.7716675-2.4967041,1.212677-3.7769165l0.7486877-1.9706421l0.3774719-0.9871216l0.4459534-1.0266724
				C370.1202087,514.3440552,372.4108887,513.105896,374.697998,513.3651733z"/>
		</g>
	</g>
	<circle class="st3" cx="457.400238" cy="662.6681519" r="33.75"/>
</g>
</svg>
