<?xml version="1.0" encoding="utf-8"?>
<!-- Generator: Adobe Illustrator 21.1.0, SVG Export Plug-In . SVG Version: 6.00 Build 0)  -->
<svg version="1.1" id="Layer_1" xmlns="http://www.w3.org/2000/svg" xmlns:xlink="http://www.w3.org/1999/xlink" x="0px" y="0px"
	 viewBox="0 0 438 705.7919922" style="enable-background:new 0 0 438 705.7919922;" xml:space="preserve">
<style type="text/css">
	.st0{fill:#349922;stroke:#349922;stroke-width:2;stroke-linecap:round;stroke-linejoin:round;stroke-miterlimit:10;}
	.st1{fill:#D39C53;}
	.st2{fill:#9E753E;}
	.st3{opacity:0.1;}
	.st4{fill:#EFEB6C;}
	.st5{fill:#725818;stroke:#EFEB6C;stroke-width:0.35;stroke-linecap:round;stroke-linejoin:round;stroke-miterlimit:10;}
</style>
<line class="st0" x1="235.9715881" y1="604.2919922" x2="235.9715881" y2="188.7727509"/>
<g id="Pot_1_">
	<g>
		<polygon class="st1" points="211.5603027,517.7919922 198.0603027,517.7919922 198.0603027,517.7919922 211.5603027,517.7919922 
					"/>
		<polygon points="211.5603485,517.7919922 198.0603485,517.7919922 211.5603485,517.7919922 		"/>
	</g>
	<g>
		<path class="st1" d="M170.7349091,704.7919922c-8.8183594,0-16.1103516-7.21875-16.6005859-16.4326172l-7.8789062-148.0673828
			h175.6103668l-7.8798828,148.0673828c-0.4902344,9.2138672-7.7822266,16.4326172-16.6005859,16.4326172H170.7349091z"/>
		<path class="st1" d="M320.8110962,541.2919922l-7.822998,147.0134888
			c-0.4630127,8.684082-7.3166504,15.4865112-15.6027832,15.4865112H170.7352753
			c-8.2861328,0-15.1396484-6.8024902-15.6027832-15.4862671l-7.822876-147.0137329H320.8110962 M322.9203491,539.2919922
			h-177.719986l7.9349365,149.1199951c0.5200195,9.75,8.2449951,17.3800049,17.5999756,17.3800049h126.6500397
			c9.3549805,0,17.0800781-7.6300049,17.5999756-17.3800049L322.9203491,539.2919922L322.9203491,539.2919922z"/>
	</g>
	<g>
		<polygon class="st1" points="145.3960419,531.7919922 145.1177216,526.7919922 323.0025024,526.7919922 322.7241821,531.7919922 
					"/>
		<path d="M321.9458618,527.7919922l-0.1672363,3H146.3420868l-0.1672363-3H321.9458618 M324.0603638,525.7919922H144.0603485
			l0.3900146,7h179.219986L324.0603638,525.7919922L324.0603638,525.7919922z"/>
	</g>
	<g>
		<path class="st1" d="M131.5601044,531.7919922c-2.2060547,0-4-1.7939453-4-4v-20c0-2.2060547,1.7939453-4,4-4h205.0000153
			c2.2060547,0,4,1.7939453,4,4v20c0,2.2060547-1.7939453,4-4,4H131.5601044z"/>
		<path class="st1" d="M336.5603638,504.7919922c1.6541748,0,3,1.3457947,3,3v20c0,1.6542358-1.3458252,3-3,3H131.5603485
			c-1.6541748,0-3-1.3457642-3-3v-20c0-1.6542053,1.3458252-3,3-3H336.5603638 M336.5603638,502.7919922H131.5603485
			c-2.7600098,0-5,2.2400208-5,5v20c0,2.7599487,2.2399902,5,5,5h205.0000153c2.7600098,0,5-2.2400513,5-5v-20
			C341.5603638,505.0320129,339.3203735,502.7919922,336.5603638,502.7919922L336.5603638,502.7919922z"/>
	</g>
	<g>
		<polygon class="st2" points="146.0923309,538.2919922 145.5727997,533.7919922 322.5484009,533.7919922 322.0288696,538.2919922 
					"/>
		<path class="st2" d="M321.4263306,534.7919922l-0.2884521,2.5H146.9828339l-0.2884521-2.5H321.4263306 M323.6703491,532.7919922
			h-179.219986l0.75,6.5h177.719986L323.6703491,532.7919922L323.6703491,532.7919922z"/>
	</g>
	<g class="st3">
		<path d="M247.5601044,704.7919922v-201h89.5820465c1.8847656,0,3.4179688,1.7939453,3.4179688,4v20
			c0,2.2060547-1.5332031,4-3.4179688,4H324.847229l-0.7548828,7.3984375l-7.015625,149.1748047
			c-0.4345703,9.2109375-6.828125,16.4267578-14.5546875,16.4267578H247.5601044z"/>
		<path d="M337.1416626,504.7919922c1.3336182,0,2.4187012,1.3457947,2.4187012,3v20c0,1.6542358-1.085083,3-2.4187012,3
			h-11.3911133h-1.8063965l-0.1833496,1.7971191l-0.6627197,6.5l-0.0056152,0.0543823l-0.0025635,0.0545654l-7.0123291,149.119812
			c-0.4089355,8.677063-6.3632812,15.4741211-13.5556641,15.4741211h-53.9615631v-199H337.1416626 M337.1416626,502.7919922
			h-90.5813141v203h55.9615631c8.2672119,0,15.0939941-7.6300049,15.5534668-17.3800049l7.0123291-149.1199951l0.6628418-6.5
			h11.3911133c2.4390869,0,4.4187012-2.2400513,4.4187012-5v-20
			C341.5603638,505.0320129,339.5807495,502.7919922,337.1416626,502.7919922L337.1416626,502.7919922z"/>
	</g>
</g>
<g>
	<g>
		<line class="st4" x1="234.0603027" y1="56.122757" x2="234.0603027" y2="188.7590332"/>
		<path class="st4" d="M236.5603027,56.1227417c4.3696289,2.7632446,7.5452881,5.5265503,10.3525391,8.2897949
			c2.7806396,2.7632446,5.0266113,5.5264893,6.9024658,8.2897339c1.9311523,2.7633057,3.3847656,5.5265503,4.5797119,8.2897949
			c1.1604004,2.7632446,2.0477295,5.5264893,2.3928223,8.2897339c0.3720703,2.7633057,0.1464844,5.5265503-0.5061035,8.2897949
			c-0.6464844,2.7632446-1.6578369,5.5264893-2.5931396,8.2897949c-0.4768066,1.3815918-0.925293,2.7632446-1.425293,4.1448364
			c-0.5161133,1.3816528-1.2147217,2.7632446-2.0721436,4.1448975c-1.6871338,2.7632446-4.1333008,5.5264893-6.4433594,8.2897949
			c-2.288208,2.7632446-4.3220215,5.5264893-5.2905273,8.2897339c-0.5074463,1.3816528-0.7973633,2.7632446-0.871582,4.1448975
			c-0.088501,1.3815918,0.0581055,2.7632446,0.5093994,4.1448975c1.5129395,5.5264893,9.5778809,11.0529785,12.8376465,16.5795288
			c0.8155518,1.3815918,1.3338623,2.7632446,1.5506592,4.1448975c0.2419434,1.3815918,0.0787354,2.7632446-0.1346436,4.1448364
			c-0.4389648,2.7632446-1.3551025,5.5265503-2.7860107,8.2897949c-1.4486084,2.7632446-3.4108887,5.5264893-6.1025391,8.2897339
			c-2.7324219,2.7633057-5.9802246,5.5265503-10.8999023,8.2897949c-1.6068115,0.9024658-3.5006104,0.836731-5,0
			c-4.9196777-2.7632446-8.1674805-5.5264893-10.8999023-8.2897949c-2.6916504-2.7632446-4.6539307-5.5264893-6.1025391-8.2897339
			c-1.4309082-2.7632446-2.3470459-5.5265503-2.7860107-8.2897949c-0.2133789-1.3815918-0.3765869-2.7632446-0.1345215-4.1448364
			c0.2166748-1.3816528,0.7349854-2.7633057,1.5505371-4.1448975c3.2598877-5.5265503,11.324707-11.0530396,12.8376465-16.5795288
			c0.4512939-1.3816528,0.5979004-2.7633057,0.5093994-4.1448975c-0.0742188-1.3816528-0.3641357-2.7632446-0.871582-4.1448975
			c-0.9685059-2.7632446-3.0023193-5.5264893-5.2905273-8.2897339c-2.3100586-2.7633057-4.7562256-5.5265503-6.4433594-8.2897949
			c-0.8574219-1.3816528-1.5560303-2.7632446-2.0721436-4.1448975c-0.5-1.3815918-0.9484863-2.7632446-1.425293-4.1448364
			c-0.9353027-2.7633057-1.9466553-5.5265503-2.5931396-8.2897949c-0.6525879-2.7632446-0.8781738-5.5264893-0.5061035-8.2897949
			c0.3452148-2.7632446,1.2325439-5.5264893,2.3928223-8.2897339c1.1949463-2.7632446,2.6485596-5.5264893,4.5797119-8.2897949
			c1.8758545-2.7632446,4.1218262-5.5264893,6.9024658-8.2897339c2.807251-2.7632446,5.9829102-5.5265503,10.3525391-8.2897949
			C233.135498,55.1265869,235.0817871,55.1914062,236.5603027,56.1227417z"/>
	</g>
	<g>
		<line class="st4" x1="167.7421722" y1="73.8926468" x2="234.0603027" y2="188.7590332"/>
		<path class="st4" d="M169.9072266,72.6426392c5.1658936,0.2081909,9.2976074,1.0134888,13.1104736,2.0028687
			c3.7896729,1.0027466,7.1164551,2.2728271,10.1225586,3.7279663c3.0540771,1.4274902,5.6945801,3.093689,8.111084,4.8892212
			c2.3864746,1.8129272,4.536499,3.7623291,6.2171631,5.9827271c1.7037354,2.2070312,2.8900146,4.7128906,3.706543,7.432251
			c0.8217773,2.7163086,1.3275146,5.6150513,1.8991699,8.475708c0.277832,1.4349365,0.5802002,2.8557129,0.8380127,4.3022461
			c0.2438965,1.4545898,0.3297119,3.0003662,0.2779541,4.6256104c-0.0794678,3.2366333-0.8162842,6.8527832-1.4351807,10.4008789
			c-0.6000977,3.5371094-0.9797363,6.9470825-0.4368896,9.8243408c0.2513428,1.4502563,0.6911621,2.791748,1.317627,4.0253906
			c0.6142578,1.2407837,1.4320068,2.3640137,2.5135498,3.3348999c4.0734863,4.0296631,13.821167,4.7832642,19.4075928,7.9394531
			c1.3969727,0.7887573,2.5367432,1.7261353,3.4152832,2.81427c0.9003906,1.0755615,1.4498291,2.3536987,1.9558105,3.6569214
			c1.0015869,2.6124878,1.5898438,5.463562,1.7321777,8.5720825c0.1270752,3.1173706-0.1906738,6.4915771-1.1401367,10.2304688
			c-0.9846191,3.7592163-2.4157715,7.7762451-5.2946777,12.6290894c-0.9401855,1.5849609-2.6131592,2.4749756-4.3300781,2.5
			c-5.6422119,0.0667725-9.8365479-0.7023315-13.5844727-1.729187c-3.7126465-1.0472412-6.7937012-2.4591675-9.4299316-4.1278687
			c-2.6208496-1.6776123-4.7957764-3.6125488-6.5574951-5.7861938c-0.8756104-1.0898438-1.7078857-2.2047119-2.1890869-3.5222778
			c-0.5030518-1.3048706-0.7449951-2.7605591-0.7296143-4.3648071c0.0599365-6.4160767,4.2810059-15.2346191,2.8280029-20.7771606
			c-0.3000488-1.4221802-0.8638916-2.6919556-1.6313477-3.8442383c-0.755127-1.1594238-1.6968994-2.2109985-2.8272705-3.1538086
			c-2.2203369-1.9088135-5.3632812-3.2849731-8.7265625-4.5338745c-3.3822021-1.2380371-6.8822021-2.40802-9.7249756-3.9575195
			c-1.4333496-0.7677612-2.729126-1.6150513-3.8669434-2.5534668c-1.1237793-0.9465332-2.203125-1.9188232-3.3067627-2.8769531
			c-2.1916504-1.925415-4.4492188-3.8127441-6.390625-5.8825684c-1.9467773-2.0667114-3.5238037-4.3469849-4.583252-6.9260864
			c-1.0826416-2.5656128-1.6958008-5.4023438-2.0726318-8.3755493c-0.3468018-2.9905396-0.4694824-6.1104126-0.1787109-9.4690552
			c0.2429199-3.3309326,0.8063965-6.8469849,1.8327637-10.6303101c1.0496826-3.7967529,2.4180908-7.7775879,4.8208008-12.3554688
			C166.4432373,73.4923706,168.1611328,72.5753174,169.9072266,72.6426392z"/>
	</g>
	<g>
		<line class="st4" x1="119.193924" y1="122.4408951" x2="234.0603027" y2="188.7590332"/>
		<path class="st4" d="M120.4439697,120.2758179c4.5778809-2.4025879,8.5587158-3.7711182,12.3553467-4.8207397
			c3.7834473-1.0264282,7.2994385-1.5898438,10.6303711-1.8327026c3.3586426-0.2908325,6.4785156-0.1681519,9.4691162,0.1786499
			c2.9731445,0.37677,5.8098145,0.9899292,8.3754883,2.0726318c2.5791016,1.0594482,4.859375,2.6364136,6.9261475,4.583252
			c2.0697021,1.9414673,3.9571533,4.1989746,5.8825684,6.390564c0.9581299,1.1037598,1.9302979,2.1829834,2.8768311,3.3068237
			c0.9384766,1.1377563,1.7857666,2.4335327,2.5535889,3.8669434c1.5494385,2.8427124,2.7194824,6.3427734,3.9573975,9.7249756
			c1.2490234,3.3632812,2.6251221,6.5062256,4.5339355,8.7266235c0.9428711,1.130249,1.9943848,2.0721436,3.1538086,2.8272095
			c1.1522217,0.7674561,2.4221191,1.3313599,3.8442383,1.6313477c5.5426025,1.453064,14.361084-2.7681274,20.7770996-2.8280029
			c1.604248-0.0153809,3.0599365,0.2265015,4.3648682,0.7296143c1.3175049,0.4812622,2.4324951,1.3134155,3.5223389,2.1890259
			c2.173584,1.7617188,4.1085205,3.9367676,5.7861328,6.5576172c1.6687012,2.6361694,3.0805664,5.7172241,4.1278076,9.4298706
			c1.0268555,3.7479248,1.7960205,7.9422607,1.729248,13.5844727c-0.0218506,1.8427124-1.0256348,3.4499512-2.5,4.3300781
			c-4.8529053,2.8789062-8.869873,4.3100586-12.6290283,5.2947083c-3.7388916,0.9494019-7.1131592,1.2672119-10.2304688,1.1401367
			c-3.1085205-0.1424255-5.9597168-0.7306519-8.5721436-1.7322083c-1.3032227-0.5059814-2.5814209-1.055481-3.6568604-1.9558716
			c-1.0881348-0.87854-2.0255127-2.0181885-2.8143311-3.4152222c-3.1561279-5.5864258-3.90979-15.3341064-7.9394531-19.4075928
			c-0.9709473-1.081604-2.0941162-1.899353-3.3348389-2.5135498c-1.2336426-0.6265259-2.5751953-1.0662231-4.0253906-1.317627
			c-2.8773193-0.5428467-6.2872314-0.163208-9.8244629,0.4368286c-3.5480957,0.6189575-7.1641846,1.3557739-10.4007568,1.4352417
			c-1.6252441,0.0517578-3.1711426-0.0340576-4.6256104-0.2779541c-1.4465332-0.2578125-2.8673096-0.5601807-4.3022461-0.8380737
			c-2.8607178-0.5716553-5.7595215-1.0773926-8.475708-1.8991699c-2.7193604-0.8164062-5.2252197-2.0026855-7.432251-3.706543
			c-2.220459-1.680542-4.1699219-3.8306274-5.9827881-6.2171021c-1.7955322-2.4165039-3.461792-5.0570679-4.8892822-8.111084
			c-1.4550781-3.0061646-2.7250977-6.3328247-3.7279053-10.1225586c-0.9893799-3.8128052-1.7946777-7.9445801-2.0028076-13.1104736
			C117.8688965,122.7436523,118.8980713,121.0905762,120.4439697,120.2758179z"/>
	</g>
	<g>
		<line class="st4" x1="101.4240341" y1="188.7590332" x2="234.0603027" y2="188.7590332"/>
		<path class="st4" d="M101.4240723,186.2590332c2.7631836-4.3696899,5.5264893-7.5452881,8.2896729-10.3526001
			c2.7633057-2.7805786,5.5266113-5.0265503,8.2897949-6.9024048c2.7633057-1.9310913,5.5264893-3.3848267,8.2897949-4.5797729
			c2.7633057-1.1602783,5.5264893-2.0476074,8.2897949-2.3928223c2.7631836-0.3720093,5.5264893-0.1464844,8.2897949,0.5061646
			c2.7631836,0.6464844,5.5264893,1.6578369,8.2896729,2.5931396c1.3817139,0.4768066,2.7633057,0.925293,4.1448975,1.425293
			c1.3815918,0.5161133,2.7633057,1.2146606,4.1448975,2.0721436c2.7633057,1.6871338,5.5264893,4.1332397,8.2897949,6.4433594
			c2.7631836,2.288208,5.5264893,4.3219604,8.2897949,5.2904663c1.3815918,0.5074463,2.7631836,0.7973633,4.1448975,0.871582
			c1.3815918,0.088501,2.7631836-0.0580444,4.1447754-0.5092773c5.5266113-1.5129395,11.0531006-9.5778809,16.5795898-12.8377686
			c1.3815918-0.8154907,2.7633057-1.3338013,4.1448975-1.5505371c1.3815918-0.2420044,2.7631836-0.0787964,4.1448975,0.1345825
			c2.7631836,0.4389038,5.5264893,1.3550415,8.2896729,2.7859497c2.7633057,1.4486694,5.5266113,3.4110107,8.2897949,6.1026001
			c2.7633057,2.7323608,5.5264893,5.9802856,8.2897949,10.8999023c0.9024658,1.6067505,0.836792,3.5006104,0,5
			c-2.7633057,4.9196472-5.5264893,8.167511-8.2897949,10.8998718c-2.7631836,2.6916504-5.5264893,4.6539917-8.2897949,6.1026001
			c-2.7631836,1.4309082-5.5264893,2.3470459-8.2896729,2.7859497c-1.3817139,0.2133789-2.7633057,0.3766174-4.1448975,0.134613
			c-1.3815918-0.2167664-2.7633057-0.7350769-4.1448975-1.5505676
			c-5.5264893-3.2598572-11.0529785-11.3247681-16.5795898-12.8377075
			c-1.3815918-0.4512329-2.7631836-0.5978394-4.1447754-0.5093384c-1.3817139,0.0742493-2.7633057,0.3641357-4.1448975,0.871582
			c-2.7633057,0.9685059-5.5266113,3.0022888-8.2897949,5.2904968c-2.7633057,2.3100891-5.5264893,4.7562561-8.2897949,6.4433594
			c-1.3815918,0.8574829-2.7633057,1.5559998-4.1448975,2.072113c-1.3815918,0.5-2.7631836,0.9485168-4.1448975,1.425293
			c-2.7631836,0.9353027-5.5264893,1.9466858-8.2896729,2.5931396c-2.7633057,0.6526489-5.5266113,0.8782043-8.2897949,0.5061646
			c-2.7633057-0.3451843-5.5264893-1.2325134-8.2897949-2.3928223c-2.7633057-1.1949463-5.5264893-2.6486206-8.2897949-4.5797729
			c-2.7631836-1.875824-5.5264893-4.1217957-8.2897949-6.9023743c-2.7631836-2.8073425-5.5264893-5.9829102-8.2896729-10.3526001
			C100.4278564,189.6837769,100.4926758,187.7375488,101.4240723,186.2590332z"/>
	</g>
	<g>
		<line class="st4" x1="119.193924" y1="255.0771637" x2="234.0603027" y2="188.7590332"/>
		<path class="st4" d="M117.9439697,252.9121094c0.2081299-5.1658936,1.0134277-9.2976379,2.0028076-13.1105042
			c1.0028076-3.7896729,2.2728271-7.1163635,3.7279053-10.1225281c1.4274902-3.0540466,3.09375-5.6946106,4.8892822-8.111084
			c1.8128662-2.3864746,3.7623291-4.5365601,5.9827881-6.2171326c2.2070312-1.7038269,4.7128906-2.8901062,7.432251-3.706543
			c2.7161865-0.8217773,5.6149902-1.3275146,8.475708-1.8991394c1.4349365-0.2779236,2.8557129-0.5802917,4.3022461-0.8381042
			c1.4544678-0.2438354,3.0003662-0.3297119,4.6256104-0.2779236c3.2365723,0.0794373,6.8526611,0.8162537,10.4007568,1.4352112
			c3.5372314,0.6000366,6.9471436,0.9797058,9.8244629,0.4368286c1.4501953-0.2513428,2.791748-0.6911011,4.0253906-1.317627
			c1.2407227-0.6141663,2.3638916-1.4319458,3.3348389-2.5135193c4.0296631-4.0735168,4.7833252-13.821167,7.9394531-19.4075928
			c0.7888184-1.3970337,1.7261963-2.5367432,2.8143311-3.4152222c1.0754395-0.9004517,2.3536377-1.4498901,3.6568604-1.9558716
			c2.6124268-1.0015259,5.463623-1.5897827,8.5721436-1.7321777c3.1173096-0.1270752,6.4915771,0.1906738,10.2304688,1.1400757
			c3.7591553,0.9846802,7.776123,2.4158325,12.6290283,5.2947388c1.5849609,0.9402466,2.4749756,2.6132202,2.5,4.3300781
			c0.0667725,5.6421814-0.7023926,9.8365479-1.729248,13.5844727c-1.0472412,3.7126465-2.4591064,6.7937317-4.1278076,9.4299011
			c-1.6776123,2.6208191-3.6125488,4.7958679-5.7861328,6.5575867c-1.0898438,0.8756104-2.204834,1.7077942-3.5223389,2.1889954
			c-1.3049316,0.5031128-2.7606201,0.7450562-4.3648682,0.7296448c-6.4160156-0.0598755-15.2344971-4.2810669-20.7770996-2.8280334
			c-1.4221191,0.3000183-2.6920166,0.8638916-3.8442383,1.6313477c-1.1594238,0.7550964-2.2109375,1.696991-3.1538086,2.82724
			c-1.9088135,2.2203979-3.2849121,5.3633118-4.5339355,8.726593c-1.237915,3.3822327-2.407959,6.8822937-3.9573975,9.7250061
			c-0.7678223,1.4334106-1.6151123,2.7291565-2.5535889,3.8669434c-0.9465332,1.1238098-1.9187012,2.203064-2.8768311,3.3067932
			c-1.925415,2.1916199-3.8128662,4.4491272-5.8825684,6.3905945c-2.0667725,1.9468384-4.3470459,3.5238037-6.9261475,4.583252
			c-2.5656738,1.0826721-5.4023438,1.6958618-8.3754883,2.0726318c-2.9906006,0.3467712-6.1104736,0.4694519-9.4691162,0.1786804
			c-3.3309326-0.2428894-6.8469238-0.8063354-10.6303711-1.8327637c-3.7966309-1.0495911-7.7774658-2.4180908-12.3553467-4.8207397
			C118.7935791,256.3760986,117.8765869,254.6581726,117.9439697,252.9121094z"/>
	</g>
	<g>
		<line class="st4" x1="167.7421722" y1="303.6254272" x2="234.0603027" y2="188.7590332"/>
		<path class="st4" d="M165.5771484,302.3754272c-2.40271-4.5779114-3.7711182-8.5587463-4.8208008-12.3554688
			c-1.0263672-3.7833252-1.5898438-7.2993774-1.8327637-10.6303406c-0.2907715-3.3586121-0.1680908-6.4785156,0.1787109-9.4690247
			c0.3768311-2.9732056,0.9899902-5.809906,2.0726318-8.3755798c1.0594482-2.5790405,2.6364746-4.859314,4.583252-6.9260559
			c1.9414062-2.0698242,4.1989746-3.9571838,6.390625-5.8825684c1.1036377-0.9581299,2.1829834-1.9303894,3.3067627-2.8769226
			c1.1378174-0.9384766,2.4335938-1.7857361,3.8669434-2.5535278c2.8427734-1.5494995,6.3427734-2.7194519,9.7249756-3.9574585
			c3.3632812-1.2489624,6.5062256-2.6251221,8.7265625-4.533905c1.1303711-0.9428101,2.0721436-1.9943848,2.8272705-3.1537781
			c0.7674561-1.1522827,1.3312988-2.4221191,1.6313477-3.8442383c1.4530029-5.542572-2.7680664-14.361145-2.8280029-20.7771606
			c-0.0153809-1.6042786,0.2265625-3.059967,0.7296143-4.3648682c0.4812012-1.3175354,1.3134766-2.4324341,2.1890869-3.5222778
			c1.7617188-2.173584,3.9366455-4.108551,6.5574951-5.7861633c2.6362305-1.6687622,5.7172852-3.0806274,9.4299316-4.1278687
			c3.7479248-1.0268555,7.9422607-1.7959595,13.5844727-1.729187c1.8427734,0.0217896,3.4499512,1.0256348,4.3300781,2.5
			c2.8789062,4.8528442,4.3100586,8.869873,5.2946777,12.6290894c0.9494629,3.7388611,1.2672119,7.1130676,1.1401367,10.2304382
			c-0.142334,3.1085205-0.7305908,5.9596252-1.7321777,8.5721436c-0.5059814,1.3031921-1.0554199,2.5813293-1.9558105,3.6568604
			c-0.87854,1.0881653-2.0183105,2.0255127-3.4152832,2.8143005c-5.5864258,3.1561584-15.3341064,3.90979-19.4075928,7.9394226
			c-1.081543,0.9709167-1.899292,2.0941467-2.5135498,3.3349304c-0.6264648,1.2336426-1.0662842,2.5751038-1.317627,4.0253601
			c-0.5428467,2.8773193-0.163208,6.2872314,0.4368896,9.8244019c0.6188965,3.5480957,1.3557129,7.1642151,1.4351807,10.4008179
			c0.0517578,1.6252747-0.0340576,3.171051-0.2779541,4.6256409c-0.2578125,1.4465027-0.5601807,2.8673096-0.8380127,4.3022156
			c-0.5716553,2.8607178-1.0773926,5.7594604-1.8991699,8.4757385c-0.8165283,2.7193604-2.0028076,5.2251892-3.706543,7.4322205
			c-1.6806641,2.220459-3.8306885,4.1698303-6.2171631,5.9827271c-2.4165039,1.7955933-5.0570068,3.461792-8.111084,4.8892517
			c-3.0061035,1.4551392-6.3328857,2.7252197-10.1225586,3.7279663c-3.8128662,0.9893799-7.9445801,1.7946472-13.1104736,2.0028687
			C168.0449219,304.95047,166.3918457,303.9212341,165.5771484,302.3754272z"/>
	</g>
	<g>
		<line class="st4" x1="234.0603027" y1="321.3952942" x2="234.0603027" y2="188.7590332"/>
		<path class="st4" d="M231.5603027,321.3952942c-4.3696289-2.7632446-7.5452881-5.5264893-10.3525391-8.2897644
			c-2.7806396-2.7632446-5.0266113-5.5264893-6.9024658-8.2897644c-1.9311523-2.7632446-3.3847656-5.5265198-4.5797119-8.2897644
			c-1.1602783-2.7632446-2.0476074-5.5265198-2.3928223-8.2897644c-0.3720703-2.7632446-0.1464844-5.5265198,0.5061035-8.2897644
			c0.6464844-2.7632446,1.6578369-5.5265198,2.5931396-8.2897644c0.4768066-1.3816223,0.925293-2.7632751,1.425293-4.1448975
			c0.5161133-1.3816223,1.2147217-2.7632446,2.0721436-4.1448669c1.6871338-2.7632751,4.1333008-5.5265198,6.4433594-8.2897644
			c2.288208-2.7632751,4.3220215-5.5265198,5.2905273-8.2897644c0.5074463-1.3816528,0.7973633-2.7632751,0.871582-4.1448975
			c0.088501-1.3816223-0.0581055-2.7632446-0.5093994-4.1448975c-1.5129395-5.5264893-9.5777588-11.053009-12.8376465-16.5795288
			c-0.8155518-1.3816223-1.3338623-2.7632446-1.5505371-4.1448669c-0.2420654-1.3816223-0.0788574-2.7632751,0.1345215-4.1448975
			c0.4389648-2.7632446,1.3551025-5.5265198,2.7860107-8.2897644c1.4486084-2.7632446,3.4108887-5.5265198,6.1025391-8.2897644
			c2.7324219-2.7632751,5.9802246-5.5265198,10.8999023-8.2897644c1.6068115-0.9025269,3.5006104-0.836731,5,0
			c4.9196777,2.7632446,8.1674805,5.5264893,10.8999023,8.2897644c2.6916504,2.7632446,4.6539307,5.5265198,6.1025391,8.2897644
			c1.4309082,2.7632446,2.3470459,5.5265198,2.7860107,8.2897644c0.2133789,1.3816223,0.3765869,2.7632751,0.1346436,4.1448975
			c-0.2167969,1.3816223-0.7351074,2.7632446-1.5506592,4.1448669c-3.2597656,5.5265198-11.324707,11.0530396-12.8376465,16.5795288
			c-0.4512939,1.3816528-0.5979004,2.7632751-0.5093994,4.1448975c0.0742188,1.3816223,0.3641357,2.7632446,0.871582,4.1448975
			c0.9685059,2.7632446,3.0023193,5.5264893,5.2905273,8.2897644c2.3100586,2.7632446,4.7562256,5.5264893,6.4433594,8.2897644
			c0.8574219,1.3816223,1.5560303,2.7632446,2.0721436,4.1448669c0.5,1.3816223,0.9484863,2.7632751,1.425293,4.1448975
			c0.9353027,2.7632446,1.9466553,5.5265198,2.5931396,8.2897644c0.6525879,2.7632446,0.8781738,5.5265198,0.5061035,8.2897644
			c-0.3450928,2.7632446-1.2324219,5.5265198-2.3928223,8.2897644c-1.1949463,2.7632446-2.6485596,5.5265198-4.5797119,8.2897644
			c-1.8758545,2.7632751-4.1218262,5.5265198-6.9024658,8.2897644c-2.807251,2.7632751-5.9829102,5.5265198-10.3525391,8.2897644
			C234.9851074,322.391449,233.0388184,322.3266296,231.5603027,321.3952942z"/>
	</g>
	<g>
		<line class="st4" x1="300.3784485" y1="303.6254272" x2="234.0603027" y2="188.7590332"/>
		<path class="st4" d="M298.2133789,304.8754272c-5.1658936-0.2082214-9.2976074-1.0134888-13.1104736-2.0028687
			c-3.7896729-1.0027466-7.1164551-2.2728271-10.1225586-3.7279663c-3.0540771-1.4274597-5.6945801-3.0936584-8.111084-4.8892517
			c-2.3864746-1.8128967-4.536499-3.7622681-6.2171631-5.9827271c-1.7037354-2.2070312-2.8900146-4.7128601-3.706543-7.4322205
			c-0.8217773-2.7162781-1.3275146-5.6150208-1.8990479-8.4757385c-0.2779541-1.434906-0.5803223-2.8557129-0.8381348-4.3022156
			c-0.2438965-1.4545898-0.3297119-3.0003662-0.2779541-4.6256409c0.0794678-3.2366028,0.8162842-6.8527222,1.4351807-10.4008179
			c0.6000977-3.5371704,0.9797363-6.9470825,0.4368896-9.8244019c-0.2513428-1.4502563-0.6911621-2.7917175-1.317627-4.0253601
			c-0.6142578-1.2407837-1.4320068-2.3640137-2.5135498-3.3349304c-4.0734863-4.0296326-13.821167-4.7832642-19.4075928-7.9394226
			c-1.3969727-0.7887878-2.5367432-1.7261353-3.4152832-2.8143005c-0.9003906-1.075531-1.4498291-2.3536682-1.9558105-3.6568604
			c-1.0015869-2.6125183-1.5897217-5.463623-1.7321777-8.5721436c-0.1270752-3.1173706,0.1906738-6.4915771,1.1401367-10.2304382
			c0.9846191-3.7592163,2.4157715-7.7762451,5.2946777-12.6290894c0.9401855-1.5849609,2.6132812-2.4749756,4.3300781-2.5
			c5.6422119-0.0667725,9.8365479,0.7023315,13.5844727,1.729187c3.7126465,1.0472412,6.7937012,2.4591064,9.4299316,4.1278687
			c2.6208496,1.6776123,4.7957764,3.6125793,6.5576172,5.7861633c0.8756104,1.0898438,1.7077637,2.2047424,2.1889648,3.5222778
			c0.5030518,1.3049011,0.7449951,2.7605896,0.7296143,4.3648682c-0.0599365,6.4160156-4.2810059,15.2345886-2.8280029,20.7771606
			c0.3000488,1.4221191,0.8638916,2.6919556,1.6313477,3.8442383c0.755127,1.1593933,1.6968994,2.210968,2.8272705,3.1537781
			c2.2203369,1.908783,5.3632812,3.2849426,8.7265625,4.533905c3.3822021,1.2380066,6.8823242,2.407959,9.7249756,3.9574585
			c1.4333496,0.7677917,2.729126,1.6150513,3.8669434,2.5535278c1.1237793,0.9465332,2.203125,1.9187927,3.3067627,2.8769226
			c2.1916504,1.9253845,4.4492188,3.8127441,6.390625,5.8825684c1.9468994,2.0667419,3.5238037,4.3470154,4.583252,6.9260559
			c1.0826416,2.5656738,1.6958008,5.4023743,2.0726318,8.3755798c0.3468018,2.990509,0.4694824,6.1104126,0.1787109,9.4690247
			c-0.2429199,3.3309631-0.8063965,6.8470154-1.8327637,10.6303406c-1.0496826,3.7967224-2.4180908,7.7775574-4.8208008,12.3554688
			C301.6773682,304.0257263,299.9594727,304.9427185,298.2133789,304.8754272z"/>
	</g>
	<g>
		<line class="st4" x1="348.9266968" y1="255.0771637" x2="234.0603027" y2="188.7590332"/>
		<path class="st4" d="M347.6766357,257.242218c-4.5778809,2.4026489-8.5587158,3.7711487-12.3553467,4.8207397
			c-3.7834473,1.0264282-7.2994385,1.5898743-10.6303711,1.8327637c-3.3586426,0.2907715-6.4785156,0.1680908-9.4691162-0.1786804
			c-2.9731445-0.37677-5.8098145-0.9899597-8.3754883-2.0726318c-2.5791016-1.0594482-4.859375-2.6364136-6.9260254-4.583252
			c-2.0698242-1.9414673-3.9572754-4.1989746-5.8826904-6.3905945c-0.9581299-1.1037292-1.9302979-2.1829834-2.8768311-3.3067932
			c-0.9384766-1.1377869-1.7857666-2.4335327-2.5535889-3.8669434c-1.5494385-2.8427124-2.7194824-6.3427734-3.9573975-9.7250061
			c-1.2490234-3.3632812-2.6251221-6.5061951-4.5339355-8.726593c-0.942749-1.130249-1.9943848-2.0721436-3.1538086-2.82724
			c-1.1522217-0.7674561-2.4221191-1.3313293-3.8442383-1.6313477c-5.5424805-1.4530334-14.361084,2.768158-20.7770996,2.8280334
			c-1.604248,0.0154114-3.0599365-0.226532-4.3648682-0.7296448c-1.3175049-0.4812012-2.4324951-1.313385-3.5223389-2.1889954
			c-2.173584-1.7617188-4.1085205-3.9367676-5.7861328-6.5575867c-1.6687012-2.6361694-3.0805664-5.7172546-4.1278076-9.4299011
			c-1.0268555-3.7479248-1.7960205-7.9422913-1.729248-13.5844727c0.0218506-1.8427124,1.0256348-3.4499512,2.5-4.3300781
			c4.8529053-2.8789062,8.869873-4.3100586,12.6291504-5.2947388c3.7387695-0.9494019,7.1130371-1.2671509,10.2303467-1.1400757
			c3.1085205,0.142395,5.9597168,0.7306519,8.5721436,1.7321777c1.3032227,0.5059814,2.5814209,1.0554199,3.6568604,1.9558716
			c1.0881348,0.878479,2.0255127,2.0181885,2.8143311,3.4152222c3.1561279,5.5864258,3.90979,15.3340759,7.9394531,19.4075928
			c0.9709473,1.0815735,2.0941162,1.899353,3.3349609,2.5135193c1.2335205,0.6265259,2.5750732,1.0662842,4.0252686,1.317627
			c2.8773193,0.5428772,6.2872314,0.163208,9.8244629-0.4368286c3.5480957-0.6189575,7.1641846-1.3557739,10.4007568-1.4352112
			c1.6252441-0.0517883,3.1711426,0.0340881,4.6257324,0.2779236c1.4464111,0.2578125,2.8673096,0.5601807,4.302124,0.8381042
			c2.8607178,0.5716248,5.7595215,1.0773621,8.475708,1.8991394c2.7193604,0.8164368,5.2252197,2.0027161,7.432251,3.706543
			c2.220459,1.6805725,4.1699219,3.830658,5.9827881,6.2171326c1.7955322,2.4164734,3.461792,5.0570374,4.8892822,8.111084
			c1.4550781,3.0061646,2.7252197,6.3328552,3.7279053,10.1225281c0.9893799,3.8128662,1.7946777,7.9446106,2.0028076,13.1105042
			C350.251709,254.7743835,349.2225342,256.4274902,347.6766357,257.242218z"/>
	</g>
	<g>
		<line class="st4" x1="366.6965942" y1="188.7590332" x2="234.0603027" y2="188.7590332"/>
		<path class="st4" d="M366.6965332,191.2590332c-2.7631836,4.3696899-5.5264893,7.5452576-8.2896729,10.3526001
			c-2.7633057,2.7805786-5.5266113,5.0265503-8.2897949,6.9023743c-2.7633057,1.9311523-5.5264893,3.3848267-8.2897949,4.5797729
			c-2.7633057,1.1603088-5.5264893,2.0476379-8.2897949,2.3928223c-2.7631836,0.3720398-5.5264893,0.1464844-8.2896729-0.5061646
			c-2.7633057-0.6464539-5.5266113-1.6578369-8.2897949-2.5931396c-1.3817139-0.4767761-2.7633057-0.925293-4.1448975-1.425293
			c-1.3815918-0.5161133-2.7633057-1.2146301-4.1448975-2.072113c-2.7633057-1.6871033-5.5264893-4.1332703-8.2897949-6.4433594
			c-2.7631836-2.288208-5.5264893-4.321991-8.2897949-5.2904968c-1.3815918-0.5074463-2.7631836-0.7973328-4.1447754-0.871582
			c-1.3817139-0.088501-2.7633057,0.0581055-4.1448975,0.5093384c-5.5266113,1.5129395-11.0531006,9.5778503-16.5795898,12.8377075
			c-1.3815918,0.8154907-2.7631836,1.3338013-4.1448975,1.5505676c-1.3815918,0.2420044-2.7631836,0.0787659-4.1448975-0.134613
			c-2.7631836-0.4389038-5.5264893-1.3550415-8.2896729-2.7859497c-2.7633057-1.4486084-5.5266113-3.4109497-8.2897949-6.1026001
			c-2.7633057-2.7323608-5.5264893-5.9802246-8.2897949-10.8998718c-0.9024658-1.6068115-0.836792-3.5006104,0-5
			c2.7633057-4.9196167,5.5264893-8.1675415,8.2897949-10.8999023c2.7631836-2.6915894,5.5264893-4.6539307,8.2897949-6.1026001
			c2.7631836-1.4309082,5.5264893-2.3470459,8.2896729-2.7859497c1.3817139-0.2133789,2.7633057-0.3765869,4.1448975-0.1345825
			c1.3817139,0.2167358,2.7633057,0.7350464,4.1448975,1.5505371c5.5264893,3.2598877,11.0529785,11.3248291,16.5795898,12.8377686
			c1.3815918,0.4512329,2.7631836,0.5977783,4.1448975,0.5092773c1.3815918-0.0742188,2.7631836-0.3641357,4.1447754-0.871582
			c2.7633057-0.9685059,5.5266113-3.0022583,8.2897949-5.2904663c2.7633057-2.3101196,5.5264893-4.7562256,8.2897949-6.4433594
			c1.3815918-0.8574829,2.7633057-1.5560303,4.1448975-2.0721436c1.3815918-0.5,2.7631836-0.9484863,4.1448975-1.425293
			c2.7631836-0.9353027,5.5264893-1.9466553,8.2897949-2.5931396c2.7631836-0.6526489,5.5264893-0.8781738,8.2896729-0.5061646
			c2.7633057,0.3452148,5.5264893,1.2325439,8.2897949,2.3928223c2.7633057,1.1949463,5.5264893,2.6486816,8.2897949,4.5797729
			c2.7631836,1.8758545,5.5264893,4.1218262,8.2897949,6.9024048c2.7631836,2.807312,5.5264893,5.9829102,8.2896729,10.3526001
			C367.692749,187.8342896,367.6279297,189.7805176,366.6965332,191.2590332z"/>
	</g>
	<g>
		<line class="st4" x1="348.9266968" y1="122.4408951" x2="234.0603027" y2="188.7590332"/>
		<path class="st4" d="M350.1766357,124.605957c-0.2081299,5.1658936-1.0134277,9.2976685-2.0028076,13.1104736
			c-1.0026855,3.7897339-2.2728271,7.116394-3.7279053,10.1225586c-1.4274902,3.0540161-3.09375,5.6945801-4.8892822,8.111084
			c-1.8128662,2.3864746-3.7623291,4.5365601-5.9827881,6.2171021c-2.2070312,1.7038574-4.7128906,2.8901367-7.432251,3.706543
			c-2.7161865,0.8217773-5.6149902,1.3275146-8.475708,1.8991699c-1.4348145,0.2778931-2.8557129,0.5802612-4.302124,0.8380737
			c-1.4545898,0.2438965-3.0004883,0.3297119-4.6257324,0.2779541c-3.2365723-0.0794678-6.8526611-0.8162842-10.4007568-1.4352417
			c-3.5372314-0.6000366-6.9471436-0.9796753-9.8244629-0.4368286c-1.4501953,0.2514038-2.791748,0.6911011-4.0252686,1.317627
			c-1.2408447,0.6141968-2.3640137,1.4319458-3.3349609,2.5135498c-4.0296631,4.0734863-4.7833252,13.821167-7.9394531,19.4075928
			c-0.7888184,1.3970337-1.7261963,2.5366821-2.8143311,3.4152222c-1.0754395,0.9003906-2.3536377,1.4498901-3.6568604,1.9558716
			c-2.6124268,1.0015564-5.463623,1.5897827-8.5721436,1.7322083c-3.1173096,0.1270752-6.4915771-0.1907349-10.2303467-1.1401367
			c-3.7592773-0.9846497-7.7762451-2.415802-12.6291504-5.2947083c-1.5849609-0.9402466-2.4749756-2.6132202-2.5-4.3300781
			c-0.0667725-5.6422119,0.7023926-9.8365479,1.729248-13.5844727c1.0472412-3.7126465,2.4591064-6.7937012,4.1278076-9.4298706
			c1.6776123-2.6208496,3.6125488-4.7958984,5.7861328-6.5576172c1.0898438-0.8756104,2.204834-1.7077637,3.5223389-2.1890259
			c1.3049316-0.5031128,2.7606201-0.7449951,4.3648682-0.7296143c6.4160156,0.0598755,15.2346191,4.2810669,20.7770996,2.8280029
			c1.4221191-0.2999878,2.6920166-0.8638916,3.8442383-1.6313477c1.1594238-0.7550659,2.2110596-1.6969604,3.1538086-2.8272095
			c1.9088135-2.2203979,3.2849121-5.3633423,4.5339355-8.7266235c1.237915-3.3822021,2.407959-6.8822632,3.9573975-9.7249756
			c0.7678223-1.4334106,1.6151123-2.729187,2.5535889-3.8669434c0.9465332-1.1238403,1.9187012-2.203064,2.8768311-3.3068237
			c1.925415-2.1915894,3.8128662-4.4490967,5.8826904-6.390564c2.0666504-1.9468384,4.3469238-3.5238037,6.9260254-4.583252
			c2.5656738-1.0827026,5.4023438-1.6958618,8.3754883-2.0726318c2.9906006-0.3468018,6.1104736-0.4694824,9.4691162-0.1786499
			c3.3309326,0.2428589,6.8469238,0.8062744,10.6303711,1.8327026c3.7966309,1.0496216,7.7774658,2.4181519,12.3553467,4.8207397
			C349.3270264,121.1419678,350.2440186,122.8598633,350.1766357,124.605957z"/>
	</g>
	<g>
		<line class="st4" x1="300.3784485" y1="73.8926468" x2="234.0603027" y2="188.7590332"/>
		<path class="st4" d="M302.543457,75.1426392c2.40271,4.5778809,3.7711182,8.5587158,4.8208008,12.3554688
			c1.0263672,3.7833252,1.5898438,7.2993774,1.8327637,10.6303101c0.2907715,3.3586426,0.1680908,6.4785156-0.1787109,9.4690552
			c-0.3768311,2.9732056-0.9899902,5.8099365-2.0726318,8.3755493c-1.0594482,2.5791016-2.6363525,4.859375-4.583252,6.9260864
			c-1.9414062,2.0698242-4.1989746,3.9571533-6.390625,5.8825684c-1.1036377,0.9581299-2.1829834,1.9304199-3.3067627,2.8769531
			c-1.1378174,0.9384155-2.4335938,1.7857056-3.8669434,2.5534668c-2.8426514,1.5494995-6.3427734,2.7194824-9.7249756,3.9575195
			c-3.3632812,1.2489014-6.5062256,2.625061-8.7265625,4.5338745c-1.1303711,0.9428101-2.0721436,1.9943848-2.8272705,3.1538086
			c-0.7674561,1.1522827-1.3312988,2.4220581-1.6313477,3.8442383c-1.4530029,5.5425415,2.7680664,14.361084,2.8280029,20.7771606
			c0.0153809,1.604248-0.2265625,3.0599365-0.7296143,4.3648071c-0.4812012,1.3175659-1.3133545,2.4324341-2.1889648,3.5222778
			c-1.7618408,2.173645-3.9367676,4.1085815-6.5576172,5.7861938c-2.6362305,1.6687012-5.7172852,3.0806274-9.4299316,4.1278687
			c-3.7479248,1.0268555-7.9422607,1.7959595-13.5844727,1.729187c-1.8427734-0.0217896-3.4499512-1.0256348-4.3300781-2.5
			c-2.8789062-4.8528442-4.3100586-8.869873-5.2946777-12.6290894c-0.9494629-3.7388916-1.2672119-7.1130981-1.1401367-10.2304688
			c0.1424561-3.1085205,0.7305908-5.9595947,1.7321777-8.5720825c0.5059814-1.3032227,1.0554199-2.5813599,1.9558105-3.6569214
			c0.87854-1.0881348,2.0183105-2.0255127,3.4152832-2.81427c5.5864258-3.156189,15.3341064-3.90979,19.4075928-7.9394531
			c1.081543-0.9708862,1.899292-2.0941162,2.5135498-3.3348999c0.6264648-1.2336426,1.0662842-2.5751343,1.317627-4.0253906
			c0.5428467-2.8772583,0.163208-6.2872314-0.4368896-9.8243408c-0.6188965-3.5480957-1.3557129-7.1642456-1.4351807-10.4008789
			c-0.0517578-1.6252441,0.0340576-3.1710205,0.2779541-4.6256104c0.2578125-1.4465332,0.5601807-2.8673096,0.8381348-4.3022461
			c0.5715332-2.8606567,1.0772705-5.7593994,1.8990479-8.475708c0.8165283-2.7193604,2.0028076-5.2252197,3.706543-7.432251
			c1.6806641-2.2203979,3.8306885-4.1697998,6.2171631-5.9827271c2.4165039-1.7955322,5.0570068-3.461731,8.111084-4.8892212
			c3.0061035-1.4551392,6.3328857-2.7252197,10.1225586-3.7279663c3.8128662-0.9893799,7.9445801-1.7946777,13.1104736-2.0028687
			C300.0756836,72.5675659,301.7287598,73.5968628,302.543457,75.1426392z"/>
	</g>
</g>
<circle class="st5" cx="235.9715881" cy="188.7727509" r="26.25"/>
</svg>
