<?xml version="1.0" encoding="utf-8"?>
<!-- Generator: Adobe Illustrator 21.1.0, SVG Export Plug-In . SVG Version: 6.00 Build 0)  -->
<svg version="1.1" id="Layer_1" xmlns="http://www.w3.org/2000/svg" xmlns:xlink="http://www.w3.org/1999/xlink" x="0px" y="0px"
	 viewBox="0 0 100 100" style="enable-background:new 0 0 100 100;" xml:space="preserve">
<style type="text/css">
	.st0{fill:#F2E94E;}
	.st1{fill:#FFE97D;}
	.st2{fill:#F9D026;}
	.st3{fill:#7F6628;stroke:#EFEB6C;stroke-width:0.24;stroke-linecap:round;stroke-linejoin:round;stroke-miterlimit:10;}
</style>
<g id="Flower_3_">
	<g>
		<g>
			<path class="st0" d="M40.6,3.1c1.2,0.8,2.2,1.6,3.1,2.5c0.9,0.8,1.7,1.7,2.5,2.6c1.5,1.8,2.7,3.6,3.8,5.4
				c2.1,3.7,3.4,7.5,4.1,11.4c0.7,3.9,0.9,8,0.2,12.1c-0.3,2.1-0.8,4.2-1.6,6.4c-0.4,1.1-0.8,2.2-1.4,3.3c-0.5,1.1-1.2,2.2-2,3.4
				c-1.2-0.8-2.2-1.6-3.1-2.5c-0.9-0.8-1.7-1.7-2.5-2.6c-1.5-1.8-2.7-3.5-3.8-5.4c-2.1-3.7-3.4-7.5-4.1-11.4
				c-0.7-3.9-0.8-8-0.2-12.1c0.3-2.1,0.8-4.2,1.6-6.4c0.4-1.1,0.8-2.2,1.4-3.3C39.1,5.3,39.8,4.2,40.6,3.1z"/>
		</g>
		<g>
			<path class="st1" d="M17.1,13.5c1.4,0.1,2.7,0.3,3.9,0.6c1.2,0.3,2.4,0.6,3.5,1c2.2,0.8,4.2,1.7,6.1,2.8c3.7,2.1,6.8,4.8,9.5,7.8
				c2.7,3.1,4.9,6.5,6.6,10.5c0.8,2,1.5,4.1,2,6.4c0.2,1.2,0.4,2.3,0.5,3.6c0.1,1.3,0.2,2.5,0.1,4c-1.4-0.1-2.7-0.3-4-0.6
				c-1.2-0.3-2.4-0.6-3.5-1c-2.2-0.8-4.2-1.7-6.1-2.8c-3.7-2.1-6.8-4.8-9.5-7.9c-2.7-3.1-4.9-6.5-6.5-10.5c-0.8-2-1.5-4.1-2-6.4
				c-0.2-1.2-0.4-2.3-0.5-3.6C17.1,16.2,17,15,17.1,13.5z"/>
		</g>
		<g>
			<path class="st2" d="M2.3,33.8c1.3-0.6,2.6-1.1,3.8-1.4c1.2-0.4,2.4-0.6,3.6-0.8c2.3-0.4,4.6-0.6,6.8-0.5
				c4.4,0.1,8.5,0.9,12.4,2.2c3.9,1.4,7.6,3.3,11.1,6c1.7,1.3,3.4,2.9,5,4.6c0.8,0.9,1.6,1.8,2.3,2.9c0.7,1,1.4,2.1,2.1,3.5
				c-1.3,0.6-2.6,1.1-3.8,1.4c-1.2,0.4-2.4,0.6-3.6,0.8c-2.3,0.4-4.6,0.6-6.8,0.5c-4.4-0.1-8.5-0.9-12.4-2.2
				c-3.9-1.4-7.6-3.3-11.1-6c-1.7-1.3-3.4-2.9-5-4.6c-0.8-0.9-1.6-1.8-2.3-2.9C3.6,36.2,2.9,35.1,2.3,33.8z"/>
		</g>
		<g>
			<path class="st0" d="M0,58.4c0.9-1.2,1.7-2.2,2.6-3.1c0.9-0.9,1.8-1.7,2.8-2.5c1.9-1.5,3.8-2.7,5.7-3.7c3.9-2.1,7.9-3.3,12-4
				c4.1-0.7,8.3-0.8,12.6-0.1c2.2,0.3,4.4,0.9,6.6,1.7c1.1,0.4,2.3,0.9,3.4,1.4c1.1,0.6,2.3,1.2,3.5,2c-0.9,1.2-1.7,2.2-2.6,3.1
				c-0.9,0.9-1.8,1.7-2.7,2.5c-1.9,1.5-3.8,2.7-5.7,3.7c-3.9,2.1-7.9,3.3-12,4c-4.1,0.7-8.3,0.8-12.6,0.1c-2.2-0.3-4.4-0.9-6.6-1.7
				c-1.1-0.4-2.3-0.9-3.4-1.4C2.4,59.9,1.2,59.3,0,58.4z"/>
		</g>
		<g>
			<path class="st1" d="M11,80.9c0.2-1.4,0.4-2.7,0.8-3.9c0.3-1.2,0.7-2.4,1.2-3.5c0.9-2.2,1.9-4.2,3.1-6c2.3-3.6,5.1-6.7,8.3-9.2
				c3.2-2.6,6.8-4.7,10.8-6.1c2-0.7,4.2-1.3,6.5-1.7c1.2-0.2,2.4-0.3,3.6-0.4c1.3-0.1,2.6-0.1,4,0.1c-0.1,1.4-0.4,2.7-0.8,3.9
				c-0.3,1.2-0.7,2.4-1.2,3.5c-0.9,2.2-1.9,4.2-3.1,6c-2.3,3.6-5.1,6.7-8.3,9.2c-3.2,2.5-6.8,4.6-10.8,6.1c-2,0.7-4.2,1.3-6.5,1.7
				c-1.2,0.2-2.4,0.3-3.6,0.4C13.7,81,12.4,81,11,80.9z"/>
		</g>
		<g>
			<path class="st2" d="M32.2,95.1c-0.6-1.3-1-2.5-1.3-3.7c-0.3-1.2-0.6-2.4-0.8-3.5c-0.4-2.3-0.5-4.5-0.4-6.6
				c0.1-4.2,1-8.2,2.4-11.9c1.4-3.7,3.4-7.3,6.1-10.5c1.4-1.6,2.9-3.2,4.7-4.6c0.9-0.7,1.9-1.4,2.9-2.1c1-0.7,2.2-1.3,3.5-1.9
				c0.6,1.3,1,2.5,1.3,3.7c0.3,1.2,0.6,2.4,0.8,3.5c0.4,2.3,0.5,4.5,0.4,6.6c-0.1,4.2-1,8.2-2.4,11.9c-1.4,3.7-3.4,7.3-6.1,10.5
				c-1.4,1.6-2.9,3.2-4.7,4.6c-0.9,0.7-1.9,1.4-2.9,2.1C34.6,93.8,33.5,94.5,32.2,95.1z"/>
		</g>
		<g>
			<path class="st0" d="M58,97.2c-1.2-0.8-2.2-1.6-3.1-2.5c-0.9-0.8-1.7-1.7-2.5-2.6c-1.5-1.8-2.7-3.6-3.8-5.4
				c-2.1-3.7-3.4-7.5-4.1-11.4c-0.7-3.9-0.9-8-0.2-12.1c0.3-2.1,0.8-4.2,1.6-6.4c0.4-1.1,0.8-2.2,1.4-3.3c0.5-1.1,1.2-2.2,2-3.4
				c1.2,0.8,2.2,1.6,3.1,2.5c0.9,0.8,1.7,1.7,2.5,2.6c1.5,1.8,2.7,3.5,3.8,5.4c2.1,3.7,3.4,7.5,4.1,11.4c0.7,3.9,0.8,8,0.2,12.1
				c-0.3,2.1-0.8,4.2-1.6,6.4c-0.4,1.1-0.8,2.2-1.4,3.3C59.4,94.9,58.8,96,58,97.2z"/>
		</g>
		<g>
			<path class="st1" d="M81.4,86.7c-1.4-0.1-2.7-0.3-3.9-0.6c-1.2-0.3-2.4-0.6-3.5-1c-2.2-0.8-4.2-1.7-6.1-2.8
				c-3.7-2.1-6.8-4.8-9.5-7.8c-2.7-3.1-4.9-6.5-6.6-10.5c-0.8-2-1.5-4.1-2-6.4c-0.2-1.2-0.4-2.3-0.5-3.6c-0.1-1.3-0.2-2.5-0.1-4
				c1.4,0.1,2.7,0.3,4,0.6c1.2,0.3,2.4,0.6,3.5,1c2.2,0.8,4.2,1.7,6.1,2.8c3.7,2.1,6.8,4.8,9.5,7.9c2.7,3.1,4.9,6.5,6.5,10.5
				c0.8,2,1.5,4.1,2,6.4c0.2,1.2,0.4,2.3,0.5,3.6C81.4,84,81.5,85.3,81.4,86.7z"/>
		</g>
		<g>
			<path class="st2" d="M96.3,66.5c-1.3,0.6-2.6,1.1-3.8,1.4c-1.2,0.4-2.4,0.6-3.6,0.8c-2.3,0.4-4.6,0.6-6.8,0.5
				c-4.4-0.1-8.5-0.9-12.4-2.2c-3.9-1.4-7.6-3.3-11.1-6c-1.7-1.3-3.4-2.9-5-4.6c-0.8-0.9-1.6-1.8-2.3-2.9c-0.7-1-1.4-2.1-2.1-3.5
				c1.3-0.6,2.6-1.1,3.8-1.4c1.2-0.4,2.4-0.6,3.6-0.8c2.3-0.4,4.6-0.6,6.8-0.5c4.4,0.1,8.5,0.9,12.4,2.2c3.9,1.4,7.6,3.3,11.1,6
				c1.7,1.3,3.4,2.9,5,4.6c0.8,0.9,1.6,1.8,2.3,2.9C94.9,64.1,95.6,65.2,96.3,66.5z"/>
		</g>
		<g>
			<path class="st0" d="M98.5,41.8c-0.9,1.2-1.7,2.2-2.6,3.1c-0.9,0.9-1.8,1.7-2.8,2.5c-1.9,1.5-3.8,2.7-5.7,3.7
				c-3.9,2.1-7.9,3.3-12,4c-4.1,0.7-8.3,0.8-12.6,0.1c-2.2-0.3-4.4-0.9-6.6-1.7c-1.1-0.4-2.3-0.9-3.4-1.4c-1.1-0.6-2.3-1.2-3.5-2
				c0.9-1.2,1.7-2.2,2.6-3.1c0.9-0.9,1.8-1.7,2.7-2.5c1.9-1.5,3.8-2.7,5.7-3.7c3.9-2.1,7.9-3.3,12-4c4.1-0.7,8.3-0.8,12.6-0.1
				c2.2,0.3,4.4,0.9,6.6,1.7c1.1,0.4,2.3,0.9,3.4,1.4C96.2,40.4,97.3,41,98.5,41.8z"/>
		</g>
		<g>
			<path class="st1" d="M87.6,19.4c-0.2,1.4-0.4,2.7-0.8,3.9c-0.3,1.2-0.7,2.4-1.2,3.5c-0.9,2.2-1.9,4.2-3.1,6
				c-2.3,3.6-5.1,6.7-8.3,9.2c-3.2,2.6-6.8,4.7-10.8,6.1c-2,0.7-4.2,1.3-6.5,1.7c-1.2,0.2-2.4,0.3-3.6,0.4c-1.3,0.1-2.6,0.1-4-0.1
				c0.1-1.4,0.4-2.7,0.8-3.9c0.3-1.2,0.7-2.4,1.2-3.5c0.9-2.2,1.9-4.2,3.1-6c2.3-3.6,5.1-6.7,8.3-9.2c3.2-2.5,6.8-4.6,10.8-6.1
				c2-0.7,4.2-1.3,6.5-1.7c1.2-0.2,2.4-0.3,3.6-0.4C84.8,19.2,86.1,19.2,87.6,19.4z"/>
		</g>
		<g>
			<path class="st2" d="M66.4,5.2c0.6,1.3,1,2.5,1.3,3.7c0.3,1.2,0.6,2.4,0.8,3.5c0.4,2.3,0.5,4.5,0.4,6.6c-0.1,4.2-1,8.2-2.4,11.9
				c-1.4,3.7-3.4,7.3-6.1,10.5c-1.4,1.6-2.9,3.2-4.7,4.6c-0.9,0.7-1.9,1.4-2.9,2.1c-1,0.7-2.2,1.3-3.5,1.9c-0.6-1.3-1-2.5-1.3-3.7
				c-0.3-1.2-0.6-2.4-0.8-3.5c-0.4-2.3-0.5-4.5-0.4-6.6c0.1-4.2,1-8.2,2.4-11.9c1.4-3.7,3.4-7.3,6.1-10.5c1.4-1.6,2.9-3.2,4.7-4.6
				c0.9-0.7,1.9-1.4,2.9-2.1C63.9,6.4,65,5.8,66.4,5.2z"/>
		</g>
	</g>
	<ellipse class="st3" cx="49.3" cy="50.1" rx="9.9" ry="9.5"/>
</g>
</svg>
