<?xml version="1.0" encoding="utf-8"?>
<!-- Generator: Adobe Illustrator 21.1.0, SVG Export Plug-In . SVG Version: 6.00 Build 0)  -->
<svg version="1.1" id="Landing" xmlns="http://www.w3.org/2000/svg" xmlns:xlink="http://www.w3.org/1999/xlink" x="0px" y="0px"
	 viewBox="0 0 1921 1082" style="enable-background:new 0 0 1921 1082;" xml:space="preserve">
<style type="text/css">
	.st0{fill:#B9DBEA;stroke:#E0F1FC;stroke-width:0.98;stroke-miterlimit:10;}
	.st1{fill:#564A3F;}
	.st2{fill:none;stroke:#000000;stroke-miterlimit:10;}
	.st3{fill:#63574B;}
	.st4{fill:#70B80E;}
	.st5{fill:#70B80E;stroke:#70B80E;stroke-miterlimit:10;}
	.st6{opacity:0.1;fill:#050505;stroke:#050505;stroke-miterlimit:10;enable-background:new    ;}
	.st7{opacity:0.1;stroke:#000000;stroke-miterlimit:10;enable-background:new    ;}
	.st8{fill:#466A0A;}
	.st9{fill:#66990A;}
	.st10{fill:#548510;}
	.st11{fill:#00B16A;}
	.st12{fill:#466B0B;}
	.st13{fill:#9DC62C;}
	.st14{clip-path:url(#SVGID_2_);}
	.st15{fill:#1E824C;}
	.st16{fill:#26A65B;}
	.st17{fill:#456A0A;}
	.st18{fill:#92C820;}
	.st19{clip-path:url(#SVGID_4_);}
	.st20{fill:#63AF31;}
	.st21{fill:#3A3927;stroke:#3A3927;stroke-miterlimit:10;}
	.st22{fill:#9DC62C;stroke:#9DC62C;stroke-width:40;stroke-miterlimit:10;}
	.st23{fill:#9DC62C;stroke:#9DC62C;stroke-width:4;stroke-miterlimit:10;}
	.st24{fill:none;stroke:#456A0A;stroke-width:0.7;stroke-linecap:round;stroke-linejoin:round;stroke-miterlimit:10;}
	.st25{fill:none;stroke:#CCAE52;stroke-width:0.25;stroke-miterlimit:10;}
	.st26{fill:#FCF232;stroke:#CCAE52;stroke-width:0.25;stroke-miterlimit:10;}
	.st27{fill:#756232;stroke:#FCF232;stroke-width:0.539;stroke-linecap:round;stroke-linejoin:round;stroke-miterlimit:10;}
	.st28{fill:none;stroke:#466A0A;stroke-miterlimit:10;}
	.st29{fill:none;}
	.st30{fill:#EB6750;}
	.st31{fill:#514A38;stroke:#514A38;stroke-linecap:round;stroke-linejoin:round;stroke-miterlimit:10;}
	.st32{fill:none;stroke:#466A0A;stroke-linecap:round;stroke-linejoin:round;stroke-miterlimit:10;}
	.st33{fill:none;stroke:#A5A5A5;stroke-width:0.25;stroke-miterlimit:10;}
	.st34{fill:#F2F1EB;stroke:#A5A5A5;stroke-width:0.25;stroke-miterlimit:10;}
	.st35{fill:#EFCB59;stroke:#EFEB6C;stroke-width:0.49;stroke-linecap:round;stroke-linejoin:round;stroke-miterlimit:10;}
	.st36{fill:none;stroke:#466A0A;stroke-width:0.5;stroke-miterlimit:10;}
	.st37{fill:#967F4B;stroke:#F2F1EB;stroke-width:0.805;stroke-linecap:round;stroke-linejoin:round;stroke-miterlimit:10;}
	.st38{fill:none;stroke:#466A0A;stroke-width:0.5;stroke-linecap:round;stroke-linejoin:round;stroke-miterlimit:10;}
	.st39{fill:#967F4B;stroke:#F2F1EB;stroke-width:0.7;stroke-linecap:round;stroke-linejoin:round;stroke-miterlimit:10;}
	.st40{fill:none;stroke:#456A0A;stroke-miterlimit:10;}
	.st41{fill:#F23F00;}
	.st42{fill:#D39C53;}
	.st43{opacity:0.1;enable-background:new    ;}
	.st44{fill:#9E753E;}
	.st45{opacity:0.1;}
	.st46{fill:#110F0E;}
	.st47{stroke:#000000;stroke-miterlimit:10;}
	.st48{fill:#F9F9F9;stroke:#000000;stroke-miterlimit:10;}
	.st49{fill:#C6AFC0;stroke:#000000;stroke-miterlimit:10;}
</style>
<g id="Window">
	<rect x="152.4" y="99.4" class="st0" width="282.2" height="282.2"/>
	<g>
		<g>
			<path class="st1" d="M428,107v268H160V107H428 M438,97H150v288h288V97L438,97z"/>
		</g>
	</g>
	<line class="st2" x1="294" y1="372" x2="294" y2="107"/>
	<line class="st2" x1="428" y1="241" x2="160" y2="241"/>
	<g>
		<rect x="156.5" y="107.5" class="st3" width="3" height="269"/>
		<g>
			<path class="st3" d="M159,108v268h-2V108H159 M160,107h-4v270h4V107L160,107z"/>
		</g>
	</g>
	<g>
		<rect x="428.5" y="106.5" class="st3" width="3" height="269"/>
		<g>
			<path class="st3" d="M431,107v268h-2V107H431 M432,106h-4v270h4V106L432,106z"/>
		</g>
	</g>
	<g>
		<rect x="156.5" y="103.5" class="st3" width="275" height="4"/>
		<g>
			<path class="st3" d="M431,104v3H157v-3H431 M432,103H156v5h276V103L432,103z"/>
		</g>
	</g>
	<g>
		<rect x="156.5" y="372.5" class="st3" width="275" height="4"/>
		<g>
			<path class="st3" d="M431,373v3H157v-3H431 M432,372H156v5h276V372L432,372z"/>
		</g>
	</g>
</g>
<g id="Shelf">
	<g id="Layer_8">
		<g>
			<path class="st1" d="M661,531.5c-2.5,0-4.5-2-4.5-4.5v-8c0-2.5,2-4.5,4.5-4.5h487.2c2.5,0,4.5,2,4.5,4.5v8c0,2.5-2,4.5-4.5,4.5
				H661z"/>
			<path class="st1" d="M1148.2,515c2.2,0,4,1.8,4,4v8c0,2.2-1.8,4-4,4H661c-2.2,0-4-1.8-4-4v-8c0-2.2,1.8-4,4-4H1148.2 M1148.2,514
				H661c-2.8,0-5,2.2-5,5v8c0,2.8,2.2,5,5,5h487.2c2.8,0,5-2.2,5-5v-8C1153.2,516.2,1151,514,1148.2,514L1148.2,514z"/>
		</g>
	</g>
	<g id="Layer_7">
	</g>
	<g id="Layer_6">
		<g>
			<rect x="656.5" y="518.1" class="st3" width="496.2" height="1.4"/>
			<path class="st3" d="M1152.2,518.6v0.4H657v-0.4H1152.2 M1153.2,517.6H656v2.4h497.2V517.6L1153.2,517.6z"/>
		</g>
	</g>
	<g id="Layer_5">
		<g>
			<rect x="656.5" y="526.3" class="st3" width="496.2" height="1.4"/>
			<path class="st3" d="M1152.2,526.8v0.4H657v-0.4H1152.2 M1153.2,525.8H656v2.4h497.2V525.8L1153.2,525.8z"/>
		</g>
	</g>
</g>
<g id="Table">
	<g>
		<rect x="153.5" y="902.5" class="st1" width="29" height="180"/>
		<g>
			<path class="st1" d="M182,903v179h-28V903H182 M183,902h-30v181h30V902L183,902z"/>
		</g>
	</g>
	<g>
		<rect x="998.5" y="902.5" class="st1" width="29" height="180"/>
		<g>
			<path class="st1" d="M1027,903v179h-28V903H1027 M1028,902h-30v181h30V902L1028,902z"/>
		</g>
	</g>
	<g>
		<path class="st1" d="M84,907.9c-2.5,0-4.5-2-4.5-4.5v-17.8c0-2.5,2-4.5,4.5-4.5h1012c2.5,0,4.5,2,4.5,4.5v17.8
			c0,2.5-2,4.5-4.5,4.5H84z"/>
		<path class="st1" d="M1096,881.6c2.2,0,4,1.8,4,4v17.8c0,2.2-1.8,4-4,4H84c-2.2,0-4-1.8-4-4v-17.8c0-2.2,1.8-4,4-4H1096
			 M1096,880.6H84c-2.8,0-5,2.2-5,5v17.8c0,2.8,2.2,5,5,5h1012c2.8,0,5-2.2,5-5v-17.8C1101,882.9,1098.8,880.6,1096,880.6
			L1096,880.6z"/>
	</g>
	<g>
		<rect x="79.5" y="885.9" class="st3" width="1021" height="2.7"/>
		<path class="st3" d="M1100,886.4v1.7H80v-1.7H1100 M1101,885.4H79v3.7h1022V885.4L1101,885.4z"/>
	</g>
	<g>
		<rect x="79.5" y="892.9" class="st3" width="1021" height="2.7"/>
		<path class="st3" d="M1100,893.4v1.7H80v-1.7H1100 M1101,892.4H79v3.7h1022V892.4L1101,892.4z"/>
	</g>
	<g>
		<rect x="79.5" y="900.9" class="st3" width="1021" height="2.7"/>
		<path class="st3" d="M1100,901.4v1.7H80v-1.7H1100 M1101,900.4H79v3.7h1022V900.4L1101,900.4z"/>
	</g>
</g>
<g id="Plants">
	<g id="Plant">
		<g id="Stems">
			<g>
				<path class="st4" d="M153.3,824.9c-1.8-11.2-2.9-22.5-3.2-33.9c-0.2-5.7-0.1-11.4,0.1-17c0.2-5.7,0.8-11.3,1.3-17
					c1.1-11.3,2.2-22.5,3.5-33.8c1.3-11.3,2.5-22.5,3.8-33.8l0,0.1c0.4-3.9,0.9-7.8,1.2-11.6c0.1-1,0.2-1.9,0.2-2.9
					c0-0.2,0-0.5,0-0.7l0-0.1c0,0,0,0,0,0l0,0l0,0c0,0,0,0,0.1,0.1c0.1,0.1,0.1,0.1,0.2,0.2c0.1,0,0.1,0.1,0.4,0
					c0.3-0.2,0.2-0.2,0.3-0.2c0,0,0,0,0,0l0,0.1c0,0,0,0.1-0.3,0.2c-0.5,0.1-0.3,0-0.5,0c-0.1-0.1-0.2-0.1-0.2-0.2
					c-0.1-0.2,0-0.2-0.1-0.2l0,0l0-0.1l0-0.2c0-0.5,0.1-1,0.2-1.5c0.2-1.9,0.4-3.8,0.6-5.8c0.4-3.8,0.6-7.7,0.4-11.5
					c-0.3-3.8-1-7.7-2-11.4l0.1,0c1.1,3.7,1.9,7.5,2.2,11.4c0.3,3.9,0.2,7.7-0.1,11.6c-0.2,1.9-0.4,3.9-0.6,5.8c0,0.5-0.1,1-0.1,1.4
					l0,0.2c0,0,0,0.1,0,0.1c0-0.1-0.1,0-0.1,0l0,0c0,0,0,0,0,0c0.1,0,0.1,0,0.1,0c0,0,0,0,0,0.1l0,0.1l0,0.2c0,0.2,0,0.5,0,0.7
					c0,1-0.1,1.9-0.2,2.9c-0.3,3.9-0.7,7.7-1.1,11.5l0,0l-3.7,33.8c-1.2,11.3-2.5,22.5-3.6,33.8c-0.6,5.6-1.1,11.3-1.4,16.9
					c-0.3,5.7-0.3,11.3-0.2,17C151,802.4,151.8,813.7,153.3,824.9L153.3,824.9z"/>
			</g>
			<g>
				<path class="st4" d="M168.3,824.9c-1.8-5.7-3.4-11.5-4.6-17.4c-1.2-5.9-2-11.9-2.5-17.9c-0.5-6-0.7-12-0.4-18.1
					c0.1-6,0.9-12,1.7-18l0.8-4.4c0.3-1.5,0.5-3,0.9-4.4l1.1-4.4l0.5-2.2l0.7-2.2c1.7-5.8,3.7-11.5,6.1-17
					c2.4-5.5,5.2-10.9,8.3-16.1c3.1-5.1,6.5-10.1,10.2-14.8l0.1,0.1c-7.1,9.6-13.2,20.1-17.8,31.1c-1.2,2.8-2.2,5.6-3.3,8.4
					c-1,2.8-1.8,5.7-2.7,8.6l-0.6,2.2l-0.5,2.2l-1.1,4.4c-0.4,1.4-0.6,2.9-0.9,4.4l-0.8,4.4c-0.9,5.9-1.6,11.9-1.8,17.9
					c-0.2,3-0.1,6-0.1,9c0,1.5,0.1,3,0.2,4.5l0.1,2.2l0.2,2.2C162.8,801.5,165,813.4,168.3,824.9L168.3,824.9z"/>
			</g>
			<g>
				<path class="st4" d="M128.8,660.5c5,5,9.4,10.6,13,16.8c3.5,6.2,6.2,12.9,7.7,19.9c1.6,7,2,14.1,2,21.2c0,7.1-0.4,14.2-0.8,21.2
					c-0.5,7.1-0.9,14.1-1.3,21.2c-0.3,7.1-0.5,14.1-0.6,21.2c-0.1,7.1,0,14.1,0.2,21.2c0.1,7.1,0.4,14.1,0.8,21.2l-0.1,0
					c-1.1-14.1-1.7-28.2-1.7-42.4c0-7.1,0.1-14.1,0.4-21.2c0.3-7.1,0.7-14.1,1.2-21.2c0.4-7.1,0.9-14.1,0.9-21.2
					c0-7.1-0.4-14.2-1.9-21.1C145.9,683.4,138.6,670.7,128.8,660.5L128.8,660.5z"/>
			</g>
			<g>
				<path class="st4" d="M156.9,824.9c-3.4-15.5-5.7-31.3-6.3-47.3c-0.7-15.9,0-31.9,2.3-47.7c2.4-15.8,6.2-31.3,11.6-46.3
					c1.3-3.8,2.7-7.5,4.3-11.2c1.5-3.7,3.2-7.3,4.9-10.9c3.5-7.2,7.3-14.1,11.5-20.9l0.1,0.1c-8,13.7-14.9,28.1-20,43.2
					c-5.3,15-9,30.5-11.3,46.2l-0.5,2.9l-0.3,3l-0.7,5.9c-0.2,2-0.3,4-0.5,5.9c-0.1,2-0.3,4-0.4,5.9l-0.2,6l-0.1,3l0,3l0,6l0.2,6
					l0.1,3l0.2,3c0.1,2,0.2,4,0.4,5.9c0.4,4,0.7,7.9,1.2,11.9C154.2,809.3,155.4,817.1,156.9,824.9L156.9,824.9z"/>
			</g>
			<g>
				<path class="st4" d="M161.7,824.9c-1.8-7.3-3.3-14.6-4.3-22.1c-0.9-7.4-1.5-14.9-1.6-22.4c-0.1-7.5,0.4-15,1.1-22.5
					c0.8-7.5,2.2-14.9,3.8-22.2c3.5-14.6,8.6-28.9,15.5-42.2c3.4-6.7,7.2-13.2,11.4-19.4c4.2-6.2,8.8-12.2,13.7-17.8l0.1,0.1
					c-9.6,11.5-17.8,24.1-24.5,37.5c-6.7,13.4-11.7,27.6-15.2,42.1c-1.6,7.3-3,14.7-3.8,22.1c-0.8,7.4-1.3,14.9-1.3,22.4
					C156.7,795.4,158.4,810.3,161.7,824.9L161.7,824.9z"/>
			</g>
			<g>
				<path class="st4" d="M135.7,686.6c5.8,2.5,11.1,6.1,15.5,10.7c2.1,2.4,4.1,4.9,5.7,7.6c1.6,2.8,3,5.7,4,8.7
					c2.1,6,3,12.4,3.4,18.7c0.2,3.2,0.3,6.3,0.4,9.5c0.1,3.2,0,6.3-0.3,9.5c-0.5,6.4-2.3,12.5-3.1,18.7c-0.9,6.2-1.2,12.4-1.2,18.7
					c0,6.3,0.5,12.5,1.4,18.7c0.8,6.2,2.1,12.4,3.6,18.5l-0.1,0c-3.4-12.1-5.5-24.6-5.7-37.2c-0.1-6.3,0.2-12.6,1.1-18.8
					c0.8-6.2,2.5-12.3,3-18.6c0.3-3.1,0.4-6.3,0.3-9.4c-0.1-3.1-0.1-6.3-0.3-9.4c-0.4-6.3-1.3-12.5-3.3-18.5c-1-3-2.3-5.9-3.8-8.6
					c-1.5-2.8-3.5-5.2-5.5-7.6C146.6,693,141.4,689.3,135.7,686.6L135.7,686.6z"/>
			</g>
			<g>
				<path class="st4" d="M164.4,824c-1.4-4.4-2.6-8.8-3.6-13.3c-0.9-4.5-1.5-9.1-1.9-13.7l-0.2-3.5c-0.1-1.2-0.1-2.3-0.1-3.5
					c-0.1-2.3,0-4.6,0.1-6.9c0-1.2,0.1-2.3,0.2-3.5l0.3-3.5c0.3-2.3,0.6-4.6,1-6.9c1.7-9.1,4.7-17.9,8.8-26.2
					c2.1-4.1,4.5-8.1,7.1-11.8c2.7-3.7,5.6-7.3,8.8-10.6l0.1,0.1c-6.1,6.8-11.3,14.5-15.3,22.7c-3.9,8.3-6.9,17-8.5,26
					c-1.7,9-2,18.2-1.5,27.4C160.3,806.1,161.9,815.2,164.4,824L164.4,824z"/>
			</g>
		</g>
		<g id="Leaves">
			<path class="st5" d="M295.3,613.2c-0.7,2.1-1.7,4.4-3.2,6.9c-5.6,9.7-16.7,21.6-30.4,30.5c-20.5,13.3-53.1,24-64.9,16.9
				c-0.3-0.2-0.6-0.4-0.9-0.6c-0.9-0.6-1.5-1.4-2.1-2.2c-5.2-7.8,3-22.3,4.1-24.2c13.4-22.9,47.2-29.5,78.9-35.8
				c11.2-2.2,15.2-2.2,17.4-0.5C296.3,606,296.6,609.2,295.3,613.2z"/>
			<path class="st5" d="M169.6,639.4c-0.5,4.6-1.7,9.1-4.3,11.9c0,0,0,0,0,0c-0.5,0.6-1.1,1.1-1.8,1.5c-0.8,0.5-1.7,0.9-2.6,1.1
				c-1.8,0.5-3.8,0.4-5.9,0c-11.6-2.4-27.6-16.8-37.2-31.6c-14-21.5-19.4-51.6-12-56.7c0.4-0.3,0.8-0.4,1.2-0.6
				c0.2-0.1,0.5-0.1,0.8-0.1c2.1-0.1,5.3,1.2,11.1,4.5c22.4,12.9,46.4,26.8,50.3,54.2C169.4,625.1,170.4,632.3,169.6,639.4z"/>
			<path class="st5" d="M134.5,664.7c-0.7,1.3-1.7,2.4-3.1,3.2c-0.8,0.5-1.8,0.9-2.8,1.2c-12.8,3.5-40.3-9.4-57.3-23.4
				c-16.8-13.9-28.2-32.9-28-42.4c0-0.4,0-0.8,0.1-1.2c0.2-1.7,1-3,2.2-3.8c2.2-1.4,6-1,16.3,2.2c29.1,9.2,60.2,19,70.4,42.1
				C133,644.4,138.5,657.4,134.5,664.7z"/>
			<path class="st5" d="M117.4,721.1c-17.6,11.8-41.8,15.9-53.9,8.5c-0.6-0.4-1.2-0.8-1.8-1.2c-0.3-0.2-0.6-0.5-0.9-0.8
				c-0.2-0.2-0.4-0.3-0.5-0.5c-1-1.1-1.4-1.9-1.7-2.3c-0.9-1.9-1-4.3-0.3-6.9v0c2.7-10.9,17.6-25.9,33.9-32.7
				c17.1-7.1,41.4-7.7,46.6,2c0.1,0.1,0.1,0.3,0.2,0.4c0.3,0.6,0.5,1.3,0.6,1.9c0,0.1,0,0.2,0,0.3c0,0.3,0.1,0.6,0.1,0.9
				C140.5,700,128.4,713.8,117.4,721.1z"/>
			<path class="st5" d="M275.3,671.8c-0.3,2.8-1.9,5.8-4.4,8.9c-7.2,8.7-22.1,17.5-36.7,20.3c-17.8,3.4-41.2-0.8-45-10.8
				c-0.1-0.3-0.2-0.7-0.3-1.1c-0.1-0.6-0.2-1.2-0.2-1.8c-0.2-9.7,15.4-21.5,28.2-26.7c23.8-9.6,55.6-3.2,58.3,8.5
				C275.4,670,275.5,670.9,275.3,671.8z"/>
			<path class="st5" d="M256.5,731.1c-0.1,0.8-0.4,1.5-0.7,2.2c-0.2,0.6-0.6,1.2-0.9,1.7c-0.9,1.3-2.1,2.6-3.5,3.8
				c-6.7,5.7-18.6,9.7-27.9,10.6c-17.6,1.8-35.6-6.3-42.1-15.3c-0.2-0.3-0.4-0.6-0.6-1c-1.4-2.2-2.1-4.4-1.9-6.5
				c0-0.2,0-0.5,0.1-0.7c1.8-10.5,25.9-20,44.9-18C240,709.8,258.3,720.5,256.5,731.1z"/>
			<path class="st5" d="M255.7,559.9c0,11.2-5.8,29.2-16.2,44.9c-13.9,20.9-40.7,44.2-54,41c-1-0.2-1.9-0.7-2.7-1.2
				c-0.5-0.3-0.9-0.7-1.3-1c-6.4-6-4.7-20.8-4.5-22.8c3.2-26.3,31.7-45.8,58.3-64c9.4-6.4,13.1-8,15.8-7.3c1.4,0.4,2.5,1.4,3.3,2.9
				C255.3,554.2,255.7,556.8,255.7,559.9z"/>
		</g>
		<g id="Shadow">
			<path class="st6" d="M139.8,690.5c-5.7-1.3-12.8-2.5-21.2-2c-15.2,0.8-26.3,6.5-35,11c-2.8,1.5-13.7,7.2-25.3,18.3
				c2.7-10.9,17.6-25.9,33.9-32.7c17.1-7.1,41.4-7.7,46.6,2c0.1,0.1,0.1,0.3,0.2,0.4c0.3,0.6,0.5,1.3,0.6,1.9c0,0.1,0,0.2,0,0.3
				C139.7,690,139.7,690.2,139.8,690.5z"/>
			<path class="st6" d="M134.5,664.7c-0.7,1.3-1.7,2.4-3.1,3.2c-0.8,0.5-1.8,0.9-2.8,1.2c-4.9-10.3-10.6-27.1-24.1-40.6
				c-20.6-20.7-47.5-22-61.2-25.2c0-0.4,0-0.8,0.1-1.2c0.2-1.7,1-3,2.2-3.8c2.2-1.4,6-1,16.3,2.2c29.1,9.2,60.2,19,70.4,42.1
				C133,644.4,138.5,657.4,134.5,664.7z"/>
			<path class="st6" d="M169.6,639.4c-0.5,4.6-1.7,9.1-4.3,11.9c0,0,0,0,0,0c-0.5,0.6-1.1,1.1-1.8,1.5c-0.8,0.5-1.7,0.9-2.6,1.1
				c-0.7-13-2.7-30.5-11.4-47.4c-11.6-22.4-30.1-34.4-41.6-41.5c2.1-0.1,5.3,1.2,11.1,4.5c22.4,12.9,46.4,26.8,50.3,54.2
				C169.4,625.1,170.4,632.3,169.6,639.4z"/>
			<path class="st6" d="M255.7,559.9c-26.2,13.5-60.7,31.5-71.2,65.6c-2,6.5-2.9,12.7-3.1,18c-6.4-6-4.7-20.8-4.5-22.8
				c3.2-26.3,31.7-45.8,58.3-64c9.4-6.4,13.1-8,15.8-7.3c1.4,0.4,2.5,1.4,3.3,2.9C255.3,554.2,255.7,556.8,255.7,559.9z"/>
			<path class="st7" d="M295.3,613.2c-0.7,2.1-1.7,4.4-3.2,6.9c-29.2,4.1-71.2,2.4-87.6,29.3c-3.8,6.2-5.7,13.1-7.7,18.1
				c-0.3-0.2-0.6-0.4-0.9-0.6c-0.9-0.6-1.5-1.4-2.1-2.2c-5.2-7.8,3-22.3,4.1-24.2c13.4-22.9,47.2-29.5,78.9-35.8
				c11.2-2.2,15.2-2.2,17.4-0.5C296.3,606,296.6,609.2,295.3,613.2z"/>
			<path class="st7" d="M275.3,671.8c-0.3,2.8-1.9,5.8-4.4,8.9c-12.5-7.4-27.3-14.1-44.4-12.2c-16.1,1.8-28.9,10.5-37.8,18.8
				c-0.2-9.7,15.4-21.5,28.2-26.7c23.8-9.6,55.6-3.2,58.3,8.5C275.4,670,275.5,670.9,275.3,671.8z"/>
			<path class="st7" d="M256.5,731.1c-0.1,0.8-0.4,1.5-0.7,2.2c-0.2,0.6-0.6,1.2-0.9,1.7c-0.9,1.3-2.1,2.6-3.5,3.8
				c-9.1-9-19.9-19.2-35.9-21.3c-14.2-1.9-27.2,3.4-36.7,9.2c0-0.2,0-0.5,0.1-0.7c1.8-10.5,25.9-20,44.9-18
				C240,709.8,258.3,720.5,256.5,731.1z"/>
		</g>
	</g>
	<g id="Plant_1_">
		<g>
			<g>
				<path class="st4" d="M412.1,1018c-2.2-24.1-4.1-48.2-6-72.3l-2.7-36.2l-2.4-36.2c-0.8-12.1-1.9-24.1-2.9-36.1
					c-1-12-1.4-24.1-1.3-36.2c0.1-12.1,0.6-24.2,1.5-36.3c0.9-12.1,2.1-24.2,4.3-36.4l1.8-0.1c3,12,5,24,6.6,36
					c1.6,12,2.9,24.1,3.8,36.1c0.9,12,1.3,24.1,1.1,36.2c-0.2,12.1-0.5,24.2-0.5,36.3l0,36.2l-0.3,36.2c-0.3,24.2-0.6,48.3-1.2,72.5
					L412.1,1018z"/>
			</g>
			<g>
				<path class="st8" d="M416.8,994.5c1.1-24.2,2.5-48.3,4-72.5l2.3-36.2l2.6-36.2c0.9-12.1,1.4-24.1,2.1-36.2
					c0.7-12.1,1.9-24.1,3.7-36.1c1.8-12,3.9-23.9,6.4-35.8c2.5-11.9,5.4-23.7,9.2-35.5l1.8,0.2c1.3,12.3,1.6,24.5,1.7,36.6
					c0,12.1-0.4,24.3-1.1,36.3c-0.7,12.1-2,24.1-3.9,36c-1.9,12-3.8,23.9-5.5,35.9l-5,35.9l-5.3,35.9c-3.6,23.9-7.2,47.8-11.1,71.7
					L416.8,994.5z"/>
			</g>
			<g>
				<path class="st9" d="M416.7,1002.1c2.5-21.6,5.3-43.1,8.1-64.7l4.3-32.3l4.6-32.2c1.6-10.7,2.8-21.5,4.1-32.3
					c1.4-10.8,3.3-21.5,5.7-32c2.5-10.6,5.2-21.1,8.4-31.6c3.2-10.4,6.7-20.8,11.2-31l1.8,0.3c0.6,11.1,0.2,22.1-0.4,33
					c-0.7,10.9-1.8,21.7-3.2,32.5c-1.4,10.8-3.4,21.4-5.9,32c-2.5,10.6-5.2,21.1-7.5,31.7l-7,31.8l-7.3,31.8
					c-5,21.2-9.9,42.3-15.2,63.4L416.7,1002.1z"/>
			</g>
			<g>
				<path class="st10" d="M416.7,999.4c5.2-23.8,10.7-47.4,16.1-71.1l8.4-35.5l8.6-35.4c2.9-11.8,5.5-23.7,8.2-35.5
					c2.7-11.8,5.9-23.5,9.7-35.1c3.8-11.5,7.9-23,12.3-34.3c4.5-11.3,9.3-22.6,15.1-33.6l1.7,0.5c-0.8,12.4-2.5,24.5-4.5,36.5
					c-2.1,12-4.5,23.9-7.3,35.8c-2.8,11.8-6.1,23.5-9.9,35c-3.9,11.5-7.8,23-11.5,34.6l-11,34.7l-11.2,34.7
					c-7.6,23.1-15.2,46.2-23.1,69.1L416.7,999.4z"/>
			</g>
			<g>
				<path class="st4" d="M415.6,1026.3c-0.7-27.3-1-54.6-1.4-81.9l-0.4-41l-0.1-40.9c0-13.6-0.4-27.3-0.6-41
					c-0.2-13.7,0.1-27.3,1-40.9c0.9-13.6,2.1-27.2,3.7-40.8c1.7-13.6,3.6-27.2,6.6-40.8l1.8,0c2.2,13.7,3.4,27.4,4.3,41.1
					c0.9,13.7,1.4,27.3,1.5,41c0.2,13.7-0.3,27.3-1.2,40.9c-1,13.6-2.1,27.2-2.8,40.9l-2.3,40.9l-2.6,40.9
					c-1.8,27.2-3.7,54.5-5.8,81.7L415.6,1026.3z"/>
			</g>
			<g>
				<path class="st11" d="M416.7,1018.9c-9.1-22.2-18-44.6-26.8-66.9l-13.1-33.6L364,884.7c-4.3-11.2-8.8-22.3-13.3-33.5
					c-4.4-11.2-8.4-22.5-11.8-34c-3.4-11.5-6.5-23.2-9.2-34.9c-2.7-11.8-5.1-23.6-6.5-35.8l1.7-0.6c6.3,10.5,11.7,21.4,16.9,32.3
					c5.1,10.9,9.8,22,14.2,33.2c4.4,11.2,8.3,22.5,11.6,34.1c3.3,11.6,6.5,23.1,10.1,34.6l10.5,34.5l10.3,34.5
					c6.8,23.1,13.5,46.1,20,69.3L416.7,1018.9z"/>
			</g>
			<g>
				<path class="st12" d="M416.7,1018.9c-9.1-22.2-18-44.6-26.8-66.9l-13.1-33.6L364,884.7c-4.3-11.2-8.8-22.3-13.3-33.5
					c-4.4-11.2-8.4-22.5-11.8-34c-3.4-11.5-6.5-23.2-9.2-34.9c-2.7-11.8-5.1-23.6-6.5-35.8l1.7-0.6c6.3,10.5,11.7,21.4,16.9,32.3
					c5.1,10.9,9.8,22,14.2,33.2c4.4,11.2,8.3,22.5,11.6,34.1c3.3,11.6,6.5,23.1,10.1,34.6l10.5,34.5l10.3,34.5
					c6.8,23.1,13.5,46.1,20,69.3L416.7,1018.9z"/>
			</g>
			<g>
				<path class="st9" d="M420.2,1029c-5.9-26.7-11.5-53.4-17.2-80.2l-8.3-40.1l-8-40.2c-2.6-13.4-5.6-26.7-8.5-40.1
					c-2.8-13.4-5.2-26.8-6.9-40.4c-1.7-13.6-3.2-27.2-4.2-40.8c-1-13.7-1.7-27.4-1.4-41.3l1.8-0.3c4.8,13,8.6,26.2,12.2,39.5
					c3.5,13.3,6.6,26.6,9.4,40c2.8,13.4,5,26.8,6.7,40.4c1.7,13.6,3.2,27.1,5.1,40.7l5.6,40.6l5.3,40.6c3.4,27.1,6.9,54.2,10.1,81.4
					L420.2,1029z"/>
			</g>
			<g>
				<path class="st4" d="M419,1030.2c-6.8-23.3-13.2-46.7-19.7-70.1l-9.5-35.1l-9.3-35.2c-3.1-11.7-6.5-23.4-9.8-35
					c-3.3-11.7-6-23.5-8.2-35.4c-2.2-11.9-4-23.9-5.5-36c-1.4-12.1-2.6-24.3-2.8-36.6l1.8-0.4c5.2,11.2,9.5,22.7,13.4,34.2
					c3.9,11.5,7.5,23.1,10.7,34.8c3.2,11.7,5.9,23.5,8,35.5c2.1,11.9,4.1,23.9,6.4,35.8l6.9,35.7l6.6,35.8
					c4.3,23.9,8.7,47.7,12.7,71.7L419,1030.2z"/>
			</g>
			<g>
				<path class="st8" d="M417.3,1018.2c-3.8-17.4-7.2-34.9-10.7-52.3l-5-26.2l-4.8-26.2c-1.5-8.8-3.5-17.5-5.3-26.2
					c-1.8-8.7-3-17.5-3.6-26.4c-0.7-8.9-1-17.8-0.9-26.8c0.1-9,0.5-18,1.9-27.1l1.8-0.2c3.8,8.5,6.5,17,9,25.7
					c2.4,8.6,4.5,17.3,6.2,26.1c1.7,8.7,2.9,17.5,3.5,26.4c0.6,8.9,1,17.8,1.9,26.6l2.4,26.6l2.1,26.6c1.3,17.8,2.6,35.5,3.5,53.3
					L417.3,1018.2z"/>
			</g>
		</g>
	</g>
	<g id="Plant_2_">
		<g>
			<g>
				<path class="st4" d="M1111.2,498.1c2.1-1.1,4.2-2,6.3-2.9l3.2-1.3c1.1-0.4,2.1-0.8,3.2-1.2c1.1-0.4,2.1-0.9,3.1-1.4
					c1-0.5,2.1-0.7,3.3-0.6c1.1,0.1,2.3,0.3,3.5,0.7c1.2,0.4,2.4,1,3.8,2.1l0.2,0.9c-0.9,1.5-1.8,2.4-2.8,3.3c-1,0.8-2,1.4-3.1,1.9
					c-1.1,0.5-2.2,0.6-3.3,0.5c-1.1-0.1-2.3-0.3-3.4-0.3c-1.1,0-2.3,0-3.4,0l-3.4-0.2c-2.3-0.2-4.6-0.3-6.9-0.6L1111.2,498.1z"/>
			</g>
			<g>
				<path class="st13" d="M1122.3,500.8c-1.9-0.1-3.8-0.4-5.6-0.6c-1.8-0.3-3.6-0.6-5.4-1c-0.9-0.2-1.9-0.2-2.8-0.4
					c-0.9-0.1-1.7-0.5-2.4-1.1c-0.7-0.6-1.3-1.4-1.9-2.3c-0.5-1-1-2.1-1.3-3.6l0.4-0.8c1.4-0.8,2.5-1.1,3.6-1.3
					c1.1-0.2,2.1-0.2,3-0.1c0.9,0.1,1.7,0.5,2.4,1.2c0.7,0.6,1.3,1.4,2.1,1.9c1.5,1.1,2.9,2.2,4.3,3.5c1.4,1.3,2.8,2.5,4.1,3.9
					L1122.3,500.8z"/>
			</g>
			<g>
				<path class="st4" d="M1120.3,501.6c-1.9-1.4-3.7-2.8-5.4-4.3l-2.6-2.2c-0.8-0.8-1.7-1.5-2.5-2.3c-0.8-0.8-1.8-1.4-2.7-2.2
					c-0.9-0.7-1.6-1.6-2-2.7c-0.5-1.1-0.8-2.2-0.9-3.5c-0.1-1.3-0.2-2.6,0.2-4.3l0.7-0.5c1.7,0.1,3,0.5,4.2,1.1
					c1.2,0.5,2.2,1.2,3,1.9c0.9,0.7,1.5,1.6,2,2.7c0.4,1.1,0.8,2.2,1.3,3.2c0.5,1,1,2,1.5,3l1.4,3.1c0.9,2.1,1.8,4.2,2.5,6.4
					L1120.3,501.6z"/>
			</g>
			<g>
				<path class="st13" d="M1120.1,501.3c-1.4-1.9-2.7-3.8-4-5.7l-1.8-2.9c-0.6-1-1.2-2-1.7-2.9c-0.5-1-1.3-1.9-1.9-2.8
					c-0.7-0.9-1.1-2-1.2-3.1c-0.1-1.1-0.1-2.3,0.1-3.6c0.2-1.3,0.6-2.6,1.4-4.1l0.8-0.3c1.6,0.6,2.7,1.4,3.7,2.2
					c1,0.8,1.8,1.7,2.4,2.7c0.6,1,1,2,1.1,3.2c0.1,1.1,0.1,2.3,0.3,3.4c0.2,1.1,0.4,2.2,0.6,3.3l0.4,3.4c0.2,2.3,0.5,4.6,0.6,6.9
					L1120.1,501.3z"/>
			</g>
			<g>
				<path class="st4" d="M1118.9,497.9c-0.8-2.2-1.4-4.4-2-6.6l-0.8-3.3c-0.3-1.1-0.5-2.2-0.7-3.3c-0.2-1.1-0.6-2.2-0.9-3.3
					c-0.3-1.1-0.4-2.2-0.1-3.3c0.2-1.1,0.6-2.2,1.2-3.4c0.6-1.1,1.4-2.3,2.6-3.4l0.9,0c1.3,1.1,2.1,2.2,2.8,3.3
					c0.7,1.1,1.1,2.2,1.4,3.3c0.3,1.1,0.3,2.2,0,3.3c-0.3,1.1-0.6,2.2-0.8,3.4c-0.2,1.1-0.3,2.2-0.5,3.4l-0.7,3.4
					c-0.5,2.2-1,4.5-1.6,6.7L1118.9,497.9z"/>
			</g>
			<g>
				<path class="st13" d="M1119.3,500.9c-0.3-2.3-0.4-4.6-0.5-6.9l-0.1-3.4c0-1.1,0-2.3,0-3.4c0-1.1-0.1-2.3-0.2-3.4
					c-0.1-1.1,0.1-2.2,0.6-3.3c0.5-1,1.1-2.1,1.9-3c0.8-1,1.8-1.9,3.3-2.8l0.9,0.2c1.1,1.3,1.6,2.6,2,3.8c0.4,1.2,0.6,2.4,0.7,3.5
					c0.1,1.1-0.2,2.2-0.7,3.3c-0.5,1-1.1,2.1-1.5,3.1c-0.4,1.1-0.8,2.1-1.2,3.2l-1.4,3.1c-1,2.1-1.9,4.2-3,6.2L1119.3,500.9z"/>
			</g>
			<g>
				<path class="st4" d="M1120.1,501.4c0.2-2.3,0.6-4.6,0.9-6.9l0.6-3.4c0.2-1.1,0.5-2.2,0.7-3.3c0.3-1.1,0.3-2.3,0.5-3.4
					c0.2-1.1,0.6-2.2,1.3-3.1c0.7-0.9,1.5-1.8,2.5-2.6c1-0.8,2.2-1.5,3.8-2l0.8,0.3c0.8,1.5,1.1,2.9,1.2,4.1
					c0.1,1.3,0.1,2.5-0.1,3.6c-0.2,1.1-0.6,2.1-1.3,3.1c-0.7,0.9-1.5,1.8-2.1,2.7c-0.6,1-1.2,1.9-1.9,2.8l-2,2.8
					c-1.4,1.8-2.7,3.7-4.3,5.5L1120.1,501.4z"/>
			</g>
			<g>
				<path class="st13" d="M1120.2,501.2c0.5-1.8,1.1-3.6,1.8-5.3c0.6-1.7,1.4-3.4,2.1-5.1c0.4-0.8,0.6-1.8,0.9-2.6
					c0.3-0.9,0.8-1.6,1.6-2.2c0.7-0.6,1.6-1,2.7-1.3c1.1-0.3,2.2-0.6,3.8-0.5l0.7,0.5c0.5,1.5,0.6,2.7,0.6,3.8
					c0,1.1-0.2,2.1-0.6,2.9c-0.3,0.9-0.9,1.6-1.6,2.1c-0.8,0.5-1.6,1-2.3,1.6c-1.4,1.2-2.8,2.4-4.3,3.4c-1.5,1.1-3,2.2-4.7,3.2
					L1120.2,501.2z"/>
			</g>
		</g>
	</g>
	<g id="Plant_3_">
		<g>
			<g>
				<g>
					<defs>
						<rect id="SVGID_1_" x="903.3" y="747.6" width="114.4" height="92.8"/>
					</defs>
					<clipPath id="SVGID_2_">
						<use xlink:href="#SVGID_1_"  style="overflow:visible;"/>
					</clipPath>
					<g class="st14">
						<g>
							<path class="st4" d="M965.6,890c-1.1-9.7-1.9-19.4-2.7-29.1c-0.8-9.7-1.3-19.4-1.8-29c-0.2-4.8-0.8-9.7-1.2-14.5
								c-0.4-4.8-0.3-9.7,0.4-14.5c0.7-4.8,1.7-9.6,3.1-14.4c1.5-4.8,3.2-9.6,5.9-14.3l1.8,0.1c2.4,4.9,3.8,9.8,5,14.7
								c1.1,4.9,1.8,9.7,2.2,14.6c0.4,4.8,0.2,9.7-0.6,14.5c-0.7,4.8-1.7,9.6-2.2,14.4c-1,9.6-2.3,19.3-3.6,28.9
								c-1.4,9.6-2.8,19.2-4.5,28.8L965.6,890z"/>
						</g>
						<g>
							<path class="st8" d="M963.7,880.7c-2.4-9.5-4.5-19-6.6-28.5c-2.1-9.5-4-19-5.7-28.6c-0.9-4.8-2.1-9.5-3.2-14.2
								c-1.1-4.7-1.6-9.5-1.6-14.4c0-4.9,0.4-9.8,1.1-14.7c0.8-4.9,1.8-9.9,3.9-15l1.8-0.2c3.1,4.5,5.1,9.2,6.9,13.9
								c1.7,4.7,3.1,9.4,4.1,14.1c1,4.8,1.5,9.6,1.4,14.4c-0.1,4.9-0.3,9.8-0.2,14.6c0.3,9.7,0.4,19.4,0.3,29.1
								c-0.1,9.7-0.2,19.5-0.6,29.2L963.7,880.7z"/>
						</g>
						<g>
							<path class="st9" d="M963.8,883.9c-2.9-8.3-5.6-16.6-8.2-25c-2.6-8.3-5-16.7-7.3-25.1c-1.1-4.2-2.7-8.3-4-12.5
								c-1.3-4.2-2.2-8.4-2.4-12.8c-0.3-4.4-0.2-8.8,0.3-13.3c0.5-4.5,1.3-9,3.1-13.8l1.8-0.3c3.3,3.8,5.6,7.8,7.7,11.8
								c2,4,3.6,8.2,4.9,12.3c1.3,4.2,2,8.5,2.2,12.8c0.2,4.4,0.2,8.8,0.6,13.1c0.8,8.7,1.5,17.4,2,26.1c0.5,8.7,1,17.5,1.1,26.3
								L963.8,883.9z"/>
						</g>
						<g>
							<path class="st10" d="M963.8,882.9c-4-9-7.6-18-11.3-27.1c-3.6-9.1-7.1-18.2-10.4-27.3c-1.7-4.6-3.7-9-5.6-13.6
								c-1.9-4.5-3.2-9.2-4-14c-0.8-4.8-1.3-9.7-1.4-14.7c-0.1-5,0.1-10.1,1.3-15.5l1.7-0.5c3.8,4,6.6,8.2,9.2,12.6
								c2.5,4.3,4.7,8.8,6.5,13.3c1.8,4.5,3.1,9.2,3.8,14c0.8,4.8,1.3,9.7,2.3,14.5c1.9,9.5,3.7,19.1,5.2,28.8
								c1.6,9.6,3.1,19.3,4.4,29L963.8,882.9z"/>
						</g>
						<g>
							<path class="st4" d="M963.4,893.8c-1.7-10.9-3.1-21.8-4.5-32.6c-1.4-10.9-2.6-21.8-3.6-32.7c-0.5-5.4-1.4-10.9-2.2-16.3
								c-0.7-5.4-0.9-10.9-0.5-16.4c0.4-5.5,1.1-10.9,2.2-16.4c1.2-5.5,2.6-11,5-16.5l1.8,0c2.7,5.4,4.5,10.8,5.9,16.2
								c1.4,5.4,2.4,10.9,3.1,16.3c0.7,5.4,0.8,10.9,0.4,16.4c-0.4,5.5-1.1,10.9-1.3,16.4c-0.4,10.9-1,21.9-1.8,32.8
								c-0.8,10.9-1.6,21.9-2.7,32.8L963.4,893.8z"/>
						</g>
						<g>
							<path class="st11" d="M963.8,890c1.8-9.5,3.9-19,6-28.4c2.1-9.4,4.4-18.8,6.8-28.1c1.2-4.7,2-9.5,3.1-14.2
								c1-4.7,2.5-9.3,4.6-13.7c2.1-4.4,4.4-8.6,7.2-12.8c2.8-4.1,5.8-8.2,9.8-11.9l1.7,0.6c0.9,5.4,0.8,10.4,0.5,15.4
								c-0.4,4.9-1.1,9.8-2.2,14.5c-1.1,4.7-2.7,9.2-4.8,13.6c-2.1,4.4-4.4,8.6-6.3,13.1c-3.8,8.8-7.8,17.6-11.9,26.4
								c-4.2,8.7-8.3,17.5-12.8,26.1L963.8,890z"/>
						</g>
						<g>
							<path class="st12" d="M963.8,890c1.8-9.5,3.9-19,6-28.4c2.1-9.4,4.4-18.8,6.8-28.1c1.2-4.7,2-9.5,3.1-14.2
								c1-4.7,2.5-9.3,4.6-13.7c2.1-4.4,4.4-8.6,7.2-12.8c2.8-4.1,5.8-8.2,9.8-11.9l1.7,0.6c0.9,5.4,0.8,10.4,0.5,15.4
								c-0.4,4.9-1.1,9.8-2.2,14.5c-1.1,4.7-2.7,9.2-4.8,13.6c-2.1,4.4-4.4,8.6-6.3,13.1c-3.8,8.8-7.8,17.6-11.9,26.4
								c-4.2,8.7-8.3,17.5-12.8,26.1L963.8,890z"/>
						</g>
						<g>
							<path class="st9" d="M962.4,894.2c0.4-11,1.2-22,1.9-32.9c0.8-10.9,1.7-21.9,2.8-32.8c0.6-5.4,0.7-11,1-16.4
								c0.3-5.5,1.2-10.9,2.6-16.2c1.4-5.3,3.2-10.5,5.3-15.7c2.2-5.2,4.6-10.3,8.1-15.3l1.8,0.3c1.7,5.8,2.3,11.5,2.7,17.1
								c0.3,5.6,0.3,11.1-0.1,16.6c-0.4,5.5-1.3,10.9-2.8,16.1c-1.5,5.3-3.1,10.5-4.4,15.9c-2.5,10.7-5.2,21.3-8.1,31.9
								c-2.9,10.6-5.8,21.2-9,31.7L962.4,894.2z"/>
						</g>
						<g>
							<path class="st4" d="M962.9,894.6c0.8-9.8,1.9-19.5,3-29.1c1.1-9.7,2.4-19.3,3.8-28.9c0.7-4.8,1.1-9.7,1.6-14.6
								c0.5-4.9,1.5-9.6,3.1-14.2c1.6-4.6,3.5-9.1,5.8-13.6c2.3-4.4,4.9-8.8,8.6-13l1.8,0.4c1.5,5.3,1.9,10.4,2.1,15.4
								c0.1,5-0.1,9.9-0.7,14.8c-0.6,4.8-1.7,9.6-3.3,14.2c-1.6,4.6-3.5,9.1-4.9,13.8c-2.9,9.3-5.9,18.5-9.1,27.7
								c-3.2,9.2-6.4,18.4-10,27.5L962.9,894.6z"/>
						</g>
						<g>
							<path class="st8" d="M963.5,889.9c-0.5-7.2-0.6-14.4-0.7-21.6c-0.1-7.2-0.1-14.3,0.2-21.5c0.1-3.6-0.2-7.2-0.3-10.8
								c-0.1-3.6,0.3-7.1,1.3-10.6c1-3.5,2.3-6.9,4-10.2c1.8-3.3,3.8-6.7,6.8-9.8l1.8,0.2c2.1,3.9,3.2,7.6,4,11.3
								c0.8,3.7,1.1,7.3,1.2,10.9c0.1,3.6-0.5,7.1-1.5,10.5c-1,3.4-2.3,6.9-3.1,10.3c-1.7,6.9-3.5,13.9-5.5,20.8
								c-2,6.9-4.1,13.8-6.4,20.6L963.5,889.9z"/>
						</g>
					</g>
				</g>
			</g>
		</g>
	</g>
	<g id="Plant_4_">
		<g>
			<path class="st15" d="M795.6,744.7c5.8-27.5,15.7-54.3,29.8-79.1c7.1-12.3,15.4-24,24.8-35c1.2-1.3,2.4-2.7,3.6-4l1.8-2
				c0.6-0.7,1.3-1.3,1.9-1.9l3.8-3.8l4-3.7c0.7-0.6,1.3-1.2,2-1.8l2.1-1.8c1.4-1.2,2.7-2.4,4.2-3.5l4.3-3.4c1.4-1.1,3-2.1,4.4-3.2
				c11.9-8.4,25.1-15.4,39.6-19.8c7.3-2.1,14.8-3.4,22.5-3.5l2.9-0.1l2.9,0.1l2.9,0.2c1,0.1,1.9,0.2,2.9,0.3
				c1.9,0.3,3.8,0.5,5.8,0.9l2.9,0.7l2.8,0.8c7.4,2.2,14.4,5.4,20.8,9.4c6.4,4,12.2,8.6,17.5,13.7c10.4,10.4,18.8,22.3,24.7,35.3
				l-1.3,0.9c-9.7-10.3-19.7-19.7-30.7-27.5c-5.5-3.8-11.2-7.2-17.1-10c-2.9-1.4-5.9-2.7-8.9-3.7l-2.3-0.8l-2.3-0.7
				c-0.8-0.2-1.5-0.4-2.3-0.6c-0.8-0.2-1.5-0.4-2.3-0.5c-3-0.7-6.1-1.1-9.2-1.4c-0.8-0.1-1.6-0.2-2.3-0.2l-2.4-0.1l-2.4-0.1
				l-2.4,0.1c-6.3,0.1-12.7,0.9-19,2.2c-12.6,2.8-25.1,7.9-36.4,15.1c-11.4,7.1-21.8,15.9-31.4,25.6c-9.5,9.8-18.2,20.5-25.8,32
				c-15.3,22.9-26.9,48.5-35,75.2L795.6,744.7z"/>
		</g>
		<g>
			<path class="st16" d="M795.3,756.4c2.5-23.9,10.5-47.3,23.8-67.6c3.3-5.1,6.9-9.9,10.8-14.5c3.9-4.6,8.1-9,12.6-13.1
				c8.9-8.2,18.9-15.2,29.7-20.7c10.8-5.5,22.3-9.7,34.3-12c6-1.2,12-2,18.1-2.2c6.1-0.3,12.2-0.1,18.2,0.4
				c12.1,1.2,24,3.9,35.4,8.1c5.7,2.1,11.2,4.5,16.6,7.2c5.4,2.8,10.6,5.7,15.5,9.2l-0.2,0.3c-5.2-3.1-10.5-5.8-16-8.2
				c-5.5-2.4-11-4.6-16.7-6.4c-11.4-3.7-23.1-6.2-34.9-7.1c-23.7-2-47.9,2.3-69.2,13c-10.7,5.3-20.6,12.1-29.5,20
				c-4.4,4-8.7,8.2-12.6,12.7c-3.9,4.5-7.5,9.3-10.9,14.2c-13.4,19.8-21.8,43-24.7,66.8L795.3,756.4z"/>
		</g>
		<g>
			<path class="st16" d="M795.3,756.4c2.5-23.9,10.5-47.3,23.8-67.6c3.3-5.1,6.9-9.9,10.8-14.5c3.9-4.6,8.1-9,12.6-13.1
				c8.9-8.2,18.9-15.2,29.7-20.7c10.8-5.5,22.3-9.7,34.3-12c6-1.2,12-2,18.1-2.2c6.1-0.3,12.2-0.1,18.2,0.4
				c12.1,1.2,24,3.9,35.4,8.1c5.7,2.1,11.2,4.5,16.6,7.2c5.4,2.8,10.6,5.7,15.5,9.2l-0.2,0.3c-5.2-3.1-10.5-5.8-16-8.2
				c-5.5-2.4-11-4.6-16.7-6.4c-11.4-3.7-23.1-6.2-34.9-7.1c-23.7-2-47.9,2.3-69.2,13c-10.7,5.3-20.6,12.1-29.5,20
				c-4.4,4-8.7,8.2-12.6,12.7c-3.9,4.5-7.5,9.3-10.9,14.2c-13.4,19.8-21.8,43-24.7,66.8L795.3,756.4z"/>
		</g>
		<g>
			<path class="st16" d="M795.3,756.4c2.5-23.9,10.5-47.3,23.8-67.6c3.3-5.1,6.9-9.9,10.8-14.5c3.9-4.6,8.1-9,12.6-13.1
				c8.9-8.2,18.9-15.2,29.7-20.7c10.8-5.5,22.3-9.7,34.3-12c6-1.2,12-2,18.1-2.2c6.1-0.3,12.2-0.1,18.2,0.4
				c12.1,1.2,24,3.9,35.4,8.1c5.7,2.1,11.2,4.5,16.6,7.2c5.4,2.8,10.6,5.7,15.5,9.2l-0.2,0.3c-5.2-3.1-10.5-5.8-16-8.2
				c-5.5-2.4-11-4.6-16.7-6.4c-11.4-3.7-23.1-6.2-34.9-7.1c-23.7-2-47.9,2.3-69.2,13c-10.7,5.3-20.6,12.1-29.5,20
				c-4.4,4-8.7,8.2-12.6,12.7c-3.9,4.5-7.5,9.3-10.9,14.2c-13.4,19.8-21.8,43-24.7,66.8L795.3,756.4z"/>
		</g>
		<g>
			<path class="st16" d="M797.9,752.2c-6.7-23.6-8.6-48.4-7.4-73.1l0.7-9.2c0.1-1.5,0.3-3.1,0.5-4.6l0.6-4.6l0.6-4.6
				c0.2-1.5,0.5-3.1,0.7-4.6l1.6-9.2c0.6-3,1.3-6.1,2-9.1c0.6-3,1.5-6,2.3-9l1.3-4.5c0.4-1.5,0.8-3,1.3-4.5l2.9-8.9
				c8.1-23.5,19.5-45.8,33.7-66.1c7.2-10.1,15-19.6,23.5-28.5c4.3-4.4,8.7-8.7,13.4-12.7c1.1-1,2.3-2,3.5-3c1.2-1,2.3-2,3.5-2.9
				c2.4-1.9,4.8-3.8,7.4-5.5l1,1c-8.1,8.8-15.7,18.1-22.8,27.7c-7.1,9.6-13.8,19.5-20,29.7c-6.1,10.3-11.7,20.8-16.7,31.7l-1.9,4.1
				l-1.7,4.1l-3.5,8.2c-1.1,2.8-2.1,5.6-3.2,8.4c-1,2.8-2.1,5.6-3,8.4l-2.9,8.5c-1,2.8-1.7,5.7-2.6,8.6c-1.8,5.7-3.1,11.5-4.6,17.3
				c-2.7,11.6-4.9,23.4-6.4,35.2c-1.5,11.9-2.5,23.8-2.8,35.7c-0.4,11.9-0.3,23.9,0.5,35.9L797.9,752.2z"/>
		</g>
		<g>
			<path class="st17" d="M465.1,618.8c5.4-8.1,11.3-15.9,17.9-23.2c6.6-7.3,13.7-14,21.4-20.2c7.7-6.2,15.8-11.8,24.3-16.7
				c8.5-4.9,17.5-9.2,26.7-12.7c18.5-7,38.2-11.2,58.1-11.9c19.9-0.7,40,1.8,59,7.8c19.1,6,37.1,15.2,53.2,27.2
				c16.1,11.9,30.1,26.6,41.5,43.1c11.4,16.5,20.2,34.7,26,53.8c5.8,19.2,8.6,39.2,8.5,59.1l-0.2,29.4l-9.3-27.9
				c-4.3-12.8-9.8-25.2-16.7-36.8c-3.5-5.8-7.2-11.4-11.4-16.7c-4.1-5.3-8.5-10.4-13.3-15.2c-9.5-9.5-20.3-17.8-31.9-24.5
				c-11.7-6.6-24.4-11.5-37.6-14.3c-13.2-2.6-26.8-3.2-40.1-1.1c-13.3,2.1-26.2,6.9-38,13.6c-11.9,6.7-22.5,15.5-32.2,25.3
				c-4.8,4.9-9.3,10.2-13.5,15.6c-4.2,5.5-8.1,11.2-11.6,17.1c6.3-12.3,14.2-23.9,23.4-34.4c9.2-10.5,19.8-19.9,31.7-27.3
				c6-3.7,12.3-7,18.8-9.6c6.6-2.6,13.4-4.6,20.4-6c14-2.7,28.4-2.7,42.5-0.2c28.1,5.1,54.1,19.5,74.3,39.4
				c20.4,19.9,35.5,44.9,44.4,71.8L792,725c0-19-2.8-38-8.4-56.2c-5.6-18.2-13.8-35.5-24.5-51.2c-10.7-15.7-24-29.6-39-41.1
				c-15.1-11.5-32.1-20.6-50.2-26.5c-18.1-6-37.1-9-56.2-8.7c-19.1,0.3-38.2,3.6-56.4,9.8c-18.2,6.3-35.5,15.3-51,26.8
				c-7.8,5.7-15.2,12.1-22.1,18.9C477.3,603.6,470.9,611,465.1,618.8z"/>
		</g>
		<g>
			<path class="st17" d="M795.6,744.7c5.8-27.5,15.7-54.3,29.8-79.1c7.1-12.3,15.4-24,24.8-35c1.2-1.3,2.4-2.7,3.6-4l1.8-2
				c0.6-0.7,1.3-1.3,1.9-1.9l3.8-3.8l4-3.7c0.7-0.6,1.3-1.2,2-1.8l2.1-1.8c1.4-1.2,2.7-2.4,4.2-3.5l4.3-3.4c1.4-1.1,3-2.1,4.4-3.2
				c11.9-8.4,25.1-15.4,39.6-19.8c7.3-2.1,14.8-3.4,22.5-3.5l2.9-0.1l2.9,0.1l2.9,0.2c1,0.1,1.9,0.2,2.9,0.3
				c1.9,0.3,3.8,0.5,5.8,0.9l2.9,0.7l2.8,0.8c7.4,2.2,14.4,5.4,20.8,9.4c6.4,4,12.2,8.6,17.5,13.7c10.4,10.4,18.8,22.3,24.7,35.3
				l-1.3,0.9c-9.7-10.3-19.7-19.7-30.7-27.5c-5.5-3.8-11.2-7.2-17.1-10c-2.9-1.4-5.9-2.7-8.9-3.7l-2.3-0.8l-2.3-0.7
				c-0.8-0.2-1.5-0.4-2.3-0.6c-0.8-0.2-1.5-0.4-2.3-0.5c-3-0.7-6.1-1.1-9.2-1.4c-0.8-0.1-1.6-0.2-2.3-0.2l-2.4-0.1l-2.4-0.1
				l-2.4,0.1c-6.3,0.1-12.7,0.9-19,2.2c-12.6,2.8-25.1,7.9-36.4,15.1c-11.4,7.1-21.8,15.9-31.4,25.6c-9.5,9.8-18.2,20.5-25.8,32
				c-15.3,22.9-26.9,48.5-35,75.2L795.6,744.7z"/>
		</g>
		<g>
			<path class="st18" d="M795.2,756.3c2.4-23.9,10.3-47.5,23.4-67.8c3.3-5.1,6.9-10,10.8-14.6c3.9-4.6,8.1-9,12.6-13.2
				c8.9-8.2,18.9-15.4,29.8-21c10.8-5.6,22.4-9.8,34.4-12.3c6-1.2,12.1-2,18.2-2.3c6.1-0.3,12.3-0.1,18.3,0.5
				c6.1,0.6,12.1,1.6,18.1,3c5.9,1.4,11.8,3.2,17.4,5.3c11.4,4.3,22.2,9.9,32,17l-0.3,0.4c-5.2-2.9-10.6-5.6-16.1-7.9
				c-5.5-2.3-11.1-4.4-16.8-6.2c-11.4-3.5-23-5.9-34.8-6.7c-5.9-0.5-11.8-0.5-17.7-0.3c-5.9,0.2-11.7,0.9-17.5,2
				c-11.6,2-22.9,5.8-33.6,11c-10.6,5.2-20.5,11.9-29.4,19.8c-4.4,3.9-8.7,8.2-12.6,12.6c-3.9,4.5-7.5,9.2-10.9,14.1
				c-13.5,19.7-22,42.7-25,66.5L795.2,756.3z"/>
		</g>
		<g>
			<path class="st18" d="M798.7,751.8c1.6-19,8.7-37.7,20.2-53.3c5.8-7.8,12.6-14.8,20.4-20.8c7.8-5.9,16.4-10.8,25.6-14.3
				c9.2-3.5,18.9-5.8,28.7-6.6c4.9-0.4,9.9-0.4,14.8,0.1c4.9,0.4,9.8,1.3,14.6,2.5c9.6,2.5,18.7,6.3,27.1,11.2
				c8.4,4.9,16.2,10.8,22.8,17.8l-0.5,0.6c-16-10.3-33.2-18.1-51.2-21.8c-9-1.9-18.1-2.7-27.2-2.5c-4.6,0.1-9.1,0.5-13.6,1.3
				c-4.5,0.8-9,1.9-13.3,3.4c-17.4,5.9-33.2,17-45,31.5c-5.9,7.2-10.9,15.3-14.6,23.9c-3.8,8.6-6.4,17.8-7.9,27.1L798.7,751.8z"/>
		</g>
		<g>
			<path class="st17" d="M797.9,752.2c-6.7-23.6-8.6-48.4-7.4-73.1l0.7-9.2c0.1-1.5,0.3-3.1,0.5-4.6l0.6-4.6l0.6-4.6
				c0.2-1.5,0.5-3.1,0.7-4.6l1.6-9.2c0.6-3,1.3-6.1,2-9.1c0.6-3,1.5-6,2.3-9l1.3-4.5c0.4-1.5,0.8-3,1.3-4.5l2.9-8.9
				c8.1-23.5,19.5-45.8,33.7-66.1c7.2-10.1,15-19.6,23.5-28.5c4.3-4.4,8.7-8.7,13.4-12.7c1.1-1,2.3-2,3.5-3c1.2-1,2.3-2,3.5-2.9
				c2.4-1.9,4.8-3.8,7.4-5.5l1,1c-8.1,8.8-15.7,18.1-22.8,27.7c-7.1,9.6-13.8,19.5-20,29.7c-6.1,10.3-11.7,20.8-16.7,31.7l-1.9,4.1
				l-1.7,4.1l-3.5,8.2c-1.1,2.8-2.1,5.6-3.2,8.4c-1,2.8-2.1,5.6-3,8.4l-2.9,8.5c-1,2.8-1.7,5.7-2.6,8.6c-1.8,5.7-3.1,11.5-4.6,17.3
				c-2.7,11.6-4.9,23.4-6.4,35.2c-1.5,11.9-2.5,23.8-2.8,35.7c-0.4,11.9-0.3,23.9,0.5,35.9L797.9,752.2z"/>
		</g>
		<g>
			<path class="st18" d="M800.4,751.6c-0.6-5.7-1.1-11.4-1.3-17.1c-0.2-5.7-0.2-11.5,0-17.2c0.2-5.7,0.6-11.5,1.2-17.2
				c0.6-5.7,1.4-11.4,2.4-17.1c1-5.7,2.3-11.3,3.7-16.9c1.4-5.6,3.1-11.1,5-16.6c3.8-10.9,8.4-21.6,13.9-31.8
				c1.4-2.5,2.8-5.1,4.3-7.6l2.3-3.7c0.8-1.2,1.5-2.5,2.3-3.7c1.6-2.4,3.1-4.9,4.9-7.2c1.7-2.4,3.4-4.8,5.2-7
				c7.1-9.2,15.2-17.7,24-25.3c8.9-7.5,18.4-14.3,28.5-20c10.1-5.7,20.6-10.5,31.6-14l0.3,0.7c-10,5.6-19.7,11.5-28.9,18
				c-4.6,3.3-9.1,6.6-13.5,10.2c-2.2,1.7-4.3,3.6-6.5,5.4c-2.1,1.8-4.2,3.7-6.3,5.6c-8.2,7.6-15.9,15.7-23.2,24.3
				c-7.3,8.5-13.8,17.7-19.5,27.4c-5.6,9.7-10.5,19.9-14.6,30.5c-2,5.3-3.9,10.6-5.4,16.1c-1.6,5.4-3,10.9-4.2,16.4
				c-5,22.1-6.8,45-5.5,67.8L800.4,751.6z"/>
		</g>
		<g>
			<path class="st15" d="M1052.3,637.5c-18.9-24.8-44.9-43.9-74-53.7c-14.5-5-29.7-7.5-44.9-7.7c-15.2-0.2-30.4,2.2-44.7,7.1
				c-14.4,4.8-27.9,12-39.8,21.2c-11.9,9.2-22.5,20.3-31,32.7c-8.6,12.4-15.1,26.2-19.5,40.7c-4.4,14.4-6.7,29.5-6.7,44.7l-9.4-1.5
				c7.2-21.7,19.4-41.8,35.8-57.8c16.3-16,37.3-27.5,59.9-31.6c11.3-2,23-1.9,34.2,0.3c5.6,1.1,11.1,2.8,16.4,4.9
				c5.3,2.1,10.3,4.8,15.1,7.8c9.6,6,18,13.6,25.3,22.1c7.3,8.5,13.6,17.7,18.5,27.7c-5.7-9.5-12.6-18.2-20.3-26.1
				c-7.7-7.8-16.3-14.7-25.8-20c-9.5-5.3-19.7-9-30.3-10.7c-10.6-1.7-21.4-1.2-31.9,1c-10.5,2.2-20.5,6.1-29.8,11.4
				c-9.3,5.3-17.8,11.9-25.3,19.5c-3.8,3.8-7.3,7.8-10.6,12.1c-3.3,4.2-6.3,8.7-9,13.3c-5.5,9.2-9.8,19-13.2,29.2l-9.3,27.9
				l-0.2-29.4c-0.1-16.1,2.2-32.2,6.8-47.6c4.7-15.4,11.8-30.1,21-43.3c9.2-13.2,20.4-25.1,33.4-34.6c12.9-9.6,27.5-17,42.8-21.8
				c15.4-4.8,31.5-6.8,47.5-6.1c16,0.6,31.8,4,46.6,9.7c7.4,2.8,14.6,6.3,21.4,10.3c6.8,4,13.3,8.5,19.5,13.5
				c6.1,5,11.8,10.5,17,16.3C1043.3,624.7,1048.1,630.9,1052.3,637.5z"/>
		</g>
		<g>
			<path class="st15" d="M1052.3,637.5c-18.9-24.8-44.9-43.9-74-53.7c-14.5-5-29.7-7.5-44.9-7.7c-15.2-0.2-30.4,2.2-44.7,7.1
				c-14.4,4.8-27.9,12-39.8,21.2c-11.9,9.2-22.5,20.3-31,32.7c-8.6,12.4-15.1,26.2-19.5,40.7c-4.4,14.4-6.7,29.5-6.7,44.7l-9.4-1.5
				c7.2-21.7,19.4-41.8,35.8-57.8c16.3-16,37.3-27.5,59.9-31.6c11.3-2,23-1.9,34.2,0.3c5.6,1.1,11.1,2.8,16.4,4.9
				c5.3,2.1,10.3,4.8,15.1,7.8c9.6,6,18,13.6,25.3,22.1c7.3,8.5,13.6,17.7,18.5,27.7c-5.7-9.5-12.6-18.2-20.3-26.1
				c-7.7-7.8-16.3-14.7-25.8-20c-9.5-5.3-19.7-9-30.3-10.7c-10.6-1.7-21.4-1.2-31.9,1c-10.5,2.2-20.5,6.1-29.8,11.4
				c-9.3,5.3-17.8,11.9-25.3,19.5c-3.8,3.8-7.3,7.8-10.6,12.1c-3.3,4.2-6.3,8.7-9,13.3c-5.5,9.2-9.8,19-13.2,29.2l-9.3,27.9
				l-0.2-29.4c-0.1-16.1,2.2-32.2,6.8-47.6c4.7-15.4,11.8-30.1,21-43.3c9.2-13.2,20.4-25.1,33.4-34.6c12.9-9.6,27.5-17,42.8-21.8
				c15.4-4.8,31.5-6.8,47.5-6.1c16,0.6,31.8,4,46.6,9.7c7.4,2.8,14.6,6.3,21.4,10.3c6.8,4,13.3,8.5,19.5,13.5
				c6.1,5,11.8,10.5,17,16.3C1043.3,624.7,1048.1,630.9,1052.3,637.5z"/>
		</g>
		<g>
			<path class="st15" d="M1052.3,637.5c-18.9-24.8-44.9-43.9-74-53.7c-14.5-5-29.7-7.5-44.9-7.7c-15.2-0.2-30.4,2.2-44.7,7.1
				c-14.4,4.8-27.9,12-39.8,21.2c-11.9,9.2-22.5,20.3-31,32.7c-8.6,12.4-15.1,26.2-19.5,40.7c-4.4,14.4-6.7,29.5-6.7,44.7l-9.4-1.5
				c7.2-21.7,19.4-41.8,35.8-57.8c16.3-16,37.3-27.5,59.9-31.6c11.3-2,23-1.9,34.2,0.3c5.6,1.1,11.1,2.8,16.4,4.9
				c5.3,2.1,10.3,4.8,15.1,7.8c9.6,6,18,13.6,25.3,22.1c7.3,8.5,13.6,17.7,18.5,27.7c-5.7-9.5-12.6-18.2-20.3-26.1
				c-7.7-7.8-16.3-14.7-25.8-20c-9.5-5.3-19.7-9-30.3-10.7c-10.6-1.7-21.4-1.2-31.9,1c-10.5,2.2-20.5,6.1-29.8,11.4
				c-9.3,5.3-17.8,11.9-25.3,19.5c-3.8,3.8-7.3,7.8-10.6,12.1c-3.3,4.2-6.3,8.7-9,13.3c-5.5,9.2-9.8,19-13.2,29.2l-9.3,27.9
				l-0.2-29.4c-0.1-16.1,2.2-32.2,6.8-47.6c4.7-15.4,11.8-30.1,21-43.3c9.2-13.2,20.4-25.1,33.4-34.6c12.9-9.6,27.5-17,42.8-21.8
				c15.4-4.8,31.5-6.8,47.5-6.1c16,0.6,31.8,4,46.6,9.7c7.4,2.8,14.6,6.3,21.4,10.3c6.8,4,13.3,8.5,19.5,13.5
				c6.1,5,11.8,10.5,17,16.3C1043.3,624.7,1048.1,630.9,1052.3,637.5z"/>
		</g>
		<g>
			<path class="st16" d="M787.8,747.6c-1.3-9.5-3.5-18.9-6.8-27.9l-1.3-3.4l-0.6-1.7c-0.2-0.6-0.5-1.1-0.7-1.6c-1-2.2-2-4.3-3.1-6.5
				l-3.5-6.3c-1.2-2.1-2.6-4-3.9-6c-5.3-7.9-11.6-15.2-18.7-21.5c-7.1-6.3-15-11.8-23.5-16c-1-0.6-2.1-1-3.2-1.5l-3.3-1.4
				c-2.1-1-4.4-1.7-6.7-2.5c-1.1-0.4-2.2-0.8-3.4-1.1l-3.4-0.9c-1.1-0.3-2.3-0.5-3.5-0.8c-1.2-0.3-2.3-0.5-3.5-0.7
				c-4.7-0.9-9.4-1.4-14.1-1.6c-4.7-0.2-9.5-0.2-14.2,0.2c-18.9,1.5-37.5,7.6-54.1,17.1l-0.2-0.3c3.9-2.8,8.1-5.2,12.4-7.5
				c4.3-2.2,8.7-4.1,13.3-5.8c9.1-3.4,18.6-5.6,28.3-6.6c4.9-0.4,9.7-0.6,14.6-0.4c4.9,0.2,9.7,0.9,14.5,1.8
				c1.2,0.2,2.4,0.5,3.6,0.8c1.2,0.3,2.4,0.6,3.5,0.9l3.5,1c1.2,0.4,2.3,0.8,3.4,1.2c2.3,0.9,4.6,1.6,6.8,2.7l3.3,1.5
				c1.1,0.5,2.2,1,3.3,1.6c8.7,4.4,16.7,10.1,23.8,16.7c7.1,6.6,13.4,14,18.7,22.1c1.3,2.1,2.6,4.1,3.8,6.2l3.4,6.4
				c1,2.2,2,4.4,2.9,6.6c0.2,0.6,0.5,1.1,0.7,1.7l0.6,1.7l1.2,3.4c3.1,9.1,5.2,18.6,6.3,28.1L787.8,747.6z"/>
		</g>
		<g>
			<path class="st15" d="M1052.3,637.5c-18.9-24.8-44.9-43.9-74-53.7c-14.5-5-29.7-7.5-44.9-7.7c-15.2-0.2-30.4,2.2-44.7,7.1
				c-14.4,4.8-27.9,12-39.8,21.2c-11.9,9.2-22.5,20.3-31,32.7c-8.6,12.4-15.1,26.2-19.5,40.7c-4.4,14.4-6.7,29.5-6.7,44.7l-9.4-1.5
				c7.2-21.7,19.4-41.8,35.8-57.8c16.3-16,37.3-27.5,59.9-31.6c11.3-2,23-1.9,34.2,0.3c5.6,1.1,11.1,2.8,16.4,4.9
				c5.3,2.1,10.3,4.8,15.1,7.8c9.6,6,18,13.6,25.3,22.1c7.3,8.5,13.6,17.7,18.5,27.7c-5.7-9.5-12.6-18.2-20.3-26.1
				c-7.7-7.8-16.3-14.7-25.8-20c-9.5-5.3-19.7-9-30.3-10.7c-10.6-1.7-21.4-1.2-31.9,1c-10.5,2.2-20.5,6.1-29.8,11.4
				c-9.3,5.3-17.8,11.9-25.3,19.5c-3.8,3.8-7.3,7.8-10.6,12.1c-3.3,4.2-6.3,8.7-9,13.3c-5.5,9.2-9.8,19-13.2,29.2l-9.3,27.9
				l-0.2-29.4c-0.1-16.1,2.2-32.2,6.8-47.6c4.7-15.4,11.8-30.1,21-43.3c9.2-13.2,20.4-25.1,33.4-34.6c12.9-9.6,27.5-17,42.8-21.8
				c15.4-4.8,31.5-6.8,47.5-6.1c16,0.6,31.8,4,46.6,9.7c7.4,2.8,14.6,6.3,21.4,10.3c6.8,4,13.3,8.5,19.5,13.5
				c6.1,5,11.8,10.5,17,16.3C1043.3,624.7,1048.1,630.9,1052.3,637.5z"/>
		</g>
		<g>
			<path class="st16" d="M787.8,747.6c-1.3-9.5-3.5-18.9-6.8-27.9l-1.3-3.4l-0.6-1.7c-0.2-0.6-0.5-1.1-0.7-1.6c-1-2.2-2-4.3-3.1-6.5
				l-3.5-6.3c-1.2-2.1-2.6-4-3.9-6c-5.3-7.9-11.6-15.2-18.7-21.5c-7.1-6.3-15-11.8-23.5-16c-1-0.6-2.1-1-3.2-1.5l-3.3-1.4
				c-2.1-1-4.4-1.7-6.7-2.5c-1.1-0.4-2.2-0.8-3.4-1.1l-3.4-0.9c-1.1-0.3-2.3-0.5-3.5-0.8c-1.2-0.3-2.3-0.5-3.5-0.7
				c-4.7-0.9-9.4-1.4-14.1-1.6c-4.7-0.2-9.5-0.2-14.2,0.2c-18.9,1.5-37.5,7.6-54.1,17.1l-0.2-0.3c3.9-2.8,8.1-5.2,12.4-7.5
				c4.3-2.2,8.7-4.1,13.3-5.8c9.1-3.4,18.6-5.6,28.3-6.6c4.9-0.4,9.7-0.6,14.6-0.4c4.9,0.2,9.7,0.9,14.5,1.8
				c1.2,0.2,2.4,0.5,3.6,0.8c1.2,0.3,2.4,0.6,3.5,0.9l3.5,1c1.2,0.4,2.3,0.8,3.4,1.2c2.3,0.9,4.6,1.6,6.8,2.7l3.3,1.5
				c1.1,0.5,2.2,1,3.3,1.6c8.7,4.4,16.7,10.1,23.8,16.7c7.1,6.6,13.4,14,18.7,22.1c1.3,2.1,2.6,4.1,3.8,6.2l3.4,6.4
				c1,2.2,2,4.4,2.9,6.6c0.2,0.6,0.5,1.1,0.7,1.7l0.6,1.7l1.2,3.4c3.1,9.1,5.2,18.6,6.3,28.1L787.8,747.6z"/>
		</g>
		<g>
			<path class="st4" d="M1052.3,637.5l-3.8-4.5l-3.9-4.3l-4.1-4.2l-4.2-4c-5.6-5.3-11.7-10.1-18-14.5c-12.6-8.8-26.4-15.5-40.8-20.1
				c-7.2-2.3-14.5-4-21.9-5.2c-7.4-1.1-14.9-1.7-22.3-1.7c-14.9,0.1-29.7,2.5-43.6,7.4c-7,2.4-13.7,5.4-20.2,8.9
				c-6.5,3.5-12.6,7.5-18.4,12c-11.6,9-21.8,19.8-30,32c-16.6,24.2-25.4,53.6-25.5,83.1l-17.1-2.7c1.9-5.5,4-11,6.5-16.3
				c2.5-5.3,5.3-10.5,8.4-15.5c6.2-10,13.6-19.2,22.1-27.3c4.3-4,8.8-7.9,13.5-11.3c4.8-3.4,9.8-6.5,15-9.3
				c10.4-5.5,21.7-9.3,33.4-11.3c11.6-1.9,23.6-1.7,35.1,0.7c5.7,1.2,11.3,3,16.7,5.3c5.4,2.3,10.5,5.1,15.3,8.2
				c9.6,6.3,18,14.2,25.1,22.9c7.2,8.7,13.2,18.2,17.8,28.3c-6-9.3-13.2-17.8-21-25.4c-7.9-7.5-16.5-14.2-26-19.2
				c-9.4-5-19.5-8.4-29.8-9.8c-10.3-1.4-20.8-0.8-30.9,1.4c-5.1,1.1-10,2.7-14.8,4.7c-4.8,2-9.5,4.2-14,6.8
				c-8.9,5.3-17.1,11.8-24.4,19.2c-3.7,3.7-7,7.7-10.1,11.8c-3.2,4.1-6,8.5-8.7,13c-5.3,9-9.5,18.6-12.7,28.5l-16.4,50.3l-0.7-53
				c-0.2-16.5,2.2-33,6.9-48.8c4.8-15.8,12.1-30.9,21.5-44.4c9.5-13.5,21.1-25.6,34.4-35.4c6.7-4.9,13.7-9.2,21.1-12.9
				c7.4-3.7,15.1-6.7,23-9.1c15.8-4.7,32.3-6.7,48.6-5.8c8.2,0.4,16.2,1.5,24.2,3.3c7.9,1.8,15.7,4.2,23.1,7.2
				c15,6,28.8,14.5,40.9,24.9c6,5.2,11.6,10.8,16.7,16.9c1.3,1.5,2.5,3,3.7,4.6l3.5,4.7l3.3,4.8L1052.3,637.5z"/>
		</g>
		<g>
			<path class="st16" d="M787.8,747.6c-1.3-9.5-3.5-18.9-6.8-27.9l-1.3-3.4l-0.6-1.7c-0.2-0.6-0.5-1.1-0.7-1.6c-1-2.2-2-4.3-3.1-6.5
				l-3.5-6.3c-1.2-2.1-2.6-4-3.9-6c-5.3-7.9-11.6-15.2-18.7-21.5c-7.1-6.3-15-11.8-23.5-16c-1-0.6-2.1-1-3.2-1.5l-3.3-1.4
				c-2.1-1-4.4-1.7-6.7-2.5c-1.1-0.4-2.2-0.8-3.4-1.1l-3.4-0.9c-1.1-0.3-2.3-0.5-3.5-0.8c-1.2-0.3-2.3-0.5-3.5-0.7
				c-4.7-0.9-9.4-1.4-14.1-1.6c-4.7-0.2-9.5-0.2-14.2,0.2c-18.9,1.5-37.5,7.6-54.1,17.1l-0.2-0.3c3.9-2.8,8.1-5.2,12.4-7.5
				c4.3-2.2,8.7-4.1,13.3-5.8c9.1-3.4,18.6-5.6,28.3-6.6c4.9-0.4,9.7-0.6,14.6-0.4c4.9,0.2,9.7,0.9,14.5,1.8
				c1.2,0.2,2.4,0.5,3.6,0.8c1.2,0.3,2.4,0.6,3.5,0.9l3.5,1c1.2,0.4,2.3,0.8,3.4,1.2c2.3,0.9,4.6,1.6,6.8,2.7l3.3,1.5
				c1.1,0.5,2.2,1,3.3,1.6c8.7,4.4,16.7,10.1,23.8,16.7c7.1,6.6,13.4,14,18.7,22.1c1.3,2.1,2.6,4.1,3.8,6.2l3.4,6.4
				c1,2.2,2,4.4,2.9,6.6c0.2,0.6,0.5,1.1,0.7,1.7l0.6,1.7l1.2,3.4c3.1,9.1,5.2,18.6,6.3,28.1L787.8,747.6z"/>
		</g>
		<g>
			<path class="st17" d="M1061.3,639.5c-18.9-24.8-44.9-43.9-74-53.7c-14.5-5-29.7-7.5-44.9-7.7c-15.2-0.2-30.4,2.2-44.7,7.1
				c-14.4,4.8-27.9,12-39.8,21.2c-11.9,9.2-22.5,20.3-31,32.7c-8.6,12.4-15.1,26.2-19.5,40.7c-4.4,14.4-6.7,29.5-6.7,44.7l-9.4-1.5
				c7.2-21.7,19.4-41.8,35.8-57.8c16.3-16,37.3-27.5,59.9-31.6c11.3-2,23-1.9,34.2,0.3c5.6,1.1,11.1,2.8,16.4,4.9
				c5.3,2.1,10.3,4.8,15.1,7.8c9.6,6,18,13.6,25.3,22.1c7.3,8.5,13.6,17.7,18.5,27.7c-5.7-9.5-12.6-18.2-20.3-26.1
				c-7.7-7.8-16.3-14.7-25.8-20c-9.5-5.3-19.7-9-30.3-10.7c-10.6-1.7-21.4-1.2-31.9,1c-10.5,2.2-20.5,6.1-29.8,11.4
				c-9.3,5.3-17.8,11.9-25.3,19.5c-3.8,3.8-7.3,7.8-10.6,12.1c-3.3,4.2-6.3,8.7-9,13.3c-5.5,9.2-9.8,19-13.2,29.2l-9.3,27.9
				l-0.2-29.4c-0.1-16.1,2.2-32.2,6.8-47.6c4.7-15.4,11.8-30.1,21-43.3c9.2-13.2,20.4-25.1,33.4-34.6c12.9-9.6,27.5-17,42.8-21.8
				c15.4-4.8,31.5-6.8,47.5-6.1c16,0.6,31.8,4,46.6,9.7c7.4,2.8,14.6,6.3,21.4,10.3c6.8,4,13.3,8.5,19.5,13.5
				c6.1,5,11.8,10.5,17,16.3C1052.3,626.7,1057.1,632.9,1061.3,639.5z"/>
		</g>
		<g>
			<path class="st17" d="M800.8,728.9c-5.7-17-13.4-33.1-23.4-47.5c-5-7.2-10.6-13.9-16.7-19.9c-6.1-6-12.7-11.5-19.9-15.8
				c-7.1-4.4-15-7.3-22.7-8.8c-7.7-1.4-15.4-1.6-22.6-0.3c-1.8,0.4-3.7,0.8-5.5,1.4c-1.9,0.6-3.7,1.3-5.5,2.1
				c-3.7,1.6-7.3,3.5-10.8,5.7c-7.1,4.5-13.8,10.1-20.7,16.2l-1.3-0.9c3.1-8.8,8.2-16.9,14.8-24c6.7-7,15.1-12.9,25.1-16l1.9-0.5
				l1.9-0.5c1.3-0.3,2.6-0.4,3.9-0.6c1.3-0.2,2.6-0.3,3.9-0.4l2-0.1l1.9,0c5.2,0.1,10.2,1.1,15.1,2.5c9.6,3.1,18.2,7.9,25.9,13.5
				c7.8,5.6,14.6,12.2,20.7,19.2c6,7.2,11.2,14.9,15.7,22.9c8.8,16.2,14.9,33.5,18.1,51.3L800.8,728.9z"/>
		</g>
		<g>
			<path class="st18" d="M787.7,747.6c-1.3-9.5-3.7-18.8-7-27.8l-1.3-3.3l-0.7-1.7c-0.2-0.6-0.5-1.1-0.7-1.6c-1-2.2-2-4.3-3.1-6.5
				l-3.5-6.2c-1.2-2-2.6-4-3.9-6c-5.4-7.8-11.7-15-18.8-21.3c-7.1-6.3-15-11.7-23.5-15.7c-1-0.6-2.1-1-3.2-1.5l-3.3-1.4
				c-2.1-1-4.4-1.6-6.6-2.4c-1.1-0.4-2.2-0.8-3.4-1.1l-3.4-0.9c-1.1-0.3-2.3-0.5-3.4-0.8c-1.1-0.3-2.3-0.5-3.5-0.7
				c-9.2-1.6-18.7-2-28-1.4c-18.8,1.4-37.2,7.1-54.1,16.2l-0.3-0.4c7.7-5.8,16.4-10.4,25.5-13.9c4.5-1.8,9.2-3.2,14-4.4
				c4.8-1.2,9.6-2,14.5-2.5c9.8-1,19.7-0.6,29.4,1.5c4.8,1,9.6,2.3,14.2,4.1c2.3,0.9,4.6,1.6,6.8,2.7l3.3,1.5c1.1,0.5,2.2,1,3.3,1.6
				c8.7,4.5,16.7,10.3,23.8,16.9c7.1,6.6,13.4,14.2,18.7,22.3c1.2,2.1,2.6,4.1,3.7,6.2l3.4,6.5c1,2.2,1.9,4.4,2.9,6.7
				c0.2,0.6,0.5,1.1,0.7,1.7l0.6,1.7l1.2,3.4c3.1,9.2,5.1,18.7,6.1,28.2L787.7,747.6z"/>
		</g>
		<g>
			<path class="st18" d="M784.6,744c-1.3-7.5-3.5-14.7-6.5-21.6c-3-6.9-7.1-13.2-11.8-18.9c-4.7-5.7-10.2-10.8-16.2-15
				c-6.1-4.2-12.7-7.5-19.6-9.8l-2.6-0.8l-1.3-0.4l-1.3-0.3c-1.8-0.4-3.5-0.8-5.3-1.1l-5.4-0.7c-1.8-0.2-3.6-0.2-5.4-0.3
				c-7.2-0.1-14.4,0.6-21.5,2c-7.1,1.4-14.1,3.6-21,6.4c-3.4,1.4-6.8,3-10.2,4.7c-3.4,1.7-6.6,3.6-9.9,5.5l-0.5-0.6
				c2.5-2.9,5.4-5.5,8.4-8c0.7-0.6,1.5-1.2,2.3-1.8c0.8-0.6,1.6-1.2,2.4-1.7c0.8-0.6,1.6-1.1,2.4-1.6c0.8-0.5,1.6-1.1,2.5-1.5
				c6.7-4,14-7.2,21.7-9.2c7.7-2,15.8-2.8,23.8-2.1c8,0.6,15.8,2.6,23.1,5.5c7.4,2.9,14.3,6.8,20.6,11.5
				c6.2,4.8,11.6,10.6,16.3,16.8c4.5,6.3,8.4,13.2,10.9,20.4l0.5,1.3l0.4,1.4l0.8,2.8l0.8,2.8l0.6,2.8l0.6,2.8
				c0.1,0.5,0.2,0.9,0.3,1.4l0.2,1.4l0.7,5.7L784.6,744z"/>
		</g>
		<g>
			<path class="st17" d="M784.7,744.1c-0.6-2.4-0.9-4.8-1.4-7.2l-1.3-7.2c-0.2-1.2-0.4-2.4-0.6-3.6l-0.7-3.5
				c-0.2-1.2-0.4-2.3-0.6-3.5l-0.7-3.5c-1.7-9.3-3.6-18.5-5.6-27.6c-1.1-4.5-2.1-9-3.3-13.5c-1.1-4.5-2.3-8.9-3.5-13.3
				c-1.4-4.4-2.4-8.8-4-13.2c-0.7-2.2-1.3-4.4-2-6.6l-2.2-6.5c-5.9-17.3-13-34.2-21-51c-4-8.4-8.3-16.7-12.7-25.1l-6.8-12.6
				c-2.3-4.2-4.7-8.5-7-12.9l1-1c6.6,7,12.9,14.3,18.8,21.9c5.8,7.7,11.3,15.6,16.3,23.8c10,16.5,18.3,34,24.7,52.2l2.3,6.9
				c0.8,2.3,1.4,4.6,2,6.9c1.4,4.6,2.4,9.3,3.6,14c2.1,9.4,3.8,18.9,5,28.4c1.1,9.6,1.8,19.2,2.1,28.8c0.1,9.6-0.2,19.2-1,28.8
				L784.7,744.1z"/>
		</g>
		<g>
			<path class="st18" d="M783.3,743.6c0.9-18.2-0.7-36.5-4.7-54.1c-4-17.6-10.5-34.6-19.6-50.1c-4.6-7.7-9.8-15-15.6-21.8
				c-5.8-6.8-11.9-13.2-18.4-19.3c-6.5-6.1-13.4-11.8-20.7-17.1c-7.3-5.3-15-10.2-22.9-14.8l0.3-0.7c8.9,2.6,17.4,6.3,25.6,10.8
				c8.1,4.5,15.9,9.8,23,15.9c7.1,6.1,13.6,12.9,19.3,20.4c1.4,1.8,2.8,3.8,4.1,5.7c1.4,1.9,2.6,3.9,3.9,5.8c1.3,1.9,2.4,4,3.7,6
				c1.2,2,2.3,4.1,3.4,6.1c4.4,8.2,8.1,16.8,11.1,25.6c2.9,8.8,5.2,17.8,6.8,26.9c1.6,9.1,2.5,18.3,2.8,27.5
				c0.1,4.6,0.1,9.2-0.1,13.8c-0.2,4.6-0.6,9.2-1.1,13.7L783.3,743.6z"/>
		</g>
		<g>
			<path class="st18" d="M756.1,779.4c9.9-15.3,17.7-31.9,23.1-49.2c5.4-17.3,8.3-35.3,8.2-53.2c-0.1-9-1-17.9-2.6-26.7
				c-1.6-8.8-3.7-17.4-6.3-26c-2.6-8.5-5.7-16.9-9.4-25.2c-3.7-8.2-7.8-16.3-12.3-24.3l0.6-0.5c6.4,6.7,11.9,14.2,16.7,22.2
				c4.8,8,8.8,16.5,12,25.3c3.1,8.8,5.3,18,6.5,27.3c0.3,2.3,0.5,4.7,0.7,7c0.2,2.3,0.3,4.7,0.4,7c0.1,2.3,0.1,4.7,0.2,7
				c0,2.3-0.1,4.7-0.1,7c-0.3,9.3-1.5,18.6-3.2,27.7c-1.9,9.1-4.4,18-7.6,26.7c-3.2,8.7-7,17.1-11.4,25.2c-2.2,4-4.5,8-7,11.9
				c-2.5,3.9-5.1,7.6-7.8,11.3L756.1,779.4z"/>
		</g>
	</g>
	<g id="Plant_5_">
		<g>
			<path class="st17" d="M270.6,856.8c-2.2-3.6-4.7-6.7-7.6-8.8c-2.9-2.1-6-3-8.6-2.6c-2.6,0.4-5,2-6.9,4.4c-2,2.3-3.3,5.4-4.3,8.6
				l-9-3.4c0.9-1.5,1.8-2.9,3.1-4.2c1.2-1.3,2.6-2.5,4.2-3.5c1.6-1,3.4-1.8,5.4-2.1c1.9-0.4,4.1-0.3,6,0.3c1.9,0.6,3.6,1.7,4.9,3.1
				c1.3,1.4,2.1,2.9,2.7,4.4c1.2,3.1,1.4,6.2,1,9.1c-1.4-2.7-2.9-5.1-4.6-7c-1.8-1.9-3.8-2.9-5.5-2.8c-1.7,0-3.3,0.8-4.8,2.1
				c-0.7,0.6-1.4,1.5-2.1,2.3c-0.6,0.9-1.2,1.9-1.7,2.9l-15.7,29.3l6.7-32.7c0.9-4.6,2.9-9.2,6.3-13c1.7-1.8,3.8-3.5,6.2-4.7
				c2.4-1.2,5.2-1.8,7.9-1.7c2.7,0.1,5.4,0.9,7.6,2.3c2.2,1.3,3.9,3.1,5.2,5C269.7,848.1,270.8,852.5,270.6,856.8z"/>
		</g>
		<g>
			<g>
				<g>
					<defs>
						<rect id="SVGID_3_" x="201.6" y="835" width="52.8" height="32"/>
					</defs>
					<clipPath id="SVGID_4_">
						<use xlink:href="#SVGID_3_"  style="overflow:visible;"/>
					</clipPath>
					<g class="st19">
						<path class="st17" d="M206.2,860.4c-0.2-4.2,0.9-8.7,3.5-12.5c1.3-1.9,3.1-3.7,5.2-5c2.2-1.4,4.8-2.2,7.6-2.3
							c2.7-0.1,5.5,0.5,7.9,1.7c2.4,1.1,4.5,2.8,6.2,4.7c3.4,3.8,5.4,8.3,6.3,13l6.7,32.7l-15.7-29.3c-0.5-1-1.1-2-1.7-2.9
							c-0.6-0.9-1.3-1.7-2.1-2.3c-1.5-1.3-3.1-2.1-4.8-2.1c-1.7-0.1-3.7,0.9-5.5,2.8c-1.8,1.9-3.3,4.3-4.6,7c-0.4-3-0.2-6.1,1-9.1
							c0.6-1.5,1.5-3.1,2.7-4.4c1.3-1.3,3-2.5,4.9-3.1c1.9-0.6,4-0.7,6-0.3c2,0.4,3.8,1.1,5.4,2.1c1.6,1,3,2.2,4.2,3.5
							c1.2,1.3,2.2,2.8,3.1,4.2l-9,3.4c-0.9-3.2-2.3-6.3-4.3-8.6c-1.9-2.4-4.3-3.9-6.9-4.4c-2.6-0.5-5.7,0.4-8.6,2.6
							C210.9,853.7,208.4,856.8,206.2,860.4z"/>
					</g>
				</g>
			</g>
		</g>
		<g>
			<path class="st20" d="M235.8,864.9c-0.5-3-1.2-5.9-2.2-8.6c-0.3-0.7-0.5-1.4-0.8-2c-0.3-0.6-0.6-1.3-0.9-1.9
				c-0.6-1.3-1.3-2.5-2.1-3.5c-0.8-1-1.7-1.9-2.7-2.5c-0.9-0.6-1.6-0.9-2.1-1.2c-0.3-0.3-1.3-0.5-2.5-0.4c-1.2,0.1-2.7,0.6-4.4,1
				l-0.5-0.5c0.3-1.8,1.1-3.5,2.5-4.8c0.7-0.7,1.6-1.3,2.6-1.7c1-0.4,2.3-0.7,3.6-0.5c2.5,0.2,4.5,1.6,5.7,3.1
				c1.3,1.5,2,3.2,2.7,4.7c0.7,1.6,1.2,3.2,1.6,4.7c0.2,0.8,0.3,1.6,0.4,2.4c0.1,0.8,0.2,1.6,0.3,2.4c0.2,3.2,0,6.3-0.5,9.4
				L235.8,864.9z"/>
		</g>
		<g>
			<path class="st20" d="M235.8,863.8c-0.1-1.6,0-3.2,0.2-4.8c0.3-1.6,0.7-3.2,1.5-4.8c0.4-0.8,0.7-1.7,1.4-2.7
				c0.7-0.9,1.6-1.8,3.8-2.1c0.9-0.1,2.7,0,3.9,1c1.1,0.9,1.5,1.9,1.6,2.6c0.1,0.8-0.1,1.5-0.3,2c-0.3,0.6-0.7,1.1-1.3,1.6l-0.9,0.1
				c-1.4-0.5-2.3-0.8-2.9-0.5c-0.3,0.2-0.4,0.6,0.1,1.1c0.1,0.1,0.3,0.3,0.5,0.4c0.1,0.1,0.2,0.1,0.3,0.1c0.1,0,0.1,0.1,0.2,0.1
				c0.2,0.1,0.3,0.1,0.5,0.1c0.1,0,0.2,0.1,0.3,0.1c0.8,0,0.5,0,0.1,0.1c-0.5,0-1.1,0.1-1.6,0.5c-1,0.7-2.1,1.5-3.2,2.4
				c-1.1,0.9-2.2,2-3.4,3L235.8,863.8z"/>
		</g>
	</g>
	<g id="Bonsai">
		<path class="st21" d="M761.5,499.5c-3.5-4.9-7.3-12.1-7-20.6c0.5-14.6,12.6-20.9,9.5-29.4c-2.5-6.9-13.6-11.5-22.1-10.9
			c-6.6,0.5-9.9,4-17.1,2.4c-2-0.4-6-1.3-8.4-4.5c-3.7-5-1.8-12.8,1-17.5c3.5-5.8,9.4-7.9,21-11.9c29.4-10.1,27.1-8.9,29.8-10.1
			c15.7-7.3,27.5-17.6,33.6-23.1c3-2.7,5.4-5,7-6.6l-5.2-1.8c-2.5,2-6.1,5-10.5,8.4c-8,6.3-12.1,9.4-16.5,12.2
			c-9,5.8-22.6,12.3-24.5,9.8c-1.4-1.8,4.5-6.3,8.4-16.8c2.4-6.3,3-11.9,3.1-15.8l-6.3,1.8c0.1,2.1,0.4,16.5-10.5,25.5
			c-1.4,1.1-10.5,8.7-20.7,6.3c-1.3-0.3-2.9-1-5.6-2.5c-9.8-5.3-15-13.8-17.5-18.9l-6.3,15c10.3,4.2,12.9,8.4,13.3,11.6
			c1.1,8.1-12,11.5-14.3,24.1c-1.5,8.2,2,17.3,7.3,22.8c9,9.3,22.1,6.8,22.8,11.5c0.5,3.5-6.3,6.1-13.3,11.6
			c-6.7,5.2-14.3,13.4-20.3,27.3H761.5z"/>
		<path class="st5" d="M709.1,280.2c4.9-5.6,16,3.2,28.4-3c7.3-3.6,5.8-7.8,13.3-13.7c11.2-8.7,29.5-11.4,42-4.7
			c10.4,5.6,6.8,12.3,18.7,22.3c15.7,13.3,26.9,5.5,36.9,17.5c8.8,10.5,3.2,20.1,14.3,30.9c6.5,6.3,9.5,4.1,15.4,10
			c12.1,12.1,14.3,36.1,4.8,42.8c-5.5,3.9-13.7,1.1-14.4,0.8c-9.5-3.4-9.6-12.3-17.2-16.7c-8.9-5.1-15.7,3.3-31.7,5.1
			c-26.7,3.1-33-17.2-60.4-14.1c-13.8,1.6-19.8,7.6-28.3,3.4c-7.8-3.8-14-13.8-13.5-22.9c0.4-6.3,3.8-7.2,3.8-13.7
			c0-7.1-4.1-9.5-8.3-18.6C710.9,301.2,704,286,709.1,280.2z"/>
		<path class="st22" d="M762.3,350.6c1.6-6.7-25.5-11-36.6-34.7c-4.2-9-2.5-13.2-7.9-18.2c-8.3-7.6-21.2-5.7-37.2-3.3
			c-18.5,2.7-29.3,4.3-37.2,13.2c-8.2,9.2-5.2,17.3-14.7,23.7c-8.5,5.7-16.4,2.9-18.9,8.1c-2.2,4.7,1.2,13,7,17.3
			c13.3,9.6,29-9.5,51-2.7c15.8,4.9,15.5,17.1,29.4,18.1c11.7,0.8,14.1-7.6,34.5-14.1C750.2,352.2,761.2,354.9,762.3,350.6z"/>
		<path class="st23" d="M737.6,444c1.8-2,5.4-5.4,11-7.1c4.3-1.3,13.4-2.8,16.5,1.5c3.5,4.8-3.5,12.9,0.7,17.7
			c2.1,2.5,5.1,1.7,5.7,3.7c1,3.4-5.9,10.2-10.8,9.1c-4.4-1-3.2-7.5-9.4-11.3c-5-3-9-0.8-12-4.1C737,450.9,737.2,446.8,737.6,444z"
			/>
		<path class="st5" d="M758.4,440.2c0.2-1,7.3-2,12.1,2c1,0.8,4.7,4.2,4.1,8.9c-0.3,2.2-1.8,5.7-5,6.3c-3.4,0.8-7-2-7.7-4.9
			c-0.8-3.2,2.5-5.2,1.5-8.2C762.3,441.4,758.2,441,758.4,440.2z"/>
	</g>
</g>
<g id="Flowers">
	<g id="Flower">
		<path class="st24" d="M1051,448.4c-2.9-19.9-4.7-45.2-2.1-74.2c1.8-19.7,5.2-37.1,9.1-51.8"/>
		<g>
			<g>
				<line class="st25" x1="1052.2" y1="261.1" x2="1061.4" y2="311"/>
				<path class="st26" d="M1052.2,261.1c3.6,3.6,5.8,7.5,7.7,11.5c1.8,4,3,8.1,3.8,12.2c0.8,4.2,1.1,8.4,0.8,12.8
					c-0.3,4.4-1,8.8-3.1,13.5c-3.7-3.6-5.9-7.5-7.7-11.5c-1.8-4-3-8.1-3.8-12.2c-0.8-4.2-1.1-8.4-0.8-12.8
					C1049.4,270.2,1050.1,265.8,1052.2,261.1z"/>
			</g>
			<g>
				<line class="st25" x1="1027.3" y1="272.2" x2="1061.4" y2="311"/>
				<path class="st26" d="M1027.3,272.2c5,1.3,9,3.6,12.6,6.1c3.6,2.5,6.8,5.5,9.7,8.7c2.8,3.2,5.3,6.8,7.4,10.7
					c2,4,3.8,8.2,4.4,13.3c-5.1-1.3-9-3.6-12.7-6.1c-3.6-2.5-6.8-5.5-9.6-8.7c-2.8-3.2-5.3-6.8-7.4-10.7
					C1029.7,281.5,1028,277.3,1027.3,272.2z"/>
			</g>
			<g>
				<line class="st25" x1="1011.6" y1="293.7" x2="1061.4" y2="311"/>
				<path class="st26" d="M1011.6,293.7c5.1-1.3,9.7-1.2,14.3-0.9c4.5,0.5,8.8,1.5,13,2.9c4.2,1.4,8.2,3.3,12,5.7
					c3.8,2.5,7.5,5.3,10.6,9.5c-5.1,1.3-9.8,1.3-14.3,0.9c-4.5-0.5-8.8-1.5-12.9-2.9c-4.1-1.5-8.2-3.3-12-5.8
					C1018.5,300.7,1014.8,297.9,1011.6,293.7z"/>
			</g>
			<g>
				<line class="st25" x1="1009.2" y1="319.8" x2="1061.4" y2="311"/>
				<path class="st26" d="M1009.2,319.8c3.9-3.6,8-5.8,12.1-7.6c4.2-1.8,8.5-2.9,12.8-3.7c4.4-0.7,8.8-1,13.3-0.7
					c4.5,0.4,9.1,1.1,14,3.2c-3.9,3.6-8,5.8-12.1,7.6c-4.2,1.8-8.5,2.9-12.8,3.7c-4.4,0.7-8.8,1-13.3,0.7
					C1018.6,322.7,1014,322,1009.2,319.8z"/>
			</g>
			<g>
				<line class="st25" x1="1020.8" y1="343.6" x2="1061.4" y2="311"/>
				<path class="st26" d="M1020.8,343.6c1.6-5,4-8.8,6.7-12.4c2.7-3.5,5.8-6.6,9.2-9.3c3.4-2.7,7-5.1,11.1-7
					c4.1-1.9,8.4-3.4,13.6-3.8c-1.5,5-4,8.9-6.7,12.4c-2.7,3.5-5.8,6.6-9.2,9.3c-3.4,2.7-7.1,5.1-11.1,7
					C1030.3,341.6,1026,343.2,1020.8,343.6z"/>
			</g>
			<g>
				<line class="st25" x1="1043.3" y1="358.7" x2="1061.4" y2="311"/>
				<path class="st26" d="M1043.3,358.7c-1.2-5-1.1-9.5-0.6-13.9c0.5-4.3,1.6-8.5,3.1-12.4c1.5-4,3.4-7.8,5.9-11.4
					c2.5-3.6,5.4-7,9.7-10c1.2,5,1.1,9.5,0.6,13.9c-0.5,4.3-1.6,8.5-3.1,12.4c-1.5,4-3.5,7.8-5.9,11.4
					C1050.4,352.3,1047.5,355.7,1043.3,358.7z"/>
			</g>
			<g>
				<line class="st25" x1="1070.6" y1="360.9" x2="1061.4" y2="311"/>
				<path class="st26" d="M1070.6,360.9c-3.6-3.6-5.8-7.5-7.7-11.5c-1.8-4-3-8.1-3.8-12.2c-0.8-4.2-1.1-8.4-0.8-12.8
					c0.3-4.4,1-8.8,3.1-13.5c3.7,3.6,5.9,7.5,7.7,11.5c1.8,4,3,8.1,3.8,12.2c0.8,4.2,1.1,8.4,0.8,12.8
					C1073.4,351.8,1072.7,356.3,1070.6,360.9z"/>
			</g>
			<g>
				<line class="st25" x1="1095.5" y1="349.9" x2="1061.4" y2="311"/>
				<path class="st26" d="M1095.5,349.9c-5-1.3-9-3.6-12.6-6.1c-3.6-2.5-6.8-5.5-9.7-8.7c-2.8-3.2-5.3-6.8-7.4-10.7
					c-2-4-3.8-8.2-4.4-13.3c5.1,1.3,9,3.6,12.7,6.1c3.6,2.5,6.8,5.5,9.6,8.7c2.8,3.2,5.3,6.8,7.4,10.7
					C1093.1,340.5,1094.9,344.7,1095.5,349.9z"/>
			</g>
			<g>
				<line class="st25" x1="1111.2" y1="328.4" x2="1061.4" y2="311"/>
				<path class="st26" d="M1111.2,328.4c-5.1,1.3-9.7,1.2-14.3,0.9c-4.5-0.5-8.8-1.5-13-2.9c-4.2-1.4-8.2-3.3-12-5.7
					c-3.8-2.5-7.5-5.3-10.6-9.5c5.1-1.3,9.8-1.3,14.3-0.9c4.5,0.5,8.8,1.5,12.9,2.9c4.1,1.5,8.2,3.3,12,5.8
					C1104.4,321.3,1108.1,324.1,1111.2,328.4z"/>
			</g>
			<g>
				<line class="st25" x1="1113.6" y1="302.2" x2="1061.4" y2="311"/>
				<path class="st26" d="M1113.6,302.2c-3.9,3.6-8,5.8-12.1,7.6c-4.2,1.8-8.5,2.9-12.8,3.7c-4.4,0.7-8.8,1-13.3,0.7
					c-4.5-0.4-9.1-1.1-14-3.2c3.9-3.6,8-5.8,12.1-7.6c4.2-1.8,8.5-2.9,12.8-3.7c4.4-0.7,8.8-1,13.3-0.7
					C1104.2,299.4,1108.8,300.1,1113.6,302.2z"/>
			</g>
			<g>
				<line class="st25" x1="1102" y1="278.4" x2="1061.4" y2="311"/>
				<path class="st26" d="M1102,278.4c-1.6,5-4,8.8-6.7,12.4c-2.7,3.5-5.8,6.6-9.2,9.3c-3.4,2.7-7,5.1-11.1,7
					c-4.1,1.9-8.4,3.4-13.6,3.8c1.5-5,4-8.9,6.7-12.4c2.7-3.5,5.8-6.6,9.2-9.3c3.4-2.7,7.1-5.1,11.1-7
					C1092.5,280.4,1096.8,278.9,1102,278.4z"/>
			</g>
			<g>
				<line class="st25" x1="1079.6" y1="263.4" x2="1061.4" y2="311"/>
				<path class="st26" d="M1079.6,263.4c1.2,5,1.1,9.5,0.6,13.9c-0.5,4.3-1.6,8.5-3.1,12.4c-1.5,4-3.4,7.8-5.9,11.4
					c-2.5,3.6-5.4,7-9.7,10c-1.2-5-1.1-9.5-0.6-13.9c0.5-4.3,1.6-8.5,3.1-12.4c1.5-4,3.5-7.8,5.9-11.4
					C1072.4,269.8,1075.3,266.3,1079.6,263.4z"/>
			</g>
		</g>
		<ellipse class="st27" cx="1061.5" cy="311" rx="6.7" ry="6.4"/>
	</g>
	<g id="Flower_6_">
		<path class="st28" d="M295.5,879.5c-0.5-22.5-2.1-46.6-5-72c-1.4-12.4-3.1-24.4-5-36"/>
		<g>
			<g>
				<line class="st29" x1="285" y1="749.9" x2="285" y2="771.2"/>
				<path class="st30" d="M285,749.9c1.2,1.8,1.9,3.6,2.4,5.3c0.4,1.8,0.6,3.6,0.6,5.3c0,1.8-0.2,3.6-0.6,5.3
					c-0.5,1.8-1.1,3.6-2.4,5.3c-1.3-1.8-1.9-3.6-2.4-5.3c-0.4-1.8-0.6-3.6-0.6-5.3c0-1.8,0.2-3.6,0.6-5.3
					C283.2,753.4,283.8,751.7,285,749.9z"/>
			</g>
			<g>
				<line class="st29" x1="295.7" y1="752.7" x2="285" y2="771.2"/>
				<path class="st30" d="M295.7,752.7c0.2,2.2-0.1,4-0.6,5.8c-0.5,1.8-1.2,3.4-2.1,4.9c-0.9,1.5-2,3-3.2,4.3
					c-1.3,1.3-2.7,2.5-4.7,3.4c-0.2-2.2,0.1-4,0.6-5.8c0.5-1.8,1.2-3.4,2.1-4.9c0.9-1.5,2-3,3.2-4.3
					C292.3,754.9,293.7,753.7,295.7,752.7z"/>
			</g>
			<g>
				<line class="st29" x1="303.5" y1="760.5" x2="285" y2="771.2"/>
				<path class="st30" d="M303.5,760.5c-0.9,2-2.1,3.4-3.4,4.7c-1.3,1.3-2.8,2.3-4.3,3.2c-1.5,0.9-3.2,1.6-4.9,2.1
					c-1.8,0.5-3.6,0.8-5.8,0.6c0.9-2,2.1-3.4,3.4-4.7c1.3-1.3,2.8-2.3,4.3-3.2c1.5-0.9,3.2-1.6,4.9-2.1
					C299.5,760.7,301.3,760.4,303.5,760.5z"/>
			</g>
			<g>
				<line class="st29" x1="306.4" y1="771.2" x2="285" y2="771.2"/>
				<path class="st30" d="M306.4,771.2c-1.8,1.2-3.6,1.9-5.3,2.4c-1.8,0.4-3.6,0.6-5.3,0.6c-1.8,0-3.6-0.2-5.3-0.6
					c-1.8-0.5-3.6-1.1-5.3-2.4c1.8-1.3,3.6-1.9,5.3-2.4c1.8-0.4,3.6-0.6,5.3-0.6c1.8,0,3.6,0.2,5.3,0.6
					C302.8,769.3,304.6,770,306.4,771.2z"/>
			</g>
			<g>
				<line class="st29" x1="303.5" y1="781.9" x2="285" y2="771.2"/>
				<path class="st30" d="M303.5,781.9c-2.2,0.2-4-0.1-5.8-0.6c-1.8-0.5-3.4-1.2-4.9-2.1c-1.5-0.9-3-2-4.3-3.2
					c-1.3-1.3-2.5-2.7-3.4-4.7c2.2-0.2,4,0.1,5.8,0.6c1.8,0.5,3.4,1.2,4.9,2.1c1.5,0.9,3,2,4.3,3.2
					C301.4,778.4,302.6,779.9,303.5,781.9z"/>
			</g>
			<g>
				<line class="st29" x1="295.7" y1="789.7" x2="285" y2="771.2"/>
				<path class="st30" d="M295.7,789.7c-2-0.9-3.4-2.1-4.7-3.4c-1.3-1.3-2.3-2.8-3.2-4.3c-0.9-1.5-1.6-3.2-2.1-4.9
					c-0.5-1.8-0.8-3.6-0.6-5.8c2,0.9,3.4,2.1,4.7,3.4c1.3,1.3,2.3,2.8,3.2,4.3c0.9,1.5,1.6,3.2,2.1,4.9
					C295.6,785.6,295.9,787.5,295.7,789.7z"/>
			</g>
			<g>
				<line class="st29" x1="285" y1="792.5" x2="285" y2="771.2"/>
				<path class="st30" d="M285,792.5c-1.2-1.8-1.9-3.6-2.4-5.3c-0.4-1.8-0.6-3.6-0.6-5.3c0-1.8,0.2-3.6,0.6-5.3
					c0.5-1.8,1.1-3.6,2.4-5.3c1.3,1.8,1.9,3.6,2.4,5.3c0.4,1.8,0.6,3.6,0.6,5.3c0,1.8-0.2,3.6-0.6,5.3
					C286.9,789,286.3,790.7,285,792.5z"/>
			</g>
			<g>
				<line class="st29" x1="274.4" y1="789.7" x2="285" y2="771.2"/>
				<path class="st30" d="M274.4,789.7c-0.2-2.2,0.1-4,0.6-5.8c0.5-1.8,1.2-3.4,2.1-4.9c0.9-1.5,2-3,3.2-4.3
					c1.3-1.3,2.7-2.5,4.7-3.4c0.2,2.2-0.1,4-0.6,5.8c-0.5,1.8-1.2,3.4-2.1,4.9c-0.9,1.5-2,3-3.2,4.3
					C277.8,787.5,276.3,788.7,274.4,789.7z"/>
			</g>
			<g>
				<line class="st29" x1="266.6" y1="781.9" x2="285" y2="771.2"/>
				<path class="st30" d="M266.6,781.9c0.9-2,2.1-3.4,3.4-4.7c1.3-1.3,2.8-2.3,4.3-3.2c1.5-0.9,3.2-1.6,4.9-2.1
					c1.8-0.5,3.6-0.8,5.8-0.6c-0.9,2-2.1,3.4-3.4,4.7c-1.3,1.3-2.8,2.3-4.3,3.2c-1.5,0.9-3.2,1.6-4.9,2.1
					C270.6,781.7,268.7,782,266.6,781.9z"/>
			</g>
			<g>
				<line class="st29" x1="263.7" y1="771.2" x2="285" y2="771.2"/>
				<path class="st30" d="M263.7,771.2c1.8-1.2,3.6-1.9,5.3-2.4c1.8-0.4,3.6-0.6,5.3-0.6c1.8,0,3.6,0.2,5.3,0.6
					c1.8,0.5,3.6,1.1,5.3,2.4c-1.8,1.3-3.6,1.9-5.3,2.4c-1.8,0.4-3.6,0.6-5.3,0.6c-1.8,0-3.6-0.2-5.3-0.6
					C267.3,773.1,265.5,772.4,263.7,771.2z"/>
			</g>
			<g>
				<line class="st29" x1="266.6" y1="760.5" x2="285" y2="771.2"/>
				<path class="st30" d="M266.6,760.5c2.2-0.2,4,0.1,5.8,0.6c1.8,0.5,3.4,1.2,4.9,2.1c1.5,0.9,3,2,4.3,3.2c1.3,1.3,2.5,2.7,3.4,4.7
					c-2.2,0.2-4-0.1-5.8-0.6c-1.8-0.5-3.4-1.2-4.9-2.1c-1.5-0.9-3-2-4.3-3.2C268.7,764,267.5,762.5,266.6,760.5z"/>
			</g>
			<g>
				<line class="st29" x1="274.4" y1="752.7" x2="285" y2="771.2"/>
				<path class="st30" d="M274.4,752.7c2,0.9,3.4,2.1,4.7,3.4c1.3,1.3,2.3,2.8,3.2,4.3c0.9,1.5,1.6,3.2,2.1,4.9
					c0.5,1.8,0.8,3.6,0.6,5.8c-2-0.9-3.4-2.1-4.7-3.4c-1.3-1.3-2.3-2.8-3.2-4.3c-0.9-1.5-1.6-3.2-2.1-4.9
					C274.5,756.8,274.2,754.9,274.4,752.7z"/>
			</g>
		</g>
		<circle class="st31" cx="285" cy="771.2" r="4.2"/>
	</g>
	<g id="Flower_2_">
		<path class="st32" d="M1202.1,1009.7c-2.7-16.3-4.7-36.2-4.2-58.8c0.4-20,2.8-37.7,5.6-52.5"/>
		<g>
			<g>
				<line class="st33" x1="1193.2" y1="842.8" x2="1203.4" y2="898.3"/>
				<path class="st34" d="M1193.2,842.8c3.7,4.1,6,8.5,8,12.9c1.9,4.4,3.2,9,4,13.6c0.9,4.6,1.3,9.3,1.1,14.1
					c-0.2,4.8-0.8,9.7-2.9,14.9c-3.7-4.1-6-8.4-8-12.9c-1.9-4.4-3.2-9-4-13.6c-0.8-4.6-1.3-9.3-1.1-14.1
					C1190.6,852.8,1191.2,847.9,1193.2,842.8z"/>
			</g>
			<g>
				<line class="st33" x1="1165.5" y1="855.1" x2="1203.4" y2="898.3"/>
				<path class="st34" d="M1165.5,855.1c5.4,1.7,9.6,4.3,13.6,7.2c3.9,2.9,7.4,6.2,10.6,9.8c3.2,3.6,6,7.5,8.4,11.8
					c2.3,4.3,4.4,8.9,5.3,14.4c-5.4-1.7-9.6-4.3-13.6-7.2c-3.9-2.9-7.4-6.2-10.6-9.8c-3.1-3.6-6-7.5-8.3-11.8
					C1168.6,865.2,1166.5,860.6,1165.5,855.1z"/>
			</g>
			<g>
				<line class="st33" x1="1148" y1="879" x2="1203.4" y2="898.3"/>
				<path class="st34" d="M1148,879c5.6-1.2,10.7-0.9,15.6-0.4c5,0.6,9.7,1.8,14.3,3.4c4.6,1.6,9.1,3.6,13.4,6.2
					c4.3,2.7,8.4,5.6,12,10c-5.6,1.2-10.7,0.9-15.7,0.4c-5-0.6-9.7-1.8-14.3-3.4c-4.6-1.6-9.1-3.6-13.3-6.2
					C1155.8,886.4,1151.7,883.4,1148,879z"/>
			</g>
			<g>
				<line class="st33" x1="1145.4" y1="908.1" x2="1203.4" y2="898.3"/>
				<path class="st34" d="M1145.4,908.1c4.3-3.7,8.9-6,13.6-7.9c4.7-1.8,9.4-3.1,14.3-3.9c4.8-0.8,9.7-1.2,14.8-1
					c5,0.3,10.1,0.9,15.4,3c-4.3,3.7-8.9,6-13.6,7.9c-4.7,1.8-9.4,3.1-14.3,3.9c-4.8,0.8-9.7,1.2-14.8,1
					C1155.8,910.7,1150.7,910.1,1145.4,908.1z"/>
			</g>
			<g>
				<line class="st33" x1="1158.3" y1="934.5" x2="1203.4" y2="898.3"/>
				<path class="st34" d="M1158.3,934.5c1.9-5.3,4.8-9.5,7.8-13.3c3.1-3.8,6.6-7.2,10.3-10.2c3.8-3,7.8-5.7,12.2-7.9
					c4.5-2.2,9.1-4,14.7-4.8c-1.9,5.3-4.8,9.5-7.8,13.4c-3.1,3.8-6.6,7.2-10.4,10.2c-3.8,3-7.8,5.7-12.2,7.9
					C1168.5,931.9,1163.9,933.8,1158.3,934.5z"/>
			</g>
			<g>
				<line class="st33" x1="1183.3" y1="951.2" x2="1203.4" y2="898.3"/>
				<path class="st34" d="M1183.3,951.2c-1.1-5.5-0.7-10.4-0.1-15.2c0.7-4.8,2-9.4,3.6-13.8c1.7-4.4,3.8-8.7,6.4-12.7
					c2.7-4,5.8-7.9,10.2-11.3c1.1,5.5,0.8,10.4,0.1,15.2c-0.7,4.8-2,9.4-3.6,13.8c-1.7,4.4-3.8,8.7-6.4,12.7
					C1190.7,943.9,1187.7,947.8,1183.3,951.2z"/>
			</g>
			<g>
				<line class="st33" x1="1213.6" y1="953.8" x2="1203.4" y2="898.3"/>
				<path class="st34" d="M1213.6,953.8c-3.7-4.1-6-8.5-8-12.9c-1.9-4.4-3.2-9-4-13.6c-0.9-4.6-1.3-9.3-1.1-14.1
					c0.2-4.8,0.8-9.7,2.9-14.9c3.7,4.1,6,8.4,8,12.9c1.9,4.4,3.2,9,4,13.6c0.8,4.6,1.3,9.3,1.1,14.1
					C1216.3,943.7,1215.7,948.6,1213.6,953.8z"/>
			</g>
			<g>
				<line class="st33" x1="1241.3" y1="941.4" x2="1203.4" y2="898.3"/>
				<path class="st34" d="M1241.3,941.4c-5.4-1.7-9.6-4.3-13.6-7.2c-3.9-2.9-7.4-6.2-10.6-9.8c-3.2-3.6-6-7.5-8.4-11.8
					c-2.3-4.3-4.4-8.9-5.3-14.4c5.4,1.7,9.6,4.3,13.6,7.2c3.9,2.9,7.4,6.2,10.6,9.8c3.1,3.6,6,7.5,8.3,11.8
					C1238.3,931.3,1240.3,935.9,1241.3,941.4z"/>
			</g>
			<g>
				<line class="st33" x1="1258.8" y1="917.5" x2="1203.4" y2="898.3"/>
				<path class="st34" d="M1258.8,917.5c-5.6,1.2-10.7,0.9-15.6,0.4c-5-0.6-9.7-1.8-14.3-3.4c-4.6-1.6-9.1-3.6-13.4-6.2
					c-4.3-2.7-8.4-5.6-12-10c5.6-1.2,10.7-0.9,15.7-0.4c5,0.6,9.7,1.8,14.3,3.4c4.6,1.6,9.1,3.6,13.3,6.2
					C1251,910.2,1255.1,913.2,1258.8,917.5z"/>
			</g>
			<g>
				<line class="st33" x1="1261.4" y1="888.5" x2="1203.4" y2="898.3"/>
				<path class="st34" d="M1261.4,888.5c-4.3,3.7-8.9,6-13.6,7.9c-4.7,1.8-9.4,3.1-14.3,3.9c-4.8,0.8-9.7,1.2-14.8,1
					c-5-0.3-10.1-0.9-15.4-3c4.3-3.7,8.9-6,13.6-7.9c4.7-1.8,9.4-3.1,14.3-3.9c4.8-0.8,9.7-1.2,14.8-1
					C1251,885.8,1256.1,886.4,1261.4,888.5z"/>
			</g>
			<g>
				<line class="st33" x1="1248.6" y1="862.1" x2="1203.4" y2="898.3"/>
				<path class="st34" d="M1248.6,862.1c-1.9,5.3-4.8,9.5-7.8,13.3c-3.1,3.8-6.6,7.2-10.3,10.2c-3.8,3-7.8,5.7-12.2,7.9
					c-4.5,2.2-9.1,4-14.7,4.8c1.9-5.3,4.8-9.5,7.8-13.4c3.1-3.8,6.6-7.2,10.4-10.2c3.8-3,7.8-5.7,12.2-7.9
					C1238.3,864.7,1243,862.8,1248.6,862.1z"/>
			</g>
			<g>
				<line class="st33" x1="1223.6" y1="845.3" x2="1203.4" y2="898.3"/>
				<path class="st34" d="M1223.6,845.3c1.1,5.5,0.7,10.4,0.1,15.2c-0.7,4.8-2,9.4-3.6,13.8c-1.7,4.4-3.8,8.7-6.4,12.7
					c-2.7,4-5.8,7.9-10.2,11.3c-1.1-5.5-0.8-10.4-0.1-15.2c0.7-4.8,2-9.4,3.6-13.8c1.7-4.4,3.8-8.7,6.4-12.7
					C1216.1,852.6,1219.2,848.7,1223.6,845.3z"/>
			</g>
		</g>
		<ellipse class="st35" cx="1203.5" cy="898.3" rx="8.2" ry="7.8"/>
	</g>
	<g id="Flower_3_">
		<path class="st36" d="M607.5,845.5c1.4-14.8,1.9-34.9-2-58c-3.5-20.9-9.5-38.1-15-51"/>
		<g>
			<g>
				<path class="st34" d="M582.1,688.6c1.1,0.8,2,1.7,2.9,2.5c0.9,0.9,1.6,1.8,2.3,2.6c1.4,1.8,2.6,3.6,3.6,5.5
					c2,3.7,3.3,7.6,4,11.6c0.7,4,0.9,8,0.4,12.2c-0.3,2.1-0.7,4.2-1.4,6.4c-0.7,2.2-1.5,4.4-3,6.7l-0.2,0.3
					c-0.1,0.2-0.4,0.3-0.6,0.1c-0.1-0.1-0.2-0.2-0.2-0.3l-1.3-5.9l-1.2-5.9c-0.8-3.9-1.5-7.9-2.3-11.9c-0.7-4-1.4-7.9-2.1-11.9l-1-6
					l-0.9-6c0-0.2,0.1-0.5,0.4-0.5c0.1,0,0.2,0,0.3,0.1L582.1,688.6z"/>
			</g>
			<g>
				<path class="st34" d="M558.3,699c1.4,0.2,2.6,0.4,3.8,0.7c1.2,0.3,2.3,0.7,3.4,1.1c2.2,0.8,4.1,1.9,5.9,3c3.6,2.3,6.8,5,9.5,8.1
					c2.7,3.1,5,6.6,6.7,10.5c0.9,2,1.6,4,2.2,6.3c0.5,2.3,1,4.6,0.9,7.4l0,0.4c0,0.2-0.2,0.4-0.4,0.4c-0.1,0-0.2-0.1-0.3-0.1
					l-4.2-4.5l-4.2-4.5c-2.8-3-5.5-6.1-8.2-9.2c-2.7-3.1-5.4-6.2-8-9.3l-4-4.7l-3.9-4.8c-0.2-0.2-0.1-0.5,0.1-0.6
					c0.1-0.1,0.2-0.1,0.3-0.1L558.3,699z"/>
			</g>
			<g>
				<path class="st34" d="M543.1,719.3c1.3-0.5,2.5-0.9,3.7-1.2c1.2-0.3,2.4-0.5,3.6-0.7c2.3-0.3,4.6-0.4,6.8-0.3
					c4.4,0.2,8.5,1,12.5,2.4c4,1.4,7.7,3.3,11.3,5.9c1.8,1.3,3.5,2.7,5.1,4.4c1.6,1.7,3.2,3.6,4.6,6l0.2,0.3c0.1,0.2,0,0.5-0.2,0.6
					c-0.1,0.1-0.2,0.1-0.3,0l-6-1.8l-6-1.9c-4-1.3-7.9-2.7-11.9-4c-3.9-1.4-7.9-2.8-11.8-4.2l-5.9-2.2l-5.9-2.3
					c-0.2-0.1-0.3-0.3-0.2-0.6c0-0.1,0.1-0.2,0.2-0.2L543.1,719.3z"/>
			</g>
			<g>
				<path class="st34" d="M540.6,744.2c0.9-1.1,1.8-2,2.7-2.9c0.9-0.9,1.9-1.6,2.8-2.3c1.9-1.4,3.8-2.5,5.8-3.5
					c3.9-1.9,8-3.2,12.1-3.9c4.1-0.7,8.4-0.8,12.7-0.3c2.2,0.3,4.4,0.7,6.6,1.4c2.3,0.7,4.5,1.6,6.9,3.1l0.3,0.2
					c0.2,0.1,0.3,0.4,0.1,0.6c-0.1,0.1-0.2,0.2-0.3,0.2l-6.2,1.3l-6.2,1.2c-4.1,0.8-8.3,1.5-12.4,2.2c-4.2,0.7-8.3,1.4-12.5,2
					l-6.2,0.9l-6.3,0.8c-0.2,0-0.5-0.1-0.5-0.4c0-0.1,0-0.2,0.1-0.3L540.6,744.2z"/>
			</g>
			<g>
				<path class="st34" d="M551.4,766.9c0.2-1.4,0.5-2.6,0.9-3.8c0.4-1.2,0.8-2.3,1.3-3.4c0.9-2.1,2.1-4,3.3-5.8
					c2.4-3.6,5.3-6.6,8.5-9.2c3.2-2.6,6.8-4.7,10.8-6.3c2-0.8,4.1-1.5,6.4-1.9c2.3-0.4,4.7-0.8,7.4-0.6l0.4,0c0.2,0,0.4,0.2,0.4,0.5
					c0,0.1-0.1,0.2-0.1,0.3l-4.7,4.1l-4.7,4c-3.2,2.7-6.4,5.2-9.6,7.9c-3.2,2.6-6.5,5.1-9.7,7.7L557,764l-5,3.7
					c-0.2,0.1-0.5,0.1-0.6-0.1c-0.1-0.1-0.1-0.2-0.1-0.3L551.4,766.9z"/>
			</g>
			<g>
				<path class="st34" d="M572.7,781.5c-0.5-1.3-0.9-2.5-1.1-3.7c-0.3-1.2-0.5-2.3-0.6-3.5c-0.3-2.3-0.3-4.4-0.2-6.6
					c0.3-4.2,1.2-8.2,2.6-12c1.5-3.8,3.4-7.4,6-10.7c1.3-1.7,2.8-3.3,4.5-4.8c1.7-1.5,3.6-3,6-4.2l0.3-0.2c0.2-0.1,0.5,0,0.6,0.2
					c0.1,0.1,0.1,0.2,0,0.3l-1.9,5.8l-2,5.7c-1.4,3.8-2.8,7.6-4.2,11.4c-1.5,3.8-2.9,7.5-4.4,11.3l-2.3,5.6l-2.4,5.6
					c-0.1,0.2-0.3,0.3-0.6,0.2c-0.1,0-0.2-0.1-0.2-0.2L572.7,781.5z"/>
			</g>
			<g>
				<path class="st34" d="M598.7,783.9c-1.1-0.8-2-1.7-2.9-2.5c-0.9-0.9-1.6-1.8-2.3-2.6c-1.4-1.8-2.6-3.6-3.6-5.5
					c-2-3.7-3.3-7.6-4-11.6c-0.7-4-0.9-8-0.4-12.2c0.3-2.1,0.7-4.2,1.4-6.4c0.7-2.2,1.5-4.4,3-6.7l0.2-0.3c0.1-0.2,0.4-0.3,0.6-0.1
					c0.1,0.1,0.2,0.2,0.2,0.3l1.3,5.9l1.2,5.9c0.8,3.9,1.5,7.9,2.3,11.9c0.7,4,1.4,7.9,2.1,11.9l1,6l0.9,6c0,0.2-0.1,0.5-0.4,0.5
					c-0.1,0-0.2,0-0.3-0.1L598.7,783.9z"/>
			</g>
			<g>
				<path class="st34" d="M622.5,773.6c-1.4-0.2-2.6-0.4-3.8-0.7c-1.2-0.3-2.3-0.7-3.4-1.1c-2.2-0.8-4.1-1.9-5.9-3
					c-3.6-2.3-6.8-5-9.5-8.1c-2.7-3.1-5-6.6-6.7-10.5c-0.9-2-1.6-4-2.2-6.3c-0.5-2.3-1-4.6-0.9-7.4l0-0.4c0-0.2,0.2-0.4,0.4-0.4
					c0.1,0,0.2,0.1,0.3,0.1l4.2,4.5l4.2,4.5c2.8,3,5.5,6.1,8.2,9.2c2.7,3.1,5.4,6.2,8,9.3l4,4.7l3.9,4.8c0.2,0.2,0.1,0.5-0.1,0.6
					c-0.1,0.1-0.2,0.1-0.3,0.1L622.5,773.6z"/>
			</g>
			<g>
				<path class="st34" d="M637.7,753.3c-1.3,0.5-2.5,0.9-3.7,1.2c-1.2,0.3-2.4,0.5-3.6,0.7c-2.3,0.3-4.6,0.4-6.8,0.3
					c-4.4-0.2-8.5-1-12.5-2.4c-4-1.4-7.7-3.3-11.3-5.9c-1.8-1.3-3.5-2.7-5.1-4.4c-1.6-1.7-3.2-3.6-4.6-6l-0.2-0.3
					c-0.1-0.2,0-0.5,0.2-0.6c0.1-0.1,0.2-0.1,0.3,0l6,1.8l6,1.9c4,1.3,7.9,2.7,11.9,4c3.9,1.4,7.9,2.8,11.8,4.2l5.9,2.2l5.9,2.3
					c0.2,0.1,0.3,0.3,0.2,0.6c0,0.1-0.1,0.2-0.2,0.2L637.7,753.3z"/>
			</g>
			<g>
				<path class="st34" d="M640.2,728.4c-0.9,1.1-1.8,2-2.7,2.9c-0.9,0.9-1.9,1.6-2.8,2.3c-1.9,1.4-3.8,2.5-5.8,3.5
					c-3.9,1.9-8,3.2-12.1,3.9c-4.1,0.7-8.4,0.8-12.7,0.3c-2.2-0.3-4.4-0.7-6.6-1.4c-2.3-0.7-4.5-1.6-6.9-3.1l-0.3-0.2
					c-0.2-0.1-0.3-0.4-0.1-0.6c0.1-0.1,0.2-0.2,0.3-0.2l6.2-1.3l6.2-1.2c4.1-0.8,8.3-1.5,12.4-2.2c4.2-0.7,8.3-1.4,12.5-2l6.2-0.9
					l6.3-0.8c0.2,0,0.5,0.1,0.5,0.4c0,0.1,0,0.2-0.1,0.3L640.2,728.4z"/>
			</g>
			<g>
				<path class="st34" d="M629.4,705.6c-0.2,1.4-0.5,2.6-0.9,3.8c-0.4,1.2-0.8,2.3-1.3,3.4c-0.9,2.1-2.1,4-3.3,5.8
					c-2.4,3.6-5.3,6.6-8.5,9.2c-3.2,2.6-6.8,4.7-10.8,6.3c-2,0.8-4.1,1.5-6.4,1.9c-2.3,0.4-4.7,0.8-7.4,0.6l-0.4,0
					c-0.2,0-0.4-0.2-0.4-0.5c0-0.1,0.1-0.2,0.1-0.3l4.7-4.1l4.7-4c3.2-2.7,6.4-5.2,9.6-7.9c3.2-2.6,6.5-5.1,9.7-7.7l4.9-3.8l5-3.7
					c0.2-0.1,0.5-0.1,0.6,0.1c0.1,0.1,0.1,0.2,0.1,0.3L629.4,705.6z"/>
			</g>
			<g>
				<path class="st34" d="M608.2,691.1c0.5,1.3,0.9,2.5,1.1,3.7c0.3,1.2,0.5,2.3,0.6,3.5c0.3,2.3,0.3,4.4,0.2,6.6
					c-0.3,4.2-1.2,8.2-2.6,12c-1.5,3.8-3.4,7.4-6,10.7c-1.3,1.7-2.8,3.3-4.5,4.8c-1.7,1.5-3.6,3-6,4.2l-0.3,0.2
					c-0.2,0.1-0.5,0-0.6-0.2c-0.1-0.1-0.1-0.2,0-0.3l1.9-5.8l2-5.7c1.4-3.8,2.8-7.6,4.2-11.4c1.5-3.8,2.9-7.5,4.4-11.3l2.3-5.6
					l2.4-5.6c0.1-0.2,0.3-0.3,0.6-0.2c0.1,0,0.2,0.1,0.2,0.2L608.2,691.1z"/>
			</g>
		</g>
		<ellipse class="st37" cx="590.5" cy="736.3" rx="6.4" ry="6.2"/>
	</g>
	<g id="Flower_4_">
		<path class="st38" d="M642.5,852.5c-2.7-24.6-3.4-60.6,7-102c5.9-23.6,14.1-43.3,22-59"/>
		<g>
			<g>
				<path class="st34" d="M663.1,643.6c1.1,0.8,2,1.7,2.9,2.5c0.9,0.9,1.6,1.8,2.3,2.6c1.4,1.8,2.6,3.6,3.6,5.5
					c2,3.7,3.3,7.6,4,11.6c0.7,4,0.9,8,0.4,12.2c-0.3,2.1-0.7,4.2-1.4,6.4c-0.7,2.2-1.5,4.4-3,6.7l-0.2,0.3
					c-0.1,0.2-0.4,0.3-0.6,0.1c-0.1-0.1-0.2-0.2-0.2-0.3l-1.3-5.9l-1.2-5.9c-0.8-3.9-1.5-7.9-2.3-11.9c-0.7-4-1.4-7.9-2.1-11.9l-1-6
					l-0.9-6c0-0.2,0.1-0.5,0.4-0.5c0.1,0,0.2,0,0.3,0.1L663.1,643.6z"/>
			</g>
			<g>
				<path class="st34" d="M639.3,654c1.4,0.2,2.6,0.4,3.8,0.7c1.2,0.3,2.3,0.7,3.4,1.1c2.2,0.8,4.1,1.9,5.9,3c3.6,2.3,6.8,5,9.5,8.1
					c2.7,3.1,5,6.6,6.7,10.5c0.9,2,1.6,4,2.2,6.3c0.5,2.3,1,4.6,0.9,7.4l0,0.4c0,0.2-0.2,0.4-0.4,0.4c-0.1,0-0.2-0.1-0.3-0.1
					l-4.2-4.5l-4.2-4.5c-2.8-3-5.5-6.1-8.2-9.2c-2.7-3.1-5.4-6.2-8-9.3l-4-4.7l-3.9-4.8c-0.2-0.2-0.1-0.5,0.1-0.6
					c0.1-0.1,0.2-0.1,0.3-0.1L639.3,654z"/>
			</g>
			<g>
				<path class="st34" d="M624.1,674.3c1.3-0.5,2.5-0.9,3.7-1.2c1.2-0.3,2.4-0.5,3.6-0.7c2.3-0.3,4.6-0.4,6.8-0.3
					c4.4,0.2,8.5,1,12.5,2.4c4,1.4,7.7,3.3,11.3,5.9c1.8,1.3,3.5,2.7,5.1,4.4c1.6,1.7,3.2,3.6,4.6,6l0.2,0.3c0.1,0.2,0,0.5-0.2,0.6
					c-0.1,0.1-0.2,0.1-0.3,0l-6-1.8l-6-1.9c-4-1.3-7.9-2.7-11.9-4c-3.9-1.4-7.9-2.8-11.8-4.2l-5.9-2.2l-5.9-2.3
					c-0.2-0.1-0.3-0.3-0.2-0.6c0-0.1,0.1-0.2,0.2-0.2L624.1,674.3z"/>
			</g>
			<g>
				<path class="st34" d="M621.6,699.2c0.9-1.1,1.8-2,2.7-2.9c0.9-0.9,1.9-1.6,2.8-2.3c1.9-1.4,3.8-2.5,5.8-3.5
					c3.9-1.9,8-3.2,12.1-3.9c4.1-0.7,8.4-0.8,12.7-0.3c2.2,0.3,4.4,0.7,6.6,1.4c2.3,0.7,4.5,1.6,6.9,3.1l0.3,0.2
					c0.2,0.1,0.3,0.4,0.1,0.6c-0.1,0.1-0.2,0.2-0.3,0.2l-6.2,1.3l-6.2,1.2c-4.1,0.8-8.3,1.5-12.4,2.2c-4.2,0.7-8.3,1.4-12.5,2
					l-6.2,0.9l-6.3,0.8c-0.2,0-0.5-0.1-0.5-0.4c0-0.1,0-0.2,0.1-0.3L621.6,699.2z"/>
			</g>
			<g>
				<path class="st34" d="M632.4,721.9c0.2-1.4,0.5-2.6,0.9-3.8c0.4-1.2,0.8-2.3,1.3-3.4c0.9-2.1,2.1-4,3.3-5.8
					c2.4-3.6,5.3-6.6,8.5-9.2c3.2-2.6,6.8-4.7,10.8-6.3c2-0.8,4.1-1.5,6.4-1.9c2.3-0.4,4.7-0.8,7.4-0.6l0.4,0c0.2,0,0.4,0.2,0.4,0.5
					c0,0.1-0.1,0.2-0.1,0.3l-4.7,4.1l-4.7,4c-3.2,2.7-6.4,5.2-9.6,7.9c-3.2,2.6-6.5,5.1-9.7,7.7L638,719l-5,3.7
					c-0.2,0.1-0.5,0.1-0.6-0.1c-0.1-0.1-0.1-0.2-0.1-0.3L632.4,721.9z"/>
			</g>
			<g>
				<path class="st34" d="M653.7,736.5c-0.5-1.3-0.9-2.5-1.1-3.7c-0.3-1.2-0.5-2.3-0.6-3.5c-0.3-2.3-0.3-4.4-0.2-6.6
					c0.3-4.2,1.2-8.2,2.6-12c1.5-3.8,3.4-7.4,6-10.7c1.3-1.7,2.8-3.3,4.5-4.8c1.7-1.5,3.6-3,6-4.2l0.3-0.2c0.2-0.1,0.5,0,0.6,0.2
					c0.1,0.1,0.1,0.2,0,0.3l-1.9,5.8l-2,5.7c-1.4,3.8-2.8,7.6-4.2,11.4c-1.5,3.8-2.9,7.5-4.4,11.3l-2.3,5.6l-2.4,5.6
					c-0.1,0.2-0.3,0.3-0.6,0.2c-0.1,0-0.2-0.1-0.2-0.2L653.7,736.5z"/>
			</g>
			<g>
				<path class="st34" d="M679.7,738.9c-1.1-0.8-2-1.7-2.9-2.5c-0.9-0.9-1.6-1.8-2.3-2.6c-1.4-1.8-2.6-3.6-3.6-5.5
					c-2-3.7-3.3-7.6-4-11.6c-0.7-4-0.9-8-0.4-12.2c0.3-2.1,0.7-4.2,1.4-6.4c0.7-2.2,1.5-4.4,3-6.7l0.2-0.3c0.1-0.2,0.4-0.3,0.6-0.1
					c0.1,0.1,0.2,0.2,0.2,0.3l1.3,5.9l1.2,5.9c0.8,3.9,1.5,7.9,2.3,11.9c0.7,4,1.4,7.9,2.1,11.9l1,6l0.9,6c0,0.2-0.1,0.5-0.4,0.5
					c-0.1,0-0.2,0-0.3-0.1L679.7,738.9z"/>
			</g>
			<g>
				<path class="st34" d="M703.5,728.6c-1.4-0.2-2.6-0.4-3.8-0.7c-1.2-0.3-2.3-0.7-3.4-1.1c-2.2-0.8-4.1-1.9-5.9-3
					c-3.6-2.3-6.8-5-9.5-8.1c-2.7-3.1-5-6.6-6.7-10.5c-0.9-2-1.6-4-2.2-6.3c-0.5-2.3-1-4.6-0.9-7.4l0-0.4c0-0.2,0.2-0.4,0.4-0.4
					c0.1,0,0.2,0.1,0.3,0.1l4.2,4.5l4.2,4.5c2.8,3,5.5,6.1,8.2,9.2c2.7,3.1,5.4,6.2,8,9.3l4,4.7l3.9,4.8c0.2,0.2,0.1,0.5-0.1,0.6
					c-0.1,0.1-0.2,0.1-0.3,0.1L703.5,728.6z"/>
			</g>
			<g>
				<path class="st34" d="M718.7,708.3c-1.3,0.5-2.5,0.9-3.7,1.2c-1.2,0.3-2.4,0.5-3.6,0.7c-2.3,0.3-4.6,0.4-6.8,0.3
					c-4.4-0.2-8.5-1-12.5-2.4c-4-1.4-7.7-3.3-11.3-5.9c-1.8-1.3-3.5-2.7-5.1-4.4c-1.6-1.7-3.2-3.6-4.6-6l-0.2-0.3
					c-0.1-0.2,0-0.5,0.2-0.6c0.1-0.1,0.2-0.1,0.3,0l6,1.8l6,1.9c4,1.3,7.9,2.7,11.9,4c3.9,1.4,7.9,2.8,11.8,4.2l5.9,2.2l5.9,2.3
					c0.2,0.1,0.3,0.3,0.2,0.6c0,0.1-0.1,0.2-0.2,0.2L718.7,708.3z"/>
			</g>
			<g>
				<path class="st34" d="M721.2,683.4c-0.9,1.1-1.8,2-2.7,2.9c-0.9,0.9-1.9,1.6-2.8,2.3c-1.9,1.4-3.8,2.5-5.8,3.5
					c-3.9,1.9-8,3.2-12.1,3.9c-4.1,0.7-8.4,0.8-12.7,0.3c-2.2-0.3-4.4-0.7-6.6-1.4c-2.3-0.7-4.5-1.6-6.9-3.1l-0.3-0.2
					c-0.2-0.1-0.3-0.4-0.1-0.6c0.1-0.1,0.2-0.2,0.3-0.2l6.2-1.3l6.2-1.2c4.1-0.8,8.3-1.5,12.4-2.2c4.2-0.7,8.3-1.4,12.5-2l6.2-0.9
					l6.3-0.8c0.2,0,0.5,0.1,0.5,0.4c0,0.1,0,0.2-0.1,0.3L721.2,683.4z"/>
			</g>
			<g>
				<path class="st34" d="M710.4,660.6c-0.2,1.4-0.5,2.6-0.9,3.8c-0.4,1.2-0.8,2.3-1.3,3.4c-0.9,2.1-2.1,4-3.3,5.8
					c-2.4,3.6-5.3,6.6-8.5,9.2c-3.2,2.6-6.8,4.7-10.8,6.3c-2,0.8-4.1,1.5-6.4,1.9c-2.3,0.4-4.7,0.8-7.4,0.6l-0.4,0
					c-0.2,0-0.4-0.2-0.4-0.5c0-0.1,0.1-0.2,0.1-0.3l4.7-4.1l4.7-4c3.2-2.7,6.4-5.2,9.6-7.9c3.2-2.6,6.5-5.1,9.7-7.7l4.9-3.8l5-3.7
					c0.2-0.1,0.5-0.1,0.6,0.1c0.1,0.1,0.1,0.2,0.1,0.3L710.4,660.6z"/>
			</g>
			<g>
				<path class="st34" d="M689.2,646.1c0.5,1.3,0.9,2.5,1.1,3.7c0.3,1.2,0.5,2.3,0.6,3.5c0.3,2.3,0.3,4.4,0.2,6.6
					c-0.3,4.2-1.2,8.2-2.6,12c-1.5,3.8-3.4,7.4-6,10.7c-1.3,1.7-2.8,3.3-4.5,4.8c-1.7,1.5-3.6,3-6,4.2l-0.3,0.2
					c-0.2,0.1-0.5,0-0.6-0.2c-0.1-0.1-0.1-0.2,0-0.3l1.9-5.8l2-5.7c1.4-3.8,2.8-7.6,4.2-11.4c1.5-3.8,2.9-7.5,4.4-11.3l2.3-5.6
					l2.4-5.6c0.1-0.2,0.3-0.3,0.6-0.2c0.1,0,0.2,0.1,0.2,0.2L689.2,646.1z"/>
			</g>
		</g>
		<ellipse class="st39" cx="671.5" cy="691.3" rx="7" ry="6.7"/>
	</g>
	<g id="Flower_5_">
		<g id="Stem">
			<path class="st40" d="M972.5,506.5c-2.2-12.9-3.8-29.2-3-48c0.7-16.7,3.2-31.2,6-43"/>
		</g>
		<g>
			<g>
				<line class="st29" x1="973.4" y1="386.3" x2="976" y2="416.5"/>
				<path class="st41" d="M973.4,386.3c1.9,2.4,2.9,4.8,3.8,7.3c0.8,2.5,1.3,5,1.5,7.5c0.2,2.5,0.2,5.1-0.2,7.6
					c-0.4,2.6-1,5.2-2.5,7.8c-1.9-2.4-3-4.8-3.8-7.3c-0.8-2.5-1.3-5-1.5-7.5c-0.2-2.5-0.2-5.1,0.2-7.6
					C971.3,391.5,972,388.9,973.4,386.3z"/>
			</g>
			<g>
				<line class="st29" x1="948.6" y1="403.6" x2="976" y2="416.5"/>
				<path class="st41" d="M948.6,403.6c3-0.4,5.6-0.1,8.2,0.4c2.5,0.5,4.9,1.4,7.2,2.4c2.3,1.1,4.5,2.4,6.5,4c2,1.6,4,3.5,5.5,6.1
					c-3,0.5-5.6,0.1-8.2-0.4c-2.5-0.5-4.9-1.4-7.2-2.4c-2.3-1.1-4.5-2.4-6.5-4C952.1,408.1,950.1,406.2,948.6,403.6z"/>
			</g>
			<g>
				<line class="st29" x1="951.2" y1="433.8" x2="976" y2="416.5"/>
				<path class="st41" d="M951.2,433.8c1.1-2.8,2.7-5,4.4-6.9c1.7-1.9,3.6-3.6,5.7-5.1c2.1-1.4,4.3-2.7,6.7-3.6c2.4-0.9,5-1.7,8-1.8
					c-1.1,2.8-2.7,5-4.4,6.9c-1.7,1.9-3.6,3.6-5.7,5c-2.1,1.4-4.3,2.7-6.7,3.6C956.8,433,954.2,433.8,951.2,433.8z"/>
			</g>
			<g>
				<line class="st29" x1="978.7" y1="446.7" x2="976" y2="416.5"/>
				<path class="st41" d="M978.7,446.7c-1.9-2.4-2.9-4.8-3.8-7.3c-0.8-2.5-1.3-5-1.5-7.5c-0.2-2.5-0.2-5.1,0.2-7.6
					c0.4-2.6,1-5.2,2.5-7.8c1.9,2.4,3,4.8,3.8,7.3c0.8,2.5,1.3,5,1.5,7.5c0.2,2.5,0.2,5.1-0.2,7.6
					C980.7,441.4,980.1,444,978.7,446.7z"/>
			</g>
			<g>
				<line class="st29" x1="1003.5" y1="429.3" x2="976" y2="416.5"/>
				<path class="st41" d="M1003.5,429.3c-3,0.4-5.6,0.1-8.2-0.4c-2.5-0.5-4.9-1.4-7.2-2.4c-2.3-1.1-4.5-2.4-6.5-4
					c-2-1.6-4-3.5-5.5-6.1c3-0.5,5.6-0.1,8.2,0.4c2.5,0.5,4.9,1.4,7.2,2.4c2.3,1.1,4.5,2.4,6.5,4
					C1000,424.9,1001.9,426.7,1003.5,429.3z"/>
			</g>
			<g>
				<line class="st29" x1="1000.9" y1="399.1" x2="976" y2="416.5"/>
				<path class="st41" d="M1000.9,399.1c-1.1,2.8-2.7,5-4.4,6.9c-1.7,1.9-3.6,3.6-5.7,5.1c-2.1,1.4-4.3,2.7-6.7,3.6
					c-2.4,0.9-5,1.7-8,1.8c1.1-2.8,2.7-5,4.4-6.9c1.7-1.9,3.6-3.6,5.7-5c2.1-1.4,4.3-2.7,6.7-3.6
					C995.3,399.9,997.8,399.2,1000.9,399.1z"/>
			</g>
		</g>
		<ellipse class="st26" cx="976.5" cy="417.3" rx="5.2" ry="5"/>
	</g>
</g>
<g id="Pots">
	<g id="Pot_5_">
		<g>
			<path class="st42" d="M742.2,893.2c-4.9-2.9-9.7-6.2-14.1-9.8c-25.2-20.6-39.6-51.1-39.6-83.6c0-32.2,14.2-62.4,38.9-83h138.1
				c24.7,20.6,38.9,50.9,38.9,83c0,32.5-14.4,62.9-39.6,83.6c-4.4,3.6-9.2,6.9-14.1,9.8H742.2z"/>
			<g>
				<path class="st42" d="M893,750.3c-2-4-4.3-7.8-6.8-11.5c0,0-0.1-0.1-0.1-0.1c-2.6-3.8-5.4-7.4-8.5-10.9
					c-3.3-3.8-6.9-7.3-10.7-10.5c-0.2-0.2-0.4-0.3-0.6-0.5c-0.2-0.2-0.4-0.3-0.6-0.5H727.3c-24,19.9-39.3,49.9-39.3,83.5
					c0,33.8,15.5,64,39.8,83.9c4.5,3.7,9.2,7,14.3,9.9H851c0.3-0.2,0.6-0.3,0.8-0.5c0.3-0.2,0.6-0.3,0.8-0.5
					c4.4-2.7,8.6-5.7,12.6-8.9c4.5-3.6,8.6-7.6,12.4-11.9c3.1-3.5,5.9-7.2,8.6-11c2.5-3.6,4.8-7.4,6.8-11.4
					c7.7-14.9,12-31.7,12-49.6C905,782,900.7,765.2,893,750.3z M742.3,892.7c-4.8-2.8-9.5-6.1-13.9-9.7
					c-25-20.5-39.4-50.8-39.4-83.2c0-32,14.1-62,38.6-82.5h137.7c11.2,9.4,20.3,20.8,26.8,33.4c2.4,4.6,4.4,9.4,6.1,14.4
					c0,0.1,0,0.1,0.1,0.2c3.4,10,5.3,20.6,5.6,31.4c0,1,0,2.1,0,3.1c0,1.1,0,2.1,0,3.2c-0.3,10.9-2.3,21.5-5.7,31.6
					c-1.7,4.9-3.7,9.7-6.1,14.3c-6.6,12.9-16,24.6-27.6,34.1c-4.4,3.6-9.1,6.8-13.9,9.7H742.3z"/>
			</g>
		</g>
		<path class="st43" d="M905,799.8c0,17.9-4.3,34.8-12,49.6c-2,3.9-4.3,7.7-6.8,11.4c-2.6,3.8-5.5,7.5-8.6,11
			c-3.8,4.3-8,8.3-12.4,11.9c-4,3.2-8.2,6.2-12.6,8.9c-0.3,0.2-0.5,0.3-0.8,0.5c-0.3,0.2-0.6,0.3-0.8,0.5h-10.3V716.3h25.1
			c0.2,0.2,0.4,0.3,0.6,0.5c0.2,0.2,0.4,0.3,0.6,0.5c3.8,3.2,7.4,6.8,10.7,10.5c3.1,3.4,5.9,7.1,8.5,10.9c0,0,0,0.1,0.1,0.1
			c2.5,3.7,4.8,7.5,6.8,11.5C900.7,765.2,905,782,905,799.8z"/>
	</g>
	<g id="Pot_1_">
		<g>
			<polygon class="st42" points="148.8,798.8 142,798.8 142,798.8 			"/>
			<path d="M148.8,798.8H142H148.8z"/>
		</g>
		<g>
			<path class="st42" d="M128.3,892.2c-4.4,0-8.1-3.6-8.3-8.2l-3.9-74h87.8l-3.9,74c-0.2,4.6-3.9,8.2-8.3,8.2H128.3z"/>
			<path class="st42" d="M115.6,809.5l4,74.6c0.3,4.9,4.1,8.7,8.8,8.7h63.3c1,0,2-0.2,2.9-0.5c0.7-0.2,1.3-0.5,1.9-0.9c0,0,0,0,0,0
				c2.3-1.5,3.9-4.2,4-7.2l4-74.6H115.6z M191.7,891.8h-63.3c-4.2,0-7.6-3.4-7.8-7.7l-3.9-73.5h86.8l-3.9,73.5
				C199.2,888.3,195.8,891.8,191.7,891.8z"/>
		</g>
		<g>
			<polygon class="st42" points="115.7,805.8 115.5,803.2 204.5,803.2 204.3,805.8 			"/>
			<path d="M115,802.8l0.1,2.5l0,0.5l0,0.5h89.6l0-0.5l0-0.5l0.1-2.5H115z M203.9,805.2h-87.7l-0.1-1.5h87.9L203.9,805.2z"/>
		</g>
		<g>
			<path class="st42" d="M108.8,805.8c-1.1,0-2-0.9-2-2v-10c0-1.1,0.9-2,2-2h102.5c1.1,0,2,0.9,2,2v10c0,1.1-0.9,2-2,2H108.8z"/>
			<path class="st42" d="M213.7,793.2c-0.2-1.1-1.2-2-2.5-2H108.8c-1.4,0-2.5,1.1-2.5,2.5v10c0,1.4,1.1,2.5,2.5,2.5h102.5
				c1.2,0,2.2-0.9,2.5-2c0-0.2,0-0.3,0-0.5v-10C213.8,793.6,213.7,793.4,213.7,793.2z M212.8,803.8c0,0.8-0.7,1.5-1.5,1.5H108.8
				c-0.8,0-1.5-0.7-1.5-1.5v-10c0-0.8,0.7-1.5,1.5-1.5h102.5c0.8,0,1.5,0.7,1.5,1.5V803.8z"/>
		</g>
		<g>
			<polygon class="st44" points="116,809 115.8,806.8 204.2,806.8 204,809 			"/>
			<path class="st44" d="M115.2,806.2l0.4,3.2h88.9l0.4-3.2H115.2z M203.5,808.5h-87.1l-0.1-1.2h87.4L203.5,808.5z"/>
		</g>
		<g class="st45">
			<path d="M166.8,892.2V791.8h44.8c0.9,0,1.7,0.9,1.7,2v10c0,1.1-0.8,2-1.7,2h-6.1l-0.4,3.7l-3.5,74.6c-0.2,4.6-3.4,8.2-7.3,8.2
				H166.8z"/>
			<path d="M213.7,793.2c-0.2-1.1-1.1-2-2.2-2h-45.3v101.5h28c4.1,0,7.6-3.8,7.8-8.7l3.5-74.6l0.3-3.2h5.7c1.1,0,2-0.9,2.2-2
				c0-0.2,0-0.3,0-0.5v-10C213.8,793.6,213.7,793.4,213.7,793.2z M204.8,806.2L204.8,806.2l-0.3,3.2v0l0,0L201,884
				c-0.2,3.4-2,6.2-4.6,7.3c0,0,0,0,0,0c-0.6,0.2-1.3,0.4-1.9,0.4c-0.1,0-0.2,0-0.2,0h-27v-99.5h44.3c0.7,0,1.2,0.7,1.2,1.5v10
				c0,0.8-0.5,1.5-1.2,1.5h-6.6l0,0.5L204.8,806.2z"/>
		</g>
	</g>
	<g id="Pot_8_">
		<g>
			<polygon class="st42" points="1043.6,455.6 1038.5,455.6 1038.5,455.6 			"/>
			<path d="M1043.6,455.6h-5.1H1043.6z"/>
		</g>
		<g>
			<path class="st42" d="M1028.3,525.7c-3.3,0-6-2.7-6.2-6.2l-3-55.5h65.9l-3,55.5c-0.2,3.5-2.9,6.2-6.2,6.2H1028.3z"/>
			<path class="st42" d="M1018.7,463.6l3,55.9c0.2,3.7,3.1,6.5,6.6,6.5h47.5c0.8,0,1.5-0.1,2.1-0.4c0.5-0.2,1-0.4,1.4-0.7
				c1.8-1.1,2.9-3.1,3.1-5.5l3-55.9H1018.7z M1075.8,525.3h-47.5c-3.1,0-5.7-2.5-5.8-5.8l-2.9-55.1h65.1l-2.9,55.1
				C1081.4,522.8,1078.8,525.3,1075.8,525.3z"/>
		</g>
		<g>
			<polygon class="st42" points="1018.8,460.8 1018.6,458.9 1085.4,458.9 1085.2,460.8 			"/>
			<path d="M1018.2,458.6l0.1,1.9l0,0.4l0,0.4h67.2l0-0.4l0-0.4l0.1-1.9H1018.2z M1084.9,460.4h-65.8l-0.1-1.1h65.9L1084.9,460.4z"
				/>
		</g>
		<g>
			<path class="st42" d="M1013.6,460.8c-0.8,0-1.5-0.7-1.5-1.5v-7.5c0-0.8,0.7-1.5,1.5-1.5h76.9c0.8,0,1.5,0.7,1.5,1.5v7.5
				c0,0.8-0.7,1.5-1.5,1.5H1013.6z"/>
			<path class="st42" d="M1090.4,449.9h-76.9c-1,0-1.9,0.8-1.9,1.9v7.5c0,1,0.8,1.9,1.9,1.9h76.9c1,0,1.9-0.8,1.9-1.9v-7.5
				C1092.3,450.8,1091.5,449.9,1090.4,449.9z M1091.6,459.3c0,0.1,0,0.2,0,0.2c-0.1,0.5-0.6,0.9-1.1,0.9h-76.9
				c-0.6,0-1.1-0.5-1.1-1.1v-7.5c0-0.6,0.5-1.1,1.1-1.1h76.9c0.5,0,1,0.4,1.1,0.9c0,0.1,0,0.1,0,0.2V459.3z"/>
		</g>
		<g>
			<polygon class="st44" points="1019,463.2 1018.8,461.6 1085.2,461.6 1085,463.2 			"/>
			<path class="st44" d="M1018.4,461.2l0.3,2.4h66.6l0.3-2.4H1018.4z M1084.7,462.9h-65.3l-0.1-0.9h65.5L1084.7,462.9z"/>
		</g>
		<g class="st45">
			<path d="M1057.1,525.7v-75.4h33.6c0.7,0,1.3,0.7,1.3,1.5v7.5c0,0.8-0.6,1.5-1.3,1.5h-4.6l-0.3,2.8l-2.6,55.9
				c-0.2,3.5-2.6,6.2-5.5,6.2H1057.1z"/>
			<path d="M1090.7,449.9h-34v76.1h21c3.1,0,5.7-2.9,5.8-6.5l2.6-55.9l0.2-2.4h4.3c0.9,0,1.7-0.8,1.7-1.9v-7.5
				C1092.3,450.8,1091.6,449.9,1090.7,449.9z M1085.6,461.1L1085.6,461.1l-0.2,2.5l-2.6,55.9c-0.1,2.6-1.6,4.7-3.5,5.5
				c-0.4,0.2-0.9,0.3-1.4,0.3c-0.1,0-0.1,0-0.2,0h-20.2v-74.6h33.2c0.4,0,0.8,0.4,0.9,0.9c0,0.1,0,0.1,0,0.2v7.5c0,0.1,0,0.2,0,0.2
				c-0.1,0.5-0.4,0.9-0.9,0.9h-4.9l0,0.4L1085.6,461.1z"/>
		</g>
	</g>
	<g id="Pot_3_">
		<g>
			<polygon class="st42" points="622.6,818.6 617.5,818.6 617.5,818.6 			"/>
			<path d="M622.6,818.6h-5.1H622.6z"/>
		</g>
		<g>
			<path class="st42" d="M607.3,888.6c-3.2,0-5.9-2.7-6.1-6l-2.9-55.4h65.6l-2.9,55.4c-0.2,3.4-2.9,6-6.1,6H607.3z"/>
			<path class="st42" d="M597.7,826.6l3,55.9c0.2,3.7,3.1,6.5,6.6,6.5h47.5c0.9,0,1.8-0.2,2.6-0.5c0.8-0.4,1.6-0.9,2.2-1.6
				c1.1-1.2,1.8-2.7,1.8-4.4l1.4-26l1.6-29.9H597.7z M654.8,888.1h-47.5c-3,0-5.4-2.4-5.6-5.6l-2.9-54.9h64.5l-2.9,54.9
				C660.2,885.6,657.7,888.1,654.8,888.1z"/>
		</g>
		<g>
			<polygon class="st42" points="597.9,823.7 597.8,822.1 664.2,822.1 664.1,823.7 			"/>
			<path d="M597.2,821.6l0.1,1.6l0,0.5l0,0.5h67.2l0-0.5l0-0.5l0.1-1.6H597.2z M598.3,823.2l0-0.6h65.4l0,0.6H598.3z"/>
		</g>
		<g>
			<path class="st42" d="M592.6,823.7c-0.8,0-1.4-0.6-1.4-1.4v-7.5c0-0.8,0.6-1.4,1.4-1.4h76.9c0.8,0,1.4,0.6,1.4,1.4v7.5
				c0,0.8-0.6,1.4-1.4,1.4H592.6z"/>
			<path class="st42" d="M669.4,812.9h-76.9c-1,0-1.9,0.8-1.9,1.9v7.5c0,1,0.8,1.9,1.9,1.9h76.9c1,0,1.9-0.8,1.9-1.9v-7.5
				C671.3,813.8,670.5,812.9,669.4,812.9z M592.6,823.2c-0.5,0-0.9-0.4-0.9-0.9v-7.5c0-0.5,0.4-0.9,0.9-0.9h76.9
				c0.5,0,0.9,0.4,0.9,0.9v7.5c0,0.5-0.4,0.9-0.9,0.9H592.6z"/>
		</g>
		<g>
			<polygon class="st44" points="598.1,826.1 598,824.7 664,824.7 663.9,826.1 			"/>
			<path class="st44" d="M597.4,824.2l0.3,2.4h66.6l0.3-2.4H597.4z M663.4,825.6h-64.9l0-0.4h65L663.4,825.6z"/>
		</g>
		<g class="st45">
			<path d="M636.2,888.6v-75.1h33.5c0.6,0,1.2,0.6,1.2,1.4v7.5c0,0.8-0.5,1.4-1.2,1.4h-4.7l-0.3,2.9l-2.6,55.9c-0.2,3.4-2.5,6-5.3,6
				H636.2z"/>
			<path d="M669.7,812.9h-34v76.1h21c3.1,0,5.7-2.9,5.8-6.5l2.6-55.9l0.2-2.4h4.3c0.9,0,1.7-0.8,1.7-1.9v-7.5
				C671.3,813.8,670.6,812.9,669.7,812.9z M659.5,886.9c-0.7,0.6-1.5,1-2.3,1.1c0,0,0,0,0,0c-0.2,0-0.3,0-0.5,0h-20v-74.1h33
				c0.4,0,0.7,0.4,0.7,0.9v7.5c0,0.5-0.3,0.9-0.7,0.9h-5.2l0,0.5l0,0.4l0,0.1l-0.2,2.3v0.1l-1.4,29.9l-1.2,26
				C661.4,884.3,660.7,885.9,659.5,886.9z"/>
		</g>
	</g>
	<g id="Pot_9_">
		<g>
			<polygon class="st42" points="1194.6,1012.6 1189.5,1012.6 1189.5,1012.6 			"/>
			<path d="M1194.6,1012.6h-5.1H1194.6z"/>
		</g>
		<g>
			<path class="st42" d="M1179.3,1082.6c-3.2,0-5.9-2.7-6.1-6l-2.9-55.4h65.6l-2.9,55.4c-0.2,3.4-2.9,6-6.1,6H1179.3z"/>
			<path class="st42" d="M1169.7,1020.6l3,55.9c0.2,3.6,3.1,6.5,6.6,6.5h47.5c0.9,0,1.8-0.2,2.6-0.6c0.8-0.4,1.6-0.9,2.2-1.6
				c1.1-1.1,1.8-2.7,1.8-4.4l1.4-26l1.6-30H1169.7z M1226.8,1082.1h-47.5c-3,0-5.4-2.4-5.6-5.6l-2.9-54.9h64.5l-2.9,54.9
				C1232.2,1079.6,1229.7,1082.1,1226.8,1082.1z"/>
		</g>
		<g>
			<polygon class="st42" points="1169.9,1017.7 1169.8,1016.1 1236.2,1016.1 1236.1,1017.7 			"/>
			<path d="M1169.2,1015.6l0.1,1.6l0,0.5l0,0.5h67.2l0-0.5l0-0.5l0.1-1.6H1169.2z M1170.3,1017.2l0-0.6h65.4l0,0.6H1170.3z"/>
		</g>
		<g>
			<path class="st42" d="M1164.6,1017.7c-0.8,0-1.4-0.6-1.4-1.4v-7.5c0-0.8,0.6-1.4,1.4-1.4h76.9c0.8,0,1.4,0.6,1.4,1.4v7.5
				c0,0.8-0.6,1.4-1.4,1.4H1164.6z"/>
			<path class="st42" d="M1241.4,1006.9h-76.9c-1,0-1.9,0.8-1.9,1.9v7.5c0,1,0.8,1.9,1.9,1.9h76.9c1,0,1.9-0.8,1.9-1.9v-7.5
				C1243.3,1007.8,1242.5,1006.9,1241.4,1006.9z M1164.6,1017.2c-0.5,0-0.9-0.4-0.9-0.9v-7.5c0-0.5,0.4-0.9,0.9-0.9h76.9
				c0.5,0,0.9,0.4,0.9,0.9v7.5c0,0.5-0.4,0.9-0.9,0.9H1164.6z"/>
		</g>
		<g>
			<polygon class="st44" points="1170.1,1020.1 1170,1018.7 1236,1018.7 1235.9,1020.1 			"/>
			<path class="st44" d="M1169.4,1018.2l0.3,2.4h66.6l0.3-2.4H1169.4z M1235.4,1019.6h-64.9l-0.1-0.4h65L1235.4,1019.6z"/>
		</g>
		<g class="st45">
			<path d="M1208.2,1082.6v-75.1h33.5c0.6,0,1.2,0.6,1.2,1.4v7.5c0,0.8-0.5,1.4-1.2,1.4h-4.7l-0.3,2.9l-2.6,55.9
				c-0.2,3.4-2.5,6-5.3,6H1208.2z"/>
			<path d="M1241.7,1006.9h-34v76.1h21c3.1,0,5.7-2.9,5.8-6.5l2.6-55.9l0.2-2.4h4.3c0.9,0,1.7-0.8,1.7-1.9v-7.5
				C1243.3,1007.8,1242.6,1006.9,1241.7,1006.9z M1231.5,1080.9c-0.7,0.6-1.5,1-2.3,1.1c0,0,0,0,0,0c-0.2,0-0.3,0-0.5,0h-20v-74.1
				h33c0.4,0,0.7,0.4,0.7,0.9v7.5c0,0.5-0.3,0.9-0.7,0.9h-5.2l-0.1,0.5l0,0.4l0,0.1l-0.2,2.3v0.1l-1.4,30l-1.2,25.9
				C1233.4,1078.3,1232.7,1079.9,1231.5,1080.9z"/>
		</g>
	</g>
	<g id="Pot_2_">
		<g>
			<path class="st42" d="M931.2,884.8c-3.3,0-6.3-1.1-7.8-2.9c-0.7-0.8-1-1.8-0.8-2.7l8.8-47.5c0.5-2.6,4.2-4.5,8.6-4.5h56.7
				c4.4,0,8.1,2,8.6,4.5l8.3,47.5c0.2,0.9-0.1,1.8-0.8,2.7c-1.5,1.7-4.4,2.8-7.7,2.8H931.2z"/>
			<path class="st42" d="M1014,879.2l-8.3-47.5c-0.5-2.8-4.3-4.8-9-4.8H940c-4.6,0-8.4,2.1-8.9,4.8l-8.8,47.5c-0.6,3.2,3.6,6,8.9,6
				h73.9C1010.4,885.2,1014.5,882.4,1014,879.2z M931.2,884.4c-3.2,0-6.1-1.1-7.5-2.7c-0.6-0.8-0.9-1.5-0.7-2.4l8.8-47.5
				c0.4-2.3,4-4.2,8.2-4.2h56.7c4.2,0,7.8,1.9,8.2,4.2l8.3,47.5c0.1,0.8-0.1,1.6-0.7,2.4c-1.4,1.6-4.3,2.7-7.4,2.7H931.2z"/>
		</g>
		<g class="st45">
			<path class="st46" d="M979.6,884.8v-57.5h17.2c4.4,0,8.1,2,8.6,4.5l8.3,47.5c0.2,0.9-0.1,1.8-0.8,2.7c-1.5,1.7-4.4,2.8-7.7,2.8
				H979.6z"/>
			<path class="st46" d="M1014,879.2l-8.3-47.5c-0.5-2.8-4.3-4.8-9-4.8h-17.5v58.3h25.9C1010.4,885.2,1014.5,882.4,1014,879.2z
				 M980,827.6h16.8c4.2,0,7.8,1.9,8.2,4.2l8.3,47.5c0.1,0.8-0.1,1.6-0.7,2.4c-1.4,1.6-4.3,2.7-7.4,2.7H980V827.6z"/>
		</g>
	</g>
	<g id="Pot_7_">
		<g>
			<path class="st42" d="M230.2,892.1c-1.3,0-2.3-0.9-2.5-2.2l-2.9-24.4h26.5l-2.6,24.4c-0.1,1.3-1.2,2.2-2.5,2.2H230.2z"/>
			<g>
				<path class="st42" d="M224.2,865l0.1,1.1l0.1,1l0.2,1.8l2.5,21.1c0.2,1.5,1.5,2.6,3,2.6h16c1.5,0,2.8-1.1,3-2.7l2.3-21l0.2-1.8
					l0-0.5l0.1-0.5l0.1-1.1H224.2z M250.7,866.1l-0.1,0.5l0,0.2l0,0.2l0,0.1l0,0.2l-0.1,1l0,0.5l-2.3,21c-0.1,1-1,1.8-2,1.8h-16
					c-1,0-1.9-0.8-2-1.8l-2.5-21.1l-0.1-0.5l-0.1-1l0-0.2l0-0.1l0-0.2l0-0.2l-0.1-0.5l0-0.1L250.7,866.1L250.7,866.1z"/>
			</g>
		</g>
		<g class="st45">
			<polygon points="225.1,867.8 225,867.3 251,867.3 250.9,867.8 			"/>
			<polygon points="251.6,866.8 224.5,866.8 224.7,868.3 251.4,868.3 			"/>
		</g>
		<g>
			<path class="st42" d="M221.5,866.6c-0.2,0-0.4-0.2-0.4-0.4v-3.9c0-0.2,0.2-0.4,0.4-0.4h33c0.2,0,0.4,0.2,0.4,0.4v3.9
				c0,0.2-0.2,0.4-0.4,0.4H221.5z"/>
			<path class="st42" d="M254.5,861.4h-33c-0.5,0-0.9,0.4-0.9,0.9v3.9c0,0.5,0.4,0.9,0.9,0.9h33c0.5,0,0.9-0.4,0.9-0.9v-3.9
				C255.4,861.8,255,861.4,254.5,861.4z M254.4,866.1h-32.8v-3.7h32.8V866.1z"/>
		</g>
		<path class="st43" d="M255.6,862.3v3.9c0,0.5-0.4,0.9-0.9,0.9h-2.9l-0.2,1.8l-2.3,21c-0.2,1.5-1.5,2.7-3,2.7h-4.1v-31.2h12.5
			C255.2,861.4,255.6,861.8,255.6,862.3z"/>
	</g>
	<g id="Pot_14_">
		<g>
			<path class="st42" d="M1112.2,525.1c-1.3,0-2.3-0.9-2.5-2.2l-2.9-24.4h26.5l-2.6,24.4c-0.1,1.3-1.2,2.2-2.5,2.2H1112.2z"/>
			<g>
				<path class="st42" d="M1106.2,498l0.1,1.1l0.1,1l0.2,1.8l2.5,21.1c0.2,1.5,1.5,2.6,3,2.6h16c1.5,0,2.8-1.1,3-2.7l2.3-21l0.2-1.8
					l0-0.5l0.1-0.5l0.1-1.1H1106.2z M1132.7,499.1l-0.1,0.5l0,0.2l0,0.2l0,0.1l0,0.2l-0.1,1l0,0.5l-2.3,21c-0.1,1-1,1.8-2,1.8h-16
					c-1,0-1.9-0.8-2-1.8l-2.5-21.1l-0.1-0.5l-0.1-1l0-0.2l0-0.1l0-0.2l0-0.2l-0.1-0.5l0-0.1L1132.7,499.1L1132.7,499.1z"/>
			</g>
		</g>
		<g class="st45">
			<polygon points="1107.1,500.8 1107,500.3 1133,500.3 1132.9,500.8 			"/>
			<polygon points="1133.6,499.8 1106.5,499.8 1106.7,501.3 1133.4,501.3 			"/>
		</g>
		<g>
			<path class="st42" d="M1103.5,499.6c-0.2,0-0.4-0.2-0.4-0.4v-3.9c0-0.2,0.2-0.4,0.4-0.4h33c0.2,0,0.4,0.2,0.4,0.4v3.9
				c0,0.2-0.2,0.4-0.4,0.4H1103.5z"/>
			<path class="st42" d="M1136.5,494.4h-33c-0.5,0-0.9,0.4-0.9,0.9v3.9c0,0.5,0.4,0.9,0.9,0.9h33c0.5,0,0.9-0.4,0.9-0.9v-3.9
				C1137.4,494.8,1137,494.4,1136.5,494.4z M1136.4,499.1h-32.8v-3.7h32.8V499.1z"/>
		</g>
		<path class="st43" d="M1137.6,495.7v3.9c0,0.5-0.4,0.9-0.9,0.9h-2.9l-0.2,1.8l-2.3,21c-0.2,1.5-1.4,2.7-3,2.7h-4.1v-31.2h12.5
			C1137.2,494.8,1137.6,495.2,1137.6,495.7z"/>
	</g>
	<g id="Pot_6_">
		<g>
			<path class="st42" d="M389.5,1081c-1.8-2-3.6-4.3-5.3-6.8c-9.7-14.7-15.2-36.3-15.2-59.5c0-22.8,5.4-44.3,14.9-58.9h52.8
				c9.5,14.6,14.9,36.1,14.9,58.9c0,23.1-5.6,44.8-15.2,59.5c-1.7,2.5-3.4,4.8-5.3,6.8H389.5z"/>
			<g>
				<path class="st42" d="M436.9,955.2h-53.3c-9.2,14.2-15.1,35.5-15.1,59.4c0,24.1,6,45.6,15.3,59.7c1.7,2.6,3.6,5,5.5,7h41.9
					c1.9-2.1,3.8-4.4,5.5-7c9.3-14.2,15.3-35.7,15.3-59.7C452,990.8,446.1,969.4,436.9,955.2z M389.7,1080.4
					c-1.8-1.9-3.5-4.2-5.1-6.6c-9.6-14.6-15.1-36.2-15.1-59.2c0-22.6,5.3-43.9,14.7-58.4h52.2c9.3,14.6,14.7,35.8,14.7,58.4
					c0,23-5.5,44.6-15.1,59.2c-1.6,2.4-3.3,4.7-5.1,6.6H389.7z"/>
			</g>
		</g>
		<path class="st43" d="M452,1014.7c0,24.1-6,45.6-15.3,59.7c-1.7,2.6-3.6,5-5.5,7h-12.5V955.2h18.2
			C446.1,969.4,452,990.8,452,1014.7z"/>
	</g>
	<g id="Pot_12_">
		<g>
			<path class="st42" d="M961.2,517.1c-1.3,0-2.3-0.9-2.5-2.2l-2.9-24.4h26.5l-2.6,24.4c-0.1,1.3-1.2,2.2-2.5,2.2H961.2z"/>
			<g>
				<path class="st42" d="M955.2,490l0.1,1.1l0.1,1l0.2,1.8l2.5,21.1c0.2,1.5,1.5,2.6,3,2.6h16c1.5,0,2.8-1.1,3-2.7l2.3-21l0.2-1.8
					l0-0.5l0.1-0.5l0.1-1.1H955.2z M981.7,491.1l-0.1,0.5l0,0.2l0,0.2l0,0.1l0,0.2l-0.1,1l0,0.5l-2.3,21c-0.1,1-1,1.8-2,1.8h-16
					c-1,0-1.9-0.8-2-1.8l-2.5-21.1l-0.1-0.5l-0.1-1l0-0.2l0-0.1l0-0.2l0-0.2l-0.1-0.5l0-0.1L981.7,491.1L981.7,491.1z"/>
			</g>
		</g>
		<g class="st45">
			<polygon points="956.1,492.8 956,492.3 982,492.3 981.9,492.8 			"/>
			<polygon points="982.6,491.8 955.5,491.8 955.7,493.3 982.4,493.3 			"/>
		</g>
		<g>
			<path class="st42" d="M952.5,491.6c-0.2,0-0.4-0.2-0.4-0.4v-3.9c0-0.2,0.2-0.4,0.4-0.4h33c0.2,0,0.4,0.2,0.4,0.4v3.9
				c0,0.2-0.2,0.4-0.4,0.4H952.5z"/>
			<path class="st42" d="M985.5,486.4h-33c-0.5,0-0.9,0.4-0.9,0.9v3.9c0,0.5,0.4,0.9,0.9,0.9h33c0.5,0,0.9-0.4,0.9-0.9v-3.9
				C986.4,486.8,986,486.4,985.5,486.4z M985.4,491.1h-32.8v-3.7h32.8V491.1z"/>
		</g>
		<path class="st43" d="M986.6,487.9v3.9c0,0.5-0.4,0.9-0.9,0.9h-2.9l-0.2,1.8l-2.3,21c-0.2,1.5-1.5,2.7-3,2.7h-4.1V487h12.5
			C986.2,487,986.6,487.4,986.6,487.9z"/>
	</g>
	<g id="Pot_13_">
		<g>
			<path class="st42" d="M286.2,892.1c-1.3,0-2.3-0.9-2.5-2.2l-2.9-24.4h26.5l-2.6,24.4c-0.1,1.3-1.2,2.2-2.5,2.2H286.2z"/>
			<g>
				<path class="st42" d="M280.2,865l0.1,1.1l0.1,1l0.2,1.8l2.5,21.1c0.2,1.5,1.5,2.6,3,2.6h16c1.5,0,2.8-1.1,3-2.7l2.3-21l0.2-1.8
					l0-0.5l0.1-0.5l0.1-1.1H280.2z M306.7,866.1l-0.1,0.5l0,0.2l0,0.2l0,0.1l0,0.2l-0.1,1l0,0.5l-2.3,21c-0.1,1-1,1.8-2,1.8h-16
					c-1,0-1.9-0.8-2-1.8l-2.5-21.1l-0.1-0.5l-0.1-1l0-0.2l0-0.1l0-0.2l0-0.2l-0.1-0.5l0-0.1L306.7,866.1L306.7,866.1z"/>
			</g>
		</g>
		<g class="st45">
			<polygon points="281.1,867.8 281,867.3 307,867.3 306.9,867.8 			"/>
			<polygon points="307.6,866.8 280.5,866.8 280.7,868.3 307.4,868.3 			"/>
		</g>
		<g>
			<path class="st42" d="M277.5,866.6c-0.2,0-0.4-0.2-0.4-0.4v-3.9c0-0.2,0.2-0.4,0.4-0.4h33c0.2,0,0.4,0.2,0.4,0.4v3.9
				c0,0.2-0.2,0.4-0.4,0.4H277.5z"/>
			<path class="st42" d="M310.5,861.4h-33c-0.5,0-0.9,0.4-0.9,0.9v3.9c0,0.5,0.4,0.9,0.9,0.9h33c0.5,0,0.9-0.4,0.9-0.9v-3.9
				C311.4,861.8,311,861.4,310.5,861.4z M310.4,866.1h-32.8v-3.7h32.8V866.1z"/>
		</g>
		<path class="st43" d="M311.4,862.3v3.9c0,0.5-0.4,0.9-0.9,0.9h-2.9l-0.2,1.8l-2.3,21c-0.2,1.5-1.5,2.7-3,2.7H298v-31.2h12.5
			C311,861.4,311.4,861.8,311.4,862.3z"/>
	</g>
	<g>
		<g>
			<polygon class="st42" points="717.5,487.5 709.4,487.5 709.4,487.5 			"/>
			<path d="M717.5,487.5h-8.1H717.5z"/>
		</g>
		<g>
			<path class="st42" d="M693,519c-5.6,0-10.2-1.3-10.5-2.9l-4.7-25h106.4l-4.7,25c-0.3,1.6-4.9,2.9-10.5,2.9H693z"/>
			<path class="st42" d="M677.7,491.1l4.8,25c0.3,1.6,4.9,2.9,10.6,2.9h76c0.8,0,1.6,0,2.3-0.1c0.3,0,0.7,0,1-0.1
				c4-0.4,7-1.5,7.2-2.8l4.8-25H677.7z M693,518.9c-5.5,0-10.1-1.2-10.4-2.8l-4.7-24.9h106.2l-4.7,24.9c-0.3,1.5-5,2.8-10.4,2.8H693
				z"/>
		</g>
		<g>
			<polygon class="st42" points="677.3,489.9 677.1,488.9 784.9,488.9 784.7,489.9 			"/>
			<path d="M677,488.8l0.2,1l0,0.1l0,0.1h107.5l0-0.1l0-0.1l0.2-1H677z M677.4,489.8l-0.2-0.9h107.6l-0.2,0.9H677.4z"/>
		</g>
		<g>
			<path class="st42" d="M669.5,489.9c-1.7,0-2.9-0.4-2.9-0.8v-3.4c0-0.4,1.2-0.8,2.9-0.8h123c1.7,0,2.9,0.4,2.9,0.8v3.4
				c0,0.4-1.2,0.8-2.9,0.8H669.5z"/>
			<path class="st42" d="M792.5,485h-123c-1.7,0-3,0.4-3,0.8v3.4c0,0.5,1.3,0.8,3,0.8h123c1.7,0,3-0.4,3-0.8v-3.4
				C795.5,485.3,794.2,485,792.5,485z M795.3,489.2C795.3,489.2,795.3,489.2,795.3,489.2c-0.3,0.3-1.2,0.7-2.8,0.7h-123
				c-1.9,0-2.8-0.4-2.8-0.7v-3.4c0-0.2,1-0.7,2.8-0.7h123c1.6,0,2.6,0.3,2.8,0.6c0,0,0,0.1,0,0.1V489.2z"/>
		</g>
		<g>
			<polygon class="st44" points="677.7,491 677.3,490.1 784.6,490.1 784.3,491 			"/>
			<path class="st44" d="M677.2,490l0.5,1.1h106.6l0.5-1.1H677.2z M677.8,490.9l-0.3-0.8h107.1l-0.3,0.8H677.8z"/>
		</g>
		<path class="st43" d="M795.5,485.8v3.4c0,0.5-1.3,0.8-3,0.8h-7.7l-0.5,1.1l-4.8,25c-0.2,1.3-3.2,2.4-7.2,2.8c-0.3,0-0.7,0.1-1,0.1
			c-0.8,0.1-1.5,0.1-2.3,0.1h-21.7V485h45.2C794.2,485,795.5,485.3,795.5,485.8z"/>
	</g>
</g>
<g id="Cat">
	<g>
		<path class="st47" d="M751,996.2c0,12.3-11.8,22.3-26.3,22.3c-11.7,0-23.3-8.1-25.8-18c-0.1-0.6-0.3-1.1-0.3-1.6
			c-0.2-1.4-0.2-2.3-0.2-2.7c0.4-10.6,12.6-22.3,26.3-22.3C739.2,973.9,751,983.9,751,996.2z"/>
		<path class="st47" d="M897.4,1013.9c-0.8-1.3-10.4-15.4-24.2-15c-7.5,0.2-16.7,4.8-16.8,10c-0.1,3.7,4.5,7.1,8.2,8.2
			c6.1,1.9,9-5.7,15.4-5c6.7,0.8,10.6,8.8,11.4,10.4c3.2,6.5,1.9,12.8,1,17.4c-0.7,3.4-1.8,9.3-6,14.4c-6.1,7.4-15.4,8.4-25.8,9.6
			c-6.7,0.8-17.4,1.2-30.4-1.8l-3.8-0.6c-0.3-5.3-1.8-23.5-13.2-30.4c-5.6-3.4-11.2-2.5-22.2-2.2c-18.1,0.5-33.6,6.5-41,6.8
			c-1.6,0.1-2.9-1-3.5-2.5c-1.5-3.9-2.8-6-3.8-8.6c-0.5-1.4-2.4-4.7-2-8.8c0-0.1,0.2-2,0.3-2.1l-1.2,0.7l-31.7-1.5l-2.3,7.5
			c-6.2,30.2-7.2,40.8-5.8,45.6c-0.1-0.3,1.4,5.5,1.4,5.6c-1.5,4.9-12.1,5.3-14.6,5.4c-3.2,0.1-5.4-0.2-9-0.8
			c-11.3-1.8-13.8-4.8-18.2-3.4c-7,2.2-10.4,7.8-11.2,9.2h49.8c48.7-1,87.6-1,113.4-0.8c47.8,0.3,69.7,1.4,82.6-14.6
			C905.4,1052.9,907.4,1029.1,897.4,1013.9z"/>
		<path class="st47" d="M688.8,1074.9"/>
		<path class="st47" d="M710.4,978.1L710.4,978.1l-7.9,23c-0.2-0.2-0.3-0.5-0.5-0.7c-0.9-1.3-1.9-2.9-2.9-4.9
			c-3.4-6.4-7.1-16-6.7-27.7c0.4-14.1,6.7-28.7,11-31.1c0.5-0.3,1-0.4,1.4-0.3C707.8,936.7,710.5,945.1,710.4,978.1z"/>
		<path class="st47" d="M745.2,1000.9c0.2-0.2,0.3-0.4,0.5-0.7c4-5.4,11.1-16.7,11.5-32c0.4-15.7-6.2-32.5-10.6-32.1
			c-2.9,0.3-6.2,8.5-8,41.4"/>
	</g>
	<ellipse class="st48" cx="711.4" cy="994.7" rx="7.2" ry="9"/>
	<ellipse class="st48" cx="738.4" cy="994.5" rx="7.2" ry="9"/>
	<ellipse class="st47" cx="714.8" cy="994.5" rx="1.6" ry="2.8"/>
	<ellipse class="st47" cx="735" cy="994.7" rx="1.6" ry="2.8"/>
	<ellipse class="st49" cx="725.1" cy="1006.2" rx="4.8" ry="2.1"/>
	<path class="st2" d="M776.1,1010.9c-4.3-0.8-8.4-1.5-12.3-2c-3.4-0.5-6.7-0.9-9.9-1.2c-1.3-0.1-2.5-0.3-3.7-0.4
		c-0.4,0-0.7-0.1-1.1-0.1c-0.2,0-0.4,0-0.5,0c0,0,0,0-0.1,0c-0.3,0-0.5,0-0.8-0.1c-0.2,0-0.3,0-0.5,0c-0.2,0-0.4,0-0.6-0.1
		c-0.2,0-0.5,0-0.7-0.1c-4.9-0.4-9.4-0.6-13.5-0.7c-0.8,0-1.5,0-2.3,0c-0.1,0-0.2,0-0.3,0"/>
	<path class="st2" d="M720.3,1006.2c-1.9,0-3.8,0.1-5.6,0.2c-4.9,0.2-9.3,0.5-12.6,0.7c-0.3,0-0.5,0-0.8,0.1
		c-0.9,0.1-1.8,0.1-2.5,0.2c-4.6,0.3-9.1,0.8-13.6,1.2c-6.2,0.6-12.2,1.4-17.9,2.2"/>
	<path class="st2" d="M771,1015.4c-3-1.1-5.9-2-8.7-2.8c-3.2-0.9-6.3-1.7-9.3-2.4c-1-0.2-2.1-0.5-3.1-0.7c-0.6-0.1-1.2-0.3-1.9-0.4
		c-0.2,0-0.5-0.1-0.7-0.1c0,0,0,0,0,0c-0.2,0-0.4-0.1-0.6-0.1c-0.1,0-0.3,0-0.4-0.1c-5.3-1-10.2-1.5-14.5-1.9
		c-0.6,0-1.3-0.1-1.9-0.1c-0.1,0-0.2,0-0.3,0"/>
	<path class="st2" d="M720.3,1006.5L720.3,1006.5c-1.9,0-3.8,0.1-5.5,0.2c-4.7,0.2-8.8,0.7-12.1,1.3c-0.3,0-0.6,0.1-0.8,0.1
		c-4.9,0.9-8.1,1.9-9.6,2.3c-1.7,0.5-3.3,1.1-4.9,1.7c-3.8,1.5-7.2,3.1-10.1,4.7"/>
	<path class="st2" d="M679.2,1023.1c2.8-2.3,6.5-5,11.4-7.7c2.3-1.3,4.9-2.5,7.7-3.6c0.9-0.4,2.7-1,5.1-1.8c0.3-0.1,0.6-0.2,0.9-0.3
		c2.9-0.8,6.6-1.7,10.9-2.3c1.7-0.2,3.5-0.4,5.4-0.5"/>
	<path class="st2" d="M729.5,1009c0.2,0,0.3,0,0.5,0c0.6,0,1.2,0.1,1.8,0.1c5,0.5,9.6,1.4,13.8,2.6c0.3,0.1,0.7,0.2,1,0.3
		c0.1,0,0.3,0.1,0.4,0.1c0.1,0,0.2,0.1,0.4,0.1c0.1,0,0.1,0,0.2,0.1c0.7,0.2,1.5,0.5,2.2,0.7c0.9,0.3,1.7,0.6,2.5,0.9
		c2.7,1,5.1,2.1,7.2,3.2c2.7,1.4,4.9,2.7,6.7,3.7"/>
	<path class="st49" d="M697.9,920"/>
	<path class="st49" d="M705.5,956.9c0.9,8.4,0,16.2-2.1,21.9c-0.2,0.6-0.4,1.1-0.7,1.7c-0.6,1.3-1.2,2.4-1.9,3.4
		c-2.1-4-4.5-10.1-4.2-17.5c0.3-8.9,4.2-18.1,7-19.6C704.5,949.9,705.2,953.3,705.5,956.9z"/>
	<path class="st49" d="M744.9,955.1c-1.4,8.3-1,16.1,0.8,22c0.2,0.6,0.4,1.2,0.6,1.7c0.5,1.3,1,2.5,1.7,3.5c2.4-3.9,5-9.8,5.2-17.2
		c0.2-8.9-3.1-18.3-5.8-20C746.3,948.2,745.5,951.5,744.9,955.1z"/>
	<path class="st47" d="M742.3,1024.4"/>
	<path class="st47" d="M745.3,1024.8"/>
</g>
</svg>
