<?xml version="1.0" encoding="utf-8"?>
<!-- Generator: Adobe Illustrator 21.1.0, SVG Export Plug-In . SVG Version: 6.00 Build 0)  -->
<svg version="1.1" id="Layer_1" xmlns="http://www.w3.org/2000/svg" xmlns:xlink="http://www.w3.org/1999/xlink" x="0px" y="0px"
	 viewBox="0 0 100 100" style="enable-background:new 0 0 100 100;" xml:space="preserve">
<style type="text/css">
	.Drop_x0020_Shadow{fill:none;}
	.Thick_x0020_Blue_x0020_Neon{fill:none;stroke:#0073BC;stroke-width:10;stroke-linecap:round;stroke-linejoin:round;}
	.Illuminating_x0020_Aqua{fill:url(#SVGID_1_);stroke:#FFFFFF;stroke-width:0.25;stroke-miterlimit:1;}
	.Black_x0020_Highlight{fill:url(#SVGID_2_);stroke:#FFFFFF;stroke-width:0.362861;stroke-miterlimit:1;}
	.Bugaboo_GS{fill-rule:evenodd;clip-rule:evenodd;fill:#FFDD00;}
	.st0{fill:#F2F1EB;}
	.st1{fill:#EFCB59;stroke:#EFEB6C;stroke-linecap:round;stroke-linejoin:round;stroke-miterlimit:10;}
</style>
<linearGradient id="SVGID_1_" gradientUnits="userSpaceOnUse" x1="0" y1="0" x2="6.123234e-17" y2="-1">
	<stop  offset="0" style="stop-color:#1D59F4"/>
	<stop  offset="0.617977" style="stop-color:#2D65EE"/>
	<stop  offset="0.629213" style="stop-color:#3864F3"/>
	<stop  offset="0.983146" style="stop-color:#00DDFC"/>
</linearGradient>
<linearGradient id="SVGID_2_" gradientUnits="userSpaceOnUse" x1="0" y1="0" x2="6.123234e-17" y2="-1">
	<stop  offset="0" style="stop-color:#060606"/>
	<stop  offset="0.617977" style="stop-color:#000000"/>
	<stop  offset="0.629213" style="stop-color:#000000"/>
	<stop  offset="0.983146" style="stop-color:#000000"/>
</linearGradient>
<g>
	<g>
		<line class="st0" x1="41.9401512" y1="4.3110633" x2="50.4178505" y2="50.2792511"/>
		<path class="st0" d="M42.530201,4.2022433c2.0458374,1.6031823,3.4415131,3.326272,4.6396599,5.0857902
			c1.1736336,1.764039,2.0915451,3.5752401,2.7902069,5.4268761c0.7056618,1.8503447,1.0277824,3.7714262,1.0007095,5.7569056
			c-0.0239296,1.9849014-0.1801414,3.9941978-0.0613823,5.9527817c0.2303772,3.9184875,0.3468018,7.8579884,0.3492775,11.8185062
			c-0.0171661,3.9641418-0.0140076,7.9245338-0.2407761,11.92733c-0.0192909,0.3405151-0.3109703,0.6009216-0.6514893,0.5816307
			c-0.2379608-0.0134811-0.4370041-0.160759-0.5286064-0.3639908c-1.6397171-3.6585693-3.049511-7.3595428-4.4796219-11.0567703
			c-1.4104767-3.7008438-2.7070007-7.4227066-3.8895721-11.1655846c-0.5877151-1.8720989-1.4504013-3.6934834-2.180809-5.5392666
			c-0.7335472-1.8452015-1.1179008-3.7548046-1.1187172-5.7351418c-0.0078087-1.9790459,0.2036247-3.9985266,0.670784-6.0651703
			c0.4916725-2.0711632,1.1808739-4.1787562,2.520237-6.4062562c0.2278786-0.3789859,0.719841-0.501482,1.0988274-0.273603
			C42.476162,4.1626549,42.5056496,4.1832814,42.530201,4.2022433z"/>
	</g>
	<g>
		<line class="st0" x1="19.0362415" y1="14.5223484" x2="50.4178505" y2="50.2792511"/>
		<path class="st0" d="M19.4871979,14.1265726c2.6011677,0.354557,4.7054367,1.1452131,6.658741,2.0683603
			c1.9345703,0.9395885,3.6737003,2.050705,5.2452641,3.3088818c1.5769138,1.2534809,2.8607006,2.7642231,3.8776073,4.5091896
			c1.01931,1.742857,1.9375191,3.57444,3.0658836,5.2215881c2.2512665,3.2990837,4.4154434,6.6746025,6.4925346,10.1265526
			c2.0620766,3.4651222,4.1396866,6.9166183,6.0415764,10.5223312c0.1589661,0.3013763,0.0435181,0.6745567-0.2578583,0.8335228
			c-0.2121849,0.1119194-0.4605026,0.0872765-0.6440544-0.0419731c-3.3283806-2.3537674-6.4810371-4.8617592-9.6492271-7.3561211
			c-3.1531792-2.5075302-6.2192688-5.0914993-9.1982689-7.7518959c-1.4867706-1.3325958-3.1836929-2.4807549-4.7795162-3.7176399
			c-1.5982285-1.2347755-2.9295769-2.7037754-3.9677963-4.4300346c-1.0435696-1.7215652-1.9195747-3.5901909-2.6001396-5.6303444
			c-0.661829-2.0565948-1.1726933-4.2456799-1.1866589-6.8708658c-0.0023346-0.4388418,0.3515244-0.7964859,0.7903671-0.7988205
			C19.4119492,14.1191101,19.4521656,14.1220455,19.4871979,14.1265726z"/>
	</g>
	<g>
		<line class="st0" x1="4.5410075" y1="34.3146667" x2="50.4178505" y2="50.2792511"/>
		<path class="st0" d="M4.7382016,33.7479973c2.4772019-0.9603462,4.7371182-1.2962837,6.9310222-1.442524
			c2.1857109-0.1226997,4.2859592,0.0001907,6.3129349,0.3336449c2.0293159,0.3267288,3.9304523,1.0218048,5.7148857,2.0522385
			c1.7854862,1.0274124,3.5267639,2.1818657,5.3599377,3.0722466c3.6639576,1.7876129,7.289835,3.6846657,10.8776264,5.6911545
			c3.5812302,2.0253487,7.1692543,4.0311813,10.6804352,6.2578239c0.2874298,0.1822777,0.372673,0.5630493,0.1903992,0.8504829
			c-0.1294365,0.2041054-0.3596649,0.3060532-0.5847893,0.282856c-4.1349564-0.4341202-8.1930771-1.0890503-12.2579842-1.7244682
			c-4.0583496-0.654274-8.0786133-1.4179878-12.0607948-2.2911377c-1.9898968-0.4400024-4.0716896-0.6159325-6.1092739-0.9188995
			c-2.0386353-0.2999458-3.9605694-0.9352531-5.754324-1.9389076c-1.7960939-0.9969292-3.5189161-2.2044182-5.1562748-3.6574974
			c-1.6291666-1.4766235-3.1923199-3.1429482-4.5381885-5.4336739c-0.2203503-0.3750458-0.0949445-0.857708,0.2801008-1.0780602
			C4.6597462,33.7822266,4.7007279,33.7628212,4.7382016,33.7479973z"/>
	</g>
	<g>
		<line class="st0" x1="2.3384366" y1="58.3846817" x2="50.4178505" y2="50.2792511"/>
		<path class="st0" d="M2.2386935,57.7930298c1.7171881-2.0349236,3.5442812-3.4179153,5.4047651-4.6028442
			c1.8646278-1.1603508,3.7724829-2.0642853,5.7174006-2.7483749c1.9437342-0.6911049,3.9523029-0.9976311,6.0199013-0.9540138
			c2.0670643,0.0404663,4.1564922,0.2135696,6.1994381,0.1109581c4.0870972-0.1980629,8.1934566-0.2818642,12.3190823-0.2514038
			c4.1289444,0.0501518,8.2544518,0.0799255,12.4188232,0.3402481c0.3396263,0.0212326,0.5977364,0.3137627,0.5765076,0.653389
			c-0.0150986,0.241539-0.1681252,0.4419975-0.377018,0.5299149c-3.8488617,1.6112251-7.7365913,2.9919052-11.6208839,4.3929634
			c-3.8876114,1.3813667-7.7944851,2.648468-11.7206211,3.8013115c-1.9636726,0.5728416-3.8808632,1.4213982-5.8204155,2.1373177
			c-1.9390202,0.7190704-3.9370689,1.0879974-5.9999523,1.0723419c-2.0616999-0.0086365-4.1604624-0.237114-6.302453-0.7220154
			c-2.1461339-0.5094757-4.3256583-1.2170181-6.6150875-2.5764885c-0.3734293-0.2217445-0.4963948-0.7042274-0.2746511-1.0776558
			C2.1852272,57.8621368,2.2123482,57.824688,2.2386935,57.7930298z"/>
	</g>
	<g>
		<line class="st0" x1="13.0187054" y1="80.2828522" x2="50.4178505" y2="50.2792511"/>
		<path class="st0" d="M12.6432457,79.8148499c0.4812622-2.5926666,1.3762369-4.6696396,2.3969021-6.5899429
			c1.0362625-1.900856,2.2352486-3.5988846,3.5737457-5.1230164c1.3340416-1.5296783,2.9121399-2.7551498,4.7124386-3.7036514
			c1.798296-0.9509926,3.6807652-1.7970657,5.3882656-2.8612366c3.4195461-2.1226768,6.9116001-4.1549721,10.4761677-6.0968819
			c3.5770607-1.9263344,7.1411896-3.8687897,10.8516235-5.6288757c0.307724-0.1459732,0.6755142-0.0148468,0.8214874,0.2928772
			c0.1031036,0.2173538,0.0674019,0.4651794-0.0705681,0.6431351c-2.5227547,3.2405128-5.1918182,6.2986603-7.8479462,9.3729248
			c-2.6686249,3.0586929-5.4097595,6.0269966-8.2234077,8.9049187c-1.4090919,1.4361343-2.643219,3.0903625-3.9615173,4.6396637
			c-1.3162975,1.5518036-2.8547955,2.8266296-4.6373482,3.7972565c-1.7780991,0.9761658-3.6957073,1.7784424-5.776041,2.3778763
			c-2.0959301,0.5800018-4.3175488,1.0033264-6.9528828,0.910965c-0.4371195-0.0153198-0.7790546-0.3820953-0.7637348-0.8192139
			C12.6317711,79.8933945,12.6367102,79.8514709,12.6432457,79.8148499z"/>
	</g>
	<g>
		<line class="st0" x1="33.7200432" y1="94.1415863" x2="50.4178505" y2="50.2792511"/>
		<path class="st0" d="M33.1593018,93.9281158c-0.9127922-2.4399414-1.2077084-4.6446686-1.3149109-6.7779388
			c-0.0839062-2.1243973,0.0752087-4.1562805,0.4426842-6.1088486c0.3608208-1.9550934,1.086132-3.771431,2.1432991-5.461441
			c1.0541763-1.6911469,2.2340622-3.3344345,3.1526337-5.0772018c1.8439331-3.4829559,3.7961617-6.9246826,5.856678-10.3251877
			c2.0791817-3.3933945,4.1390495-6.7941437,6.4174194-10.1117134c0.1930389-0.2810822,0.5773888-0.352459,0.8584709-0.1594238
			c0.1967697,0.1351318,0.2905464,0.3647766,0.2630157,0.5863571c-0.5045967,3.9928207-1.2276955,7.902462-1.9314842,11.8194542
			c-0.7224503,3.9098816-1.5531883,7.7785492-2.4922218,11.6059799c-0.4729118,1.9124298-0.6845093,3.9243317-1.0218163,5.888382
			c-0.3343201,1.9651871-1.0004921,3.804039-2.0311508,5.5041351c-1.0240135,1.7026367-2.2563782,3.325943-3.7317696,4.8567429
			c-1.4986877,1.5219269-3.1850891,2.9723892-5.4893646,4.1876373c-0.390461,0.2059326-0.8739319,0.0563354-1.0798569-0.3341293
			C33.1856155,93.99189,33.1707306,93.9580231,33.1593018,93.9281158z"/>
	</g>
	<g>
		<line class="st0" x1="58.895546" y1="96.2474365" x2="50.4178505" y2="50.2792511"/>
		<path class="st0" d="M58.3054962,96.3562622c-2.0458374-1.6031876-3.4415131-3.3262787-4.6396599-5.0857925
			c-1.1736336-1.7640381-2.0915451-3.5752411-2.7902069-5.4268799c-0.7056618-1.8503418-1.0277824-3.7714233-1.0007095-5.7569046
			c0.0239296-1.9849014,0.1801414-3.994194,0.0613823-5.9527817c-0.2303772-3.9184875-0.3468018-7.8579865-0.3492775-11.8185043
			c0.0171661-3.9641418,0.0140076-7.9245338,0.2407761-11.9273262c0.0192909-0.340519,0.3109703-0.6009254,0.6514893-0.5816345
			c0.2379608,0.0134811,0.4370041,0.160759,0.5286064,0.3639946c1.6397171,3.6585655,3.049511,7.359539,4.4796219,11.0567665
			c1.4104767,3.7008476,2.7070007,7.4227104,3.8895721,11.1655846c0.5877151,1.8721008,1.4504013,3.6934814,2.180809,5.5392685
			c0.7335472,1.8451996,1.1179008,3.7547989,1.1187172,5.7351379c0.0078087,1.9790497-0.2036247,3.9985275-0.670784,6.0651703
			c-0.4916725,2.071167-1.1808739,4.1787567-2.520237,6.4062576c-0.2278786,0.3789825-0.719841,0.5014801-1.0988274,0.2736053
			C58.3595352,96.3958511,58.3300476,96.3752213,58.3054962,96.3562622z"/>
	</g>
	<g>
		<line class="st0" x1="81.7994537" y1="86.0361557" x2="50.4178505" y2="50.2792511"/>
		<path class="st0" d="M81.3485031,86.4319305c-2.6011734-0.3545609-4.7054367-1.1452103-6.6587448-2.0683594
			c-1.9345703-0.9395905-3.6736984-2.050705-5.2452621-3.3088837c-1.5769196-1.253479-2.8607025-2.7642212-3.8776093-4.5091858
			c-1.01931-1.7428589-1.9375191-3.57444-3.0658836-5.2215881c-2.2512665-3.2990875-4.4154434-6.6746063-6.4925346-10.1265564
			c-2.0620766-3.4651222-4.1396866-6.9166183-6.0415764-10.5223312c-0.1589661-0.3013763-0.0435181-0.6745567,0.2578583-0.8335228
			c0.2121849-0.1119194,0.4605026-0.0872765,0.6440544,0.0419731c3.3283806,2.3537674,6.4810371,4.8617592,9.6492271,7.3561211
			c3.1531792,2.5075302,6.219265,5.0914993,9.1982689,7.7518959c1.4867706,1.3325958,3.1836929,2.480751,4.7795181,3.7176361
			c1.5982285,1.2347794,2.9295731,2.7037811,3.9677963,4.4300385c1.0435715,1.7215652,1.9195709,3.5901947,2.6001358,5.6303406
			c0.6618271,2.0565948,1.172699,4.2456818,1.1866608,6.8708725c0.0023346,0.4388428-0.3515244,0.7964859-0.7903671,0.7988205
			C81.4237442,86.4393921,81.3835297,86.4364548,81.3485031,86.4319305z"/>
	</g>
	<g>
		<line class="st0" x1="96.294693" y1="66.2438354" x2="50.4178505" y2="50.2792511"/>
		<path class="st0" d="M96.097496,66.8105087c-2.4772034,0.9603424-4.7371216,1.2962799-6.9310226,1.4425201
			c-2.1857147,0.1227036-4.2859573-0.0001907-6.3129349-0.3336411c-2.0293121-0.3267365-3.9304504-1.0218048-5.7148895-2.0522385
			c-1.7854843-1.02742-3.5267639-2.1818695-5.3599319-3.0722504c-3.6639633-1.7876129-7.2898331-3.6846657-10.8776283-5.6911545
			c-3.5812302-2.0253487-7.1692543-4.0311813-10.6804352-6.2578239c-0.2874298-0.1822777-0.372673-0.5630493-0.1903992-0.8504829
			c0.1294365-0.2041054,0.3596649-0.3060532,0.5847893-0.282856c4.1349564,0.4341202,8.1930771,1.0890503,12.2579842,1.7244682
			c4.0583458,0.654274,8.0786095,1.4179878,12.0607948,2.2911377c1.9898987,0.4400024,4.0716858,0.6159325,6.1092758,0.9188995
			c2.0386353,0.2999496,3.9605637,0.9352531,5.7543259,1.9389076c1.7960892,0.9969292,3.5189133,2.2044182,5.1562729,3.6574974
			c1.6291656,1.4766235,3.1923218,3.1429482,4.5381851,5.43367c0.2203522,0.3750458,0.0949478,0.8577118-0.280098,1.078064
			C96.1759491,66.7762756,96.1349716,66.7956772,96.097496,66.8105087z"/>
	</g>
	<g>
		<line class="st0" x1="98.497261" y1="42.1738205" x2="50.4178505" y2="50.2792511"/>
		<path class="st0" d="M98.5970001,42.7654724c-1.717186,2.0349236-3.544281,3.4179153-5.4047623,4.6028442
			c-1.864624,1.1603508-3.7724838,2.0642853-5.7173996,2.7483749c-1.9437332,0.6911049-3.952301,0.9976311-6.0198975,0.9540138
			c-2.06707-0.0404663-4.1564941-0.2135696-6.19944-0.1109581c-4.0870972,0.1980629-8.1934586,0.2818642-12.3190842,0.2514038
			c-4.1289444-0.0501518-8.2544518-0.0799255-12.4188232-0.3402481c-0.3396263-0.0212326-0.5977364-0.3137627-0.5765076-0.653389
			c0.0150986-0.241539,0.1681252-0.4419975,0.377018-0.5299149c3.8488617-1.6112251,7.7365913-2.9919052,11.6208839-4.3929634
			c3.8876114-1.3813629,7.794487-2.648468,11.7206192-3.8013115c1.9636765-0.5728416,3.880867-1.4213982,5.8204193-2.1373177
			c1.9390182-0.7190704,3.9370651-1.0879974,5.9999466-1.0723419c2.0617065,0.0086365,4.1604691,0.237114,6.3024597,0.7220154
			c2.1461334,0.5094757,4.3256531,1.2170181,6.6150818,2.5764885c0.373436,0.2217445,0.4963989,0.7042274,0.2746506,1.0776558
			C98.6504669,42.6963654,98.6233521,42.7338142,98.5970001,42.7654724z"/>
	</g>
	<g>
		<line class="st0" x1="87.8169937" y1="20.2756481" x2="50.4178505" y2="50.2792511"/>
		<path class="st0" d="M88.1924515,20.7436543c-0.4812622,2.5926628-1.376236,4.6696358-2.396904,6.5899391
			c-1.0362625,1.9008598-2.2352448,3.5988884-3.5737457,5.1230183c-1.3340378,1.5296822-2.9121399,2.7551498-4.7124329,3.7036514
			c-1.7983017,0.9509926-3.6807709,1.7970657-5.3882675,2.8612366c-3.419548,2.1226768-6.9116058,4.1549721-10.4761696,6.0968819
			c-3.5770607,1.9263344-7.1411896,3.8687897-10.8516235,5.6288757c-0.307724,0.1459732-0.6755142,0.0148468-0.8214874-0.2928772
			c-0.1031036-0.2173538-0.0674019-0.4651794,0.0705681-0.6431351c2.5227547-3.2405128,5.1918182-6.2986603,7.8479462-9.3729248
			c2.6686249-3.0586891,5.4097595-6.0269966,8.2234039-8.9049206c1.4090958-1.4361305,2.6432266-3.0903568,3.961525-4.6396637
			c1.3162918-1.5517998,2.8547897-2.8266315,4.6373444-3.7972507c1.7780991-0.9761696,3.6957092-1.7784424,5.7760391-2.377882
			c2.095932-0.579998,4.3175507-1.0033245,6.9528885-0.9109612c0.4371185,0.0153198,0.7790527,0.3820934,0.7637329,0.819212
			C88.2039261,20.6651077,88.1989899,20.7070332,88.1924515,20.7436543z"/>
	</g>
	<g>
		<line class="st0" x1="67.115654" y1="6.4169168" x2="50.4178505" y2="50.2792511"/>
		<path class="st0" d="M67.6763916,6.630384c0.912796,2.4399438,1.2077103,4.6446719,1.3149109,6.7779393
			c0.0839081,2.1243992-0.0752029,4.1562824-0.4426804,6.1088486c-0.360817,1.9550953-1.0861359,3.7714348-2.1432953,5.4614449
			c-1.0541763,1.6911449-2.2340622,3.3344364-3.1526375,5.0772038c-1.8439331,3.4829521-3.7961617,6.9246788-5.856678,10.3251839
			c-2.0791817,3.3933945-4.1390495,6.7941437-6.4174194,10.1117134c-0.1930389,0.281086-0.5773888,0.352459-0.8584709,0.1594238
			c-0.1967697-0.1351318-0.2905464-0.3647766-0.2630157-0.5863571c0.5045967-3.9928207,1.2276955-7.902462,1.9314842-11.8194504
			c0.7224503-3.9098892,1.5531883-7.7785511,2.4922218-11.6059856c0.4729118-1.9124279,0.6845093-3.9243317,1.0218163-5.8883801
			c0.3343201-1.9651852,1.0004921-3.8040409,2.0311508-5.5041389c1.0240135-1.7026291,2.2563782-3.3259401,3.7317696-4.8567352
			c1.4986877-1.5219278,3.1850853-2.972394,5.4893608-4.1876445c0.3904648-0.2059259,0.8739319-0.0563297,1.0798569,0.3341336
			C67.6500778,6.5666142,67.6649704,6.6004772,67.6763916,6.630384z"/>
	</g>
</g>
<ellipse class="st1" cx="50.4587898" cy="50.2825813" rx="6.6635656" ry="6.3709607"/>
</svg>
