<?xml version="1.0" encoding="utf-8"?>
<!-- Generator: Adobe Illustrator 21.1.0, SVG Export Plug-In . SVG Version: 6.00 Build 0)  -->
<svg version="1.1" id="Layer_1" xmlns="http://www.w3.org/2000/svg" xmlns:xlink="http://www.w3.org/1999/xlink" x="0px" y="0px"
	 viewBox="0 0 1921.7 1082.7" style="enable-background:new 0 0 1921.7 1082.7;" xml:space="preserve">
<style type="text/css">
	.st0{fill:none;stroke:#70B80E;stroke-width:2;stroke-linecap:round;stroke-linejoin:round;stroke-miterlimit:10;}
	.st1{fill:#FBFAFC;stroke:#A0A0A0;stroke-width:0.5;stroke-miterlimit:10;}
	.st2{fill:#7F6628;stroke:#EFEB6C;stroke-width:0.24;stroke-linecap:round;stroke-linejoin:round;stroke-miterlimit:10;}
	.st3{fill:#F9EF41;stroke:#9B8F04;stroke-width:0.25;stroke-miterlimit:10;}
	.st4{fill:#5E5137;stroke:#5E5137;stroke-miterlimit:10;}
	.st5{fill:none;}
	.st6{fill:#B24987;}
	.st7{fill:#C42D64;}
	.st8{fill:#F9D373;stroke:#635632;stroke-width:0.2;stroke-linecap:round;stroke-linejoin:round;stroke-miterlimit:10;}
	.st9{fill:#F2E94E;}
	.st10{fill:#FFE97D;}
	.st11{fill:#F9D026;}
	.st12{fill:#D39C53;}
	.st13{opacity:0.1;}
	.st14{opacity:0.1;fill:#050505;stroke:#050505;stroke-width:1.5;stroke-miterlimit:10;enable-background:new    ;}
	.st15{fill:#110F0E;}
</style>
<g id="Stems">
	<path class="st0" d="M301.4,898.3c-7.2-43.1-12.5-96.6-10-158c2-48.7,8.3-91.8,16-128"/>
	<path class="st0" d="M179.9,881.8c8.4-60.2,13.3-136.9,5-225c-6.1-64.5-18-121-31-168"/>
	<path class="st0" d="M1562.8,1050.8c-1.2-25.9-1.1-54.7,1-86c1.9-27.6,5.1-53,9-76"/>
	<path class="st0" d="M1724.3,1005.3c-4.4-48.4-6.4-104.2-3-166c2.9-53.3,9.2-101.5,17-144"/>
	<path class="st0" d="M1430.3,668.3"/>
</g>
<g id="Flowers">
	<g id="Flower">
		<g>
			<g>
				<path class="st1" d="M157.9,409.8l-3.7,79.3l-31.7-72.8c-4.1-9.4,0.2-20.2,9.6-24.3c9.4-4.1,20.2,0.2,24.3,9.6
					C157.6,404.2,158.1,407.1,157.9,409.8z"/>
			</g>
			<g>
				<path class="st1" d="M115.9,418.1l38.4,71.1l-65.5-47.3c-8.3-6-10.1-17.5-4.2-25.8c6-8.3,17.5-10.1,25.8-4.2
					C112.7,413.6,114.6,415.7,115.9,418.1z"/>
			</g>
			<g>
				<path class="st1" d="M84.2,445.7l70,43.4l-81.8-9.4c-10.1-1.2-17.4-10.3-16.2-20.4c1.2-10.1,10.3-17.4,20.4-16.2
					C79.4,443.4,82,444.3,84.2,445.7z"/>
			</g>
			<g>
				<path class="st1" d="M71.7,484.8l82.6,4.3l-76.6,31.2c-9.4,3.8-20.2-0.7-24-10.1c-3.8-9.4,0.7-20.2,10.1-24
					C66.3,485.1,69.1,484.7,71.7,484.8z"/>
			</g>
			<g>
				<path class="st1" d="M81.1,524.8l73.2-35.6l-50.6,63.7c-6.3,8-18,9.3-25.9,3c-8-6.3-9.3-18-3-25.9
					C76.5,527.7,78.7,525.9,81.1,524.8z"/>
			</g>
			<g>
				<path class="st1" d="M109.8,555.3l44.5-66.2l-10.8,79c-1.4,10.1-10.7,17.2-20.8,15.8c-10.1-1.4-17.2-10.7-15.8-20.8
					C107.2,560.3,108.3,557.6,109.8,555.3z"/>
			</g>
			<g>
				<path class="st1" d="M150.6,568.5l3.7-79.3l31.7,72.8c4.1,9.4-0.2,20.2-9.6,24.3c-9.4,4.1-20.2-0.2-24.3-9.6
					C151,574.1,150.5,571.2,150.6,568.5z"/>
			</g>
			<g>
				<path class="st1" d="M192.7,560.2l-38.4-71.1l65.5,47.3c8.3,6,10.1,17.5,4.2,25.8c-6,8.3-17.5,10.1-25.8,4.2
					C195.8,564.7,194,562.5,192.7,560.2z"/>
			</g>
			<g>
				<path class="st1" d="M224.3,532.6l-70-43.4l81.8,9.4c10.1,1.2,17.4,10.3,16.2,20.4c-1.2,10.1-10.3,17.4-20.4,16.2
					C229.1,534.9,226.5,533.9,224.3,532.6z"/>
			</g>
			<g>
				<path class="st1" d="M236.8,493.5l-82.6-4.3l76.6-31.2c9.4-3.8,20.2,0.7,24,10.1s-0.7,20.2-10.1,24
					C242.2,493.2,239.4,493.6,236.8,493.5z"/>
			</g>
			<g>
				<path class="st1" d="M227.4,453.5l-73.2,35.6l50.6-63.7c6.3-8,18-9.3,25.9-3c8,6.3,9.3,18,3,25.9
					C232,450.6,229.8,452.3,227.4,453.5z"/>
			</g>
			<g>
				<path class="st1" d="M198.7,422.9l-44.5,66.2l10.8-79c1.4-10.1,10.7-17.2,20.8-15.8s17.2,10.7,15.8,20.8
					C201.3,418,200.2,420.7,198.7,422.9z"/>
			</g>
		</g>
		<ellipse class="st2" cx="154.4" cy="489.1" rx="16" ry="15.3"/>
	</g>
	<g id="Flower_2_">
		<g id="Flower_1_">
			<g>
				<g>
					<line class="st3" x1="1727.2" y1="626" x2="1741.3" y2="702.1"/>
					<path class="st3" d="M1727.2,626c1.5,1.4,2.8,2.8,4,4.2c1.2,1.4,2.3,2.9,3.3,4.3c2,2.9,3.7,5.9,5.1,8.9
						c2.9,6,4.8,12.2,5.9,18.6c1.2,6.3,1.6,12.8,1.1,19.5c-0.3,3.3-0.8,6.7-1.6,10.1c-0.4,1.7-0.9,3.4-1.5,5.2
						c-0.6,1.8-1.3,3.5-2.3,5.3c-1.6-1.4-2.8-2.8-4-4.2c-1.2-1.4-2.3-2.9-3.3-4.3c-2-2.9-3.7-5.9-5.1-8.9c-2.9-6-4.7-12.2-5.9-18.6
						c-1.1-6.3-1.6-12.8-1.1-19.5c0.3-3.3,0.8-6.7,1.6-10.1c0.4-1.7,0.9-3.4,1.5-5.2C1725.6,629.6,1726.3,627.9,1727.2,626z"/>
				</g>
				<g>
					<line class="st3" x1="1689.3" y1="642.9" x2="1741.3" y2="702.1"/>
					<path class="st3" d="M1689.3,642.9c2,0.4,3.9,1,5.6,1.6c1.8,0.6,3.4,1.3,5.1,2.1c3.2,1.5,6.2,3.3,9,5.2
						c5.6,3.8,10.5,8.2,14.8,13.2c4.3,4.9,8.1,10.3,11.1,16.4c1.5,3,2.8,6.2,3.9,9.6c0.5,1.7,1,3.5,1.4,5.3c0.4,1.8,0.7,3.7,0.8,5.8
						c-2-0.4-3.9-1-5.7-1.6c-1.8-0.6-3.4-1.3-5.1-2.1c-3.2-1.5-6.2-3.2-9-5.2c-5.6-3.8-10.5-8.2-14.8-13.2
						c-4.3-4.9-8.1-10.4-11.1-16.4c-1.5-3-2.9-6.2-3.9-9.6c-0.5-1.7-1-3.5-1.4-5.3C1689.8,646.9,1689.4,645,1689.3,642.9z"/>
				</g>
				<g>
					<line class="st3" x1="1665.3" y1="675.7" x2="1741.3" y2="702.1"/>
					<path class="st3" d="M1665.3,675.7c2-0.7,3.9-1,5.8-1.4c1.9-0.3,3.7-0.5,5.5-0.6c3.6-0.3,7.2-0.2,10.6,0.1
						c6.9,0.6,13.5,2.1,19.8,4.3c6.3,2.2,12.4,5.1,18.2,8.9c2.9,1.9,5.7,4.1,8.4,6.5c1.3,1.2,2.7,2.5,3.9,4c1.3,1.4,2.5,2.9,3.7,4.7
						c-2,0.7-3.9,1.1-5.8,1.4c-1.9,0.3-3.7,0.5-5.5,0.7c-3.6,0.3-7.2,0.2-10.6-0.1c-6.9-0.6-13.5-2.1-19.8-4.3
						c-6.3-2.2-12.4-5.1-18.2-8.9c-2.9-1.9-5.7-4.1-8.4-6.5c-1.3-1.2-2.7-2.5-3.9-4C1667.7,679,1666.5,677.5,1665.3,675.7z"/>
				</g>
				<g>
					<line class="st3" x1="1661.7" y1="715.5" x2="1741.3" y2="702.1"/>
					<path class="st3" d="M1661.7,715.5c1.4-1.5,2.9-2.8,4.4-4c1.5-1.2,3-2.2,4.6-3.2c3.1-2,6.2-3.6,9.4-5
						c6.3-2.8,12.9-4.7,19.5-5.8c6.6-1.1,13.4-1.5,20.3-0.9c3.5,0.3,7,0.8,10.5,1.7c1.8,0.4,3.6,0.9,5.4,1.6
						c1.8,0.6,3.6,1.3,5.5,2.3c-1.4,1.5-2.9,2.8-4.4,4c-1.5,1.2-3,2.2-4.6,3.3c-3.1,2-6.2,3.6-9.4,5c-6.3,2.8-12.9,4.6-19.5,5.8
						c-6.6,1.1-13.4,1.5-20.3,0.9c-3.5-0.3-7-0.8-10.5-1.7c-1.8-0.4-3.6-0.9-5.4-1.6C1665.4,717.2,1663.6,716.5,1661.7,715.5z"/>
				</g>
				<g>
					<line class="st3" x1="1679.4" y1="751.8" x2="1741.3" y2="702.1"/>
					<path class="st3" d="M1679.4,751.8c0.5-2,1.2-3.8,1.9-5.6c0.7-1.8,1.5-3.4,2.3-5c1.7-3.2,3.6-6.1,5.6-8.9
						c4.1-5.5,8.8-10.2,13.9-14.3c5.2-4.1,10.8-7.7,17-10.5c3.1-1.4,6.4-2.6,9.9-3.6c1.8-0.5,3.5-0.9,5.4-1.2
						c1.9-0.3,3.8-0.6,5.9-0.6c-0.5,2-1.1,3.9-1.9,5.6c-0.7,1.8-1.5,3.4-2.3,5c-1.7,3.2-3.6,6.1-5.6,8.9
						c-4.1,5.5-8.8,10.2-13.9,14.3c-5.2,4.1-10.8,7.7-17,10.5c-3.1,1.4-6.4,2.6-9.9,3.6c-1.7,0.5-3.5,0.9-5.4,1.2
						C1683.4,751.5,1681.5,751.8,1679.4,751.8z"/>
				</g>
				<g>
					<line class="st3" x1="1713.6" y1="774.7" x2="1741.3" y2="702.1"/>
					<path class="st3" d="M1713.6,774.7c-0.6-2-1-3.8-1.3-5.7c-0.3-1.8-0.4-3.6-0.5-5.4c-0.2-3.5-0.1-7,0.3-10.3
						c0.7-6.7,2.3-13,4.6-19c2.3-6.1,5.3-11.8,9.2-17.3c1.9-2.7,4.1-5.3,6.6-7.9c1.3-1.2,2.6-2.5,4-3.7c1.4-1.2,2.9-2.3,4.7-3.4
						c0.6,2,1,3.8,1.3,5.7c0.3,1.8,0.4,3.6,0.6,5.4c0.2,3.5,0.1,7-0.3,10.3c-0.7,6.7-2.3,13-4.6,19c-2.3,6-5.3,11.8-9.2,17.3
						c-1.9,2.7-4.1,5.4-6.6,7.9c-1.3,1.3-2.6,2.5-4,3.7C1716.9,772.5,1715.4,773.7,1713.6,774.7z"/>
				</g>
				<g>
					<line class="st3" x1="1755.3" y1="778.2" x2="1741.3" y2="702.1"/>
					<path class="st3" d="M1755.3,778.2c-1.5-1.4-2.8-2.8-4-4.2c-1.2-1.4-2.3-2.9-3.3-4.3c-2-2.9-3.7-5.9-5.1-8.9
						c-2.9-6-4.8-12.2-5.9-18.6c-1.2-6.3-1.6-12.8-1.1-19.5c0.3-3.3,0.8-6.7,1.6-10.1c0.4-1.7,0.9-3.4,1.5-5.2
						c0.6-1.8,1.3-3.5,2.3-5.3c1.6,1.4,2.8,2.8,4,4.2c1.2,1.4,2.3,2.9,3.3,4.3c2,2.9,3.7,5.9,5.1,8.9c2.9,6,4.7,12.2,5.9,18.6
						c1.1,6.3,1.6,12.8,1.1,19.5c-0.3,3.3-0.8,6.7-1.6,10.1c-0.4,1.7-0.9,3.4-1.5,5.2C1757,774.6,1756.3,776.4,1755.3,778.2z"/>
				</g>
				<g>
					<line class="st3" x1="1793.2" y1="761.3" x2="1741.3" y2="702.1"/>
					<path class="st3" d="M1793.2,761.3c-2-0.4-3.9-1-5.6-1.6c-1.8-0.6-3.4-1.3-5.1-2.1c-3.2-1.5-6.2-3.3-9-5.2
						c-5.6-3.8-10.5-8.2-14.8-13.2c-4.3-4.9-8.1-10.3-11.1-16.4c-1.5-3-2.8-6.2-3.9-9.6c-0.5-1.7-1-3.5-1.4-5.3
						c-0.4-1.8-0.7-3.7-0.8-5.8c2,0.4,3.9,1,5.7,1.6c1.8,0.6,3.4,1.3,5.1,2.1c3.2,1.5,6.2,3.2,9,5.2c5.6,3.8,10.5,8.2,14.8,13.2
						c4.3,4.9,8.1,10.4,11.1,16.4c1.5,3,2.9,6.2,3.9,9.6c0.5,1.7,1,3.5,1.4,5.3C1792.8,757.3,1793.1,759.2,1793.2,761.3z"/>
				</g>
				<g>
					<line class="st3" x1="1817.2" y1="728.6" x2="1741.3" y2="702.1"/>
					<path class="st3" d="M1817.2,728.6c-2,0.7-3.9,1-5.8,1.4c-1.9,0.3-3.7,0.5-5.5,0.6c-3.6,0.3-7.2,0.2-10.6-0.1
						c-6.9-0.6-13.5-2.1-19.8-4.3c-6.3-2.2-12.4-5.1-18.2-8.9c-2.9-1.9-5.7-4.1-8.4-6.5c-1.3-1.2-2.7-2.5-3.9-4
						c-1.3-1.4-2.5-2.9-3.7-4.7c2-0.7,3.9-1.1,5.8-1.4c1.9-0.3,3.7-0.5,5.5-0.7c3.6-0.3,7.2-0.2,10.6,0.1c6.9,0.6,13.5,2.1,19.8,4.3
						c6.3,2.2,12.4,5.1,18.2,8.9c2.9,1.9,5.7,4.1,8.4,6.5c1.3,1.2,2.7,2.5,3.9,4C1814.8,725.3,1816,726.8,1817.2,728.6z"/>
				</g>
				<g>
					<line class="st3" x1="1820.8" y1="688.7" x2="1741.3" y2="702.1"/>
					<path class="st3" d="M1820.8,688.7c-1.4,1.5-2.9,2.8-4.4,4c-1.5,1.2-3,2.2-4.6,3.2c-3.1,2-6.2,3.6-9.4,5
						c-6.3,2.8-12.9,4.7-19.5,5.8c-6.6,1.1-13.4,1.5-20.3,0.9c-3.5-0.3-7-0.8-10.5-1.7c-1.8-0.4-3.6-0.9-5.4-1.6
						c-1.8-0.6-3.6-1.3-5.5-2.3c1.4-1.5,2.9-2.8,4.4-4c1.5-1.2,3-2.2,4.6-3.3c3.1-2,6.2-3.6,9.4-5c6.3-2.8,12.9-4.6,19.5-5.8
						c6.6-1.1,13.4-1.5,20.3-0.9c3.5,0.3,7,0.8,10.5,1.7c1.8,0.4,3.6,0.9,5.4,1.6C1817.2,687,1819,687.7,1820.8,688.7z"/>
				</g>
				<g>
					<line class="st3" x1="1803.2" y1="652.5" x2="1741.3" y2="702.1"/>
					<path class="st3" d="M1803.2,652.5c-0.5,2-1.2,3.8-1.9,5.6c-0.7,1.8-1.5,3.4-2.3,5c-1.7,3.2-3.6,6.1-5.6,8.9
						c-4.1,5.5-8.8,10.2-13.9,14.3c-5.2,4.1-10.8,7.7-17,10.5c-3.1,1.4-6.4,2.6-9.9,3.6c-1.8,0.5-3.5,0.9-5.4,1.2
						c-1.9,0.3-3.8,0.6-5.9,0.6c0.5-2,1.1-3.9,1.9-5.6c0.7-1.8,1.5-3.4,2.3-5c1.7-3.2,3.6-6.1,5.6-8.9c4.1-5.5,8.8-10.2,13.9-14.3
						c5.2-4.1,10.8-7.7,17-10.5c3.1-1.4,6.4-2.6,9.9-3.6c1.7-0.5,3.5-0.9,5.4-1.2C1799.2,652.8,1801.1,652.5,1803.2,652.5z"/>
				</g>
				<g>
					<line class="st3" x1="1768.9" y1="629.5" x2="1741.3" y2="702.1"/>
					<path class="st3" d="M1768.9,629.5c0.6,2,1,3.8,1.3,5.7c0.3,1.8,0.4,3.6,0.5,5.4c0.2,3.5,0.1,7-0.3,10.3
						c-0.7,6.7-2.3,13-4.6,19c-2.3,6.1-5.3,11.8-9.2,17.3c-1.9,2.7-4.1,5.3-6.6,7.9c-1.3,1.2-2.6,2.5-4,3.7
						c-1.4,1.2-2.9,2.3-4.7,3.4c-0.6-2-1-3.8-1.3-5.7c-0.3-1.8-0.4-3.6-0.6-5.4c-0.2-3.5-0.1-7,0.3-10.3c0.7-6.7,2.3-13,4.6-19
						c2.3-6,5.3-11.8,9.2-17.3c1.9-2.7,4.1-5.4,6.6-7.9c1.3-1.3,2.6-2.5,4-3.7C1765.6,631.7,1767.1,630.6,1768.9,629.5z"/>
				</g>
			</g>
		</g>
		<ellipse class="st4" cx="1741.4" cy="702.1" rx="16" ry="15.3"/>
	</g>
	<g id="Flower_4_">
		<g>
			<g>
				<line class="st5" x1="1563.6" y1="828.7" x2="1575.3" y2="892.1"/>
				<path class="st6" d="M1563.6,828.7c1.3,1.1,2.4,2.3,3.5,3.5c1,1.2,1.9,2.4,2.8,3.6c1.7,2.4,3.2,4.9,4.4,7.4c2.4,5,4,10.2,5,15.5
					c1,5.3,1.3,10.7,0.8,16.2c-0.2,2.8-0.7,5.6-1.4,8.5c-0.4,1.4-0.8,2.9-1.4,4.3c-0.5,1.5-1.2,2.9-2,4.5c-1.3-1.1-2.4-2.3-3.5-3.5
					c-1-1.2-1.9-2.4-2.8-3.6c-1.7-2.4-3.2-4.9-4.4-7.4c-2.4-5-4-10.2-5-15.5c-1-5.3-1.3-10.7-0.8-16.2c0.2-2.8,0.7-5.6,1.4-8.5
					c0.4-1.4,0.8-2.9,1.4-4.3C1562.1,831.7,1562.7,830.2,1563.6,828.7z"/>
			</g>
			<g>
				<line class="st5" x1="1532" y1="842.8" x2="1575.3" y2="892.1"/>
				<path class="st7" d="M1532,842.8c1.7,0.3,3.3,0.7,4.8,1.3c1.5,0.5,2.9,1.1,4.3,1.7c2.7,1.2,5.3,2.6,7.6,4.2
					c4.7,3.1,8.8,6.8,12.4,10.9c3.6,4.1,6.7,8.6,9.2,13.7c1.3,2.5,2.3,5.2,3.2,8.1c0.4,1.5,0.8,2.9,1.1,4.5c0.3,1.6,0.5,3.2,0.6,4.9
					c-1.7-0.3-3.3-0.7-4.8-1.2c-1.5-0.5-2.9-1.1-4.3-1.7c-2.7-1.2-5.3-2.6-7.6-4.2c-4.7-3.1-8.8-6.8-12.4-10.9
					c-3.6-4.1-6.7-8.7-9.2-13.8c-1.3-2.5-2.3-5.2-3.2-8.1c-0.4-1.4-0.8-2.9-1.1-4.5C1532.3,846.2,1532,844.6,1532,842.8z"/>
			</g>
			<g>
				<line class="st5" x1="1512" y1="870.1" x2="1575.3" y2="892.1"/>
				<path class="st6" d="M1512,870.1c1.7-0.6,3.3-1,4.9-1.2c1.6-0.3,3.1-0.5,4.7-0.6c3-0.2,6-0.3,8.9,0c5.8,0.4,11.2,1.7,16.5,3.5
					c5.3,1.8,10.3,4.3,15.1,7.5c2.4,1.6,4.7,3.5,6.9,5.5c1.1,1.1,2.2,2.2,3.3,3.4c1.1,1.2,2.1,2.5,3,4c-1.7,0.6-3.3,1-4.9,1.3
					c-1.6,0.3-3.1,0.5-4.7,0.6c-3,0.3-6,0.3-8.9,0c-5.8-0.4-11.2-1.7-16.5-3.5c-5.3-1.9-10.3-4.3-15.1-7.5c-2.4-1.6-4.7-3.5-6.9-5.5
					c-1.1-1.1-2.2-2.2-3.3-3.4C1514,872.9,1512.9,871.6,1512,870.1z"/>
			</g>
			<g>
				<line class="st5" x1="1509" y1="903.3" x2="1575.3" y2="892.1"/>
				<path class="st7" d="M1509,903.3c1.2-1.3,2.4-2.4,3.7-3.4c1.2-1,2.5-1.9,3.8-2.8c2.6-1.7,5.2-3.1,7.8-4.3
					c5.3-2.4,10.7-4,16.2-4.9c5.5-0.9,11.2-1.2,16.9-0.7c2.9,0.3,5.8,0.8,8.8,1.5c1.5,0.4,3,0.8,4.5,1.4c1.5,0.6,3,1.2,4.6,2
					c-1.2,1.3-2.4,2.4-3.7,3.4c-1.2,1-2.5,1.9-3.8,2.8c-2.6,1.7-5.2,3.1-7.8,4.3c-5.3,2.4-10.7,4-16.2,4.9
					c-5.5,0.9-11.2,1.2-16.9,0.7c-2.9-0.3-5.8-0.8-8.8-1.5c-1.5-0.4-3-0.8-4.5-1.4C1512,904.8,1510.5,904.2,1509,903.3z"/>
			</g>
			<g>
				<line class="st5" x1="1523.7" y1="933.5" x2="1575.3" y2="892.1"/>
				<path class="st6" d="M1523.7,933.5c0.4-1.7,0.9-3.3,1.5-4.7c0.6-1.5,1.2-2.9,1.9-4.2c1.4-2.7,2.9-5.2,4.6-7.5
					c3.4-4.6,7.3-8.6,11.5-12c4.3-3.5,9-6.4,14.2-8.7c2.6-1.2,5.4-2.1,8.3-2.9c1.5-0.4,3-0.7,4.6-0.9c1.6-0.2,3.2-0.4,5-0.4
					c-0.4,1.7-0.9,3.3-1.5,4.8c-0.6,1.5-1.2,2.9-1.9,4.2c-1.4,2.7-2.9,5.2-4.6,7.5c-3.4,4.6-7.3,8.6-11.6,12
					c-4.3,3.4-9,6.4-14.2,8.7c-2.6,1.2-5.4,2.1-8.3,2.9c-1.5,0.4-3,0.7-4.5,0.9C1527.1,933.3,1525.5,933.5,1523.7,933.5z"/>
			</g>
			<g>
				<line class="st5" x1="1552.2" y1="952.6" x2="1575.3" y2="892.1"/>
				<path class="st7" d="M1552.2,952.6c-0.6-1.7-0.9-3.2-1.2-4.8c-0.3-1.5-0.4-3-0.5-4.5c-0.2-3-0.2-5.8,0.1-8.6
					c0.5-5.6,1.8-10.8,3.7-15.9c1.9-5,4.4-9.9,7.7-14.4c1.6-2.3,3.5-4.4,5.6-6.5c1.1-1,2.2-2.1,3.4-3c1.2-1,2.5-1.9,4-2.8
					c0.6,1.7,0.9,3.2,1.2,4.8c0.3,1.5,0.4,3,0.5,4.5c0.2,3,0.2,5.8-0.1,8.6c-0.5,5.6-1.8,10.8-3.8,15.9c-1.9,5-4.5,9.8-7.8,14.4
					c-1.6,2.3-3.5,4.4-5.6,6.5c-1.1,1-2.2,2.1-3.4,3C1555,950.8,1553.8,951.8,1552.2,952.6z"/>
			</g>
			<g>
				<line class="st5" x1="1587" y1="955.5" x2="1575.3" y2="892.1"/>
				<path class="st6" d="M1587,955.5c-1.3-1.1-2.4-2.3-3.5-3.5c-1-1.2-1.9-2.4-2.8-3.6c-1.7-2.4-3.2-4.9-4.4-7.4
					c-2.4-5-4-10.2-5-15.5c-1-5.3-1.3-10.7-0.8-16.2c0.2-2.8,0.7-5.6,1.4-8.5c0.4-1.4,0.8-2.9,1.4-4.3c0.5-1.5,1.2-2.9,2-4.5
					c1.3,1.1,2.4,2.3,3.5,3.5c1,1.2,1.9,2.4,2.8,3.6c1.7,2.4,3.2,4.9,4.4,7.4c2.4,5,4,10.2,5,15.5c1,5.3,1.3,10.7,0.8,16.2
					c-0.2,2.8-0.7,5.6-1.4,8.5c-0.4,1.4-0.8,2.9-1.4,4.3C1588.4,952.5,1587.8,954,1587,955.5z"/>
			</g>
			<g>
				<line class="st5" x1="1618.6" y1="941.4" x2="1575.3" y2="892.1"/>
				<path class="st7" d="M1618.6,941.4c-1.7-0.3-3.3-0.7-4.8-1.3c-1.5-0.5-2.9-1.1-4.3-1.7c-2.7-1.2-5.3-2.6-7.6-4.2
					c-4.7-3.1-8.8-6.8-12.4-10.9c-3.6-4.1-6.7-8.6-9.2-13.7c-1.3-2.5-2.3-5.2-3.2-8.1c-0.4-1.5-0.8-2.9-1.1-4.5
					c-0.3-1.6-0.5-3.2-0.6-4.9c1.7,0.3,3.3,0.7,4.8,1.2c1.5,0.5,2.9,1.1,4.3,1.7c2.7,1.2,5.3,2.6,7.6,4.2c4.7,3.1,8.8,6.8,12.4,10.9
					c3.6,4.1,6.7,8.7,9.2,13.8c1.3,2.5,2.3,5.2,3.2,8.1c0.4,1.4,0.8,2.9,1.1,4.5C1618.2,938.1,1618.5,939.7,1618.6,941.4z"/>
			</g>
			<g>
				<line class="st5" x1="1638.5" y1="914.1" x2="1575.3" y2="892.1"/>
				<path class="st6" d="M1638.5,914.1c-1.7,0.6-3.3,1-4.9,1.2c-1.6,0.3-3.1,0.5-4.7,0.6c-3,0.2-6,0.3-8.9,0
					c-5.8-0.4-11.2-1.7-16.5-3.5c-5.3-1.8-10.3-4.3-15.1-7.5c-2.4-1.6-4.7-3.5-6.9-5.5c-1.1-1.1-2.2-2.2-3.3-3.4
					c-1.1-1.2-2.1-2.5-3-4c1.7-0.6,3.3-1,4.9-1.3c1.6-0.3,3.1-0.5,4.7-0.6c3-0.3,6-0.3,8.9,0c5.8,0.4,11.2,1.7,16.5,3.5
					c5.3,1.9,10.3,4.3,15.1,7.5c2.4,1.6,4.7,3.5,6.9,5.5c1.1,1.1,2.2,2.2,3.3,3.4C1636.6,911.4,1637.6,912.6,1638.5,914.1z"/>
			</g>
			<g>
				<line class="st5" x1="1641.6" y1="880.9" x2="1575.3" y2="892.1"/>
				<path class="st7" d="M1641.6,880.9c-1.2,1.3-2.4,2.4-3.7,3.4c-1.2,1-2.5,1.9-3.8,2.8c-2.6,1.7-5.2,3.1-7.8,4.3
					c-5.3,2.4-10.7,4-16.2,4.9c-5.5,0.9-11.2,1.2-16.9,0.7c-2.9-0.3-5.8-0.8-8.8-1.5c-1.5-0.4-3-0.8-4.5-1.4c-1.5-0.6-3-1.2-4.6-2
					c1.2-1.3,2.4-2.4,3.7-3.4c1.2-1,2.5-1.9,3.8-2.8c2.6-1.7,5.2-3.1,7.8-4.3c5.3-2.4,10.7-4,16.2-4.9c5.5-0.9,11.2-1.2,16.9-0.7
					c2.9,0.3,5.8,0.8,8.8,1.5c1.5,0.4,3,0.8,4.5,1.4C1638.5,879.5,1640,880.1,1641.6,880.9z"/>
			</g>
			<g>
				<line class="st5" x1="1626.9" y1="850.7" x2="1575.3" y2="892.1"/>
				<path class="st6" d="M1626.9,850.7c-0.4,1.7-0.9,3.3-1.5,4.7c-0.6,1.5-1.2,2.9-1.9,4.2c-1.4,2.7-2.9,5.2-4.6,7.5
					c-3.4,4.6-7.3,8.6-11.5,12c-4.3,3.5-9,6.4-14.2,8.7c-2.6,1.2-5.4,2.1-8.3,2.9c-1.5,0.4-3,0.7-4.6,0.9c-1.6,0.2-3.2,0.4-5,0.4
					c0.4-1.7,0.9-3.3,1.5-4.8c0.6-1.5,1.2-2.9,1.9-4.2c1.4-2.7,2.9-5.2,4.6-7.5c3.4-4.6,7.3-8.6,11.6-12c4.3-3.4,9-6.4,14.2-8.7
					c2.6-1.2,5.4-2.1,8.3-2.9c1.5-0.4,3-0.7,4.5-0.9C1623.5,850.9,1625.1,850.7,1626.9,850.7z"/>
			</g>
			<g>
				<line class="st5" x1="1598.3" y1="831.6" x2="1575.3" y2="892.1"/>
				<path class="st7" d="M1598.3,831.6c0.6,1.7,0.9,3.2,1.2,4.8c0.3,1.5,0.4,3,0.5,4.5c0.2,3,0.2,5.8-0.1,8.6
					c-0.5,5.6-1.8,10.8-3.7,15.9c-1.9,5-4.4,9.9-7.7,14.4c-1.6,2.3-3.5,4.4-5.6,6.5c-1.1,1-2.2,2.1-3.4,3c-1.2,1-2.5,1.9-4,2.8
					c-0.6-1.7-0.9-3.2-1.2-4.8c-0.3-1.5-0.4-3-0.5-4.5c-0.2-3-0.2-5.8,0.1-8.6c0.5-5.6,1.8-10.8,3.8-15.9c1.9-5,4.5-9.8,7.8-14.4
					c1.6-2.3,3.5-4.4,5.6-6.5c1.1-1,2.2-2.1,3.4-3C1595.5,833.4,1596.8,832.5,1598.3,831.6z"/>
			</g>
		</g>
		<ellipse class="st8" cx="1575.3" cy="892.1" rx="13.3" ry="12.7"/>
	</g>
	<g id="Flower_3_">
		<g>
			<g>
				<path class="st9" d="M299.2,534c1.9,1.3,3.5,2.6,5,4c1.5,1.4,2.8,2.8,4,4.2c2.4,2.8,4.4,5.7,6.1,8.7c3.4,5.9,5.5,12.1,6.7,18.4
					c1.2,6.3,1.4,12.9,0.4,19.6c-0.5,3.4-1.4,6.8-2.6,10.3c-0.7,1.8-1.4,3.5-2.3,5.3c-0.9,1.8-1.9,3.6-3.2,5.5c-1.9-1.3-3.5-2.6-5-4
					c-1.5-1.4-2.8-2.8-4-4.2c-2.4-2.8-4.4-5.7-6.1-8.7c-3.4-5.9-5.5-12.1-6.6-18.4c-1.1-6.3-1.4-12.9-0.3-19.6
					c0.5-3.4,1.4-6.8,2.6-10.3c0.7-1.8,1.4-3.5,2.2-5.3C296.9,537.8,297.9,535.9,299.2,534z"/>
			</g>
			<g>
				<path class="st10" d="M261.3,550.9c2.3,0.1,4.4,0.5,6.4,1c2,0.4,3.8,1,5.6,1.6c3.6,1.2,6.8,2.7,9.8,4.5
					c6,3.5,11.1,7.8,15.4,12.7c4.3,4.9,7.9,10.5,10.6,16.9c1.3,3.2,2.4,6.6,3.2,10.3c0.4,1.9,0.7,3.8,0.8,5.8c0.2,2,0.3,4.1,0.1,6.5
					c-2.3-0.1-4.4-0.5-6.4-0.9c-2-0.4-3.8-1-5.6-1.6c-3.6-1.2-6.8-2.7-9.8-4.5c-6-3.5-11.1-7.8-15.4-12.7c-4.3-5-7.9-10.5-10.6-16.9
					c-1.3-3.2-2.4-6.6-3.2-10.3c-0.4-1.9-0.7-3.8-0.9-5.8C261.3,555.4,261.2,553.3,261.3,550.9z"/>
			</g>
			<g>
				<path class="st11" d="M237.3,583.7c2.1-1,4.1-1.7,6.1-2.3c2-0.6,3.9-1,5.8-1.3c3.8-0.7,7.4-0.9,10.9-0.9
					c7.1,0.1,13.7,1.4,20,3.6c6.3,2.2,12.3,5.3,17.9,9.6c2.8,2.1,5.5,4.6,8,7.5c1.3,1.5,2.5,3,3.7,4.7c1.2,1.7,2.3,3.5,3.4,5.6
					c-2.1,1-4.1,1.7-6.1,2.3c-2,0.6-3.9,1-5.8,1.4c-3.8,0.7-7.4,0.9-11,0.9c-7.1-0.1-13.7-1.4-20-3.6c-6.3-2.2-12.3-5.3-17.9-9.7
					c-2.8-2.2-5.5-4.6-8-7.5c-1.3-1.5-2.5-3-3.7-4.7C239.5,587.6,238.4,585.8,237.3,583.7z"/>
			</g>
			<g>
				<path class="st9" d="M233.7,623.5c1.4-1.9,2.8-3.5,4.3-4.9c1.5-1.5,2.9-2.7,4.4-4c3-2.4,6.1-4.4,9.2-6
					c6.3-3.3,12.7-5.4,19.4-6.5c6.6-1.1,13.4-1.3,20.4-0.2c3.5,0.5,7.1,1.4,10.7,2.7c1.8,0.7,3.6,1.4,5.5,2.3
					c1.9,0.9,3.7,1.9,5.7,3.3c-1.4,1.9-2.8,3.5-4.3,5c-1.5,1.5-2.9,2.8-4.4,4c-3,2.4-6.1,4.4-9.2,6.1c-6.3,3.3-12.7,5.4-19.4,6.5
					c-6.6,1.1-13.4,1.3-20.4,0.2c-3.5-0.5-7.1-1.4-10.7-2.7c-1.8-0.7-3.6-1.4-5.5-2.3C237.5,625.9,235.6,624.9,233.7,623.5z"/>
			</g>
			<g>
				<path class="st10" d="M251.4,659.8c0.2-2.3,0.7-4.4,1.3-6.3c0.5-2,1.2-3.8,1.9-5.6c1.4-3.5,3.1-6.7,5-9.7
					c3.8-5.9,8.3-10.8,13.5-14.9c5.2-4.1,10.9-7.5,17.5-9.9c3.3-1.2,6.8-2.1,10.5-2.7c1.9-0.3,3.8-0.5,5.9-0.6
					c2-0.1,4.1-0.1,6.5,0.2c-0.2,2.3-0.7,4.4-1.3,6.4c-0.5,2-1.2,3.8-1.9,5.6c-1.4,3.5-3.1,6.7-5,9.7c-3.8,5.9-8.3,10.8-13.5,14.9
					c-5.2,4.1-10.9,7.5-17.5,9.9c-3.3,1.2-6.8,2.1-10.5,2.8c-1.9,0.3-3.8,0.5-5.9,0.6C255.8,660,253.7,660.1,251.4,659.8z"/>
			</g>
			<g>
				<path class="st11" d="M285.6,682.7c-1-2.1-1.6-4.1-2.2-6c-0.6-1.9-0.9-3.8-1.2-5.7c-0.6-3.7-0.8-7.2-0.7-10.7
					c0.2-6.8,1.6-13.2,3.9-19.3c2.3-6.1,5.5-11.8,9.9-17c2.2-2.6,4.7-5.1,7.6-7.5c1.5-1.2,3-2.3,4.7-3.4c1.7-1.1,3.5-2.1,5.6-3
					c1,2.1,1.6,4.1,2.2,6c0.6,1.9,0.9,3.8,1.3,5.7c0.6,3.7,0.8,7.2,0.7,10.7c-0.2,6.8-1.6,13.2-3.9,19.3c-2.3,6-5.5,11.7-9.9,17
					c-2.2,2.6-4.7,5.1-7.6,7.5c-1.5,1.2-3,2.3-4.7,3.4C289.6,680.8,287.8,681.8,285.6,682.7z"/>
			</g>
			<g>
				<path class="st9" d="M327.3,686.2c-1.9-1.3-3.5-2.6-5-4c-1.5-1.4-2.8-2.8-4-4.2c-2.4-2.8-4.4-5.7-6.1-8.7
					c-3.4-5.9-5.5-12.1-6.7-18.4c-1.2-6.3-1.4-12.9-0.4-19.6c0.5-3.4,1.4-6.8,2.6-10.3c0.7-1.8,1.4-3.5,2.3-5.3
					c0.9-1.8,1.9-3.6,3.2-5.5c1.9,1.3,3.5,2.6,5,4c1.5,1.4,2.8,2.8,4,4.2c2.4,2.8,4.4,5.7,6.1,8.7c3.4,5.9,5.5,12.1,6.6,18.4
					c1.1,6.3,1.4,12.9,0.3,19.6c-0.5,3.4-1.4,6.8-2.6,10.3c-0.7,1.8-1.4,3.5-2.2,5.3C329.6,682.5,328.6,684.3,327.3,686.2z"/>
			</g>
			<g>
				<path class="st10" d="M365.2,669.3c-2.3-0.1-4.4-0.5-6.4-1c-2-0.4-3.8-1-5.6-1.6c-3.6-1.2-6.8-2.7-9.8-4.5
					c-6-3.5-11.1-7.8-15.4-12.7c-4.3-4.9-7.9-10.5-10.6-16.9c-1.3-3.2-2.4-6.6-3.2-10.3c-0.4-1.9-0.7-3.8-0.8-5.8
					c-0.2-2-0.3-4.1-0.1-6.5c2.3,0.1,4.4,0.5,6.4,0.9c2,0.4,3.8,1,5.6,1.6c3.6,1.2,6.8,2.7,9.8,4.5c6,3.5,11.1,7.8,15.4,12.7
					c4.3,5,7.9,10.5,10.6,16.9c1.3,3.2,2.4,6.6,3.2,10.3c0.4,1.9,0.7,3.8,0.9,5.8C365.3,664.9,365.4,667,365.2,669.3z"/>
			</g>
			<g>
				<path class="st11" d="M389.2,636.6c-2.1,1-4.1,1.7-6.1,2.3c-2,0.6-3.9,1-5.8,1.3c-3.8,0.7-7.4,0.9-10.9,0.9
					c-7.1-0.1-13.7-1.4-20-3.6c-6.3-2.2-12.3-5.3-17.9-9.6c-2.8-2.1-5.5-4.6-8-7.5c-1.3-1.5-2.5-3-3.7-4.7c-1.2-1.7-2.3-3.5-3.4-5.6
					c2.1-1,4.1-1.7,6.1-2.3c2-0.6,3.9-1,5.8-1.4c3.8-0.7,7.4-0.9,11-0.9c7.1,0.1,13.7,1.4,20,3.6c6.3,2.2,12.3,5.3,17.9,9.7
					c2.8,2.2,5.5,4.6,8,7.5c1.3,1.5,2.5,3,3.7,4.7C387,632.6,388.2,634.4,389.2,636.6z"/>
			</g>
			<g>
				<path class="st9" d="M392.8,596.7c-1.4,1.9-2.8,3.5-4.3,4.9c-1.5,1.5-2.9,2.7-4.4,4c-3,2.4-6.1,4.4-9.2,6
					c-6.3,3.3-12.7,5.4-19.4,6.5c-6.6,1.1-13.4,1.3-20.4,0.2c-3.5-0.5-7.1-1.4-10.7-2.7c-1.8-0.7-3.6-1.4-5.5-2.3
					c-1.9-0.9-3.7-1.9-5.7-3.3c1.4-1.9,2.8-3.5,4.3-5c1.5-1.5,2.9-2.8,4.4-4c3-2.4,6.1-4.4,9.2-6.1c6.3-3.3,12.7-5.4,19.4-6.5
					c6.6-1.1,13.4-1.3,20.4-0.2c3.5,0.5,7.1,1.4,10.7,2.7c1.8,0.7,3.6,1.4,5.5,2.3C389,594.3,390.9,595.3,392.8,596.7z"/>
			</g>
			<g>
				<path class="st10" d="M375.2,560.5c-0.2,2.3-0.7,4.4-1.3,6.3c-0.5,2-1.2,3.8-1.9,5.6c-1.4,3.5-3.1,6.7-5,9.7
					c-3.8,5.9-8.3,10.8-13.5,14.9c-5.2,4.1-10.9,7.5-17.5,9.9c-3.3,1.2-6.8,2.1-10.5,2.7c-1.9,0.3-3.8,0.5-5.9,0.6
					c-2,0.1-4.1,0.1-6.5-0.2c0.2-2.3,0.7-4.4,1.3-6.4c0.5-2,1.2-3.8,1.9-5.6c1.4-3.5,3.1-6.7,5-9.7c3.8-5.9,8.3-10.8,13.5-14.9
					c5.2-4.1,10.9-7.5,17.5-9.9c3.3-1.2,6.8-2.1,10.5-2.8c1.9-0.3,3.8-0.5,5.9-0.6C370.7,560.2,372.8,560.2,375.2,560.5z"/>
			</g>
			<g>
				<path class="st11" d="M340.9,537.5c1,2.1,1.6,4.1,2.2,6c0.6,1.9,0.9,3.8,1.2,5.7c0.6,3.7,0.8,7.2,0.7,10.7
					c-0.2,6.8-1.6,13.2-3.9,19.3c-2.3,6.1-5.5,11.8-9.9,17c-2.2,2.6-4.7,5.1-7.6,7.5c-1.5,1.2-3,2.3-4.7,3.4c-1.7,1.1-3.5,2.1-5.6,3
					c-1-2.1-1.6-4.1-2.2-6c-0.6-1.9-0.9-3.8-1.3-5.7c-0.6-3.7-0.8-7.2-0.7-10.7c0.2-6.8,1.6-13.2,3.9-19.3c2.3-6,5.5-11.7,9.9-17
					c2.2-2.6,4.7-5.1,7.6-7.5c1.5-1.2,3-2.3,4.7-3.4C337,539.5,338.8,538.4,340.9,537.5z"/>
			</g>
		</g>
		<ellipse class="st2" cx="313.4" cy="610.1" rx="16" ry="15.3"/>
	</g>
</g>
<g id="Pots">
	<g>
		<g>
			<path class="st12" d="M154.2,1081.6c-7.2-4.2-14.1-9-20.6-14.3c-36.7-30.1-57.7-74.5-57.7-121.9c0-47,20.7-91.2,56.9-121.2h201.2
				c36.2,30,56.9,74.2,56.9,121.2c0,47.4-21,91.8-57.7,121.9c-6.5,5.3-13.4,10.1-20.6,14.3H154.2z"/>
			<g>
				<path class="st12" d="M333.8,824.4c36.1,30,56.7,74,56.7,120.9c0,47.3-21,91.6-57.6,121.6c-6.5,5.3-13.4,10.1-20.5,14.3H154.3
					c-7.2-4.2-14.1-9-20.5-14.3c-36.6-30-57.6-74.3-57.6-121.6c0-46.9,20.7-90.9,56.7-120.9H333.8 M334,823.8H132.7
					c-34.9,28.9-57.1,72.6-57.1,121.5c0,49.2,22.5,93.2,57.8,122.1c6.5,5.3,13.4,10.2,20.7,14.4h158.4c7.3-4.2,14.2-9.1,20.7-14.4
					c35.3-28.9,57.8-72.9,57.8-122.1C391.1,896.5,368.9,852.8,334,823.8L334,823.8z"/>
			</g>
		</g>
		<g class="st13">
			<path d="M259.7,1081.6V824.1h74.2c36.2,30,56.9,74.2,56.9,121.2c0,47.4-21,91.8-57.7,121.9c-6.5,5.3-13.4,10.1-20.6,14.3H259.7z"
				/>
			<path d="M333.8,824.4c36.1,30,56.7,74,56.7,120.9c0,47.3-21,91.6-57.6,121.6c-6.5,5.3-13.4,10.1-20.5,14.3h-52.4V824.4H333.8
				 M334,823.8h-74.6v258h53.1c7.3-4.2,14.2-9.1,20.7-14.4c35.3-28.9,57.8-72.9,57.8-122.1C391.1,896.5,368.9,852.8,334,823.8
				L334,823.8z"/>
		</g>
	</g>
	<g id="Pot_6_">
		<g>
			<path class="st12" d="M1702,1081.1c-2.8-3-5.4-6.4-7.9-10.2c-14.5-22-22.8-54.5-22.8-89.2c0-34.2,8.1-66.4,22.3-88.4h79.2
				c14.2,22,22.3,54.2,22.3,88.4c0,34.7-8.3,67.2-22.9,89.2c-2.5,3.8-5.1,7.2-7.9,10.2H1702z"/>
			<g>
				<path class="st12" d="M1772.3,894c14,21.9,22,53.8,22,87.7c0,34.5-8.3,66.9-22.7,88.8c-2.4,3.6-5,6.9-7.6,9.9h-61.6
					c-2.7-2.9-5.2-6.2-7.6-9.9c-14.4-21.9-22.7-54.2-22.7-88.8c0-33.9,8-65.8,22-87.7H1772.3 M1773.1,892.5h-80
					c-13.9,21.2-22.7,53.3-22.7,89.2c0,36.1,8.9,68.3,23,89.6c2.6,3.9,5.3,7.4,8.2,10.6h62.9c2.9-3.1,5.7-6.6,8.2-10.6
					c14-21.2,23-53.5,23-89.6C1795.8,945.8,1786.9,913.8,1773.1,892.5L1773.1,892.5z"/>
			</g>
		</g>
		<path class="st14" d="M1794.8,981.7c0,36.1-9,68.3-23,89.6c-2.6,3.9-4.3,7.4-7.2,10.6h-22.7V893.5h31.2
			C1786.9,914.8,1794.8,945.8,1794.8,981.7z"/>
	</g>
	<g id="Pot_2_">
		<g>
			<path class="st12" d="M1538,1081.6c-3.3,0-6.3-1.1-7.8-2.9c-0.7-0.8-1-1.8-0.8-2.7l8.8-47.5c0.5-2.6,4.2-4.5,8.6-4.5h56.7
				c4.4,0,8.1,2,8.6,4.5l8.3,47.5c0.2,0.9-0.1,1.8-0.8,2.7c-1.5,1.7-4.4,2.8-7.7,2.8H1538z"/>
			<path class="st12" d="M1603.6,1024.5c4.2,0,7.8,1.8,8.2,4.2l8.3,47.5c0.1,0.8-0.1,1.6-0.7,2.4c-1.4,1.6-4.3,2.7-7.4,2.7H1538
				c-3.2,0-6.1-1.1-7.5-2.7c-0.6-0.8-0.9-1.6-0.7-2.4l8.8-47.5c0.4-2.3,4-4.2,8.2-4.2H1603.6 M1603.6,1023.7h-56.7
				c-4.6,0-8.4,2.1-8.9,4.8l-8.8,47.5c-0.6,3.2,3.6,6,8.9,6h73.9c5.3,0,9.5-2.8,8.9-6l-8.3-47.5
				C1612,1025.8,1608.2,1023.7,1603.6,1023.7L1603.6,1023.7z"/>
		</g>
		<g class="st13">
			<path class="st15" d="M1586.4,1081.6v-57.5h17.2c4.4,0,8.1,2,8.6,4.5l8.3,47.5c0.2,0.9-0.1,1.8-0.8,2.7c-1.5,1.7-4.4,2.8-7.7,2.8
				H1586.4z"/>
			<path class="st15" d="M1603.6,1024.5c4.2,0,7.8,1.8,8.2,4.2l8.3,47.5c0.1,0.8-0.1,1.6-0.7,2.4c-1.4,1.6-4.3,2.7-7.4,2.7h-25.1
				v-56.8H1603.6 M1603.6,1023.7H1586v58.3h25.9c5.3,0,9.5-2.8,8.9-6l-8.3-47.5C1612,1025.8,1608.2,1023.7,1603.6,1023.7
				L1603.6,1023.7z"/>
		</g>
	</g>
</g>
</svg>
