<?xml version="1.0" encoding="utf-8"?>
<!-- Generator: Adobe Illustrator 21.1.0, SVG Export Plug-In . SVG Version: 6.00 Build 0)  -->
<svg version="1.1" xmlns="http://www.w3.org/2000/svg" xmlns:xlink="http://www.w3.org/1999/xlink" x="0px" y="0px"
	 viewBox="0 0 1921.6999512 1082.6999512" style="enable-background:new 0 0 1921.6999512 1082.6999512;" xml:space="preserve">
<style type="text/css">
	.Drop_x0020_Shadow{fill:none;}
	.Outer_x0020_Glow_x0020_5_x0020_pt{fill:none;}
	.Blue_x0020_Neon{fill:none;stroke:#8AACDA;stroke-width:7;stroke-linecap:round;stroke-linejoin:round;}
	.Chrome_x0020_Highlight{fill:url(#SVGID_1_);stroke:#FFFFFF;stroke-width:0.362861;stroke-miterlimit:1;}
	.Jive_GS{fill:#FFDD00;}
	.Alyssa_GS{fill:#A6D0E4;}
	.st0{opacity:0.7;fill:#FFFFFF;stroke:#FFFFFF;stroke-width:0.7;stroke-linecap:round;stroke-linejoin:round;stroke-miterlimit:10;}
	.st1{fill:#FFFFCC;stroke:#FFFFCC;stroke-width:0.7;stroke-linecap:round;stroke-linejoin:round;stroke-miterlimit:10;}
	.st2{fill:none;stroke:#70B80E;stroke-linecap:round;stroke-linejoin:round;stroke-miterlimit:10;}
	.st3{fill:#E4F1FE;}
	.st4{fill:#7F6628;stroke:#EFEB6C;stroke-width:0.24;stroke-linecap:round;stroke-linejoin:round;stroke-miterlimit:10;}
	.st5{fill:#4F3F1C;}
	.st6{fill:#EFEB6C;}
	.st7{fill:#F2F1EB;}
	.st8{fill:#F9F9F9;}
	.st9{fill:#4F3F1C;stroke:#EFEB6C;stroke-width:3;stroke-linecap:round;stroke-linejoin:round;stroke-miterlimit:10;}
	.st10{fill:#B24987;}
	.st11{fill:#C42D64;}
	.st12{fill:#F9D373;stroke:#635632;stroke-width:0.2;stroke-linecap:round;stroke-linejoin:round;stroke-miterlimit:10;}
	.st13{fill:#F2E94E;}
	.st14{fill:#FFE97D;}
	.st15{fill:#F9D026;}
	.st16{fill:#D39C53;}
	.st17{opacity:0.1;}
	.st18{opacity:0.1;fill:#050505;stroke:#050505;stroke-width:1.5;stroke-miterlimit:10;}
	.st19{fill:#110F0E;}
</style>
<linearGradient id="SVGID_1_" gradientUnits="userSpaceOnUse" x1="0.85" y1="1.85" x2="0.85" y2="0.85">
	<stop  offset="0" style="stop-color:#656565"/>
	<stop  offset="0.617977" style="stop-color:#1B1B1B"/>
	<stop  offset="0.629213" style="stop-color:#545454"/>
	<stop  offset="0.983146" style="stop-color:#3E3E3E"/>
</linearGradient>
<g id="Wallpaper">
	<rect x="0.35" y="0.35" class="st0" width="1921" height="1082"/>
	<rect x="1.35" y="721.3499756" class="st1" width="1920" height="360"/>
</g>
<g id="Stems">
	<path class="st2" d="M301.3500061,898.3499756c-7.2320251-43.0736694-12.4649353-96.6478882-10-158
		c1.9574585-48.7213135,8.3462219-91.8127441,16-128"/>
	<path class="st2" d="M179.8500061,881.8499756c8.370636-60.1975098,13.317688-136.9177246,5-225
		c-6.0884705-64.4754639-17.9569702-120.9821167-31-167.9999695"/>
	<path class="st2" d="M1562.8499756,1050.8499756c-1.1553955-25.9034424-1.1239014-54.744812,1-86
		c1.8725586-27.5560303,5.0993652-52.9838867,9-76"/>
	<path class="st2" d="M1724.3499756,1005.3499756c-4.3829346-48.3532104-6.3588867-104.2122803-3-166
		c2.8950195-53.2545166,9.2432861-101.5380249,17-144"/>
	<path class="st2" d="M1430.3499756,668.3499756"/>
</g>
<g id="Flowers">
	<g id="Flower">
		<g>
			<g>
				<path class="st3" d="M157.9372864,409.7793884l-3.6694336,79.349884l-31.7335358-72.8206787
					c-4.0774689-9.3568115,0.2022705-20.247406,9.5590668-24.3248901c9.356781-4.0774536,20.2473907,0.2022705,24.3248596,9.5590515
					C157.5757904,404.1990356,158.0517426,407.0668335,157.9372864,409.7793884z"/>
			</g>
			<g>
				<path class="st3" d="M115.8545532,418.0721436l38.4132996,71.0571289l-65.4706573-47.3105774
					c-8.2653656-5.9727478-10.123909-17.5149841-4.1511688-25.780365
					c5.9727402-8.2653503,17.5149994-10.1239014,25.780365-4.1511536
					C112.7314835,413.552887,114.576973,415.7319641,115.8545532,418.0721436z"/>
			</g>
			<g>
				<path class="st3" d="M84.249588,445.7050171l70.0182648,43.4242554l-81.8499146-9.4240723
					c-10.1203499-1.1652222-17.3799057-10.3140259-16.2146645-20.4343567
					c1.1652374-10.1203613,10.3140144-17.3799133,20.4343681-16.2146912
					C79.4013824,443.3743896,82.0258636,444.3388672,84.249588,445.7050171z"/>
			</g>
			<g>
				<path class="st3" d="M71.6958389,484.7955933l82.5720139,4.3336792l-76.5874252,31.1654053
					c-9.4342041,3.8389893-20.1942825-0.6967773-24.0333099-10.1309509
					c-3.8390236-9.4342041,0.6967659-20.1943054,10.13097-24.0333252
					C66.3446884,485.0859985,69.0990219,484.6703186,71.6958389,484.7955933z"/>
			</g>
			<g>
				<path class="st3" d="M81.1020203,524.7501831l73.1658325-35.6209106l-50.6382446,63.7012939
					c-6.3432159,7.9795532-17.9541321,9.3060913-25.9337006,2.9628906
					c-7.9795761-6.3432617-9.3060989-17.9541626-2.962883-25.9337158
					C76.4881973,527.6517944,78.7287521,525.9178467,81.1020203,524.7501831z"/>
			</g>
			<g>
				<path class="st3" d="M109.8078384,555.3249512l44.4600143-66.1956787l-10.8154755,79.0036621
					c-1.384079,10.1102295-10.7020264,17.1842041-20.8122482,15.8001099
					c-10.1102066-1.3840942-17.1841431-10.7020264-15.8000717-20.8122559
					C107.2313766,560.2623291,108.3095016,557.5754395,109.8078384,555.3249512z"/>
			</g>
			<g>
				<path class="st3" d="M150.5984192,568.479126l3.6694336-79.3498535l31.7335358,72.8206177
					c4.0774689,9.3568115-0.2022705,20.2474365-9.5590515,24.3248901c-9.3567963,4.0774536-20.247406-0.2022705-24.3248749-9.559082
					C150.9599152,574.0594482,150.483963,571.1916504,150.5984192,568.479126z"/>
			</g>
			<g>
				<path class="st3" d="M192.6811523,560.1863403l-38.4132996-71.0570679l65.4706573,47.3104858
					c8.2653656,5.9727783,10.1239014,17.5150146,4.1511688,25.7803955
					c-5.9727478,8.2653809-17.5149994,10.1239014-25.780365,4.1511841
					C195.8042145,564.7056274,193.958725,562.5265503,192.6811523,560.1863403z"/>
			</g>
			<g>
				<path class="st3" d="M224.2861176,532.5534668l-70.0182648-43.4241943l81.8499146,9.4240417
					c10.1203461,1.1652222,17.3798981,10.3140259,16.2146606,20.4343567
					c-1.1652374,10.1203613-10.3140106,17.3798828-20.4343719,16.2146606
					C229.1343231,534.8840942,226.5098419,533.9196167,224.2861176,532.5534668z"/>
			</g>
			<g>
				<path class="st3" d="M236.839859,493.4629211l-82.5720062-4.3336487l76.5874329-31.1654358
					c9.4341888-3.8390198,20.1942749,0.6967468,24.0332947,10.1309509s-0.6967621,20.1943054-10.1309662,24.0333252
					C242.1910095,493.1725159,239.436676,493.5881958,236.839859,493.4629211z"/>
			</g>
			<g>
				<path class="st3" d="M227.4336853,453.5083008l-73.1658325,35.6209717l50.6382446-63.701355
					c6.3432159-7.9795532,17.9541321-9.3060913,25.9337006-2.9628601
					c7.9795685,6.3432007,9.3060913,17.9541321,2.9628754,25.9336853
					C232.0475006,450.60672,229.8069458,452.3406677,227.4336853,453.5083008z"/>
			</g>
			<g>
				<path class="st3" d="M198.7278595,422.9335327l-44.4600067,66.1957397l10.8154755-79.0037537
					c1.384079-10.110199,10.7020264-17.1841431,20.8122406-15.8000793s17.1841431,10.7020264,15.8000793,20.8122559
					C201.3043213,417.9961548,200.2261963,420.6830139,198.7278595,422.9335327z"/>
			</g>
		</g>
		<ellipse class="st4" cx="154.3661041" cy="489.1372375" rx="15.9925613" ry="15.2902985"/>
	</g>
	<g id="Flower_2_">
		<g>
			<g>
				<line class="st5" x1="1679.164917" y1="662.2161255" x2="1741.2678223" y2="702.1292725"/>
				<path class="st6" d="M1679.164917,662.2160645c6.7011719,0.9517822,12.6351318,3.0974731,18.3885498,5.5238647
					c5.7209473,2.4770508,11.1291504,5.4406128,16.3117676,8.755188
					c5.1763916,3.3243408,10.1181641,7.0137329,14.7501221,11.1851196
					c4.5983887,4.2236938,9.0123291,8.734436,12.6524658,14.4489746
					c-6.7103271-0.9376221-12.6468506-3.0791016-18.3990479-5.5075684
					c-5.7185059-2.480835-11.1271973-5.4436035-16.3012695-8.7714844
					c-5.1679688-3.3375244-10.1101074-7.0261841-14.7397461-11.2012939
					C1687.2307129,672.4230347,1682.814209,667.9165649,1679.164917,662.2160645z"/>
			</g>
			<g>
				<line class="st5" x1="1673.0187988" y1="734.7836304" x2="1741.2678223" y2="702.1292725"/>
				<path class="st6" d="M1673.0187988,734.7835693c4.4692383-5.2672119,9.5510254-9.2541504,14.7768555-12.9401245
					c5.2518311-3.6315918,10.7531738-6.7415771,16.4348145-9.4750366
					c5.6865234-2.7230835,11.5603027-5.0547485,17.6813965-6.8695068c6.1479492-1.758728,12.4431152-3.2095947,19.355957-3.3696899
					c-4.4620361,5.2823486-9.541626,9.2738647-14.7685547,12.9575195
					c-5.2537842,3.6276245-10.7547607,6.7383423-16.4431152,9.4577026
					c-5.6933594,2.7088623-11.5667725,5.0413208-17.6898193,6.8521118
					C1686.2174072,733.1530151,1679.9243164,734.6083984,1673.0187988,734.7835693z"/>
			</g>
			<g>
				<line class="st5" x1="1735.1217041" y1="774.6967773" x2="1741.2678223" y2="702.1292725"/>
				<path class="st6" d="M1735.1217041,774.6967163c-2.300293-6.2854614-3.1862793-12.4511719-3.7397461-18.5887451
					c-0.4935303-6.1324463-0.4107666-12.2161255,0.0878906-18.2645874
					c0.5101318-6.0474243,1.4526367-12.0582886,2.9660645-18.020813c1.5753174-5.9572144,3.4906006-11.8856812,6.8319092-17.6933594
					c2.3168945,6.2869263,3.2078857,12.453064,3.7589111,18.5903931c0.4890137,6.1320801,0.4071045,12.2158203-0.1070557,18.2629395
					c-0.5257568,6.0461426-1.4674072,12.0570679-2.9852295,18.019165
					C1740.3565674,762.9587402,1738.446167,768.8876343,1735.1217041,774.6967163z"/>
			</g>
			<g>
				<line class="st5" x1="1803.3707275" y1="742.0423584" x2="1741.2678223" y2="702.1292725"/>
				<path class="st6" d="M1803.3707275,742.0423584c-6.7011719-0.9517212-12.6351318-3.0974121-18.3885498-5.5238037
					c-5.7209473-2.4770508-11.1291504-5.4406128-16.3117676-8.755249
					c-5.1763916-3.3243408-10.1181641-7.0137329-14.7501221-11.1851196
					c-4.5983887-4.2236938-9.012207-8.734436-12.6524658-14.4489746c6.7103271,0.9376831,12.6468506,3.0791016,18.3990479,5.5076294
					c5.7185059,2.4807739,11.1271973,5.4436035,16.3012695,8.7714233
					c5.1679688,3.3375854,10.1101074,7.0261841,14.7397461,11.201355
					C1795.3049316,731.8353882,1799.7214355,736.3419189,1803.3707275,742.0423584z"/>
			</g>
			<g>
				<line class="st5" x1="1809.5169678" y1="669.4749146" x2="1741.2678223" y2="702.1292725"/>
				<path class="st6" d="M1809.5168457,669.4748535c-4.4692383,5.2672119-9.5510254,9.2542114-14.7768555,12.9401245
					c-5.2518311,3.6316528-10.7531738,6.7415771-16.4348145,9.4750977
					c-5.6865234,2.7230835-11.5603027,5.0546875-17.6813965,6.8695068
					c-6.1479492,1.758667-12.4431152,3.2095947-19.355957,3.3696289c4.4620361-5.2823486,9.541626-9.2738037,14.7685547-12.9575195
					c5.2537842-3.6276245,10.7547607-6.7383423,16.4431152-9.4576416
					c5.6933594-2.7089233,11.5667725-5.0413818,17.6898193-6.8521118
					C1796.3182373,671.1054688,1802.6113281,669.6500244,1809.5168457,669.4748535z"/>
			</g>
			<g>
				<line class="st5" x1="1747.4140625" y1="629.5617676" x2="1741.2678223" y2="702.1292725"/>
				<path class="st6" d="M1747.4139404,629.5617065c2.300293,6.2855225,3.1862793,12.4512329,3.7397461,18.5887451
					c0.4935303,6.1325073,0.4107666,12.2161255-0.0878906,18.2645874
					c-0.5101318,6.0474854-1.4525146,12.0583496-2.9659424,18.020813
					c-1.5754395,5.9572754-3.4907227,11.8856812-6.8320312,17.6933594
					c-2.3168945-6.2868652-3.2078857-12.4530029-3.7589111-18.590332
					c-0.4890137-6.1321411-0.4071045-12.2158813,0.1070557-18.2630005
					c0.5257568-6.0461426,1.4674072-12.0570068,2.9852295-18.019165
					C1742.1790771,641.2996826,1744.0894775,635.3708496,1747.4139404,629.5617065z"/>
			</g>
		</g>
		<g>
			<g>
				<line class="st5" x1="1667.5285645" y1="698.6149292" x2="1741.2678223" y2="702.1292725"/>
				<path class="st6" d="M1667.5285645,698.6148682c6.2792969-2.5263672,12.4910889-3.6350708,18.6868896-4.4105225
					c6.1929932-0.715271,12.3583984-0.8528442,18.5040283-0.5736084c6.1450195,0.2907715,12.2694092,1.0150146,18.3665771,2.3115234
					c6.0941162,1.3586426,12.1719971,3.0581055,18.1817627,6.1869507
					c-6.2801514,2.5431519-12.4920654,3.6568604-18.6877441,4.4298096
					c-6.1928711,0.7108154-12.3582764,0.8493042-18.5031738,0.5543823
					c-6.1442871-0.3065186-12.2686768-1.0298462-18.3656006-2.3308105
					C1679.6173096,703.4214478,1673.5391846,701.7269897,1667.5285645,698.6148682z"/>
			</g>
			<g>
				<line class="st5" x1="1698.489624" y1="764.5333252" x2="1741.2678223" y2="702.1292725"/>
				<path class="st6" d="M1698.489624,764.5332642c1.2368164-6.7961426,3.6442871-12.789856,6.3270264-18.5949097
					c2.7324219-5.7709961,5.9417725-11.2150269,9.4954834-16.4230347
					c3.5631104-5.2015381,7.4841309-10.1577148,11.8778076-14.789917
					c4.4448242-4.5970459,9.1712646-9.0011597,15.0778809-12.5961914
					c-1.2230225,6.8056641-3.6264648,12.8021851-6.3111572,18.605835
					c-2.736084,5.7684937-5.9448242,11.2130127-9.5113525,16.4121704c-3.5760498,5.192627-7.49646,10.149292-11.8936768,14.7789307
					C1709.1046143,756.5217896,1704.3824463,760.928772,1698.489624,764.5332642z"/>
			</g>
			<g>
				<line class="st5" x1="1772.2288818" y1="768.0476074" x2="1741.2678223" y2="702.1292725"/>
				<path class="st6" d="M1772.2288818,768.0476074c-5.1347656-4.2932739-8.9849854-9.1899414-12.5330811-14.2285156
					c-3.4936523-5.0640869-6.4637451-10.3740845-9.0561523-15.8615112
					c-2.5820312-5.4923096-4.7712402-11.1690674-6.4417725-17.0894775
					c-1.6143799-5.9467773-2.9197998-12.0386353-2.9300537-18.7388916
					c5.1499023,4.2861938,9.0046387,9.1807251,12.5505371,14.2203369c3.489502,5.065979,6.4604492,10.3756104,9.0386963,15.8696899
					c2.567749,5.4989624,4.7578125,11.175415,6.4243164,17.0976562
					C1770.8934326,755.2647705,1772.2034912,761.3544922,1772.2288818,768.0476074z"/>
			</g>
			<g>
				<line class="st5" x1="1815.0070801" y1="705.6435547" x2="1741.2678223" y2="702.1292725"/>
				<path class="st6" d="M1815.0070801,705.6435547c-6.2792969,2.5263672-12.4910889,3.6351318-18.6868896,4.4105225
					c-6.1929932,0.715271-12.3583984,0.8529053-18.5040283,0.5736084
					c-6.1450195-0.2907715-12.2694092-1.0149536-18.3664551-2.3115234
					c-6.0942383-1.3586426-12.1721191-3.0581055-18.1818848-6.1869507
					c6.2801514-2.5430908,12.4920654-3.6568604,18.6878662-4.4297485c6.192749-0.7108765,12.3581543-0.8493042,18.5030518-0.5543823
					c6.1442871,0.3064575,12.2686768,1.0297852,18.3656006,2.3308105
					C1802.918335,700.8369751,1808.99646,702.5314331,1815.0070801,705.6435547z"/>
			</g>
			<g>
				<line class="st5" x1="1784.0461426" y1="639.7252197" x2="1741.2678223" y2="702.1292725"/>
				<path class="st6" d="M1784.0460205,639.7251587c-1.2368164,6.7962036-3.6442871,12.789917-6.3270264,18.5949707
					c-2.7324219,5.7709961-5.9417725,11.2149658-9.4954834,16.4230347
					c-3.5631104,5.2014771-7.4841309,10.1576538-11.8778076,14.789856
					c-4.4448242,4.5970459-9.1712646,9.0011597-15.0778809,12.5961914
					c1.2230225-6.8056641,3.6264648-12.8021851,6.3111572-18.605835c2.736084-5.7684326,5.9448242-11.2129517,9.5113525-16.4121094
					c3.5760498-5.192627,7.49646-10.149292,11.8936768-14.7789917
					C1773.4310303,647.7366333,1778.1531982,643.3296509,1784.0460205,639.7251587z"/>
			</g>
			<g>
				<line class="st5" x1="1710.3068848" y1="636.2108765" x2="1741.2678223" y2="702.1292725"/>
				<path class="st6" d="M1710.3067627,636.2108765c5.1347656,4.2932739,8.9849854,9.1899414,12.5330811,14.2284546
					c3.4936523,5.0641479,6.4637451,10.3741455,9.0561523,15.8615112
					c2.5820312,5.4923096,4.7712402,11.1691284,6.4417725,17.0894775
					c1.6143799,5.9468384,2.9197998,12.0386963,2.9300537,18.7388916
					c-5.1499023-4.2861328-9.0046387-9.1806641-12.5505371-14.2202759c-3.489502-5.06604-6.4604492-10.3756104-9.0386963-15.8696899
					c-2.567749-5.4990234-4.7576904-11.175415-6.4243164-17.0977173
					C1711.6422119,648.9936523,1710.3321533,642.9039307,1710.3067627,636.2108765z"/>
			</g>
		</g>
		<g id="Flower_1_">
			<g>
				<g>
					<line class="st7" x1="1727.2358398" y1="626.0439453" x2="1741.2678223" y2="702.1292725"/>
					<path class="st7" d="M1727.2357178,626.0439453c1.5488281,1.3533936,2.8232422,2.7573853,4.012085,4.177124
						c1.2027588,1.4172363,2.2567139,2.8618774,3.2716064,4.3137207c1.9925537,2.9105835,3.6728516,5.8787231,5.0960693,8.8942871
						c2.8603516,6.0286255,4.751709,12.2359009,5.9438477,18.5720825
						c1.1728516,6.3398438,1.6186523,12.8137207,1.1044922,19.4645996
						c-0.2515869,3.3244629-0.7666016,6.6975098-1.592041,10.1277466c-0.4345703,1.7192383-0.9060059,3.4451904-1.5285645,5.1989746
						c-0.6079102,1.7511597-1.3034668,3.5184937-2.2753906,5.336731c-1.5565186-1.3519287-2.8369141-2.7548218-4.0294189-4.1739502
						c-1.2071533-1.4163818-2.2633057-2.8605957-3.2825928-4.3116455c-1.994751-2.9101562-3.6790771-5.8775635-5.0999756-8.8936157
						c-2.8529053-6.0299072-4.7457275-12.2369385-5.9116211-18.5780029
						c-1.1464844-6.3446655-1.59375-12.8182373-1.0721436-19.4705811c0.2539062-3.3248291,0.7647705-6.6971436,1.5881348-10.1270142
						c0.4301758-1.7183838,0.8994141-3.4439087,1.5174561-5.1969604
						C1725.5819092,629.6270142,1726.2717285,627.8607788,1727.2357178,626.0439453z"/>
				</g>
				<g>
					<line class="st7" x1="1689.3259277" y1="642.9454346" x2="1741.2678223" y2="702.1292725"/>
					<path class="st8" d="M1689.3258057,642.9453735c2.0423584,0.3902588,3.8751221,0.9645386,5.6424561,1.5961304
						c1.7779541,0.6223755,3.4420166,1.3445435,5.076416,2.0928345c3.2403564,1.5216675,6.2419434,3.2527466,9.0469971,5.156311
						c5.6208496,3.7977295,10.5012207,8.2454224,14.847168,13.1621094
						c4.3311768,4.9296265,8.1066895,10.3469238,11.1485596,16.4081421c1.5251465,3.0269165,2.848877,6.2305298,3.9355469,9.642334
						c0.5264893,1.7205811,1.0249023,3.4658813,1.4078369,5.3125c0.394043,1.836853,0.7210693,3.7325439,0.8370361,5.8134766
						c-2.0483398-0.3850098-3.885498-0.9553223-5.6556396-1.5844727c-1.7813721-0.6193848-3.4471436-1.3400879-5.0849609-2.0854492
						c-3.2418213-1.5202026-6.246582-3.2485962-9.0499268-5.1536865
						c-5.6152344-3.8027344-10.496582-8.2493896-14.8225098-13.1837158
						c-4.3110352-4.9473267-8.0876465-10.3636475-11.1237793-16.4298706
						c-1.5234375-3.0283813-2.8503418-6.229248-3.9384766-9.6396484c-0.5299072-1.7177124-1.0300293-3.4614868-1.4163818-5.3051147
						C1689.7792969,646.9128418,1689.4477539,645.0211182,1689.3258057,642.9453735z"/>
				</g>
				<g>
					<line class="st7" x1="1665.3337402" y1="675.7051392" x2="1741.2678223" y2="702.1292725"/>
					<path class="st7" d="M1665.3337402,675.7050781c2.0018311-0.6560669,3.9119873-1.0488281,5.7935791-1.359314
						c1.8862305-0.3238525,3.7227783-0.5046997,5.5461426-0.6481934c3.6345215-0.2511597,7.1645508-0.2023315,10.6087646,0.0933838
						c6.8929443,0.5780029,13.4620361,2.0866089,19.7974854,4.2666626c6.3291016,2.1986694,12.4150391,5.09552,18.1802979,8.9143677
						c2.8843994,1.9041138,5.6809082,4.0612183,8.3735352,6.5164185c1.3389893,1.2487183,2.6657715,2.5327148,3.9418945,3.961792
						c1.2811279,1.4151001,2.532959,2.9143677,3.6923828,4.6790161c-2.0045166,0.6636353-3.916626,1.0619507-5.7994385,1.3760376
						c-1.8876953,0.328064-3.7248535,0.5110474-5.5498047,0.6587524c-3.6351318,0.2531738-7.166626,0.208252-10.6099854-0.0895996
						c-6.8905029-0.5852051-13.460083-2.0923462-19.7867432-4.2977295
						c-6.3203125-2.223938-12.4067383-5.1193848-18.1695557-8.9453735c-2.883667-1.906311-5.6813965-4.0595093-8.3747559-6.5126953
						c-1.3404541-1.2444458-2.6679688-2.5263062-3.9456787-3.9511719
						C1667.7495117,678.9559326,1666.4958496,677.4622192,1665.3337402,675.7050781z"/>
				</g>
				<g>
					<line class="st7" x1="1661.6881104" y1="715.545166" x2="1741.2678223" y2="702.1292725"/>
					<path class="st8" d="M1661.6881104,715.545105c1.4455566-1.5393066,2.9373779-2.8035889,4.4437256-3.9820557
						c1.5040283-1.1923828,3.0332031-2.2354736,4.5689697-3.239563c3.0778809-1.9707642,6.2084961-3.6283569,9.3825684-5.0281372
						c6.3458252-2.8135376,12.8553467-4.6555176,19.4831543-5.7964478c6.6309814-1.12146,13.3850098-1.5139771,20.3012695-0.9438477
						c3.4571533,0.27948,6.9588623,0.8231812,10.5130615,1.6780396c1.7807617,0.4494629,3.567749,0.9358521,5.3803711,1.5736084
						c1.8100586,0.62323,3.6350098,1.3343506,5.5065918,2.3225098c-1.4442139,1.5471802-2.9350586,2.8173218-4.4407959,3.9995117
						c-1.5032959,1.1967773-3.0321045,2.2421265-4.5671387,3.2506104c-3.0773926,1.9729004-6.2073975,3.6345215-9.3818359,5.0320435
						c-6.3470459,2.8060913-12.8564453,4.6495361-19.4886475,5.7640381
						c-6.635498,1.0950928-13.3891602,1.4890747-20.3066406,0.911499
						c-3.4576416-0.2817993-6.9586182-0.8213501-10.5124512-1.6741333c-1.7800293-0.4450684-3.5666504-0.9291992-5.37854-1.562561
						C1665.3823242,717.2307129,1663.5583496,716.5253906,1661.6881104,715.545105z"/>
				</g>
				<g>
					<line class="st7" x1="1679.3658447" y1="751.7904053" x2="1741.2678223" y2="702.1292725"/>
					<path class="st7" d="M1679.3658447,751.7903442c0.4901123-2.0311279,1.1547852-3.8447266,1.8739014-5.5904541
						c0.7103271-1.7566528,1.5153809-3.3953247,2.3452148-5.0030518c1.6833496-3.1859741,3.5654297-6.1242065,5.611084-8.8584595
						c4.0825195-5.4796753,8.7816162-10.1907959,13.9255371-14.3473511
						c5.15625-4.1411743,10.7751465-7.7057495,17.0050049-10.5088501c3.1113281-1.4059448,6.3902588-2.6029053,9.8668213-3.5537109
						c1.7521973-0.4580078,3.527832-0.8868408,5.3995361-1.1958008c1.8625488-0.3205566,3.7807617-0.5715942,5.8748779-0.6034546
						c-0.4852295,2.0373535-1.1461182,3.8555908-1.862915,5.604248c-0.7075195,1.7601929-1.5111084,3.4005737-2.3381348,5.0118408
						c-1.6820068,3.1876221-3.5615234,6.1290283-5.6086426,8.8615112
						c-4.0872803,5.4737549-8.7854004,10.1860962-13.9460449,14.3217163
						c-5.1730957,4.1203613-10.7910156,7.6860962-17.0255127,10.4832764
						c-3.112793,1.4041138-6.3892822,2.6043091-9.8643799,3.5568237c-1.7495117,0.4614258-3.5236816,0.8920288-5.3925781,1.2045288
						C1683.3695068,751.4966431,1681.454834,751.7522583,1679.3658447,751.7903442z"/>
				</g>
				<g>
					<line class="st7" x1="1713.630127" y1="774.7290039" x2="1741.2678223" y2="702.1292725"/>
					<path class="st8" d="M1713.630127,774.7289429c-0.6182861-1.967041-0.9758301-3.8348389-1.2520752-5.6716919
						c-0.2893066-1.8418579-0.4372559-3.6298218-0.5482178-5.4037476
						c-0.1864014-3.5343628-0.0760498-6.9557495,0.2786865-10.2840576
						c0.6960449-6.6617432,2.3131104-12.9729614,4.5944824-19.031189
						c2.2998047-6.0512085,5.2905273-11.8394775,9.1936035-17.2803955c1.9462891-2.7224121,4.1429443-5.3496094,6.6345215-7.8644409
						c1.2667236-1.2495117,2.5683594-2.4856567,4.0134277-3.6671753c1.4313965-1.1868286,2.9460449-2.3419189,4.7232666-3.3970337
						c0.6256104,1.9699097,0.9887695,3.8397827,1.2685547,5.6779785c0.2935791,1.8434448,0.4436035,3.6322632,0.5587158,5.4077759
						c0.1884766,3.5350952,0.0819092,6.9579468-0.2750244,10.2854614
						c-0.703125,6.6590576-2.3187256,12.9707642-4.6252441,19.0194702
						c-2.3248291,6.041748-5.3140869,11.8305054-9.2242432,17.2686768
						c-1.9484863,2.7216797-4.1412354,5.3502808-6.6308594,7.8659058c-1.2624512,1.2510986-2.5620117,2.4880371-4.0029297,3.6712036
						C1716.9089355,772.5137939,1715.3999023,773.6710205,1713.630127,774.7289429z"/>
				</g>
				<g>
					<line class="st7" x1="1755.2999268" y1="778.2145386" x2="1741.2678223" y2="702.1292725"/>
					<path class="st7" d="M1755.2999268,778.2144775c-1.5488281-1.3533936-2.8232422-2.7573853-4.012085-4.177124
						c-1.2027588-1.4171753-2.2565918-2.8618774-3.2716064-4.3137207c-1.9925537-2.9105225-3.6728516-5.8787231-5.0960693-8.8942871
						c-2.8603516-6.0285645-4.751709-12.2358398-5.9438477-18.5720825
						c-1.1728516-6.3397827-1.6186523-12.8136597-1.1044922-19.4645996
						c0.2515869-3.3244629,0.7666016-6.6974487,1.592041-10.1277466c0.4345703-1.7191772,0.9060059-3.4451294,1.5285645-5.1989746
						c0.6079102-1.7511597,1.3034668-3.5184326,2.2753906-5.336731c1.5565186,1.3519897,2.8369141,2.7548828,4.0294189,4.1739502
						c1.2071533,1.4163818,2.2633057,2.8606567,3.2825928,4.3117065c1.994751,2.9101562,3.6790771,5.8775635,5.0999756,8.8935547
						c2.8529053,6.0299683,4.7457275,12.2369385,5.9116211,18.578064c1.1464844,6.3446045,1.59375,12.8182373,1.0721436,19.47052
						c-0.2539062,3.3248901-0.7647705,6.6971436-1.5881348,10.1270142
						c-0.4301758,1.7183838-0.8994141,3.4439697-1.5174561,5.1969604
						C1756.9537354,774.6314697,1756.263916,776.3977051,1755.2999268,778.2144775z"/>
				</g>
				<g>
					<line class="st7" x1="1793.2098389" y1="761.3131104" x2="1741.2678223" y2="702.1292725"/>
					<path class="st8" d="M1793.2098389,761.3130493c-2.0423584-0.3902588-3.8751221-0.9644775-5.6424561-1.5961304
						c-1.7779541-0.6223145-3.4420166-1.3445435-5.076416-2.0928345c-3.2403564-1.5216064-6.2419434-3.2526855-9.0469971-5.156311
						c-5.6208496-3.7977295-10.5012207-8.2454224-14.847168-13.1620483
						c-4.3311768-4.9296875-8.1066895-10.3469849-11.1485596-16.4082031
						c-1.5251465-3.0268555-2.848877-6.2304688-3.9354248-9.6422729c-0.5266113-1.7206421-1.0250244-3.4659424-1.407959-5.312561
						c-0.394043-1.836792-0.7210693-3.7324829-0.8370361-5.8134766c2.0483398,0.3850098,3.885498,0.9553223,5.6556396,1.5845337
						c1.7813721,0.6193237,3.4471436,1.3400269,5.0849609,2.0854492c3.2418213,1.5201416,6.246582,3.2485352,9.0499268,5.1536255
						c5.6152344,3.8027344,10.496582,8.2494507,14.8225098,13.1837769
						c4.3110352,4.9473267,8.0876465,10.3635864,11.1237793,16.4298096
						c1.5234375,3.0284424,2.8503418,6.2293091,3.9384766,9.6396484c0.5299072,1.7177124,1.0300293,3.4615479,1.4163818,5.3051758
						C1792.7563477,757.3455811,1793.0878906,759.2373657,1793.2098389,761.3130493z"/>
				</g>
				<g>
					<line class="st7" x1="1817.2019043" y1="728.5534058" x2="1741.2678223" y2="702.1292725"/>
					<path class="st7" d="M1817.2019043,728.5533447c-2.0018311,0.6561279-3.9119873,1.0488281-5.7935791,1.359375
						c-1.8862305,0.3237915-3.7227783,0.5046997-5.5461426,0.6481323
						c-3.6345215,0.2511597-7.1645508,0.2023926-10.6087646-0.0933838
						c-6.8929443-0.5780029-13.4620361-2.0866089-19.7974854-4.2666626
						c-6.3291016-2.1986694-12.4150391-5.09552-18.1802979-8.9143677c-2.8843994-1.9041138-5.6809082-4.0612183-8.3735352-6.5164185
						c-1.3389893-1.2486572-2.6656494-2.5326538-3.9418945-3.961731c-1.2811279-1.4151001-2.532959-2.9144287-3.6923828-4.6790771
						c2.0045166-0.6636353,3.916626-1.0619507,5.7994385-1.3759766c1.8876953-0.328064,3.7248535-0.5111084,5.5498047-0.6587524
						c3.6351318-0.2532349,7.166626-0.208313,10.6099854,0.0895996c6.8905029,0.585144,13.460083,2.0923462,19.7867432,4.2977295
						c6.3203125,2.223938,12.4067383,5.1193848,18.1695557,8.9453735c2.883667,1.90625,5.6813965,4.0595093,8.3747559,6.5126343
						c1.3404541,1.2445068,2.6679688,2.5263672,3.9456787,3.9511719
						C1814.7861328,725.3025513,1816.0397949,726.7962646,1817.2019043,728.5533447z"/>
				</g>
				<g>
					<line class="st7" x1="1820.8475342" y1="688.7133789" x2="1741.2678223" y2="702.1292725"/>
					<path class="st8" d="M1820.8475342,688.7133179c-1.4455566,1.5393066-2.9373779,2.8035889-4.4437256,3.9821167
						c-1.5040283,1.1923218-3.0332031,2.2354736-4.5689697,3.239563c-3.0778809,1.9707031-6.2084961,3.6282959-9.3825684,5.0280762
						c-6.3458252,2.8135986-12.8553467,4.6555786-19.4831543,5.7964478
						c-6.6309814,1.121521-13.3850098,1.5140381-20.3012695,0.9439087
						c-3.4571533-0.279541-6.9588623-0.8231812-10.5130615-1.6781006c-1.7807617-0.4494629-3.567749-0.935791-5.3803711-1.5736084
						c-1.8100586-0.6231689-3.6350098-1.3343506-5.5065918-2.3225098c1.4442139-1.5471191,2.9350586-2.8172607,4.4407959-3.9994507
						c1.5032959-1.1968384,3.0321045-2.2421875,4.5671387-3.2506104c3.0775146-1.9729004,6.2073975-3.6345825,9.3818359-5.0320435
						c6.3470459-2.8060913,12.8564453-4.6495972,19.4886475-5.7640991c6.635498-1.0950928,13.3891602-1.4890747,20.3066406-0.911438
						c3.4576416,0.2817383,6.9586182,0.8213501,10.5124512,1.6741333c1.7800293,0.4450684,3.5667725,0.9291992,5.37854,1.562561
						C1817.1533203,687.02771,1818.9772949,687.7330322,1820.8475342,688.7133179z"/>
				</g>
				<g>
					<line class="st7" x1="1803.1699219" y1="652.4681396" x2="1741.2678223" y2="702.1292725"/>
					<path class="st7" d="M1803.1697998,652.4680786c-0.4901123,2.0311279-1.1547852,3.8447266-1.8739014,5.5904541
						c-0.7103271,1.7567139-1.5153809,3.3953247-2.3452148,5.0031128c-1.6833496,3.1859131-3.5654297,6.1241455-5.611084,8.8584595
						c-4.0825195,5.4796143-8.7816162,10.1907349-13.9255371,14.34729
						c-5.15625,4.1412354-10.7751465,7.7057495-17.0050049,10.5088501c-3.1113281,1.4059448-6.3902588,2.6029663-9.8668213,3.553772
						c-1.7521973,0.4579468-3.527832,0.8867798-5.3995361,1.1958008c-1.8625488,0.3205566-3.7807617,0.5715332-5.8748779,0.6033936
						c0.4852295-2.0373535,1.1461182-3.8555298,1.862915-5.604187c0.7075195-1.7602539,1.5111084-3.4006348,2.3381348-5.0118408
						c1.6820068-3.1876221,3.5615234-6.1290894,5.6086426-8.8615723c4.0872803-5.4737549,8.7854004-10.1860352,13.946167-14.3217163
						c5.1729736-4.1203003,10.7908936-7.6860352,17.0253906-10.4832153c3.112793-1.4041748,6.3892822-2.6043701,9.8643799-3.5568848
						c1.7495117-0.4614258,3.5236816-0.8920288,5.3925781-1.2045288
						C1799.1661377,652.7617798,1801.0808105,652.5061646,1803.1697998,652.4680786z"/>
				</g>
				<g>
					<line class="st7" x1="1768.9056396" y1="629.529541" x2="1741.2678223" y2="702.1292725"/>
					<path class="st8" d="M1768.9055176,629.52948c0.6182861,1.967041,0.9758301,3.8348389,1.2520752,5.6716919
						c0.2893066,1.8418579,0.4372559,3.6298828,0.5482178,5.4038086c0.1864014,3.5343628,0.0760498,6.9556885-0.2786865,10.2840576
						c-0.6960449,6.6617432-2.3131104,12.9729004-4.5944824,19.0311279
						c-2.2998047,6.0512695-5.2905273,11.8394775-9.1936035,17.2803955
						c-1.9462891,2.7224731-4.1429443,5.3496094-6.6345215,7.8644409c-1.2667236,1.2495117-2.5683594,2.4857178-4.0134277,3.6672363
						c-1.4313965,1.1867676-2.9460449,2.3418579-4.7232666,3.3969727c-0.6256104-1.9698486-0.9887695-3.8397827-1.2685547-5.6779785
						c-0.2935791-1.8434448-0.4436035-3.6322632-0.5587158-5.4077148
						c-0.1884766-3.5351562-0.0819092-6.9579468,0.2750244-10.2854614
						c0.703125-6.6590576,2.3187256-12.9708252,4.6252441-19.0195312c2.3248291-6.041687,5.3140869-11.8304443,9.2242432-17.2686768
						c1.9484863-2.7216187,4.1412354-5.3502808,6.6308594-7.8659058c1.2624512-1.2510376,2.5620117-2.4880371,4.0029297-3.6711426
						C1765.626709,631.7446289,1767.1357422,630.5874634,1768.9055176,629.52948z"/>
				</g>
			</g>
		</g>
		<ellipse class="st9" cx="1741.3660889" cy="702.1372681" rx="15.9925575" ry="15.2903051"/>
	</g>
	<g id="Flower_4_">
		<g>
			<g>
				<line class="st10" x1="1563.5744629" y1="828.7248535" x2="1575.2678223" y2="892.1292725"/>
				<path class="st10" d="M1563.5744629,828.7248535c1.3360596,1.1193848,2.4337158,2.2828369,3.4569092,3.4599609
					c1.0352783,1.1749268,1.9411621,2.3737183,2.8131104,3.5787964c1.7003174,2.4180908,3.1582031,4.8809204,4.3677979,7.3895874
					c2.4449463,5.0125122,4.0472412,10.1804199,5.0415039,15.4604492c0.9775391,5.2831421,1.3227539,10.6828613,0.833252,16.2365723
					c-0.2342529,2.7749023-0.7182617,5.5958252-1.447876,8.4620972c-0.3885498,1.437561-0.809082,2.8809204-1.3609619,4.3485718
					c-0.5391846,1.465332-1.1546631,2.9446411-2.010376,4.4683228c-1.3428955-1.1181641-2.4456787-2.2806396-3.4720459-3.4572144
					c-1.0391846-1.1741943-1.9468994-2.3726196-2.8226318-3.5769653c-1.7041016-2.4174805-3.1624756-4.880188-4.3712158-7.3889771
					c-2.4384766-5.0137329-4.0419922-10.1813965-5.0134277-15.4656372
					c-0.9545898-5.2873535-1.3011475-10.6868286-0.8051758-16.2417603c0.2351074-2.7750244,0.7185059-5.5959473,1.444458-8.4614868
					c0.3847656-1.4368286,0.8033447-2.8798828,1.3513184-4.3468018
					C1562.1151123,831.725647,1562.7255859,830.2472534,1563.5744629,828.7248535z"/>
			</g>
			<g>
				<line class="st11" x1="1531.9829102" y1="842.8093872" x2="1575.2678223" y2="892.1292725"/>
				<path class="st11" d="M1531.9827881,842.8093872c1.7368164,0.2946777,3.2912598,0.7493286,4.7889404,1.2539062
					c1.5067139,0.496521,2.9146729,1.079834,4.2966309,1.6858521c2.7307129,1.241272,5.276123,2.6452026,7.6317139,4.2156982
					c4.730835,3.1236572,8.817749,6.8125,12.4400635,10.9091797c3.609375,4.1079712,6.7355957,8.6399536,9.223877,13.7318726
					c1.2520752,2.5390015,2.3133545,5.2453613,3.1868896,8.1165771c0.4187012,1.4515381,0.8128662,2.9244995,1.1066895,4.4855957
					c0.3034668,1.5525513,0.548584,3.156311,0.6102295,4.9211426c-1.7419434-0.2901001-3.300293-0.741333-4.800415-1.2437744
					c-1.5096436-0.4938965-2.9190674-1.0759277-4.3039551-1.6794434c-2.7335205-1.2387695-5.2792969-2.642334-7.6342773-4.2133789
					c-4.7259521-3.1280518-8.8138428-6.81604-12.4185791-10.9280396c-3.5919189-4.1233521-6.7192383-8.65448-9.2023926-13.7507324
					c-1.2515869-2.5394897-2.3132324-5.2456055-3.1895752-8.1142578c-0.4216309-1.4489746-0.8172607-2.9206543-1.1140137-4.479187
					C1532.2987061,846.1699829,1532.0496826,844.5696411,1531.9827881,842.8093872z"/>
			</g>
			<g>
				<line class="st10" x1="1511.989502" y1="870.1091309" x2="1575.2678223" y2="892.1292725"/>
				<path class="st10" d="M1511.9893799,870.1091309c1.6834717-0.5905151,3.2872314-0.9519043,4.8659668-1.2418823
					c1.5828857-0.3015137,3.1225586-0.4787598,4.6508789-0.6234741c3.0419922-0.2474976,6.0029297-0.2622681,8.8809814-0.0384521
					c5.7646484,0.4228516,11.2476807,1.6548462,16.5274658,3.4707642c5.274292,1.8320923,10.3371582,4.2713623,15.1210938,7.5123291
					c2.3955078,1.6104126,4.7075195,3.4606323,6.9375,5.5467529c1.1069336,1.0658569,2.2033691,2.1624146,3.2557373,3.3851929
					c1.0567627,1.2105103,2.0878906,2.4943237,3.0388184,4.0088501c-1.6856689,0.5970459-3.2911377,0.9633179-4.8709717,1.2564087
					c-1.5842285,0.3051758-3.1245117,0.4842529-4.6540527,0.6326294c-3.0432129,0.2510986-6.0043945,0.2662964-8.8822021,0.041748
					c-5.7624512-0.4290771-11.2458496-1.6598511-16.5180664-3.4978027
					c-5.2664795-1.8540649-10.3299561-4.2920532-15.1116943-7.5392456c-2.3951416-1.6112061-4.7073975-3.4609375-6.9385986-5.543457
					c-1.1082764-1.0622559-2.2052002-2.1569824-3.2590332-3.3759766
					C1513.9754639,872.8959961,1512.942627,871.6170654,1511.9893799,870.1091309z"/>
			</g>
			<g>
				<line class="st11" x1="1508.951416" y1="903.3091431" x2="1575.2678223" y2="892.1292725"/>
				<path class="st11" d="M1508.951416,903.3091431c1.1968994-1.3284302,2.434082-2.4176636,3.68396-3.432312
					c1.2476807-1.0267334,2.517334-1.923645,3.7927246-2.7866211c2.5581055-1.6821899,5.1572266-3.1213989,7.7983398-4.3115234
					c5.277832-2.4060669,10.697998-3.9672852,16.2210693-4.9188843c5.5258789-0.9346924,11.1585693-1.2354736,16.932373-0.6992188
					c2.8851318,0.2576294,5.8125,0.765625,8.7813721,1.5199585c1.4885254,0.4009399,2.9822998,0.8339844,4.4984131,1.3987427
					c1.513916,0.552002,3.0407715,1.180542,4.6081543,2.0499268c-1.1958008,1.3352661-2.4321289,2.4295654-3.6813965,3.4474487
					c-1.2470703,1.0305786-2.5164795,1.9294434-3.7911377,2.7962036c-2.5574951,1.6859741-5.1564941,3.1256104-7.7977295,4.3149414
					c-5.2789307,2.3995972-10.6989746,3.9620972-16.2258301,4.8907471
					c-5.5296631,0.9117432-11.1622314,1.2138062-16.9371338,0.6710815
					c-2.8852539-0.2584839-5.8126221-0.7659912-8.7808838-1.5165405c-1.487793-0.3971558-2.9813232-0.8282471-4.4967041-1.3891602
					C1512.0435791,904.795105,1510.5177002,904.1716919,1508.951416,903.3091431z"/>
			</g>
			<g>
				<line class="st10" x1="1523.6828613" y1="933.5135498" x2="1575.2678223" y2="892.1292725"/>
				<path class="st10" d="M1523.6827393,933.5134888c0.3795166-1.7286987,0.9107666-3.2682495,1.4893799-4.7487793
					c0.5710449-1.4901123,1.2242432-2.8775024,1.8991699-4.2380981c1.3774414-2.6864624,2.9091797-5.1807861,4.598877-7.4780273
					c3.3630371-4.6149902,7.2623291-8.5617065,11.5484619-12.026123c4.2967529-3.4511108,8.9958496-6.4007568,14.2261963-8.6882935
					c2.6085205-1.1520996,5.3758545-2.1061401,8.2995605-2.8652954c1.4769287-0.3607788,2.9742432-0.696167,4.5550537-0.9273682
					c1.572876-0.241272,3.1942139-0.4220581,4.9683838-0.4122925c-0.3751221,1.7341309-0.9031982,3.27771-1.4797363,4.7608032
					c-0.5684814,1.493103-1.2205811,2.8820801-1.8930664,4.2456665c-1.375,2.6894531-2.9064941,5.1841431-4.5966797,7.4807739
					c-3.3671875,4.6098633-7.265625,8.5575562-11.5662842,12.0038452c-4.3114014,3.4329224-9.0096436,6.383606-14.2441406,8.6660156
					c-2.6090088,1.1514282-5.3760986,2.105835-8.2973633,2.867981c-1.4744873,0.3637695-2.9705811,0.7006836-4.5489502,0.9349976
					C1527.0708008,933.3330688,1525.4526367,933.5178833,1523.6827393,933.5134888z"/>
			</g>
			<g>
				<line class="st11" x1="1552.2364502" y1="952.6290283" x2="1575.2678223" y2="892.1292725"/>
				<path class="st11" d="M1552.2363281,952.6290283c-0.5583496-1.6557007-0.8901367-3.2250977-1.1512451-4.7675171
					c-0.2724609-1.546814-0.4219971-3.046814-0.5393066-4.5345459c-0.1932373-2.9597168-0.1560059-5.8317261,0.1170654-8.6138306
					c0.5219727-5.5736694,1.8446045-10.8424072,3.7449951-15.8912354c1.9163818-5.0427856,4.4335938-9.8568115,7.7441406-14.3688354
					c1.6452637-2.2597656,3.527832-4.4292603,5.6439209-6.5098877c1.0805664-1.0316772,2.1915283-2.0518188,3.4273682-3.0244141
					c1.2237549-0.9772339,2.5200195-1.9268188,4.0445557-2.7895508c0.5649414,1.6581421,0.9014893,3.2293701,1.1656494,4.7729492
					c0.276123,1.5482178,0.4274902,3.0488892,0.5484619,4.5380249c0.1966553,2.9610596,0.1600342,5.833252-0.1138916,8.6151123
					c-0.5280762,5.571228-1.8494873,10.8405151-3.7716064,15.8810425c-1.9382324,5.0344849-4.4542236,9.848999-7.770874,14.3586426
					c-1.6461182,2.2595215-3.5281982,4.4291382-5.6407471,6.5111084c-1.0769043,1.0330811-2.1860352,2.053894-3.4182129,3.0279541
					C1555.0458984,950.8123779,1553.7543945,951.763855,1552.2363281,952.6290283z"/>
			</g>
			<g>
				<line class="st10" x1="1586.9611816" y1="955.5336304" x2="1575.2678223" y2="892.1292725"/>
				<path class="st10" d="M1586.9611816,955.5336304c-1.3360596-1.1194458-2.4337158-2.2828369-3.4569092-3.460022
					c-1.0352783-1.1749268-1.9411621-2.3737183-2.8131104-3.5787354c-1.7003174-2.4181519-3.1582031-4.8809814-4.3677979-7.3895874
					c-2.4449463-5.0125122-4.0472412-10.1804199-5.0415039-15.4604492
					c-0.9775391-5.2831421-1.3227539-10.6828613-0.833252-16.2365723c0.2342529-2.7749023,0.7182617-5.5958862,1.447876-8.4621582
					c0.3885498-1.4375,0.809082-2.8809204,1.3609619-4.3485718c0.5391846-1.465271,1.1546631-2.9446411,2.010376-4.4683228
					c1.3428955,1.1182251,2.4456787,2.2807007,3.4720459,3.4572144c1.0391846,1.1742554,1.9468994,2.3726807,2.8226318,3.5770264
					c1.7041016,2.4174194,3.1624756,4.880188,4.3712158,7.388916c2.4384766,5.0137329,4.0419922,10.1813965,5.0134277,15.4656372
					c0.9545898,5.2874146,1.3011475,10.6868896,0.8051758,16.2417603c-0.2351074,2.7750854-0.7185059,5.5959473-1.444458,8.4615479
					c-0.3847656,1.4367676-0.8033447,2.8798218-1.3513184,4.3467407
					C1588.4205322,952.5327759,1587.8100586,954.0112305,1586.9611816,955.5336304z"/>
			</g>
			<g>
				<line class="st11" x1="1618.5528564" y1="941.4490967" x2="1575.2678223" y2="892.1292725"/>
				<path class="st11" d="M1618.5528564,941.4490967c-1.7368164-0.2946777-3.2912598-0.7493286-4.7888184-1.2539062
					c-1.5068359-0.496521-2.9147949-1.079834-4.2967529-1.6858521c-2.7307129-1.241333-5.276123-2.6452026-7.6317139-4.2156982
					c-4.730835-3.1237183-8.817749-6.812561-12.4400635-10.9092407c-3.609375-4.1079102-6.7355957-8.6398926-9.223877-13.7318726
					c-1.2520752-2.5389404-2.3133545-5.2453613-3.1868896-8.1165161c-0.4187012-1.4515381-0.8128662-2.9244995-1.1066895-4.4855957
					c-0.3034668-1.5525513-0.548584-3.156311-0.6102295-4.9212036c1.7419434,0.2901611,3.300293,0.741394,4.800415,1.2438354
					c1.5096436,0.4938965,2.9190674,1.0759277,4.3039551,1.6793823c2.7335205,1.2388306,5.2792969,2.642395,7.6342773,4.2134399
					c4.7259521,3.1279907,8.8138428,6.815979,12.4185791,10.9280396c3.5919189,4.123291,6.7192383,8.6544189,9.2025146,13.7507324
					c1.2514648,2.5394897,2.3131104,5.2456055,3.1894531,8.1142578c0.4216309,1.4489746,0.8172607,2.9206543,1.1140137,4.479126
					C1618.2369385,938.0884399,1618.4859619,939.6887817,1618.5528564,941.4490967z"/>
			</g>
			<g>
				<line class="st10" x1="1638.5462646" y1="914.149353" x2="1575.2678223" y2="892.1292725"/>
				<path class="st10" d="M1638.5462646,914.149353c-1.6834717,0.5904541-3.2872314,0.9519043-4.8659668,1.2418823
					c-1.5828857,0.3015137-3.1225586,0.4786987-4.6508789,0.6234131c-3.0419922,0.2475586-6.0029297,0.2622681-8.8809814,0.0385132
					c-5.7646484-0.4228516-11.2476807-1.6549072-16.5274658-3.4708252
					c-5.2741699-1.8320923-10.3371582-4.2713013-15.1210938-7.5122681c-2.3955078-1.6104736-4.7075195-3.4606323-6.9375-5.5467529
					c-1.1069336-1.065918-2.2033691-2.1624756-3.2557373-3.3851929c-1.0567627-1.2105713-2.0878906-2.4943848-3.0388184-4.0089111
					c1.6856689-0.5969849,3.2911377-0.9633179,4.8709717-1.2563477c1.5842285-0.3052368,3.1245117-0.484314,4.6540527-0.6326904
					c3.0432129-0.2510986,6.0043945-0.2662964,8.8822021-0.041748c5.7624512,0.4290771,11.2458496,1.6598511,16.5180664,3.4978027
					c5.2666016,1.8540649,10.3299561,4.2920532,15.1116943,7.5392456c2.3951416,1.6112061,4.7073975,3.4609985,6.9385986,5.5435181
					c1.1082764,1.0621948,2.2053223,2.1569214,3.2590332,3.3759766
					C1636.5601807,911.3624268,1637.5930176,912.6413574,1638.5462646,914.149353z"/>
			</g>
			<g>
				<line class="st11" x1="1641.5842285" y1="880.9493408" x2="1575.2678223" y2="892.1292725"/>
				<path class="st11" d="M1641.5842285,880.9493408c-1.1968994,1.3283691-2.434082,2.4176025-3.68396,3.432251
					c-1.2476807,1.0267334-2.517334,1.923645-3.7927246,2.7866211c-2.5581055,1.682251-5.1572266,3.1213989-7.7983398,4.3115234
					c-5.277832,2.4061279-10.697998,3.9673462-16.2210693,4.9188843c-5.5258789,0.9346924-11.1585693,1.2355347-16.932373,0.6992188
					c-2.8851318-0.2576294-5.8125-0.765625-8.7813721-1.5198975c-1.4885254-0.401001-2.9822998-0.8340454-4.4984131-1.3987427
					c-1.513916-0.552063-3.0407715-1.180603-4.6081543-2.0499878c1.1958008-1.3352051,2.4321289-2.4295654,3.6813965-3.4474487
					c1.2470703-1.0305176,2.5164795-1.9293823,3.7911377-2.7962036c2.5574951-1.6859741,5.1564941-3.1256104,7.7977295-4.3149414
					c5.2789307-2.3995972,10.6989746-3.9620972,16.2258301-4.890686c5.5296631-0.9117432,11.1622314-1.2138672,16.9371338-0.6710815
					c2.8852539,0.2584839,5.8126221,0.7659912,8.7808838,1.5165405c1.487793,0.3971558,2.9813232,0.8282471,4.4967041,1.3890991
					C1638.4920654,879.4633179,1640.0179443,880.086731,1641.5842285,880.9493408z"/>
			</g>
			<g>
				<line class="st10" x1="1626.8529053" y1="850.7449951" x2="1575.2678223" y2="892.1292725"/>
				<path class="st10" d="M1626.8529053,850.7449341c-0.3795166,1.7286987-0.9107666,3.2683105-1.4893799,4.7488403
					c-0.5710449,1.4900513-1.2242432,2.8774414-1.8991699,4.2380371c-1.3774414,2.6865234-2.9091797,5.1807861-4.598877,7.4780884
					c-3.3630371,4.6149902-7.2623291,8.5616455-11.5484619,12.026123
					c-4.2967529,3.4510498-8.9958496,6.4007568-14.2261963,8.6882935c-2.6085205,1.1520386-5.3758545,2.1060791-8.2995605,2.8652954
					c-1.4769287,0.3607788-2.9742432,0.696167-4.5550537,0.9273682c-1.572876,0.241272-3.1942139,0.4219971-4.9683838,0.4122314
					c0.3751221-1.7341309,0.9031982-3.27771,1.4797363-4.7607422c0.5684814-1.4931641,1.2205811-2.8820801,1.8930664-4.2456665
					c1.375-2.6895142,2.9064941-5.1841431,4.5966797-7.4807739c3.3671875-4.6098633,7.265625-8.5575562,11.5662842-12.0038452
					c4.3114014-3.4329224,9.0096436-6.383667,14.2441406-8.6660156c2.6090088-1.1514282,5.3760986-2.105835,8.2973633-2.868042
					c1.4744873-0.3637695,2.9705811-0.7006836,4.5489502-0.9349365
					C1623.4648438,850.925354,1625.0830078,850.7406006,1626.8529053,850.7449341z"/>
			</g>
			<g>
				<line class="st11" x1="1598.2993164" y1="831.6294556" x2="1575.2678223" y2="892.1292725"/>
				<path class="st11" d="M1598.2993164,831.6294556c0.5583496,1.6556396,0.8901367,3.2250366,1.1512451,4.7675171
					c0.2724609,1.546814,0.4219971,3.0467529,0.5393066,4.5345459c0.1932373,2.9596558,0.1560059,5.831665-0.1170654,8.6138306
					c-0.5219727,5.5736084-1.8446045,10.8424072-3.7449951,15.8912354
					c-1.9163818,5.0427246-4.4335938,9.8568115-7.7441406,14.3687744c-1.6452637,2.2598267-3.527832,4.4292603-5.6439209,6.5098877
					c-1.0805664,1.0317383-2.1915283,2.0518799-3.4273682,3.0244751c-1.2237549,0.9771729-2.5200195,1.9268188-4.0445557,2.7894897
					c-0.5649414-1.6580811-0.9014893-3.2293091-1.1656494-4.7729492c-0.276123-1.5482178-0.4274902-3.0488892-0.5484619-4.5380249
					c-0.1966553-2.9609985-0.1600342-5.8331909,0.1138916-8.6150513c0.5280762-5.5712891,1.8494873-10.8405151,3.7717285-15.8811035
					c1.9381104-5.0344238,4.4541016-9.848938,7.770752-14.3586426c1.6461182-2.2594604,3.5281982-4.4291382,5.6407471-6.5111084
					c1.0769043-1.0330811,2.1860352-2.053894,3.4182129-3.0278931
					C1595.4897461,833.4460449,1596.78125,832.4946289,1598.2993164,831.6294556z"/>
			</g>
		</g>
		<ellipse class="st12" cx="1575.3497314" cy="892.1359253" rx="13.3271313" ry="12.7419214"/>
	</g>
	<g id="Flower_3_">
		<g>
			<g>
				<path class="st13" d="M299.2358093,534.0439453c1.9310913,1.2828979,3.5044556,2.6317139,4.966217,4.0011597
					c1.4797974,1.3661499,2.7654724,2.7680664,4.0003357,4.1793213c2.4211121,2.831543,4.4348755,5.7382202,6.1132202,8.7067261
					c3.3754883,5.9335327,5.4849854,12.1005859,6.6863403,18.4351196c1.1716614,6.3400269,1.3988953,12.854248,0.3718262,19.5997314
					c-0.506073,3.3713989-1.3557739,6.8061523-2.610321,10.3155518c-0.6559143,1.7600098-1.3598022,3.5288086-2.2607117,5.3339844
					c-0.881897,1.8016968-1.8782043,3.6244507-3.2348633,5.5136719c-1.9413147-1.2810059-3.5223083-2.628418-4.9888916-3.9970093
					c-1.4855652-1.3649902-2.7741089-2.7664185-4.014679-4.1766357c-2.4239197-2.8309937-4.4429321-5.7366943-6.1183472-8.7057495
					c-3.3657532-5.9353638-5.4772034-12.1020508-6.6442261-18.4429321
					c-1.1372986-6.3463745-1.3664551-12.8601685-0.3296509-19.6074829
					c0.5090027-3.3719482,1.3534241-6.8057251,2.6051941-10.3146362c0.6502075-1.7589111,1.3511963-3.5272217,2.2463379-5.3312988
					C296.9006653,537.7526855,297.8893738,535.9312744,299.2358093,534.0439453z"/>
			</g>
			<g>
				<path class="st14" d="M261.3258972,550.9453735c2.3345642,0.1337891,4.395752,0.5075684,6.3716125,0.9561768
					c1.9896851,0.4364624,3.8309631,1.0032349,5.6334534,1.6040039c3.5677795,1.2341919,6.8242188,2.7416382,9.8243408,4.4740601
					c6.0145874,3.4521484,11.061615,7.75354,15.4146118,12.6640625c4.3302612,4.9304199,7.9387512,10.4943237,10.5885925,16.8995361
					c1.3306274,3.1976318,2.3986206,6.6257324,3.1572266,10.3253784c0.3574219,1.8690186,0.6781616,3.7702637,0.8483276,5.8035889
					c0.1846924,2.0206299,0.2819519,4.117981,0.1037903,6.4570312c-2.3424072-0.1268921-4.4093933-0.4955444-6.3889465-0.940918
					c-1.9940796-0.4326172-3.8375854-0.9974365-5.6444092-1.5943604c-3.5699158-1.2323608-6.8304138-2.7362671-9.8282776-4.4706421
					c-6.0071411-3.4587402-11.0556641-7.7587891-15.3823853-12.6923218
					c-4.3040161-4.9534912-7.9139709-10.5161133-10.5563965-16.9278564
					c-1.3283691-3.199585-2.4004211-6.6241455-3.1611328-10.3218994c-0.3617859-1.8652344-0.6847229-3.7644653-0.859314-5.7940063
					C261.258606,555.369812,261.1555481,553.2775879,261.3258972,550.9453735z"/>
			</g>
			<g>
				<path class="st15" d="M237.3337708,583.7050781c2.1296387-1.0233154,4.1397247-1.703125,6.1125031-2.2756958
					c1.9788055-0.5899048,3.8927307-0.9933472,5.7896881-1.3480835c3.7776642-0.6626587,7.4191589-0.934082,10.9486084-0.8834229
					c7.0651245,0.083252,13.7071838,1.3823853,20.0457153,3.5536499c6.3286133,2.1997681,12.3416138,5.3065186,17.9353943,9.617981
					c2.799408,2.1484985,5.4839783,4.6270142,8.0332336,7.4943848c1.2650452,1.4611816,2.5140686,2.9683838,3.6972351,4.664856
					c1.1895447,1.6782227,2.3408508,3.4663086,3.3717041,5.6004639c-2.1330566,1.0331421-4.1456909,1.7202759-6.1200562,2.2974854
					c-1.9807434,0.5953979-3.8956299,1.0016479-5.7944946,1.3618164c-3.778595,0.6653442-7.421875,0.9418945-10.9503174,0.8883667
					c-7.0618896-0.0925903-13.7045898-1.3898315-20.0316467-3.5940552
					c-6.3171387-2.2327881-12.33078-5.3377075-17.9213104-9.6584473c-2.7984161-2.1513672-5.4847412-4.6248169-8.0349274-7.489502
					c-1.2669678-1.4556885-2.5169525-2.960144-3.7020569-4.651062
					C239.5218964,587.6102295,238.3680573,585.8294067,237.3337708,583.7050781z"/>
			</g>
			<g>
				<path class="st13" d="M233.6881409,623.545105c1.3808899-1.9227295,2.8222504-3.4866943,4.282486-4.9387817
					c1.4571686-1.4702148,2.9471741-2.7457275,4.445755-3.9703369c3.0053864-2.4004517,6.0796356-4.392395,9.2105713-6.0480347
					c6.2586975-3.3301392,12.7314148-5.3908081,19.357666-6.5409546c6.6312561-1.1203003,13.4221497-1.2936401,20.4250793-0.2092285
					c3.5001831,0.534729,7.0584717,1.4139404,10.6852112,2.6991577c1.8182068,0.6713257,3.6445007,1.3907471,5.5041199,2.3077393
					c1.8564148,0.8979492,3.7321777,1.9105835,5.6688232,3.2845459c-1.3791504,1.9329834-2.8192444,3.5046387-4.278656,4.9615479
					c-1.4562073,1.4759521-2.9457092,2.7543945-4.4433289,3.9847412c-3.0049133,2.4031982-6.0782776,4.4004517-9.2097168,6.0531006
					c-6.2603455,3.3204346-12.7327271,5.3830566-19.3647766,6.4987183
					c-6.6370544,1.0858765-13.4276123,1.2611694-20.4321899,0.1669922
					c-3.5007019-0.5376587-7.0581055-1.4116211-10.6843567-2.6940308c-1.8172455-0.6655884-3.6430664-1.3821411-5.501709-2.293335
					C237.4975281,625.9138794,235.6230621,624.9088135,233.6881409,623.545105z"/>
			</g>
			<g>
				<path class="st14" d="M251.3658295,659.7903442c0.2468414-2.3344116,0.7213135-4.3850708,1.2668152-6.347229
					c0.5340118-1.9764404,1.1915741-3.7989502,1.8814392-5.5811157c1.4106903-3.5258179,3.0805817-6.7285767,4.963913-9.6652222
					c3.7546997-5.8883057,8.3149414-10.7723999,13.453064-14.9362183
					c5.1570435-4.1403198,10.9150085-7.5314941,17.4711304-9.9277954c3.2733154-1.2040405,6.7652893-2.1356201,10.5148621-2.7460327
					c1.8930054-0.2824707,3.8165588-0.5269165,5.865448-0.6150513c2.0368347-0.1032715,4.1464539-0.1157837,6.4853516,0.1575317
					c-0.2403259,2.3425293-0.7099609,4.399292-1.2524109,6.3652344c-0.5303345,1.9810181-1.1860657,3.8057861-1.8722839,5.5925293
					c-1.4089355,3.5280151-3.07547,6.7349243-4.9606628,9.6692505c-3.7608643,5.8805542-8.3198853,10.7662354-13.4798889,14.902832
					c-5.1788635,4.1130371-10.9356079,7.5057373-17.4979553,9.8943481c-3.275177,1.2017212-6.7637634,2.1374512-10.5115662,2.750061
					c-1.8894043,0.2869873-3.8110962,0.5337524-5.8563232,0.6265259
					C255.803009,660.0370483,253.6982269,660.055542,251.3658295,659.7903442z"/>
			</g>
			<g>
				<path class="st15" d="M285.6300964,682.7289429c-0.9815674-2.1053467-1.6231995-4.0812988-2.1587524-6.0168457
					c-0.5527039-1.9421387-0.9208984-3.8139648-1.2408447-5.6674805c-0.5936584-3.6893311-0.8001709-7.2313232-0.6879578-10.6519775
					c0.2065735-6.8481445,1.6162415-13.2382812,3.8889465-19.2998047
					c2.3009644-6.0508423,5.4994202-11.7599487,9.8898926-17.0153198c2.1881409-2.6303711,4.7028198-5.1364746,7.6022644-7.4960327
					c1.4769287-1.1694946,2.9994507-2.3215332,4.709198-3.4023438c1.6917114-1.0877075,3.4921265-2.1339722,5.6350098-3.0499268
					c0.9913025,2.1090698,1.6401672,4.0877686,2.1802979,6.0250854c0.5581665,1.9441528,0.9291382,3.8170776,1.2544861,5.6726074
					c0.596283,3.6904297,0.8078308,7.234314,0.6928406,10.6539307c-0.2158203,6.8446045-1.6236572,13.2354126-3.9290161,19.2845459
					c-2.3335876,6.0383911-5.5301819,11.74823-9.9299316,17.000061c-2.190918,2.6293335-4.700592,5.1372681-7.5973816,7.4978638
					c-1.4715271,1.1715088-2.991272,2.324646-4.6955566,3.4075317
					C289.5564575,680.7603149,287.7632751,681.8093262,285.6300964,682.7289429z"/>
			</g>
			<g>
				<path class="st13" d="M327.2998962,686.2144775c-1.9310913-1.2828369-3.5044556-2.6317139-4.966217-4.0011597
					c-1.4797974-1.3660889-2.7654724-2.7680054-4.0003357-4.1793213c-2.4211121-2.8314819-4.434845-5.7381592-6.1131897-8.706665
					c-3.3755188-5.9335938-5.4850159-12.100647-6.6863708-18.4351807
					c-1.1716614-6.3400269-1.3988953-12.854187-0.3717957-19.5997314c0.5060425-3.3713379,1.3557434-6.8060913,2.6102905-10.3155518
					c0.6559143-1.7599487,1.3598022-3.5288086,2.2607117-5.3339844c0.881897-1.8016357,1.8782043-3.6244507,3.2348633-5.5136719
					c1.9413147,1.2810059,3.5223083,2.628479,4.9888916,3.9970093c1.4855652,1.3650513,2.7741089,2.7664185,4.0147095,4.1766357
					c2.4238892,2.8310547,4.4429016,5.7367554,6.1183167,8.7058105c3.3657532,5.9353638,5.4772034,12.1020508,6.6442261,18.4429321
					c1.1372986,6.3463135,1.3664551,12.8601685,0.3296509,19.6074829
					c-0.5090027,3.3718872-1.3534241,6.8056641-2.6051941,10.3145752c-0.6502075,1.7589722-1.3511963,3.5272217-2.2463379,5.3313599
					C329.6350403,682.5057983,328.6463318,684.3271484,327.2998962,686.2144775z"/>
			</g>
			<g>
				<path class="st14" d="M365.2098389,669.3130493c-2.3345947-0.1337891-4.3957825-0.5075073-6.3716431-0.9561157
					c-1.9896851-0.4365234-3.8309631-1.0032349-5.6334534-1.6040039c-3.5677795-1.2341919-6.8242188-2.7416382-9.8243408-4.4740601
					c-6.0145874-3.4522095-11.061615-7.7536011-15.4146118-12.6640625
					c-4.3302612-4.9304199-7.9387512-10.4943237-10.588562-16.8995972
					c-1.330658-3.1976318-2.3986511-6.6256714-3.1572571-10.3253174c-0.3573914-1.8690796-0.6781616-3.7702637-0.8483276-5.8036499
					c-0.1846924-2.0205688-0.2819214-4.117981-0.1037903-6.4570312c2.3424072,0.1269531,4.4093933,0.4956055,6.3889465,0.940979
					c1.9940796,0.4326172,3.8375854,0.9973755,5.6444397,1.5943604c3.5698853,1.2322998,6.8303833,2.7362061,9.8282471,4.4705811
					c6.0071411,3.4587402,11.0556641,7.7588501,15.3823853,12.6923828
					c4.3040161,4.9534302,7.9139709,10.5160522,10.5563965,16.9278564
					c1.3283691,3.1995239,2.4004211,6.6240845,3.1611328,10.3218994c0.3617859,1.8651733,0.6847534,3.7644653,0.859314,5.7939453
					C365.2770996,664.8886108,365.3801575,666.980835,365.2098389,669.3130493z"/>
			</g>
			<g>
				<path class="st15" d="M389.2019348,636.5533447c-2.1296387,1.0233765-4.1397095,1.703125-6.1124878,2.2756958
					c-1.9788208,0.5899048-3.8927612,0.9934082-5.7897034,1.3480835c-3.7776489,0.6626587-7.4191895,0.9341431-10.9486084,0.8834229
					c-7.0651245-0.083252-13.7071838-1.3823242-20.0457153-3.5535889
					c-6.3286133-2.1997681-12.3416138-5.3065796-17.9353943-9.617981c-2.799408-2.1484985-5.4839783-4.6270752-8.0332031-7.4943848
					c-1.2650757-1.4611816-2.5140991-2.9684448-3.6972656-4.664917c-1.1895447-1.6782227-2.3408203-3.4663086-3.3717041-5.6004639
					c2.1330566-1.0331421,4.1456909-1.7202148,6.1200562-2.2974243c1.9807434-0.595459,3.8956604-1.001709,5.7945251-1.3618774
					c3.7785645-0.6653442,7.4218445-0.9418335,10.9502869-0.8883667c7.0618896,0.0925903,13.7045898,1.3898315,20.0316467,3.5941162
					c6.3171387,2.2327271,12.33078,5.3377075,17.9213257,9.6584473c2.7984009,2.1513062,5.4847412,4.6247559,8.0349121,7.4894409
					c1.2669678,1.4557495,2.5169678,2.9602051,3.7020569,4.651123
					C387.0138245,632.6482544,388.1676636,634.4290161,389.2019348,636.5533447z"/>
			</g>
			<g>
				<path class="st13" d="M392.8475647,596.7133179c-1.3808899,1.9227295-2.8222351,3.4867554-4.2824707,4.9388428
					c-1.4571838,1.4702148-2.9471741,2.7457275-4.4457703,3.9703369c-3.0053711,2.4003906-6.0796204,4.392334-9.2105713,6.0479736
					c-6.2586975,3.3301392-12.7314148,5.3908691-19.357666,6.5409546
					c-6.6312256,1.1203003-13.4221497,1.2936401-20.4250793,0.2092285
					c-3.5001831-0.534668-7.0584717-1.4139404-10.6852112-2.6991577c-1.8182068-0.6713257-3.6445007-1.3907471-5.5041199-2.3077393
					c-1.8564148-0.8978882-3.7321472-1.9105835-5.6688232-3.2845459c1.3791504-1.9329224,2.8192444-3.5045776,4.278656-4.9614868
					c1.4562073-1.4760132,2.9457092-2.7544556,4.4433289-3.9847412c3.0049133-2.4031982,6.0782776-4.4004517,9.2097168-6.0531616
					c6.2603455-3.3203735,12.7327271-5.3829956,19.3647766-6.4987183
					c6.6370544-1.0858765,13.4276123-1.2611084,20.4321899-0.1669922c3.5007019,0.5376587,7.0581055,1.4116211,10.6843567,2.6940918
					c1.8172302,0.6655884,3.6430664,1.3820801,5.501709,2.2932739
					C389.0381775,594.3446045,390.9126282,595.3496094,392.8475647,596.7133179z"/>
			</g>
			<g>
				<path class="st14" d="M375.1698914,560.4680786c-0.2468567,2.3344116-0.721344,4.3851318-1.2668457,6.347229
					c-0.5339966,1.9765015-1.1915588,3.7989502-1.8814087,5.5811768c-1.4107056,3.5258179-3.0805969,6.7285156-4.9639282,9.6652222
					c-3.7546692,5.8882446-8.3149414,10.7723999-13.453064,14.9362183
					c-5.1570129,4.1402588-10.9150085,7.5314331-17.4711304,9.9277344
					c-3.2733154,1.2041016-6.7652588,2.1356201-10.5148621,2.7460327c-1.8930054,0.2824707-3.8165588,0.5269165-5.865448,0.6151123
					c-2.0368042,0.1032715-4.1464539,0.1157227-6.4853516-0.1575928c0.2403564-2.3425293,0.7099609-4.399231,1.2524109-6.3651733
					c0.5303345-1.9810791,1.1860657-3.8058472,1.8722839-5.5925903c1.4089355-3.5280151,3.07547-6.7348633,4.9606628-9.6692505
					c3.7608643-5.8805542,8.3199158-10.7662354,13.4798889-14.902832
					c5.1788635-4.1129761,10.9356384-7.5057373,17.4979553-9.8942871c3.275177-1.2017822,6.7637634-2.1374512,10.5115967-2.7501221
					c1.8893738-0.2869873,3.8110657-0.5337524,5.8562927-0.6264648
					C370.7326965,560.2214355,372.8374939,560.2028809,375.1698914,560.4680786z"/>
			</g>
			<g>
				<path class="st15" d="M340.9056091,537.52948c0.9815674,2.1054077,1.6231995,4.0813599,2.1587524,6.0169067
					c0.5527039,1.9420776,0.9208984,3.8139648,1.2408447,5.6674194c0.5936584,3.6893921,0.8001709,7.2313843,0.6879578,10.6520386
					c-0.2065735,6.8480835-1.6162415,13.2382202-3.8889465,19.2998047
					c-2.3009644,6.0507812-5.4993896,11.7599487-9.8898926,17.0153198
					c-2.1881409,2.6303711-4.7028198,5.1364136-7.6022644,7.4960327c-1.4769287,1.1694336-2.9994507,2.3215332-4.709198,3.4023438
					c-1.6917114,1.0876465-3.4921265,2.1339722-5.6350098,3.0498657c-0.9913025-2.1090698-1.6401672-4.0877686-2.1802673-6.0250854
					c-0.558197-1.9441528-0.9291687-3.8170776-1.2545166-5.6726074c-0.596283-3.6903687-0.8078308-7.234314-0.6928101-10.6538696
					c0.2157898-6.8446045,1.6236267-13.2354126,3.9289856-19.2845459c2.3335876-6.0383911,5.5302124-11.74823,9.9299316-17.000061
					c2.190918-2.6293335,4.700592-5.1373291,7.5973816-7.4979248c1.4715271-1.1715088,2.9913025-2.324646,4.6955566-3.4075317
					C336.979248,539.4981689,338.7724304,538.4490967,340.9056091,537.52948z"/>
			</g>
		</g>
		<ellipse class="st4" cx="313.3660889" cy="610.1372681" rx="15.9925575" ry="15.2903051"/>
	</g>
</g>
<g id="Pots">
	<g>
		<g>
			<path class="st16" d="M154.2132874,1081.5501709c-7.203125-4.1923828-14.1469727-9.0136719-20.6391602-14.3330078
				c-36.6840897-30.0683594-57.7241287-74.4873047-57.7241287-121.8671875
				c0-46.9804688,20.7456055-91.1503906,56.9165115-121.2001953h201.1669922
				c36.1708984,30.0498047,56.9165039,74.2197266,56.9165039,121.2001953
				c0,47.3798828-21.0400391,91.7988281-57.7241211,121.8671875c-6.4921875,5.3193359-13.4360352,10.140625-20.6391602,14.3330078
				H154.2132874z"/>
			<g>
				<path class="st16" d="M333.8252869,824.4499512c36.0529175,29.9906616,56.7247314,74.0435181,56.7247314,120.9000244
					c0,47.2890015-20.9996338,91.6236572-57.6142273,121.6358643c-6.4585876,5.2907715-13.3651733,10.0894775-20.5296631,14.2641602
					H154.293869c-7.1644287-4.1746826-14.0709991-8.9733887-20.5294952-14.2640381
					c-36.6147537-30.0123291-57.6143723-74.3469849-57.6143723-121.6359863
					c0-46.8564453,20.6717987-90.9093628,56.7247238-120.9000244H333.8252869 M334.0419922,823.8499756H132.6580048
					c-34.890007,28.9439697-57.1080093,72.6239624-57.1080093,121.5c0,49.2119751,22.5299988,93.1619873,57.8340073,122.0999756
					c6.5040436,5.3280029,13.4400482,10.1519775,20.7480011,14.4000244h158.4359894
					c7.3080139-4.2480469,14.2440186-9.0720215,20.7480164-14.4000244
					c35.3039856-28.9379883,57.8339844-72.8880005,57.8339844-122.0999756
					C391.1499939,896.473938,368.9320374,852.7939453,334.0419922,823.8499756L334.0419922,823.8499756z"/>
			</g>
		</g>
		<g class="st17">
			<path d="M259.7499084,1081.5501709V824.1497803h74.1835938c36.1708984,30.0498047,56.9165039,74.2197266,56.9165039,121.2001953
				c0,47.3798828-21.0400391,91.7988281-57.7241211,121.8671875c-6.4921875,5.3193359-13.4360352,10.140625-20.6391602,14.3330078
				H259.7499084z"/>
			<path d="M333.8252869,824.4499512c36.052887,29.9906616,56.7247009,74.0435791,56.7247009,120.9000244
				c0,47.2890015-20.9996033,91.6236572-57.6141968,121.6358643c-6.4586182,5.2907715-13.3652344,10.0894775-20.5296631,14.2641602
				h-52.3561096V824.4499512H333.8252869 M334.0420227,823.8499756h-74.5920105v258h53.1180115
				c7.3079834-4.2480469,14.243988-9.0720215,20.7479858-14.4000244
				c35.3040161-28.9379883,57.8339844-72.8880005,57.8339844-122.0999756
				C391.1499939,896.473938,368.9320374,852.7939453,334.0420227,823.8499756L334.0420227,823.8499756z"/>
		</g>
	</g>
	<g id="Pot_6_">
		<g>
			<path class="st16" d="M1701.9671631,1081.0999756c-2.7792969-3.0097656-5.4462891-6.4472656-7.9296875-10.2226562
				c-14.5205078-21.9804688-22.8476562-54.484375-22.8476562-89.1777344c0-34.25,8.1337891-66.4404297,22.3271484-88.4091797
				h79.1660156c14.2001953,21.9931641,22.3369141,54.1845703,22.3369141,88.4091797
				c0,34.6689453-8.3310547,67.171875-22.8564453,89.1767578c-2.4697266,3.7539062-5.1396484,7.1923828-7.9404297,10.2236328
				H1701.9671631z"/>
			<g>
				<path class="st16" d="M1772.2729492,894.039978c13.9873047,21.8666382,21.9969482,53.7539673,21.9969482,87.6599731
					c0,34.5245361-8.2854004,66.8776855-22.7329102,88.7653809c-2.3839111,3.6220703-4.9532471,6.944458-7.6434326,9.8846436
					h-61.5970459c-2.6696777-2.9188232-5.2354736-6.2412109-7.6348877-9.8868408
					c-14.4398193-21.8604736-22.7215576-54.2133789-22.7215576-88.7631836c0-33.9312744,8.0057373-65.8183594,21.9865723-87.6599731
					H1772.2729492 M1773.0899658,892.539978h-79.9799805c-13.8500977,21.2399902-22.6699219,53.289978-22.6699219,89.1599731
					c0,36.1000366,8.9399414,68.3499756,22.9699707,89.5899658c2.5799561,3.9200439,5.3199463,7.4400635,8.2299805,10.5600586
					h62.9099121c2.9100342-3.1199951,5.6600342-6.6400146,8.2399902-10.5600586
					c14.0200195-21.2399902,22.9799805-53.4899292,22.9799805-89.5899658
					C1795.7698975,945.8299561,1786.9300537,913.7799683,1773.0899658,892.539978L1773.0899658,892.539978z"/>
			</g>
		</g>
		<path class="st18" d="M1794.7698975,981.6999512c0,36.1000366-8.9599609,68.3499756-22.9799805,89.5899658
			c-2.5799561,3.9200439-4.3299561,7.4400635-7.2399902,10.5600586h-22.6999512V893.539978h31.2399902
			C1786.9300537,914.7799683,1794.7698975,945.8299561,1794.7698975,981.6999512z"/>
	</g>
	<g id="Pot_2_">
		<g>
			<path class="st16" d="M1538.0233154,1081.6224365c-3.3212891,0-6.2944336-1.0927734-7.7592773-2.8535156
				c-0.6953125-0.8359375-0.9726562-1.7636719-0.8027344-2.6845703l8.8017578-47.5214844
				c0.4711914-2.5571289,4.1523438-4.4858398,8.5625-4.4858398h56.7421875c4.3623047,0,8.125,1.9838867,8.5664062,4.5161133
				l8.3105469,47.5195312c0.1611328,0.9179688-0.1230469,1.8427734-0.8222656,2.6748047
				c-1.4697266,1.7490234-4.4375,2.8349609-7.7451172,2.8349609H1538.0233154z"/>
			<path class="st16" d="M1603.5673828,1024.4645996c4.1794434,0,7.7751465,1.8427734,8.1860352,4.1954346l8.3099365,47.5201416
				c0.142334,0.8128662-0.1055908,1.6060791-0.7369385,2.3575439c-1.3768311,1.6387939-4.3007812,2.6976318-7.4490967,2.6976318
				h-73.8538818c-3.1604004,0-6.0892334-1.0654297-7.4615479-2.7144775
				c-0.6281738-0.7548828-0.8703613-1.5509033-0.7198486-2.3656006l8.802124-47.5224609
				c0.4307861-2.3372803,4.0244141-4.1682129,8.1812744-4.1682129H1603.5673828 M1603.5673828,1023.6900024h-56.7419434
				c-4.5870361,0-8.4390869,2.0681763-8.9429932,4.8024292l-8.802124,47.5217285
				c-0.5909424,3.1986084,3.5820312,5.9958496,8.9431152,5.9958496h73.8538818c5.3430176,0,9.5070801-2.7756348,8.9490967-5.9633789
				l-8.3100586-47.5200195C1612.036377,1025.7779541,1608.1723633,1023.6900024,1603.5673828,1023.6900024
				L1603.5673828,1023.6900024z"/>
		</g>
		<g class="st17">
			<path class="st19" d="M1586.4075928,1081.6224365v-57.5454102h17.1601562c4.3623047,0,8.125,1.9838867,8.5664062,4.5161133
				l8.3105469,47.5195312c0.1611328,0.9179688-0.1230469,1.8427734-0.8222656,2.6748047
				c-1.4697266,1.7490234-4.4375,2.8349609-7.7451172,2.8349609H1586.4075928z"/>
			<path class="st19" d="M1603.5673828,1024.4645996c4.1794434,0,7.7751465,1.8427734,8.1860352,4.1954346l8.3099365,47.5201416
				c0.142334,0.8128662-0.1055908,1.6060791-0.7369385,2.3575439c-1.3768311,1.6387939-4.3007812,2.6976318-7.4490967,2.6976318
				h-25.0822754v-56.770752H1603.5673828 M1603.5673828,1023.6900024h-17.5469971v58.3200073h25.8569336
				c5.3430176,0,9.5070801-2.7756348,8.9490967-5.9633789l-8.3100586-47.5200195
				C1612.036377,1025.7779541,1608.1723633,1023.6900024,1603.5673828,1023.6900024L1603.5673828,1023.6900024z"/>
		</g>
	</g>
</g>
</svg>
