<?xml version="1.0" standalone="no"?>
<!DOCTYPE svg PUBLIC "-//W3C//DTD SVG 20010904//EN"
 "http://www.w3.org/TR/2001/REC-SVG-20010904/DTD/svg10.dtd">
<svg version="1.0" xmlns="http://www.w3.org/2000/svg"
 width="700.000000pt" height="700.000000pt" viewBox="0 0 700.000000 700.000000"
 preserveAspectRatio="xMidYMid meet">
<metadata>
Created by potrace 1.11, written by Peter Selinger 2001-2013
</metadata>
<g transform="translate(0.000000,700.000000) scale(0.100000,-0.100000)"
fill="#000000" stroke="none">
<path d="M2828 6762 c-100 -118 -255 -488 -302 -717 -24 -117 -25 -126 -31
-170 -3 -22 -8 -56 -10 -75 -3 -19 -8 -87 -11 -150 -4 -63 -8 -117 -10 -119
-3 -3 -111 75 -124 90 -9 10 -161 105 -235 146 -160 89 -409 190 -564 229
-163 40 -328 65 -339 50 -12 -17 -2 -298 13 -356 2 -8 7 -40 10 -70 11 -90 42
-213 96 -373 58 -173 70 -203 144 -349 34 -67 50 -108 42 -108 -8 0 -38 4 -68
9 -158 28 -508 31 -649 7 -14 -3 -80 -14 -147 -25 -132 -23 -307 -73 -415
-119 l-66 -28 37 -69 c35 -67 69 -124 81 -135 3 -3 25 -34 50 -70 57 -83 73
-101 200 -233 127 -132 252 -238 411 -348 65 -46 116 -86 111 -89 -4 -4 -29
-15 -57 -25 -46 -17 -149 -64 -185 -85 -8 -4 -64 -36 -125 -71 -251 -143 -489
-343 -638 -536 l-48 -63 56 -36 c140 -89 549 -253 697 -279 17 -3 34 -8 38
-10 4 -2 35 -9 71 -15 35 -5 75 -12 89 -14 66 -12 212 -27 277 -29 40 -1 73
-5 73 -9 0 -3 -11 -19 -24 -35 -102 -122 -266 -392 -327 -538 -4 -11 -20 -47
-34 -80 -25 -55 -82 -218 -90 -255 -1 -8 -8 -35 -15 -58 -17 -65 -40 -204 -35
-212 6 -10 338 -10 400 0 28 4 73 11 100 14 28 4 70 12 95 17 25 6 56 13 70
15 58 10 310 88 375 116 120 51 138 59 219 99 l78 39 -7 -46 c-3 -25 -8 -56
-11 -67 -14 -74 -20 -356 -10 -486 6 -90 18 -165 40 -276 23 -114 73 -282 117
-392 l13 -31 70 38 c145 77 173 94 278 171 148 108 148 108 288 249 142 141
210 224 299 360 l61 94 17 -45 c61 -158 198 -392 336 -574 76 -100 278 -305
376 -379 40 -31 76 -56 80 -56 9 1 102 160 152 260 76 154 167 432 184 567 2
13 6 40 9 60 15 90 29 240 29 314 l1 57 75 -57 c168 -126 354 -231 531 -301
30 -12 69 -28 85 -35 70 -31 277 -89 385 -109 14 -2 41 -7 60 -10 19 -4 57 -8
83 -11 l48 -4 -5 152 c-3 84 -8 163 -10 176 -3 13 -8 49 -11 80 -4 31 -13 85
-22 121 -8 36 -17 76 -19 90 -7 36 -101 314 -131 385 -36 87 -105 225 -115
231 -32 20 39 26 102 9 56 -15 367 -23 505 -12 92 8 117 11 215 27 30 5 71 12
90 15 83 14 333 87 355 105 6 4 27 13 48 20 l38 12 -37 66 c-60 107 -136 221
-201 302 -65 80 -261 275 -353 351 -68 57 -299 219 -311 219 -25 0 -3 17 44
34 74 26 267 123 378 191 147 90 314 220 430 335 89 89 199 218 199 233 0 15
-188 114 -365 192 -144 64 -411 141 -555 161 -19 2 -46 7 -60 9 -14 3 -52 8
-85 11 -33 3 -69 8 -80 9 -11 2 -49 4 -84 4 l-63 1 34 43 c124 151 270 404
357 615 70 170 136 413 136 497 0 28 -2 29 -45 32 -68 4 -241 2 -280 -2 -19
-3 -60 -7 -90 -10 -132 -14 -270 -44 -429 -92 -143 -43 -216 -71 -351 -136
-58 -28 -113 -54 -123 -59 -16 -7 -17 -4 -12 30 3 21 8 49 10 62 9 43 19 221
19 325 -1 209 -28 398 -89 623 -26 96 -71 220 -86 236 -5 5 -35 -4 -72 -21
-154 -74 -402 -256 -546 -402 -164 -165 -200 -209 -311 -372 l-69 -102 -18 44
c-25 64 -129 275 -151 307 -11 15 -46 67 -78 117 -146 221 -382 472 -535 568
-25 15 -28 15 -41 -1z"/>
</g>
</svg>
